<?xml version="1.0" encoding="us-ascii" standalone="no"?><svg xmlns="http://www.w3.org/2000/svg" xmlns:xlink="http://www.w3.org/1999/xlink" contentStyleType="text/css" height="235px" preserveAspectRatio="none" style="width:401px;height:235px;background:#FFFFFF;" version="1.1" viewBox="0 0 401 235" width="401px" zoomAndPan="magnify"><defs/><g><!--class BossPuppeteerHackCompletion--><g id="elem_BossPuppeteerHackCompletion"><rect codeLine="1" fill="#F1F1F1" height="113.1875" id="BossPuppeteerHackCompletion" rx="2.5" ry="2.5" style="stroke:#181818;stroke-width:0.5;" width="387" x="7" y="115"/><ellipse cx="96.25" cy="131" fill="#ADD1B2" rx="11" ry="11" style="stroke:#181818;stroke-width:1.0;"/><path d="M96.1875,126.8281 Q95.4375,126.8281 94.875,127.125 Q94.3125,127.4063 93.9219,127.9375 Q93.5313,128.4688 93.3281,129.25 Q93.1406,130.0156 93.1406,130.9688 Q93.1406,131.9375 93.3125,132.7031 Q93.5,133.4531 93.8594,133.9688 Q94.2344,134.4844 94.8125,134.7656 Q95.3906,135.0313 96.1875,135.0313 Q96.9219,135.0313 97.6563,134.8594 Q98.4063,134.6875 99.2813,134.3906 L99.2813,136.5469 Q98.875,136.7031 98.4844,136.8281 Q98.0938,136.9375 97.6875,137.0156 Q97.2813,137.0938 96.8594,137.125 Q96.4375,137.1719 95.9375,137.1719 Q94.5313,137.1719 93.5,136.7188 Q92.4844,136.2656 91.8125,135.4531 Q91.1406,134.6406 90.8125,133.5 Q90.4844,132.3438 90.4844,130.9531 Q90.4844,129.5781 90.8594,128.4219 Q91.2344,127.2656 91.9531,126.4375 Q92.6719,125.6094 93.7344,125.1563 Q94.7969,124.6875 96.1875,124.6875 Q97.0938,124.6875 98,124.9219 Q98.9063,125.1406 99.7344,125.5469 L98.9063,127.6406 Q98.2188,127.3125 97.5313,127.0781 Q96.8438,126.8281 96.1875,126.8281 Z " fill="#000000"/><text fill="#000000" font-family="sans-serif" font-size="14" lengthAdjust="spacing" textLength="200" x="116.75" y="135.8467">BossPuppeteerHackCompletion</text><line style="stroke:#181818;stroke-width:0.5;" x1="8" x2="393" y1="147" y2="147"/><line style="stroke:#181818;stroke-width:0.5;" x1="8" x2="393" y1="155" y2="155"/><ellipse cx="18" cy="168.6484" fill="#84BE84" rx="3" ry="3" style="stroke:#038048;stroke-width:1.0;"/><text fill="#000000" font-family="sans-serif" font-size="14" lengthAdjust="spacing" textLength="215" x="27" y="171.9951">&#171;override&#187; OnHackSuccess() : void</text><ellipse cx="18" cy="184.9453" fill="#84BE84" rx="3" ry="3" style="stroke:#038048;stroke-width:1.0;"/><text fill="#000000" font-family="sans-serif" font-size="14" lengthAdjust="spacing" textLength="190" x="27" y="188.292">&#171;override&#187; OnHackFail() : void</text><ellipse cx="18" cy="201.2422" fill="#84BE84" rx="3" ry="3" style="stroke:#038048;stroke-width:1.0;"/><text fill="#000000" font-family="sans-serif" font-size="14" lengthAdjust="spacing" textLength="361" x="27" y="204.5889">&#171;override&#187; OnComboHackSuccess(comboCount:int) : void</text><ellipse cx="18" cy="217.5391" fill="#84BE84" rx="3" ry="3" style="stroke:#038048;stroke-width:1.0;"/><text fill="#000000" font-family="sans-serif" font-size="14" lengthAdjust="spacing" textLength="336" x="27" y="220.8857">&#171;override&#187; OnComboHackFail(comboCount:int) : void</text></g><!--class HackCompletion--><g id="elem_HackCompletion"><rect fill="#F1F1F1" height="48" id="HackCompletion" rx="2.5" ry="2.5" style="stroke:#181818;stroke-width:0.5;" width="136" x="132.5" y="7"/><ellipse cx="147.5" cy="23" fill="#ADD1B2" rx="11" ry="11" style="stroke:#181818;stroke-width:1.0;"/><path d="M147.4375,18.8281 Q146.6875,18.8281 146.125,19.125 Q145.5625,19.4063 145.1719,19.9375 Q144.7813,20.4688 144.5781,21.25 Q144.3906,22.0156 144.3906,22.9688 Q144.3906,23.9375 144.5625,24.7031 Q144.75,25.4531 145.1094,25.9688 Q145.4844,26.4844 146.0625,26.7656 Q146.6406,27.0313 147.4375,27.0313 Q148.1719,27.0313 148.9063,26.8594 Q149.6563,26.6875 150.5313,26.3906 L150.5313,28.5469 Q150.125,28.7031 149.7344,28.8281 Q149.3438,28.9375 148.9375,29.0156 Q148.5313,29.0938 148.1094,29.125 Q147.6875,29.1719 147.1875,29.1719 Q145.7813,29.1719 144.75,28.7188 Q143.7344,28.2656 143.0625,27.4531 Q142.3906,26.6406 142.0625,25.5 Q141.7344,24.3438 141.7344,22.9531 Q141.7344,21.5781 142.1094,20.4219 Q142.4844,19.2656 143.2031,18.4375 Q143.9219,17.6094 144.9844,17.1563 Q146.0469,16.6875 147.4375,16.6875 Q148.3438,16.6875 149.25,16.9219 Q150.1563,17.1406 150.9844,17.5469 L150.1563,19.6406 Q149.4688,19.3125 148.7813,19.0781 Q148.0938,18.8281 147.4375,18.8281 Z " fill="#000000"/><text fill="#000000" font-family="sans-serif" font-size="14" lengthAdjust="spacing" textLength="104" x="161.5" y="27.8467">HackCompletion</text><line style="stroke:#181818;stroke-width:0.5;" x1="133.5" x2="267.5" y1="39" y2="39"/><line style="stroke:#181818;stroke-width:0.5;" x1="133.5" x2="267.5" y1="47" y2="47"/></g><!--reverse link HackCompletion to BossPuppeteerHackCompletion--><g id="link_HackCompletion_BossPuppeteerHackCompletion"><path codeLine="7" d="M200.5,75.3 C200.5,87.85 200.5,101.74 200.5,114.94 " fill="none" id="HackCompletion-backto-BossPuppeteerHackCompletion" style="stroke:#181818;stroke-width:1.0;"/><polygon fill="none" points="193.5,75.18,200.5,55.18,207.5,75.18,193.5,75.18" style="stroke:#181818;stroke-width:1.0;"/></g><!--SRC=[Iyv9B2vMSCelBWueBIX8BKbDBV98JCvspiyjo4ajoSpFKwZcKW02RGKRc_oorAAYp9HKEpi5_poGgk3IvEJKuc8DJGKhXRByp1JSAjqICtC8A0DQcPIFR6eoIC0vlpIln2ephuH8pM2BSEYivKBpcasDhYu-lmC0]--></g></svg>