<?xml version="1.0" encoding="us-ascii" standalone="no"?><svg xmlns="http://www.w3.org/2000/svg" xmlns:xlink="http://www.w3.org/1999/xlink" contentStyleType="text/css" height="392px" preserveAspectRatio="none" style="width:309px;height:392px;background:#FFFFFF;" version="1.1" viewBox="0 0 309 392" width="309px" zoomAndPan="magnify"><defs/><g><!--class BossPuppeteerController--><g id="elem_BossPuppeteerController"><rect codeLine="1" fill="#F1F1F1" height="96.8906" id="BossPuppeteerController" rx="2.5" ry="2.5" style="stroke:#181818;stroke-width:0.5;" width="295" x="7" y="115"/><ellipse cx="69.75" cy="131" fill="#ADD1B2" rx="11" ry="11" style="stroke:#181818;stroke-width:1.0;"/><path d="M69.6875,126.8281 Q68.9375,126.8281 68.375,127.125 Q67.8125,127.4063 67.4219,127.9375 Q67.0313,128.4688 66.8281,129.25 Q66.6406,130.0156 66.6406,130.9688 Q66.6406,131.9375 66.8125,132.7031 Q67,133.4531 67.3594,133.9688 Q67.7344,134.4844 68.3125,134.7656 Q68.8906,135.0313 69.6875,135.0313 Q70.4219,135.0313 71.1563,134.8594 Q71.9063,134.6875 72.7813,134.3906 L72.7813,136.5469 Q72.375,136.7031 71.9844,136.8281 Q71.5938,136.9375 71.1875,137.0156 Q70.7813,137.0938 70.3594,137.125 Q69.9375,137.1719 69.4375,137.1719 Q68.0313,137.1719 67,136.7188 Q65.9844,136.2656 65.3125,135.4531 Q64.6406,134.6406 64.3125,133.5 Q63.9844,132.3438 63.9844,130.9531 Q63.9844,129.5781 64.3594,128.4219 Q64.7344,127.2656 65.4531,126.4375 Q66.1719,125.6094 67.2344,125.1563 Q68.2969,124.6875 69.6875,124.6875 Q70.5938,124.6875 71.5,124.9219 Q72.4063,125.1406 73.2344,125.5469 L72.4063,127.6406 Q71.7188,127.3125 71.0313,127.0781 Q70.3438,126.8281 69.6875,126.8281 Z " fill="#000000"/><text fill="#000000" font-family="sans-serif" font-size="14" lengthAdjust="spacing" textLength="161" x="90.25" y="135.8467">BossPuppeteerController</text><line style="stroke:#181818;stroke-width:0.5;" x1="8" x2="301" y1="147" y2="147"/><line style="stroke:#181818;stroke-width:0.5;" x1="8" x2="301" y1="155" y2="155"/><ellipse cx="18" cy="168.6484" fill="#84BE84" rx="3" ry="3" style="stroke:#038048;stroke-width:1.0;"/><text fill="#000000" font-family="sans-serif" font-size="14" lengthAdjust="spacing" textLength="269" x="27" y="171.9951">&#171;override&#187; GetAttackDirection() : Vector2?</text><ellipse cx="18" cy="184.9453" fill="#84BE84" rx="3" ry="3" style="stroke:#038048;stroke-width:1.0;"/><text fill="#000000" font-family="sans-serif" font-size="14" lengthAdjust="spacing" textLength="225" x="27" y="188.292">&#171;override&#187; IsReloadPressed() : bool</text><ellipse cx="18" cy="201.2422" fill="#84BE84" rx="3" ry="3" style="stroke:#038048;stroke-width:1.0;"/><text fill="#000000" font-family="sans-serif" font-size="14" lengthAdjust="spacing" textLength="215" x="27" y="204.5889">&#171;override&#187; IsJumpPressed() : bool</text></g><!--class BossPhase--><g id="elem_BossPhase"><rect codeLine="6" fill="#F1F1F1" height="113.1875" id="BossPhase" rx="2.5" ry="2.5" style="stroke:#181818;stroke-width:0.5;" width="98" x="40.5" y="272"/><ellipse cx="55.5" cy="288" fill="#EB937F" rx="11" ry="11" style="stroke:#181818;stroke-width:1.0;"/><path d="M58.5156,294 L51.5313,294 L51.5313,281.8594 L58.5156,281.8594 L58.5156,283.9688 L54.0938,283.9688 L54.0938,286.6406 L58.2031,286.6406 L58.2031,288.75 L54.0938,288.75 L54.0938,291.875 L58.5156,291.875 L58.5156,294 Z " fill="#000000"/><text fill="#000000" font-family="sans-serif" font-size="14" lengthAdjust="spacing" textLength="66" x="69.5" y="292.8467">BossPhase</text><line style="stroke:#181818;stroke-width:0.5;" x1="41.5" x2="137.5" y1="304" y2="304"/><text fill="#000000" font-family="sans-serif" font-size="14" lengthAdjust="spacing" textLength="59" x="46.5" y="320.9951">PHASE_1,</text><text fill="#000000" font-family="sans-serif" font-size="14" lengthAdjust="spacing" textLength="59" x="46.5" y="337.292">PHASE_2,</text><text fill="#000000" font-family="sans-serif" font-size="14" lengthAdjust="spacing" textLength="59" x="46.5" y="353.5889">PHASE_3,</text><text fill="#000000" font-family="sans-serif" font-size="14" lengthAdjust="spacing" textLength="59" x="46.5" y="369.8857">PHASE_4,</text><line style="stroke:#181818;stroke-width:0.5;" x1="41.5" x2="137.5" y1="377.1875" y2="377.1875"/></g><!--class State--><g id="elem_State"><rect codeLine="12" fill="#F1F1F1" height="113.1875" id="State" rx="2.5" ry="2.5" style="stroke:#181818;stroke-width:0.5;" width="92" x="173.5" y="272"/><ellipse cx="201.1" cy="288" fill="#EB937F" rx="11" ry="11" style="stroke:#181818;stroke-width:1.0;"/><path d="M204.1156,294 L197.1313,294 L197.1313,281.8594 L204.1156,281.8594 L204.1156,283.9688 L199.6938,283.9688 L199.6938,286.6406 L203.8031,286.6406 L203.8031,288.75 L199.6938,288.75 L199.6938,291.875 L204.1156,291.875 L204.1156,294 Z " fill="#000000"/><text fill="#000000" font-family="sans-serif" font-size="14" lengthAdjust="spacing" textLength="32" x="217.9" y="292.8467">State</text><line style="stroke:#181818;stroke-width:0.5;" x1="174.5" x2="264.5" y1="304" y2="304"/><text fill="#000000" font-family="sans-serif" font-size="14" lengthAdjust="spacing" textLength="47" x="179.5" y="320.9951">INITAL,</text><text fill="#000000" font-family="sans-serif" font-size="14" lengthAdjust="spacing" textLength="33" x="179.5" y="337.292">IDLE,</text><text fill="#000000" font-family="sans-serif" font-size="14" lengthAdjust="spacing" textLength="73" x="179.5" y="353.5889">SHOOTING,</text><text fill="#000000" font-family="sans-serif" font-size="14" lengthAdjust="spacing" textLength="80" x="179.5" y="369.8857">RELOADING,</text><line style="stroke:#181818;stroke-width:0.5;" x1="174.5" x2="264.5" y1="377.1875" y2="377.1875"/></g><!--class AIController--><g id="elem_AIController"><rect fill="#F1F1F1" height="48" id="AIController" rx="2.5" ry="2.5" style="stroke:#181818;stroke-width:0.5;" width="111" x="21" y="7"/><ellipse cx="36" cy="23" fill="#ADD1B2" rx="11" ry="11" style="stroke:#181818;stroke-width:1.0;"/><path d="M35.9375,18.8281 Q35.1875,18.8281 34.625,19.125 Q34.0625,19.4063 33.6719,19.9375 Q33.2813,20.4688 33.0781,21.25 Q32.8906,22.0156 32.8906,22.9688 Q32.8906,23.9375 33.0625,24.7031 Q33.25,25.4531 33.6094,25.9688 Q33.9844,26.4844 34.5625,26.7656 Q35.1406,27.0313 35.9375,27.0313 Q36.6719,27.0313 37.4063,26.8594 Q38.1563,26.6875 39.0313,26.3906 L39.0313,28.5469 Q38.625,28.7031 38.2344,28.8281 Q37.8438,28.9375 37.4375,29.0156 Q37.0313,29.0938 36.6094,29.125 Q36.1875,29.1719 35.6875,29.1719 Q34.2813,29.1719 33.25,28.7188 Q32.2344,28.2656 31.5625,27.4531 Q30.8906,26.6406 30.5625,25.5 Q30.2344,24.3438 30.2344,22.9531 Q30.2344,21.5781 30.6094,20.4219 Q30.9844,19.2656 31.7031,18.4375 Q32.4219,17.6094 33.4844,17.1563 Q34.5469,16.6875 35.9375,16.6875 Q36.8438,16.6875 37.75,16.9219 Q38.6563,17.1406 39.4844,17.5469 L38.6563,19.6406 Q37.9688,19.3125 37.2813,19.0781 Q36.5938,18.8281 35.9375,18.8281 Z " fill="#000000"/><text fill="#000000" font-family="sans-serif" font-size="14" lengthAdjust="spacing" textLength="79" x="50" y="27.8467">AIController</text><line style="stroke:#181818;stroke-width:0.5;" x1="22" x2="131" y1="39" y2="39"/><line style="stroke:#181818;stroke-width:0.5;" x1="22" x2="131" y1="47" y2="47"/></g><!--class InputController--><g id="elem_InputController"><rect fill="#F1F1F1" height="48" id="InputController" rx="2.5" ry="2.5" style="stroke:#181818;stroke-width:0.5;" width="131" x="167" y="7"/><ellipse cx="182" cy="23" fill="#ADD1B2" rx="11" ry="11" style="stroke:#181818;stroke-width:1.0;"/><path d="M181.9375,18.8281 Q181.1875,18.8281 180.625,19.125 Q180.0625,19.4063 179.6719,19.9375 Q179.2813,20.4688 179.0781,21.25 Q178.8906,22.0156 178.8906,22.9688 Q178.8906,23.9375 179.0625,24.7031 Q179.25,25.4531 179.6094,25.9688 Q179.9844,26.4844 180.5625,26.7656 Q181.1406,27.0313 181.9375,27.0313 Q182.6719,27.0313 183.4063,26.8594 Q184.1563,26.6875 185.0313,26.3906 L185.0313,28.5469 Q184.625,28.7031 184.2344,28.8281 Q183.8438,28.9375 183.4375,29.0156 Q183.0313,29.0938 182.6094,29.125 Q182.1875,29.1719 181.6875,29.1719 Q180.2813,29.1719 179.25,28.7188 Q178.2344,28.2656 177.5625,27.4531 Q176.8906,26.6406 176.5625,25.5 Q176.2344,24.3438 176.2344,22.9531 Q176.2344,21.5781 176.6094,20.4219 Q176.9844,19.2656 177.7031,18.4375 Q178.4219,17.6094 179.4844,17.1563 Q180.5469,16.6875 181.9375,16.6875 Q182.8438,16.6875 183.75,16.9219 Q184.6563,17.1406 185.4844,17.5469 L184.6563,19.6406 Q183.9688,19.3125 183.2813,19.0781 Q182.5938,18.8281 181.9375,18.8281 Z " fill="#000000"/><text fill="#000000" font-family="sans-serif" font-size="14" lengthAdjust="spacing" textLength="99" x="196" y="27.8467">InputController</text><line style="stroke:#181818;stroke-width:0.5;" x1="168" x2="297" y1="39" y2="39"/><line style="stroke:#181818;stroke-width:0.5;" x1="168" x2="297" y1="47" y2="47"/></g><!--reverse link AIController to BossPuppeteerController--><g id="link_AIController_BossPuppeteerController"><path codeLine="18" d="M100.76,72.58 C108.76,85.97 117.73,100.98 126.02,114.84 " fill="none" id="AIController-backto-BossPuppeteerController" style="stroke:#181818;stroke-width:1.0;"/><polygon fill="none" points="94.52,75.79,90.27,55.03,106.53,68.61,94.52,75.79" style="stroke:#181818;stroke-width:1.0;"/></g><!--reverse link InputController to BossPuppeteerController--><g id="link_InputController_BossPuppeteerController"><path codeLine="19" d="M208.24,72.58 C200.24,85.97 191.27,100.98 182.98,114.84 " fill="none" id="InputController-backto-BossPuppeteerController" style="stroke:#181818;stroke-width:1.0;"/><polygon fill="none" points="202.47,68.61,218.73,55.03,214.48,75.79,202.47,68.61" style="stroke:#181818;stroke-width:1.0;"/></g><!--reverse link BossPuppeteerController to BossPhase--><g id="link_BossPuppeteerController_BossPhase"><path codeLine="20" d="M129.93,226.11 C123.95,241.12 117.58,257.09 111.71,271.8 " fill="none" id="BossPuppeteerController-backto-BossPhase" style="stroke:#181818;stroke-width:1.0;"/><ellipse cx="132.5554" cy="219.5104" fill="#FFFFFF" rx="8" ry="8" style="stroke:#181818;stroke-width:1.0;"/><line style="stroke:#181818;stroke-width:1.0;" x1="129.5909" x2="135.52" y1="226.9409" y2="212.08"/><line style="stroke:#181818;stroke-width:1.0;" x1="125.125" x2="139.9859" y1="216.5459" y2="222.475"/></g><!--reverse link BossPuppeteerController to State--><g id="link_BossPuppeteerController_State"><path codeLine="21" d="M179.07,226.11 C185.05,241.12 191.42,257.09 197.29,271.8 " fill="none" id="BossPuppeteerController-backto-State" style="stroke:#181818;stroke-width:1.0;"/><ellipse cx="176.4446" cy="219.5104" fill="#FFFFFF" rx="8" ry="8" style="stroke:#181818;stroke-width:1.0;"/><line style="stroke:#181818;stroke-width:1.0;" x1="179.4091" x2="173.48" y1="226.9409" y2="212.08"/><line style="stroke:#181818;stroke-width:1.0;" x1="169.0141" x2="183.875" y1="222.475" y2="216.5459"/></g><!--SRC=[ZP7D2e90483lFiKUY-gGTGefjfJQa9IChh7fGDBcoExOfNhtIXE4VcXEyy4tm_p4IXh3fcXCMEGv482UOKOQbGBDBXPxH8Sv3fv1wpI1yPZDWJYHZ8zkgY6c5BDMcutOzf6ZjYUVIeHPWqAPX1gCWQJqzuZgixiiJlcRURCWAqxLf0Tfu3LRkE2Hj-jt6s0tOT24ORTk4v6akeLOYGttAq-ulbTbqI88Dc8rhsZj-G5tIxnPN3HEv5nxlM_tiqIM5_Il_Eq9dRhckVPFgzpg3W00]--></g></svg>