<?xml version="1.0" encoding="us-ascii" standalone="no"?><svg xmlns="http://www.w3.org/2000/svg" xmlns:xlink="http://www.w3.org/1999/xlink" contentStyleType="text/css" height="408px" preserveAspectRatio="none" style="width:309px;height:408px;background:#FFFFFF;" version="1.1" viewBox="0 0 309 408" width="309px" zoomAndPan="magnify"><defs/><g><!--class BossPuppeteerTurretController--><g id="elem_BossPuppeteerTurretController"><rect codeLine="1" fill="#F1F1F1" height="113.1875" id="BossPuppeteerTurretController" rx="2.5" ry="2.5" style="stroke:#181818;stroke-width:0.5;" width="295" x="7" y="115"/><ellipse cx="49.9" cy="131" fill="#ADD1B2" rx="11" ry="11" style="stroke:#181818;stroke-width:1.0;"/><path d="M49.8375,126.8281 Q49.0875,126.8281 48.525,127.125 Q47.9625,127.4063 47.5719,127.9375 Q47.1813,128.4688 46.9781,129.25 Q46.7906,130.0156 46.7906,130.9688 Q46.7906,131.9375 46.9625,132.7031 Q47.15,133.4531 47.5094,133.9688 Q47.8844,134.4844 48.4625,134.7656 Q49.0406,135.0313 49.8375,135.0313 Q50.5719,135.0313 51.3063,134.8594 Q52.0563,134.6875 52.9313,134.3906 L52.9313,136.5469 Q52.525,136.7031 52.1344,136.8281 Q51.7438,136.9375 51.3375,137.0156 Q50.9313,137.0938 50.5094,137.125 Q50.0875,137.1719 49.5875,137.1719 Q48.1813,137.1719 47.15,136.7188 Q46.1344,136.2656 45.4625,135.4531 Q44.7906,134.6406 44.4625,133.5 Q44.1344,132.3438 44.1344,130.9531 Q44.1344,129.5781 44.5094,128.4219 Q44.8844,127.2656 45.6031,126.4375 Q46.3219,125.6094 47.3844,125.1563 Q48.4469,124.6875 49.8375,124.6875 Q50.7438,124.6875 51.65,124.9219 Q52.5563,125.1406 53.3844,125.5469 L52.5563,127.6406 Q51.8688,127.3125 51.1813,127.0781 Q50.4938,126.8281 49.8375,126.8281 Z " fill="#000000"/><text fill="#000000" font-family="sans-serif" font-size="14" lengthAdjust="spacing" textLength="201" x="70.1" y="135.8467">BossPuppeteerTurretController</text><line style="stroke:#181818;stroke-width:0.5;" x1="8" x2="301" y1="147" y2="147"/><line style="stroke:#181818;stroke-width:0.5;" x1="8" x2="301" y1="155" y2="155"/><ellipse cx="18" cy="168.6484" fill="#84BE84" rx="3" ry="3" style="stroke:#038048;stroke-width:1.0;"/><text fill="#000000" font-family="sans-serif" font-size="14" lengthAdjust="spacing" textLength="269" x="27" y="171.9951">&#171;override&#187; GetAttackDirection() : Vector2?</text><ellipse cx="18" cy="184.9453" fill="#84BE84" rx="3" ry="3" style="stroke:#038048;stroke-width:1.0;"/><text fill="#000000" font-family="sans-serif" font-size="14" lengthAdjust="spacing" textLength="225" x="27" y="188.292">&#171;override&#187; IsReloadPressed() : bool</text><ellipse cx="18" cy="201.2422" fill="#84BE84" rx="3" ry="3" style="stroke:#038048;stroke-width:1.0;"/><text fill="#000000" font-family="sans-serif" font-size="14" lengthAdjust="spacing" textLength="215" x="27" y="204.5889">&#171;override&#187; IsJumpPressed() : bool</text><ellipse cx="18" cy="217.5391" fill="#84BE84" rx="3" ry="3" style="stroke:#038048;stroke-width:1.0;"/><text fill="#000000" font-family="sans-serif" font-size="14" lengthAdjust="spacing" textLength="198" x="27" y="220.8857">SetGunAmmo(ammo:int) : void</text></g><!--class State--><g id="elem_State"><rect codeLine="7" fill="#F1F1F1" height="113.1875" id="State" rx="2.5" ry="2.5" style="stroke:#181818;stroke-width:0.5;" width="92" x="108.5" y="288"/><ellipse cx="136.1" cy="304" fill="#EB937F" rx="11" ry="11" style="stroke:#181818;stroke-width:1.0;"/><path d="M139.1156,310 L132.1313,310 L132.1313,297.8594 L139.1156,297.8594 L139.1156,299.9688 L134.6938,299.9688 L134.6938,302.6406 L138.8031,302.6406 L138.8031,304.75 L134.6938,304.75 L134.6938,307.875 L139.1156,307.875 L139.1156,310 Z " fill="#000000"/><text fill="#000000" font-family="sans-serif" font-size="14" lengthAdjust="spacing" textLength="32" x="152.9" y="308.8467">State</text><line style="stroke:#181818;stroke-width:0.5;" x1="109.5" x2="199.5" y1="320" y2="320"/><text fill="#000000" font-family="sans-serif" font-size="14" lengthAdjust="spacing" textLength="47" x="114.5" y="336.9951">INITAL,</text><text fill="#000000" font-family="sans-serif" font-size="14" lengthAdjust="spacing" textLength="33" x="114.5" y="353.292">IDLE,</text><text fill="#000000" font-family="sans-serif" font-size="14" lengthAdjust="spacing" textLength="73" x="114.5" y="369.5889">SHOOTING,</text><text fill="#000000" font-family="sans-serif" font-size="14" lengthAdjust="spacing" textLength="80" x="114.5" y="385.8857">RELOADING,</text><line style="stroke:#181818;stroke-width:0.5;" x1="109.5" x2="199.5" y1="393.1875" y2="393.1875"/></g><!--class AIController--><g id="elem_AIController"><rect fill="#F1F1F1" height="48" id="AIController" rx="2.5" ry="2.5" style="stroke:#181818;stroke-width:0.5;" width="111" x="21" y="7"/><ellipse cx="36" cy="23" fill="#ADD1B2" rx="11" ry="11" style="stroke:#181818;stroke-width:1.0;"/><path d="M35.9375,18.8281 Q35.1875,18.8281 34.625,19.125 Q34.0625,19.4063 33.6719,19.9375 Q33.2813,20.4688 33.0781,21.25 Q32.8906,22.0156 32.8906,22.9688 Q32.8906,23.9375 33.0625,24.7031 Q33.25,25.4531 33.6094,25.9688 Q33.9844,26.4844 34.5625,26.7656 Q35.1406,27.0313 35.9375,27.0313 Q36.6719,27.0313 37.4063,26.8594 Q38.1563,26.6875 39.0313,26.3906 L39.0313,28.5469 Q38.625,28.7031 38.2344,28.8281 Q37.8438,28.9375 37.4375,29.0156 Q37.0313,29.0938 36.6094,29.125 Q36.1875,29.1719 35.6875,29.1719 Q34.2813,29.1719 33.25,28.7188 Q32.2344,28.2656 31.5625,27.4531 Q30.8906,26.6406 30.5625,25.5 Q30.2344,24.3438 30.2344,22.9531 Q30.2344,21.5781 30.6094,20.4219 Q30.9844,19.2656 31.7031,18.4375 Q32.4219,17.6094 33.4844,17.1563 Q34.5469,16.6875 35.9375,16.6875 Q36.8438,16.6875 37.75,16.9219 Q38.6563,17.1406 39.4844,17.5469 L38.6563,19.6406 Q37.9688,19.3125 37.2813,19.0781 Q36.5938,18.8281 35.9375,18.8281 Z " fill="#000000"/><text fill="#000000" font-family="sans-serif" font-size="14" lengthAdjust="spacing" textLength="79" x="50" y="27.8467">AIController</text><line style="stroke:#181818;stroke-width:0.5;" x1="22" x2="131" y1="39" y2="39"/><line style="stroke:#181818;stroke-width:0.5;" x1="22" x2="131" y1="47" y2="47"/></g><!--class InputController--><g id="elem_InputController"><rect fill="#F1F1F1" height="48" id="InputController" rx="2.5" ry="2.5" style="stroke:#181818;stroke-width:0.5;" width="131" x="167" y="7"/><ellipse cx="182" cy="23" fill="#ADD1B2" rx="11" ry="11" style="stroke:#181818;stroke-width:1.0;"/><path d="M181.9375,18.8281 Q181.1875,18.8281 180.625,19.125 Q180.0625,19.4063 179.6719,19.9375 Q179.2813,20.4688 179.0781,21.25 Q178.8906,22.0156 178.8906,22.9688 Q178.8906,23.9375 179.0625,24.7031 Q179.25,25.4531 179.6094,25.9688 Q179.9844,26.4844 180.5625,26.7656 Q181.1406,27.0313 181.9375,27.0313 Q182.6719,27.0313 183.4063,26.8594 Q184.1563,26.6875 185.0313,26.3906 L185.0313,28.5469 Q184.625,28.7031 184.2344,28.8281 Q183.8438,28.9375 183.4375,29.0156 Q183.0313,29.0938 182.6094,29.125 Q182.1875,29.1719 181.6875,29.1719 Q180.2813,29.1719 179.25,28.7188 Q178.2344,28.2656 177.5625,27.4531 Q176.8906,26.6406 176.5625,25.5 Q176.2344,24.3438 176.2344,22.9531 Q176.2344,21.5781 176.6094,20.4219 Q176.9844,19.2656 177.7031,18.4375 Q178.4219,17.6094 179.4844,17.1563 Q180.5469,16.6875 181.9375,16.6875 Q182.8438,16.6875 183.75,16.9219 Q184.6563,17.1406 185.4844,17.5469 L184.6563,19.6406 Q183.9688,19.3125 183.2813,19.0781 Q182.5938,18.8281 181.9375,18.8281 Z " fill="#000000"/><text fill="#000000" font-family="sans-serif" font-size="14" lengthAdjust="spacing" textLength="99" x="196" y="27.8467">InputController</text><line style="stroke:#181818;stroke-width:0.5;" x1="168" x2="297" y1="39" y2="39"/><line style="stroke:#181818;stroke-width:0.5;" x1="168" x2="297" y1="47" y2="47"/></g><!--reverse link AIController to BossPuppeteerTurretController--><g id="link_AIController_BossPuppeteerTurretController"><path codeLine="13" d="M99.58,72.99 C106.99,86.14 115.32,100.93 123.21,114.94 " fill="none" id="AIController-backto-BossPuppeteerTurretController" style="stroke:#181818;stroke-width:1.0;"/><polygon fill="none" points="93.27,76.04,89.56,55.18,105.47,69.17,93.27,76.04" style="stroke:#181818;stroke-width:1.0;"/></g><!--reverse link InputController to BossPuppeteerTurretController--><g id="link_InputController_BossPuppeteerTurretController"><path codeLine="14" d="M209.42,72.99 C202.01,86.14 193.68,100.93 185.79,114.94 " fill="none" id="InputController-backto-BossPuppeteerTurretController" style="stroke:#181818;stroke-width:1.0;"/><polygon fill="none" points="203.53,69.17,219.44,55.18,215.73,76.04,203.53,69.17" style="stroke:#181818;stroke-width:1.0;"/></g><!--reverse link BossPuppeteerTurretController to State--><g id="link_BossPuppeteerTurretController_State"><path codeLine="15" d="M154.5,243.26 C154.5,258.18 154.5,273.71 154.5,287.97 " fill="none" id="BossPuppeteerTurretController-backto-State" style="stroke:#181818;stroke-width:1.0;"/><ellipse cx="154.5" cy="236.02" fill="#FFFFFF" rx="8" ry="8" style="stroke:#181818;stroke-width:1.0;"/><line style="stroke:#181818;stroke-width:1.0;" x1="154.5" x2="154.5" y1="244.02" y2="228.02"/><line style="stroke:#181818;stroke-width:1.0;" x1="146.5" x2="162.5" y1="236.02" y2="236.02"/></g><!--SRC=[bP0nRy8m48Lt_mgF861XH17849GQHGIHgBj9Rh3g-ABpcQNblvCc7HWe4ZUStfE-9zsxsfaGv1P3ECMk0mQWAX81xz0peND0ybl8VcOoIV0AHBQ1zLfcm8hPr5-f9QZPefzCvKf-zXffkNaMqU4C3arp8WW1ce6_8Bhdx26stJza2Pn5hzeM9wPVA-lvbxYYRSHDW8-jBDam_5skZxfI-NpKQRuVLVbH59K-PgCxx_D2fOEz2QKVsYS_YyNh1mdjkyZlHLv_VDRdXmPt]--></g></svg>