<?xml version="1.0" encoding="us-ascii" standalone="no"?><svg xmlns="http://www.w3.org/2000/svg" xmlns:xlink="http://www.w3.org/1999/xlink" contentStyleType="text/css" height="343px" preserveAspectRatio="none" style="width:303px;height:343px;background:#FFFFFF;" version="1.1" viewBox="0 0 303 343" width="303px" zoomAndPan="magnify"><defs/><g><!--class FieldOfView--><g id="elem_FieldOfView"><rect codeLine="1" fill="#F1F1F1" height="113.1875" id="FieldOfView" rx="2.5" ry="2.5" style="stroke:#181818;stroke-width:0.5;" width="190" x="77.5" y="115"/><ellipse cx="130.25" cy="131" fill="#ADD1B2" rx="11" ry="11" style="stroke:#181818;stroke-width:1.0;"/><path d="M130.1875,126.8281 Q129.4375,126.8281 128.875,127.125 Q128.3125,127.4063 127.9219,127.9375 Q127.5313,128.4688 127.3281,129.25 Q127.1406,130.0156 127.1406,130.9688 Q127.1406,131.9375 127.3125,132.7031 Q127.5,133.4531 127.8594,133.9688 Q128.2344,134.4844 128.8125,134.7656 Q129.3906,135.0313 130.1875,135.0313 Q130.9219,135.0313 131.6563,134.8594 Q132.4063,134.6875 133.2813,134.3906 L133.2813,136.5469 Q132.875,136.7031 132.4844,136.8281 Q132.0938,136.9375 131.6875,137.0156 Q131.2813,137.0938 130.8594,137.125 Q130.4375,137.1719 129.9375,137.1719 Q128.5313,137.1719 127.5,136.7188 Q126.4844,136.2656 125.8125,135.4531 Q125.1406,134.6406 124.8125,133.5 Q124.4844,132.3438 124.4844,130.9531 Q124.4844,129.5781 124.8594,128.4219 Q125.2344,127.2656 125.9531,126.4375 Q126.6719,125.6094 127.7344,125.1563 Q128.7969,124.6875 130.1875,124.6875 Q131.0938,124.6875 132,124.9219 Q132.9063,125.1406 133.7344,125.5469 L132.9063,127.6406 Q132.2188,127.3125 131.5313,127.0781 Q130.8438,126.8281 130.1875,126.8281 Z " fill="#000000"/><text fill="#000000" font-family="sans-serif" font-size="14" lengthAdjust="spacing" textLength="76" x="150.75" y="135.8467">FieldOfView</text><line style="stroke:#181818;stroke-width:0.5;" x1="78.5" x2="266.5" y1="147" y2="147"/><ellipse cx="88.5" cy="160.6484" fill="none" rx="3" ry="3" style="stroke:#038048;stroke-width:1.0;"/><text fill="#000000" font-family="sans-serif" font-size="14" lengthAdjust="spacing" textLength="80" x="97.5" y="163.9951">radius : float</text><ellipse cx="88.5" cy="176.9453" fill="none" rx="3" ry="3" style="stroke:#038048;stroke-width:1.0;"/><text fill="#000000" font-family="sans-serif" font-size="14" lengthAdjust="spacing" textLength="106" x="97.5" y="180.292">spanAngle : float</text><ellipse cx="88.5" cy="193.2422" fill="none" rx="3" ry="3" style="stroke:#038048;stroke-width:1.0;"/><text fill="#000000" font-family="sans-serif" font-size="14" lengthAdjust="spacing" textLength="164" x="97.5" y="196.5889">CanSeePlayer : bool &#171;get&#187;</text><line style="stroke:#181818;stroke-width:0.5;" x1="78.5" x2="266.5" y1="203.8906" y2="203.8906"/><ellipse cx="88.5" cy="217.5391" fill="#84BE84" rx="3" ry="3" style="stroke:#038048;stroke-width:1.0;"/><text fill="#000000" font-family="sans-serif" font-size="14" lengthAdjust="spacing" textLength="161" x="97.5" y="220.8857">FieldOfViewCheck() : bool</text></g><!--class MonoBehaviour--><g id="elem_MonoBehaviour"><rect fill="#F1F1F1" height="48" id="MonoBehaviour" rx="2.5" ry="2.5" style="stroke:#181818;stroke-width:0.5;" width="133" x="106" y="7"/><ellipse cx="121" cy="23" fill="#ADD1B2" rx="11" ry="11" style="stroke:#181818;stroke-width:1.0;"/><path d="M120.9375,18.8281 Q120.1875,18.8281 119.625,19.125 Q119.0625,19.4063 118.6719,19.9375 Q118.2813,20.4688 118.0781,21.25 Q117.8906,22.0156 117.8906,22.9688 Q117.8906,23.9375 118.0625,24.7031 Q118.25,25.4531 118.6094,25.9688 Q118.9844,26.4844 119.5625,26.7656 Q120.1406,27.0313 120.9375,27.0313 Q121.6719,27.0313 122.4063,26.8594 Q123.1563,26.6875 124.0313,26.3906 L124.0313,28.5469 Q123.625,28.7031 123.2344,28.8281 Q122.8438,28.9375 122.4375,29.0156 Q122.0313,29.0938 121.6094,29.125 Q121.1875,29.1719 120.6875,29.1719 Q119.2813,29.1719 118.25,28.7188 Q117.2344,28.2656 116.5625,27.4531 Q115.8906,26.6406 115.5625,25.5 Q115.2344,24.3438 115.2344,22.9531 Q115.2344,21.5781 115.6094,20.4219 Q115.9844,19.2656 116.7031,18.4375 Q117.4219,17.6094 118.4844,17.1563 Q119.5469,16.6875 120.9375,16.6875 Q121.8438,16.6875 122.75,16.9219 Q123.6563,17.1406 124.4844,17.5469 L123.6563,19.6406 Q122.9688,19.3125 122.2813,19.0781 Q121.5938,18.8281 120.9375,18.8281 Z " fill="#000000"/><text fill="#000000" font-family="sans-serif" font-size="14" lengthAdjust="spacing" textLength="101" x="135" y="27.8467">MonoBehaviour</text><line style="stroke:#181818;stroke-width:0.5;" x1="107" x2="238" y1="39" y2="39"/><line style="stroke:#181818;stroke-width:0.5;" x1="107" x2="238" y1="47" y2="47"/></g><!--class Vector2--><g id="elem_Vector2"><rect fill="#F1F1F1" height="48" id="Vector2" rx="2.5" ry="2.5" style="stroke:#181818;stroke-width:0.5;" width="81" x="7" y="288"/><ellipse cx="22" cy="304" fill="#ADD1B2" rx="11" ry="11" style="stroke:#181818;stroke-width:1.0;"/><path d="M21.9375,299.8281 Q21.1875,299.8281 20.625,300.125 Q20.0625,300.4063 19.6719,300.9375 Q19.2813,301.4688 19.0781,302.25 Q18.8906,303.0156 18.8906,303.9688 Q18.8906,304.9375 19.0625,305.7031 Q19.25,306.4531 19.6094,306.9688 Q19.9844,307.4844 20.5625,307.7656 Q21.1406,308.0313 21.9375,308.0313 Q22.6719,308.0313 23.4063,307.8594 Q24.1563,307.6875 25.0313,307.3906 L25.0313,309.5469 Q24.625,309.7031 24.2344,309.8281 Q23.8438,309.9375 23.4375,310.0156 Q23.0313,310.0938 22.6094,310.125 Q22.1875,310.1719 21.6875,310.1719 Q20.2813,310.1719 19.25,309.7188 Q18.2344,309.2656 17.5625,308.4531 Q16.8906,307.6406 16.5625,306.5 Q16.2344,305.3438 16.2344,303.9531 Q16.2344,302.5781 16.6094,301.4219 Q16.9844,300.2656 17.7031,299.4375 Q18.4219,298.6094 19.4844,298.1563 Q20.5469,297.6875 21.9375,297.6875 Q22.8438,297.6875 23.75,297.9219 Q24.6563,298.1406 25.4844,298.5469 L24.6563,300.6406 Q23.9688,300.3125 23.2813,300.0781 Q22.5938,299.8281 21.9375,299.8281 Z " fill="#000000"/><text fill="#000000" font-family="sans-serif" font-size="14" lengthAdjust="spacing" textLength="49" x="36" y="308.8467">Vector2</text><line style="stroke:#181818;stroke-width:0.5;" x1="8" x2="87" y1="320" y2="320"/><line style="stroke:#181818;stroke-width:0.5;" x1="8" x2="87" y1="328" y2="328"/></g><!--class LayerMask--><g id="elem_LayerMask"><rect fill="#F1F1F1" height="48" id="LayerMask" rx="2.5" ry="2.5" style="stroke:#181818;stroke-width:0.5;" width="99" x="123" y="288"/><ellipse cx="138" cy="304" fill="#ADD1B2" rx="11" ry="11" style="stroke:#181818;stroke-width:1.0;"/><path d="M137.9375,299.8281 Q137.1875,299.8281 136.625,300.125 Q136.0625,300.4063 135.6719,300.9375 Q135.2813,301.4688 135.0781,302.25 Q134.8906,303.0156 134.8906,303.9688 Q134.8906,304.9375 135.0625,305.7031 Q135.25,306.4531 135.6094,306.9688 Q135.9844,307.4844 136.5625,307.7656 Q137.1406,308.0313 137.9375,308.0313 Q138.6719,308.0313 139.4063,307.8594 Q140.1563,307.6875 141.0313,307.3906 L141.0313,309.5469 Q140.625,309.7031 140.2344,309.8281 Q139.8438,309.9375 139.4375,310.0156 Q139.0313,310.0938 138.6094,310.125 Q138.1875,310.1719 137.6875,310.1719 Q136.2813,310.1719 135.25,309.7188 Q134.2344,309.2656 133.5625,308.4531 Q132.8906,307.6406 132.5625,306.5 Q132.2344,305.3438 132.2344,303.9531 Q132.2344,302.5781 132.6094,301.4219 Q132.9844,300.2656 133.7031,299.4375 Q134.4219,298.6094 135.4844,298.1563 Q136.5469,297.6875 137.9375,297.6875 Q138.8438,297.6875 139.75,297.9219 Q140.6563,298.1406 141.4844,298.5469 L140.6563,300.6406 Q139.9688,300.3125 139.2813,300.0781 Q138.5938,299.8281 137.9375,299.8281 Z " fill="#000000"/><text fill="#000000" font-family="sans-serif" font-size="14" lengthAdjust="spacing" textLength="67" x="152" y="308.8467">LayerMask</text><line style="stroke:#181818;stroke-width:0.5;" x1="124" x2="221" y1="320" y2="320"/><line style="stroke:#181818;stroke-width:0.5;" x1="124" x2="221" y1="328" y2="328"/></g><!--reverse link MonoBehaviour to FieldOfView--><g id="link_MonoBehaviour_FieldOfView"><path codeLine="7" d="M172.5,75.3 C172.5,87.85 172.5,101.74 172.5,114.94 " fill="none" id="MonoBehaviour-backto-FieldOfView" style="stroke:#181818;stroke-width:1.0;"/><polygon fill="none" points="165.5,75.18,172.5,55.18,179.5,75.18,165.5,75.18" style="stroke:#181818;stroke-width:1.0;"/></g><!--link FieldOfView to Vector2--><g id="link_FieldOfView_Vector2"><path codeLine="8" d="M122.38,228.04 C104.97,247.32 86.23,268.09 71.85,284.02 " fill="none" id="FieldOfView-to-Vector2" style="stroke:#181818;stroke-width:1.0;"/><polygon fill="#181818" points="68.29,287.96,77.2839,283.9462,71.6348,284.2435,71.3375,278.5945,68.29,287.96" style="stroke:#181818;stroke-width:1.0;"/><text fill="#000000" font-family="sans-serif" font-size="13" lengthAdjust="spacing" textLength="52" x="14.9549" y="276.9618">facingDir</text></g><!--link FieldOfView to LayerMask--><g id="link_FieldOfView_LayerMask"><path codeLine="9" d="M159.97,228.04 C159.35,246.83 160.03,267.03 162,282.8 " fill="none" id="FieldOfView-to-LayerMask" style="stroke:#181818;stroke-width:1.0;"/><polygon fill="#181818" points="162.72,287.96,165.4491,278.4968,162.0349,283.0072,157.5245,279.593,162.72,287.96" style="stroke:#181818;stroke-width:1.0;"/><text fill="#000000" font-family="sans-serif" font-size="13" lengthAdjust="spacing" textLength="64" x="88.0139" y="276.9618">targetMask</text></g><!--link FieldOfView to LayerMask--><g id="link_FieldOfView_LayerMask"><path codeLine="10" d="M185.76,228.04 C186.42,246.83 185.71,267.03 183.62,282.8 " fill="none" id="FieldOfView-to-LayerMask-1" style="stroke:#181818;stroke-width:1.0;"/><polygon fill="#181818" points="182.86,287.96,188.1297,279.6395,183.5891,283.0134,180.2152,278.4729,182.86,287.96" style="stroke:#181818;stroke-width:1.0;"/><text fill="#000000" font-family="sans-serif" font-size="13" lengthAdjust="spacing" textLength="98" x="198.071" y="276.9618">obstructionMask</text></g><!--SRC=[PSx12e9040RW-px5uAc8lNGC4Shmb1G4tiTrrCLb9tRN8gftJy63w9o6VpwONndq7Z9DfhhMXQONV0GCimE7bUuz7A0sZ64A_GFjqJQ65dcAzavqC_WcDvnAPWDnt518aadCNgGjgMwpdPpuYPmjdwZ5f-RUGVoLSix5l9sK2KGrAcsRitOH5AG2k_tQ17J3-nnz5y5bh3MkQyQb3wvNGRDTs3y0]--></g></svg>