<?xml version="1.0" encoding="us-ascii" standalone="no"?><svg xmlns="http://www.w3.org/2000/svg" xmlns:xlink="http://www.w3.org/1999/xlink" contentStyleType="text/css" height="202px" preserveAspectRatio="none" style="width:195px;height:202px;background:#FFFFFF;" version="1.1" viewBox="0 0 195 202" width="195px" zoomAndPan="magnify"><defs/><g><!--class Ground--><g id="elem_Ground"><rect codeLine="1" fill="#F1F1F1" height="80.5938" id="Ground" rx="2.5" ry="2.5" style="stroke:#181818;stroke-width:0.5;" width="181" x="7" y="115"/><ellipse cx="69.25" cy="131" fill="#ADD1B2" rx="11" ry="11" style="stroke:#181818;stroke-width:1.0;"/><path d="M69.1875,126.8281 Q68.4375,126.8281 67.875,127.125 Q67.3125,127.4063 66.9219,127.9375 Q66.5313,128.4688 66.3281,129.25 Q66.1406,130.0156 66.1406,130.9688 Q66.1406,131.9375 66.3125,132.7031 Q66.5,133.4531 66.8594,133.9688 Q67.2344,134.4844 67.8125,134.7656 Q68.3906,135.0313 69.1875,135.0313 Q69.9219,135.0313 70.6563,134.8594 Q71.4063,134.6875 72.2813,134.3906 L72.2813,136.5469 Q71.875,136.7031 71.4844,136.8281 Q71.0938,136.9375 70.6875,137.0156 Q70.2813,137.0938 69.8594,137.125 Q69.4375,137.1719 68.9375,137.1719 Q67.5313,137.1719 66.5,136.7188 Q65.4844,136.2656 64.8125,135.4531 Q64.1406,134.6406 63.8125,133.5 Q63.4844,132.3438 63.4844,130.9531 Q63.4844,129.5781 63.8594,128.4219 Q64.2344,127.2656 64.9531,126.4375 Q65.6719,125.6094 66.7344,125.1563 Q67.7969,124.6875 69.1875,124.6875 Q70.0938,124.6875 71,124.9219 Q71.9063,125.1406 72.7344,125.5469 L71.9063,127.6406 Q71.2188,127.3125 70.5313,127.0781 Q69.8438,126.8281 69.1875,126.8281 Z " fill="#000000"/><text fill="#000000" font-family="sans-serif" font-size="14" lengthAdjust="spacing" textLength="48" x="89.75" y="135.8467">Ground</text><line style="stroke:#181818;stroke-width:0.5;" x1="8" x2="187" y1="147" y2="147"/><ellipse cx="18" cy="160.6484" fill="none" rx="3" ry="3" style="stroke:#038048;stroke-width:1.0;"/><text fill="#000000" font-family="sans-serif" font-size="14" lengthAdjust="spacing" textLength="155" x="27" y="163.9951">IsOnGround : bool &#171;get&#187;</text><ellipse cx="18" cy="176.9453" fill="none" rx="3" ry="3" style="stroke:#038048;stroke-width:1.0;"/><text fill="#000000" font-family="sans-serif" font-size="14" lengthAdjust="spacing" textLength="127" x="27" y="180.292">Friction : float &#171;get&#187;</text><line style="stroke:#181818;stroke-width:0.5;" x1="8" x2="187" y1="187.5938" y2="187.5938"/></g><!--class MonoBehaviour--><g id="elem_MonoBehaviour"><rect fill="#F1F1F1" height="48" id="MonoBehaviour" rx="2.5" ry="2.5" style="stroke:#181818;stroke-width:0.5;" width="133" x="31" y="7"/><ellipse cx="46" cy="23" fill="#ADD1B2" rx="11" ry="11" style="stroke:#181818;stroke-width:1.0;"/><path d="M45.9375,18.8281 Q45.1875,18.8281 44.625,19.125 Q44.0625,19.4063 43.6719,19.9375 Q43.2813,20.4688 43.0781,21.25 Q42.8906,22.0156 42.8906,22.9688 Q42.8906,23.9375 43.0625,24.7031 Q43.25,25.4531 43.6094,25.9688 Q43.9844,26.4844 44.5625,26.7656 Q45.1406,27.0313 45.9375,27.0313 Q46.6719,27.0313 47.4063,26.8594 Q48.1563,26.6875 49.0313,26.3906 L49.0313,28.5469 Q48.625,28.7031 48.2344,28.8281 Q47.8438,28.9375 47.4375,29.0156 Q47.0313,29.0938 46.6094,29.125 Q46.1875,29.1719 45.6875,29.1719 Q44.2813,29.1719 43.25,28.7188 Q42.2344,28.2656 41.5625,27.4531 Q40.8906,26.6406 40.5625,25.5 Q40.2344,24.3438 40.2344,22.9531 Q40.2344,21.5781 40.6094,20.4219 Q40.9844,19.2656 41.7031,18.4375 Q42.4219,17.6094 43.4844,17.1563 Q44.5469,16.6875 45.9375,16.6875 Q46.8438,16.6875 47.75,16.9219 Q48.6563,17.1406 49.4844,17.5469 L48.6563,19.6406 Q47.9688,19.3125 47.2813,19.0781 Q46.5938,18.8281 45.9375,18.8281 Z " fill="#000000"/><text fill="#000000" font-family="sans-serif" font-size="14" lengthAdjust="spacing" textLength="101" x="60" y="27.8467">MonoBehaviour</text><line style="stroke:#181818;stroke-width:0.5;" x1="32" x2="163" y1="39" y2="39"/><line style="stroke:#181818;stroke-width:0.5;" x1="32" x2="163" y1="47" y2="47"/></g><!--reverse link MonoBehaviour to Ground--><g id="link_MonoBehaviour_Ground"><path codeLine="5" d="M97.5,75.14 C97.5,88 97.5,102.04 97.5,114.69 " fill="none" id="MonoBehaviour-backto-Ground" style="stroke:#181818;stroke-width:1.0;"/><polygon fill="none" points="90.5,75.04,97.5,55.04,104.5,75.04,90.5,75.04" style="stroke:#181818;stroke-width:1.0;"/></g><!--SRC=[Iyv9B2vMS2_AByrBKQZcKW02RGNFOlyyg92LGb9-Vew2ZKrwQecT7LJUhIWpkIGpFmyecvQJdrW2bwxbyitFotTApKWioymlBLAmgT7LXHeE0000]--></g></svg>