<?xml version="1.0" encoding="us-ascii" standalone="no"?><svg xmlns="http://www.w3.org/2000/svg" xmlns:xlink="http://www.w3.org/1999/xlink" contentStyleType="text/css" height="441px" preserveAspectRatio="none" style="width:320px;height:441px;background:#FFFFFF;" version="1.1" viewBox="0 0 320 441" width="320px" zoomAndPan="magnify"><defs/><g><!--class SwordWielderController--><g id="elem_SwordWielderController"><rect codeLine="1" fill="#F1F1F1" height="145.7813" id="SwordWielderController" rx="2.5" ry="2.5" style="stroke:#181818;stroke-width:0.5;" width="306" x="7" y="115"/><ellipse cx="78.75" cy="131" fill="#ADD1B2" rx="11" ry="11" style="stroke:#181818;stroke-width:1.0;"/><path d="M78.6875,126.8281 Q77.9375,126.8281 77.375,127.125 Q76.8125,127.4063 76.4219,127.9375 Q76.0313,128.4688 75.8281,129.25 Q75.6406,130.0156 75.6406,130.9688 Q75.6406,131.9375 75.8125,132.7031 Q76,133.4531 76.3594,133.9688 Q76.7344,134.4844 77.3125,134.7656 Q77.8906,135.0313 78.6875,135.0313 Q79.4219,135.0313 80.1563,134.8594 Q80.9063,134.6875 81.7813,134.3906 L81.7813,136.5469 Q81.375,136.7031 80.9844,136.8281 Q80.5938,136.9375 80.1875,137.0156 Q79.7813,137.0938 79.3594,137.125 Q78.9375,137.1719 78.4375,137.1719 Q77.0313,137.1719 76,136.7188 Q74.9844,136.2656 74.3125,135.4531 Q73.6406,134.6406 73.3125,133.5 Q72.9844,132.3438 72.9844,130.9531 Q72.9844,129.5781 73.3594,128.4219 Q73.7344,127.2656 74.4531,126.4375 Q75.1719,125.6094 76.2344,125.1563 Q77.2969,124.6875 78.6875,124.6875 Q79.5938,124.6875 80.5,124.9219 Q81.4063,125.1406 82.2344,125.5469 L81.4063,127.6406 Q80.7188,127.3125 80.0313,127.0781 Q79.3438,126.8281 78.6875,126.8281 Z " fill="#000000"/><text fill="#000000" font-family="sans-serif" font-size="14" lengthAdjust="spacing" textLength="154" x="99.25" y="135.8467">SwordWielderController</text><line style="stroke:#181818;stroke-width:0.5;" x1="8" x2="312" y1="147" y2="147"/><ellipse cx="18" cy="160.6484" fill="none" rx="3" ry="3" style="stroke:#038048;stroke-width:1.0;"/><text fill="#000000" font-family="sans-serif" font-size="14" lengthAdjust="spacing" textLength="143" x="27" y="163.9951">dashingDistance : float</text><ellipse cx="18" cy="176.9453" fill="none" rx="3" ry="3" style="stroke:#038048;stroke-width:1.0;"/><text fill="#000000" font-family="sans-serif" font-size="14" lengthAdjust="spacing" textLength="158" x="27" y="180.292">preferredDistance : float</text><line style="stroke:#181818;stroke-width:0.5;" x1="8" x2="312" y1="187.5938" y2="187.5938"/><ellipse cx="18" cy="201.2422" fill="#84BE84" rx="3" ry="3" style="stroke:#038048;stroke-width:1.0;"/><text fill="#000000" font-family="sans-serif" font-size="14" lengthAdjust="spacing" textLength="280" x="27" y="204.5889">&#171;override&#187; GetHorizontalMovement() : float</text><ellipse cx="18" cy="217.5391" fill="#84BE84" rx="3" ry="3" style="stroke:#038048;stroke-width:1.0;"/><text fill="#000000" font-family="sans-serif" font-size="14" lengthAdjust="spacing" textLength="215" x="27" y="220.8857">&#171;override&#187; IsJumpPressed() : bool</text><ellipse cx="18" cy="233.8359" fill="#84BE84" rx="3" ry="3" style="stroke:#038048;stroke-width:1.0;"/><text fill="#000000" font-family="sans-serif" font-size="14" lengthAdjust="spacing" textLength="213" x="27" y="237.1826">&#171;override&#187; IsDashPressed() : bool</text><ellipse cx="18" cy="250.1328" fill="#84BE84" rx="3" ry="3" style="stroke:#038048;stroke-width:1.0;"/><text fill="#000000" font-family="sans-serif" font-size="14" lengthAdjust="spacing" textLength="269" x="27" y="253.4795">&#171;override&#187; GetAttackDirection() : Vector2?</text></g><!--class State--><g id="elem_State"><rect codeLine="9" fill="#F1F1F1" height="113.1875" id="State" rx="2.5" ry="2.5" style="stroke:#181818;stroke-width:0.5;" width="89" x="115.5" y="321"/><ellipse cx="141.75" cy="337" fill="#EB937F" rx="11" ry="11" style="stroke:#181818;stroke-width:1.0;"/><path d="M144.7656,343 L137.7813,343 L137.7813,330.8594 L144.7656,330.8594 L144.7656,332.9688 L140.3438,332.9688 L140.3438,335.6406 L144.4531,335.6406 L144.4531,337.75 L140.3438,337.75 L140.3438,340.875 L144.7656,340.875 L144.7656,343 Z " fill="#000000"/><text fill="#000000" font-family="sans-serif" font-size="14" lengthAdjust="spacing" textLength="32" x="158.25" y="341.8467">State</text><line style="stroke:#181818;stroke-width:0.5;" x1="116.5" x2="203.5" y1="353" y2="353"/><text fill="#000000" font-family="sans-serif" font-size="14" lengthAdjust="spacing" textLength="47" x="121.5" y="369.9951">INITAL,</text><text fill="#000000" font-family="sans-serif" font-size="14" lengthAdjust="spacing" textLength="33" x="121.5" y="386.292">IDLE,</text><text fill="#000000" font-family="sans-serif" font-size="14" lengthAdjust="spacing" textLength="61" x="121.5" y="402.5889">NOTICED,</text><text fill="#000000" font-family="sans-serif" font-size="14" lengthAdjust="spacing" textLength="77" x="121.5" y="418.8857">ATTACKING,</text><line style="stroke:#181818;stroke-width:0.5;" x1="116.5" x2="203.5" y1="426.1875" y2="426.1875"/></g><!--class AIController--><g id="elem_AIController"><rect fill="#F1F1F1" height="48" id="AIController" rx="2.5" ry="2.5" style="stroke:#181818;stroke-width:0.5;" width="111" x="26.5" y="7"/><ellipse cx="41.5" cy="23" fill="#ADD1B2" rx="11" ry="11" style="stroke:#181818;stroke-width:1.0;"/><path d="M41.4375,18.8281 Q40.6875,18.8281 40.125,19.125 Q39.5625,19.4063 39.1719,19.9375 Q38.7813,20.4688 38.5781,21.25 Q38.3906,22.0156 38.3906,22.9688 Q38.3906,23.9375 38.5625,24.7031 Q38.75,25.4531 39.1094,25.9688 Q39.4844,26.4844 40.0625,26.7656 Q40.6406,27.0313 41.4375,27.0313 Q42.1719,27.0313 42.9063,26.8594 Q43.6563,26.6875 44.5313,26.3906 L44.5313,28.5469 Q44.125,28.7031 43.7344,28.8281 Q43.3438,28.9375 42.9375,29.0156 Q42.5313,29.0938 42.1094,29.125 Q41.6875,29.1719 41.1875,29.1719 Q39.7813,29.1719 38.75,28.7188 Q37.7344,28.2656 37.0625,27.4531 Q36.3906,26.6406 36.0625,25.5 Q35.7344,24.3438 35.7344,22.9531 Q35.7344,21.5781 36.1094,20.4219 Q36.4844,19.2656 37.2031,18.4375 Q37.9219,17.6094 38.9844,17.1563 Q40.0469,16.6875 41.4375,16.6875 Q42.3438,16.6875 43.25,16.9219 Q44.1563,17.1406 44.9844,17.5469 L44.1563,19.6406 Q43.4688,19.3125 42.7813,19.0781 Q42.0938,18.8281 41.4375,18.8281 Z " fill="#000000"/><text fill="#000000" font-family="sans-serif" font-size="14" lengthAdjust="spacing" textLength="79" x="55.5" y="27.8467">AIController</text><line style="stroke:#181818;stroke-width:0.5;" x1="27.5" x2="136.5" y1="39" y2="39"/><line style="stroke:#181818;stroke-width:0.5;" x1="27.5" x2="136.5" y1="47" y2="47"/></g><!--class InputController--><g id="elem_InputController"><rect fill="#F1F1F1" height="48" id="InputController" rx="2.5" ry="2.5" style="stroke:#181818;stroke-width:0.5;" width="131" x="172.5" y="7"/><ellipse cx="187.5" cy="23" fill="#ADD1B2" rx="11" ry="11" style="stroke:#181818;stroke-width:1.0;"/><path d="M187.4375,18.8281 Q186.6875,18.8281 186.125,19.125 Q185.5625,19.4063 185.1719,19.9375 Q184.7813,20.4688 184.5781,21.25 Q184.3906,22.0156 184.3906,22.9688 Q184.3906,23.9375 184.5625,24.7031 Q184.75,25.4531 185.1094,25.9688 Q185.4844,26.4844 186.0625,26.7656 Q186.6406,27.0313 187.4375,27.0313 Q188.1719,27.0313 188.9063,26.8594 Q189.6563,26.6875 190.5313,26.3906 L190.5313,28.5469 Q190.125,28.7031 189.7344,28.8281 Q189.3438,28.9375 188.9375,29.0156 Q188.5313,29.0938 188.1094,29.125 Q187.6875,29.1719 187.1875,29.1719 Q185.7813,29.1719 184.75,28.7188 Q183.7344,28.2656 183.0625,27.4531 Q182.3906,26.6406 182.0625,25.5 Q181.7344,24.3438 181.7344,22.9531 Q181.7344,21.5781 182.1094,20.4219 Q182.4844,19.2656 183.2031,18.4375 Q183.9219,17.6094 184.9844,17.1563 Q186.0469,16.6875 187.4375,16.6875 Q188.3438,16.6875 189.25,16.9219 Q190.1563,17.1406 190.9844,17.5469 L190.1563,19.6406 Q189.4688,19.3125 188.7813,19.0781 Q188.0938,18.8281 187.4375,18.8281 Z " fill="#000000"/><text fill="#000000" font-family="sans-serif" font-size="14" lengthAdjust="spacing" textLength="99" x="201.5" y="27.8467">InputController</text><line style="stroke:#181818;stroke-width:0.5;" x1="173.5" x2="302.5" y1="39" y2="39"/><line style="stroke:#181818;stroke-width:0.5;" x1="173.5" x2="302.5" y1="47" y2="47"/></g><!--reverse link AIController to SwordWielderController--><g id="link_AIController_SwordWielderController"><path codeLine="15" d="M102.7,73.13 C109.16,85.98 116.5,100.55 123.71,114.88 " fill="none" id="AIController-backto-SwordWielderController" style="stroke:#181818;stroke-width:1.0;"/><polygon fill="none" points="96.41,76.22,93.68,55.21,108.92,69.92,96.41,76.22" style="stroke:#181818;stroke-width:1.0;"/></g><!--reverse link InputController to SwordWielderController--><g id="link_InputController_SwordWielderController"><path codeLine="16" d="M217.3,73.13 C210.84,85.98 203.5,100.55 196.29,114.88 " fill="none" id="InputController-backto-SwordWielderController" style="stroke:#181818;stroke-width:1.0;"/><polygon fill="none" points="211.08,69.92,226.32,55.21,223.59,76.22,211.08,69.92" style="stroke:#181818;stroke-width:1.0;"/></g><!--reverse link SwordWielderController to State--><g id="link_SwordWielderController_State"><path codeLine="17" d="M160,276.27 C160,291.46 160,306.87 160,320.91 " fill="none" id="SwordWielderController-backto-State" style="stroke:#181818;stroke-width:1.0;"/><ellipse cx="160" cy="269.22" fill="#FFFFFF" rx="8" ry="8" style="stroke:#181818;stroke-width:1.0;"/><line style="stroke:#181818;stroke-width:1.0;" x1="160" x2="160" y1="277.22" y2="261.22"/><line style="stroke:#181818;stroke-width:1.0;" x1="152" x2="168" y1="269.22" y2="269.22"/></g><!--SRC=[ZP5BRy8m48Jl-HK-jW8kFQA8oeeHDO-q4b5xTkEbM7MyqNf3fJx-UmtXq4E3y6ci-TOx6jVUn2Ys7qZsnO6tG0K69lGUI7nb8fsHi2RkNNXJBh89DOYfs7aqV7PRWXqGWHtmynmFoNSMPZEn07v0SfzfYV6RP3GG-ERsqeYEowvfdmXY17j2Nn7z_wHAIQyXKmp9REftvGXgTXXE-7FII7VtsKy6eMl4bWt3kGPTwagknxrMwtcloiTA5tFLNsHLoMAboyKuFI3rdoRpxybaeELCXxRZAzc1ZneT9uvPVm40]--></g></svg>