<?xml version="1.0" encoding="us-ascii" standalone="no"?><svg xmlns="http://www.w3.org/2000/svg" xmlns:xlink="http://www.w3.org/1999/xlink" contentStyleType="text/css" height="375px" preserveAspectRatio="none" style="width:634px;height:375px;background:#FFFFFF;" version="1.1" viewBox="0 0 634 375" width="634px" zoomAndPan="magnify"><defs/><g><!--class MapTransition--><g id="elem_MapTransition"><rect codeLine="1" fill="#F1F1F1" height="64.2969" id="MapTransition" rx="2.5" ry="2.5" style="stroke:#181818;stroke-width:0.5;" width="620" x="7" y="115"/><ellipse cx="267.75" cy="131" fill="#ADD1B2" rx="11" ry="11" style="stroke:#181818;stroke-width:1.0;"/><path d="M267.6875,126.8281 Q266.9375,126.8281 266.375,127.125 Q265.8125,127.4063 265.4219,127.9375 Q265.0313,128.4688 264.8281,129.25 Q264.6406,130.0156 264.6406,130.9688 Q264.6406,131.9375 264.8125,132.7031 Q265,133.4531 265.3594,133.9688 Q265.7344,134.4844 266.3125,134.7656 Q266.8906,135.0313 267.6875,135.0313 Q268.4219,135.0313 269.1563,134.8594 Q269.9063,134.6875 270.7813,134.3906 L270.7813,136.5469 Q270.375,136.7031 269.9844,136.8281 Q269.5938,136.9375 269.1875,137.0156 Q268.7813,137.0938 268.3594,137.125 Q267.9375,137.1719 267.4375,137.1719 Q266.0313,137.1719 265,136.7188 Q263.9844,136.2656 263.3125,135.4531 Q262.6406,134.6406 262.3125,133.5 Q261.9844,132.3438 261.9844,130.9531 Q261.9844,129.5781 262.3594,128.4219 Q262.7344,127.2656 263.4531,126.4375 Q264.1719,125.6094 265.2344,125.1563 Q266.2969,124.6875 267.6875,124.6875 Q268.5938,124.6875 269.5,124.9219 Q270.4063,125.1406 271.2344,125.5469 L270.4063,127.6406 Q269.7188,127.3125 269.0313,127.0781 Q268.3438,126.8281 267.6875,126.8281 Z " fill="#000000"/><text fill="#000000" font-family="sans-serif" font-size="14" lengthAdjust="spacing" textLength="90" x="288.25" y="135.8467">MapTransition</text><line style="stroke:#181818;stroke-width:0.5;" x1="8" x2="626" y1="147" y2="147"/><line style="stroke:#181818;stroke-width:0.5;" x1="8" x2="626" y1="155" y2="155"/><ellipse cx="18" cy="168.6484" fill="#84BE84" rx="3" ry="3" style="stroke:#038048;stroke-width:1.0;"/><text fill="#000000" font-family="sans-serif" font-size="14" lengthAdjust="spacing" text-decoration="underline" textLength="594" x="27" y="171.9951">FindDestinationPosition(fromScene:string, toScene:string, distanceFromSpawn:float) : Vector2</text></g><!--class Direction--><g id="elem_Direction"><rect codeLine="4" fill="#F1F1F1" height="129.4844" id="Direction" rx="2.5" ry="2.5" style="stroke:#181818;stroke-width:0.5;" width="91" x="271.5" y="239"/><ellipse cx="286.5" cy="255" fill="#EB937F" rx="11" ry="11" style="stroke:#181818;stroke-width:1.0;"/><path d="M289.5156,261 L282.5313,261 L282.5313,248.8594 L289.5156,248.8594 L289.5156,250.9688 L285.0938,250.9688 L285.0938,253.6406 L289.2031,253.6406 L289.2031,255.75 L285.0938,255.75 L285.0938,258.875 L289.5156,258.875 L289.5156,261 Z " fill="#000000"/><text fill="#000000" font-family="sans-serif" font-size="14" lengthAdjust="spacing" textLength="59" x="300.5" y="259.8467">Direction</text><line style="stroke:#181818;stroke-width:0.5;" x1="272.5" x2="361.5" y1="271" y2="271"/><text fill="#000000" font-family="sans-serif" font-size="14" lengthAdjust="spacing" textLength="38" x="277.5" y="287.9951">None,</text><text fill="#000000" font-family="sans-serif" font-size="14" lengthAdjust="spacing" textLength="29" x="277.5" y="304.292">Left,</text><text fill="#000000" font-family="sans-serif" font-size="14" lengthAdjust="spacing" textLength="36" x="277.5" y="320.5889">Right,</text><text fill="#000000" font-family="sans-serif" font-size="14" lengthAdjust="spacing" textLength="22" x="277.5" y="336.8857">Up,</text><text fill="#000000" font-family="sans-serif" font-size="14" lengthAdjust="spacing" textLength="40" x="277.5" y="353.1826">Down,</text><line style="stroke:#181818;stroke-width:0.5;" x1="272.5" x2="361.5" y1="360.4844" y2="360.4844"/></g><!--class MonoBehaviour--><g id="elem_MonoBehaviour"><rect fill="#F1F1F1" height="48" id="MonoBehaviour" rx="2.5" ry="2.5" style="stroke:#181818;stroke-width:0.5;" width="133" x="250.5" y="7"/><ellipse cx="265.5" cy="23" fill="#ADD1B2" rx="11" ry="11" style="stroke:#181818;stroke-width:1.0;"/><path d="M265.4375,18.8281 Q264.6875,18.8281 264.125,19.125 Q263.5625,19.4063 263.1719,19.9375 Q262.7813,20.4688 262.5781,21.25 Q262.3906,22.0156 262.3906,22.9688 Q262.3906,23.9375 262.5625,24.7031 Q262.75,25.4531 263.1094,25.9688 Q263.4844,26.4844 264.0625,26.7656 Q264.6406,27.0313 265.4375,27.0313 Q266.1719,27.0313 266.9063,26.8594 Q267.6563,26.6875 268.5313,26.3906 L268.5313,28.5469 Q268.125,28.7031 267.7344,28.8281 Q267.3438,28.9375 266.9375,29.0156 Q266.5313,29.0938 266.1094,29.125 Q265.6875,29.1719 265.1875,29.1719 Q263.7813,29.1719 262.75,28.7188 Q261.7344,28.2656 261.0625,27.4531 Q260.3906,26.6406 260.0625,25.5 Q259.7344,24.3438 259.7344,22.9531 Q259.7344,21.5781 260.1094,20.4219 Q260.4844,19.2656 261.2031,18.4375 Q261.9219,17.6094 262.9844,17.1563 Q264.0469,16.6875 265.4375,16.6875 Q266.3438,16.6875 267.25,16.9219 Q268.1563,17.1406 268.9844,17.5469 L268.1563,19.6406 Q267.4688,19.3125 266.7813,19.0781 Q266.0938,18.8281 265.4375,18.8281 Z " fill="#000000"/><text fill="#000000" font-family="sans-serif" font-size="14" lengthAdjust="spacing" textLength="101" x="279.5" y="27.8467">MonoBehaviour</text><line style="stroke:#181818;stroke-width:0.5;" x1="251.5" x2="382.5" y1="39" y2="39"/><line style="stroke:#181818;stroke-width:0.5;" x1="251.5" x2="382.5" y1="47" y2="47"/></g><!--reverse link MonoBehaviour to MapTransition--><g id="link_MonoBehaviour_MapTransition"><path codeLine="11" d="M317,75.09 C317,88.28 317,102.52 317,114.75 " fill="none" id="MonoBehaviour-backto-MapTransition" style="stroke:#181818;stroke-width:1.0;"/><polygon fill="none" points="310,75.07,317,55.07,324,75.07,310,75.07" style="stroke:#181818;stroke-width:1.0;"/></g><!--reverse link MapTransition to Direction--><g id="link_MapTransition_Direction"><path codeLine="12" d="M317,194.69 C317,208.55 317,223.98 317,238.73 " fill="none" id="MapTransition-backto-Direction" style="stroke:#181818;stroke-width:1.0;"/><ellipse cx="317" cy="187.27" fill="#FFFFFF" rx="8" ry="8" style="stroke:#181818;stroke-width:1.0;"/><line style="stroke:#181818;stroke-width:1.0;" x1="317" x2="317" y1="195.27" y2="179.27"/><line style="stroke:#181818;stroke-width:1.0;" x1="309" x2="325" y1="187.27" y2="187.27"/></g><!--SRC=[LKyz3u9G3Dpv5HqruE98d0nX4cFysbyU1PjWIzwhCY3_tOSO3LrwrrxkShOntaDXshCpx4b96Fe8miJGUpLATe2SkCpGAx4P1GUPX8lAoVraaJ7rweZh15JclAJWmHRpKTcQZjEg4QDBIE6ALiMjeo52VjmX8nSE__YzC2OVjCDA9tIa-lQ5btRQcNIS18z2MBPuCq-IXuFDQxMQbuhc5UFm_oM-0G00]--></g></svg>