<?xml version="1.0" encoding="us-ascii" standalone="no"?><svg xmlns="http://www.w3.org/2000/svg" xmlns:xlink="http://www.w3.org/1999/xlink" contentStyleType="text/css" height="332px" preserveAspectRatio="none" style="width:360px;height:332px;background:#FFFFFF;" version="1.1" viewBox="0 0 360 332" width="360px" zoomAndPan="magnify"><defs/><g><!--class AIController--><g id="elem_AIController"><rect codeLine="1" fill="#F1F1F1" height="210.9688" id="AIController" rx="2.5" ry="2.5" style="stroke:#181818;stroke-width:0.5;" width="346" x="7" y="115"/><ellipse cx="136.25" cy="131" fill="#ADD1B2" rx="11" ry="11" style="stroke:#181818;stroke-width:1.0;"/><path d="M136.1875,126.8281 Q135.4375,126.8281 134.875,127.125 Q134.3125,127.4063 133.9219,127.9375 Q133.5313,128.4688 133.3281,129.25 Q133.1406,130.0156 133.1406,130.9688 Q133.1406,131.9375 133.3125,132.7031 Q133.5,133.4531 133.8594,133.9688 Q134.2344,134.4844 134.8125,134.7656 Q135.3906,135.0313 136.1875,135.0313 Q136.9219,135.0313 137.6563,134.8594 Q138.4063,134.6875 139.2813,134.3906 L139.2813,136.5469 Q138.875,136.7031 138.4844,136.8281 Q138.0938,136.9375 137.6875,137.0156 Q137.2813,137.0938 136.8594,137.125 Q136.4375,137.1719 135.9375,137.1719 Q134.5313,137.1719 133.5,136.7188 Q132.4844,136.2656 131.8125,135.4531 Q131.1406,134.6406 130.8125,133.5 Q130.4844,132.3438 130.4844,130.9531 Q130.4844,129.5781 130.8594,128.4219 Q131.2344,127.2656 131.9531,126.4375 Q132.6719,125.6094 133.7344,125.1563 Q134.7969,124.6875 136.1875,124.6875 Q137.0938,124.6875 138,124.9219 Q138.9063,125.1406 139.7344,125.5469 L138.9063,127.6406 Q138.2188,127.3125 137.5313,127.0781 Q136.8438,126.8281 136.1875,126.8281 Z " fill="#000000"/><text fill="#000000" font-family="sans-serif" font-size="14" lengthAdjust="spacing" textLength="79" x="156.75" y="135.8467">AIController</text><line style="stroke:#181818;stroke-width:0.5;" x1="8" x2="352" y1="147" y2="147"/><line style="stroke:#181818;stroke-width:0.5;" x1="8" x2="352" y1="155" y2="155"/><ellipse cx="18" cy="168.6484" fill="#84BE84" rx="3" ry="3" style="stroke:#038048;stroke-width:1.0;"/><text fill="#000000" font-family="sans-serif" font-size="14" lengthAdjust="spacing" textLength="266" x="27" y="171.9951">&#171;virtual&#187; GetHorizontalMovement() : float</text><ellipse cx="18" cy="184.9453" fill="#84BE84" rx="3" ry="3" style="stroke:#038048;stroke-width:1.0;"/><text fill="#000000" font-family="sans-serif" font-size="14" lengthAdjust="spacing" textLength="248" x="27" y="188.292">&#171;virtual&#187; GetVerticalMovement() : float</text><ellipse cx="18" cy="201.2422" fill="#84BE84" rx="3" ry="3" style="stroke:#038048;stroke-width:1.0;"/><text fill="#000000" font-family="sans-serif" font-size="14" lengthAdjust="spacing" textLength="201" x="27" y="204.5889">&#171;virtual&#187; IsJumpPressed() : bool</text><ellipse cx="18" cy="217.5391" fill="#84BE84" rx="3" ry="3" style="stroke:#038048;stroke-width:1.0;"/><text fill="#000000" font-family="sans-serif" font-size="14" lengthAdjust="spacing" textLength="181" x="27" y="220.8857">&#171;virtual&#187; IsJumpHeld() : bool</text><ellipse cx="18" cy="233.8359" fill="#84BE84" rx="3" ry="3" style="stroke:#038048;stroke-width:1.0;"/><text fill="#000000" font-family="sans-serif" font-size="14" lengthAdjust="spacing" textLength="255" x="27" y="237.1826">&#171;virtual&#187; GetAttackDirection() : Vector2?</text><ellipse cx="18" cy="250.1328" fill="#84BE84" rx="3" ry="3" style="stroke:#038048;stroke-width:1.0;"/><text fill="#000000" font-family="sans-serif" font-size="14" lengthAdjust="spacing" textLength="320" x="27" y="253.4795">&#171;virtual&#187; GetContinuedAttackDirection() : Vector2?</text><ellipse cx="18" cy="266.4297" fill="#84BE84" rx="3" ry="3" style="stroke:#038048;stroke-width:1.0;"/><text fill="#000000" font-family="sans-serif" font-size="14" lengthAdjust="spacing" textLength="211" x="27" y="269.7764">&#171;virtual&#187; IsReloadPressed() : bool</text><ellipse cx="18" cy="282.7266" fill="#84BE84" rx="3" ry="3" style="stroke:#038048;stroke-width:1.0;"/><text fill="#000000" font-family="sans-serif" font-size="14" lengthAdjust="spacing" textLength="199" x="27" y="286.0732">&#171;virtual&#187; IsDashPressed() : bool</text><ellipse cx="18" cy="299.0234" fill="#84BE84" rx="3" ry="3" style="stroke:#038048;stroke-width:1.0;"/><text fill="#000000" font-family="sans-serif" font-size="14" lengthAdjust="spacing" textLength="251" x="27" y="302.3701">&#171;virtual&#187; IsSwapWeaponPressed() : bool</text><ellipse cx="18" cy="315.3203" fill="#84BE84" rx="3" ry="3" style="stroke:#038048;stroke-width:1.0;"/><text fill="#000000" font-family="sans-serif" font-size="14" lengthAdjust="spacing" textLength="221" x="27" y="318.667">&#171;virtual&#187; GetHackInput() : Vector2?</text></g><!--class MonoBehaviour--><g id="elem_MonoBehaviour"><rect fill="#F1F1F1" height="48" id="MonoBehaviour" rx="2.5" ry="2.5" style="stroke:#181818;stroke-width:0.5;" width="133" x="30.5" y="7"/><ellipse cx="45.5" cy="23" fill="#ADD1B2" rx="11" ry="11" style="stroke:#181818;stroke-width:1.0;"/><path d="M45.4375,18.8281 Q44.6875,18.8281 44.125,19.125 Q43.5625,19.4063 43.1719,19.9375 Q42.7813,20.4688 42.5781,21.25 Q42.3906,22.0156 42.3906,22.9688 Q42.3906,23.9375 42.5625,24.7031 Q42.75,25.4531 43.1094,25.9688 Q43.4844,26.4844 44.0625,26.7656 Q44.6406,27.0313 45.4375,27.0313 Q46.1719,27.0313 46.9063,26.8594 Q47.6563,26.6875 48.5313,26.3906 L48.5313,28.5469 Q48.125,28.7031 47.7344,28.8281 Q47.3438,28.9375 46.9375,29.0156 Q46.5313,29.0938 46.1094,29.125 Q45.6875,29.1719 45.1875,29.1719 Q43.7813,29.1719 42.75,28.7188 Q41.7344,28.2656 41.0625,27.4531 Q40.3906,26.6406 40.0625,25.5 Q39.7344,24.3438 39.7344,22.9531 Q39.7344,21.5781 40.1094,20.4219 Q40.4844,19.2656 41.2031,18.4375 Q41.9219,17.6094 42.9844,17.1563 Q44.0469,16.6875 45.4375,16.6875 Q46.3438,16.6875 47.25,16.9219 Q48.1563,17.1406 48.9844,17.5469 L48.1563,19.6406 Q47.4688,19.3125 46.7813,19.0781 Q46.0938,18.8281 45.4375,18.8281 Z " fill="#000000"/><text fill="#000000" font-family="sans-serif" font-size="14" lengthAdjust="spacing" textLength="101" x="59.5" y="27.8467">MonoBehaviour</text><line style="stroke:#181818;stroke-width:0.5;" x1="31.5" x2="162.5" y1="39" y2="39"/><line style="stroke:#181818;stroke-width:0.5;" x1="31.5" x2="162.5" y1="47" y2="47"/></g><!--class InputController--><g id="elem_InputController"><rect fill="#F1F1F1" height="48" id="InputController" rx="2.5" ry="2.5" style="stroke:#181818;stroke-width:0.5;" width="131" x="198.5" y="7"/><ellipse cx="213.5" cy="23" fill="#ADD1B2" rx="11" ry="11" style="stroke:#181818;stroke-width:1.0;"/><path d="M213.4375,18.8281 Q212.6875,18.8281 212.125,19.125 Q211.5625,19.4063 211.1719,19.9375 Q210.7813,20.4688 210.5781,21.25 Q210.3906,22.0156 210.3906,22.9688 Q210.3906,23.9375 210.5625,24.7031 Q210.75,25.4531 211.1094,25.9688 Q211.4844,26.4844 212.0625,26.7656 Q212.6406,27.0313 213.4375,27.0313 Q214.1719,27.0313 214.9063,26.8594 Q215.6563,26.6875 216.5313,26.3906 L216.5313,28.5469 Q216.125,28.7031 215.7344,28.8281 Q215.3438,28.9375 214.9375,29.0156 Q214.5313,29.0938 214.1094,29.125 Q213.6875,29.1719 213.1875,29.1719 Q211.7813,29.1719 210.75,28.7188 Q209.7344,28.2656 209.0625,27.4531 Q208.3906,26.6406 208.0625,25.5 Q207.7344,24.3438 207.7344,22.9531 Q207.7344,21.5781 208.1094,20.4219 Q208.4844,19.2656 209.2031,18.4375 Q209.9219,17.6094 210.9844,17.1563 Q212.0469,16.6875 213.4375,16.6875 Q214.3438,16.6875 215.25,16.9219 Q216.1563,17.1406 216.9844,17.5469 L216.1563,19.6406 Q215.4688,19.3125 214.7813,19.0781 Q214.0938,18.8281 213.4375,18.8281 Z " fill="#000000"/><text fill="#000000" font-family="sans-serif" font-size="14" lengthAdjust="spacing" textLength="99" x="227.5" y="27.8467">InputController</text><line style="stroke:#181818;stroke-width:0.5;" x1="199.5" x2="328.5" y1="39" y2="39"/><line style="stroke:#181818;stroke-width:0.5;" x1="199.5" x2="328.5" y1="47" y2="47"/></g><!--reverse link MonoBehaviour to AIController--><g id="link_MonoBehaviour_AIController"><path codeLine="13" d="M115.48,73.75 C120.97,86.15 127.25,100.33 133.68,114.86 " fill="none" id="MonoBehaviour-backto-AIController" style="stroke:#181818;stroke-width:1.0;"/><polygon fill="none" points="109.04,76.49,107.34,55.37,121.84,70.82,109.04,76.49" style="stroke:#181818;stroke-width:1.0;"/></g><!--reverse link InputController to AIController--><g id="link_InputController_AIController"><path codeLine="14" d="M245.3,73.75 C239.74,86.15 233.39,100.33 226.88,114.86 " fill="none" id="InputController-backto-AIController" style="stroke:#181818;stroke-width:1.0;"/><polygon fill="none" points="238.97,70.76,253.53,55.37,251.74,76.48,238.97,70.76" style="stroke:#181818;stroke-width:1.0;"/></g><!--SRC=[bTBB2i8m40NGVRyYIqNSk9HIyG5QGH25kXxR4OCnKoQJ2Zx-tTYLueEQLHRdafjCSWFEgM4w9YjCnY2hIwJ2wgWuhZIB1vCaQeeo8zRdeC0igC8ZMccrLL_j385yJcJ8elE6FdLpVooNZCvXKSijaVaAPsX-gd3yK0JomqGpvgB9rZeBU-BUu7FYyGZQUYp-ZAPkXU5QHQFs4t3xHd1zWdA3K99jm1y32fLJMtfvhNkB5cHfX7keD7bMyRNRVHbuL8UUFi2Rk0C0]--></g></svg>