<?xml version="1.0" encoding="us-ascii" standalone="no"?><svg xmlns="http://www.w3.org/2000/svg" xmlns:xlink="http://www.w3.org/1999/xlink" contentStyleType="text/css" height="278px" preserveAspectRatio="none" style="width:147px;height:278px;background:#FFFFFF;" version="1.1" viewBox="0 0 147 278" width="147px" zoomAndPan="magnify"><defs/><g><!--class Controller--><g id="elem_Controller"><rect codeLine="1" fill="#F1F1F1" height="48" id="Controller" rx="2.5" ry="2.5" style="stroke:#181818;stroke-width:0.5;" width="97" x="25" y="115"/><ellipse cx="40" cy="131" fill="#ADD1B2" rx="11" ry="11" style="stroke:#181818;stroke-width:1.0;"/><path d="M39.9375,126.8281 Q39.1875,126.8281 38.625,127.125 Q38.0625,127.4063 37.6719,127.9375 Q37.2813,128.4688 37.0781,129.25 Q36.8906,130.0156 36.8906,130.9688 Q36.8906,131.9375 37.0625,132.7031 Q37.25,133.4531 37.6094,133.9688 Q37.9844,134.4844 38.5625,134.7656 Q39.1406,135.0313 39.9375,135.0313 Q40.6719,135.0313 41.4063,134.8594 Q42.1563,134.6875 43.0313,134.3906 L43.0313,136.5469 Q42.625,136.7031 42.2344,136.8281 Q41.8438,136.9375 41.4375,137.0156 Q41.0313,137.0938 40.6094,137.125 Q40.1875,137.1719 39.6875,137.1719 Q38.2813,137.1719 37.25,136.7188 Q36.2344,136.2656 35.5625,135.4531 Q34.8906,134.6406 34.5625,133.5 Q34.2344,132.3438 34.2344,130.9531 Q34.2344,129.5781 34.6094,128.4219 Q34.9844,127.2656 35.7031,126.4375 Q36.4219,125.6094 37.4844,125.1563 Q38.5469,124.6875 39.9375,124.6875 Q40.8438,124.6875 41.75,124.9219 Q42.6563,125.1406 43.4844,125.5469 L42.6563,127.6406 Q41.9688,127.3125 41.2813,127.0781 Q40.5938,126.8281 39.9375,126.8281 Z " fill="#000000"/><text fill="#000000" font-family="sans-serif" font-size="14" lengthAdjust="spacing" textLength="65" x="54" y="135.8467">Controller</text><line style="stroke:#181818;stroke-width:0.5;" x1="26" x2="121" y1="147" y2="147"/><line style="stroke:#181818;stroke-width:0.5;" x1="26" x2="121" y1="155" y2="155"/></g><!--class MonoBehaviour--><g id="elem_MonoBehaviour"><rect fill="#F1F1F1" height="48" id="MonoBehaviour" rx="2.5" ry="2.5" style="stroke:#181818;stroke-width:0.5;" width="133" x="7" y="7"/><ellipse cx="22" cy="23" fill="#ADD1B2" rx="11" ry="11" style="stroke:#181818;stroke-width:1.0;"/><path d="M21.9375,18.8281 Q21.1875,18.8281 20.625,19.125 Q20.0625,19.4063 19.6719,19.9375 Q19.2813,20.4688 19.0781,21.25 Q18.8906,22.0156 18.8906,22.9688 Q18.8906,23.9375 19.0625,24.7031 Q19.25,25.4531 19.6094,25.9688 Q19.9844,26.4844 20.5625,26.7656 Q21.1406,27.0313 21.9375,27.0313 Q22.6719,27.0313 23.4063,26.8594 Q24.1563,26.6875 25.0313,26.3906 L25.0313,28.5469 Q24.625,28.7031 24.2344,28.8281 Q23.8438,28.9375 23.4375,29.0156 Q23.0313,29.0938 22.6094,29.125 Q22.1875,29.1719 21.6875,29.1719 Q20.2813,29.1719 19.25,28.7188 Q18.2344,28.2656 17.5625,27.4531 Q16.8906,26.6406 16.5625,25.5 Q16.2344,24.3438 16.2344,22.9531 Q16.2344,21.5781 16.6094,20.4219 Q16.9844,19.2656 17.7031,18.4375 Q18.4219,17.6094 19.4844,17.1563 Q20.5469,16.6875 21.9375,16.6875 Q22.8438,16.6875 23.75,16.9219 Q24.6563,17.1406 25.4844,17.5469 L24.6563,19.6406 Q23.9688,19.3125 23.2813,19.0781 Q22.5938,18.8281 21.9375,18.8281 Z " fill="#000000"/><text fill="#000000" font-family="sans-serif" font-size="14" lengthAdjust="spacing" textLength="101" x="36" y="27.8467">MonoBehaviour</text><line style="stroke:#181818;stroke-width:0.5;" x1="8" x2="139" y1="39" y2="39"/><line style="stroke:#181818;stroke-width:0.5;" x1="8" x2="139" y1="47" y2="47"/></g><!--class InputController--><g id="elem_InputController"><rect fill="#F1F1F1" height="48" id="InputController" rx="2.5" ry="2.5" style="stroke:#181818;stroke-width:0.5;" width="131" x="8" y="223"/><ellipse cx="23" cy="239" fill="#ADD1B2" rx="11" ry="11" style="stroke:#181818;stroke-width:1.0;"/><path d="M22.9375,234.8281 Q22.1875,234.8281 21.625,235.125 Q21.0625,235.4063 20.6719,235.9375 Q20.2813,236.4688 20.0781,237.25 Q19.8906,238.0156 19.8906,238.9688 Q19.8906,239.9375 20.0625,240.7031 Q20.25,241.4531 20.6094,241.9688 Q20.9844,242.4844 21.5625,242.7656 Q22.1406,243.0313 22.9375,243.0313 Q23.6719,243.0313 24.4063,242.8594 Q25.1563,242.6875 26.0313,242.3906 L26.0313,244.5469 Q25.625,244.7031 25.2344,244.8281 Q24.8438,244.9375 24.4375,245.0156 Q24.0313,245.0938 23.6094,245.125 Q23.1875,245.1719 22.6875,245.1719 Q21.2813,245.1719 20.25,244.7188 Q19.2344,244.2656 18.5625,243.4531 Q17.8906,242.6406 17.5625,241.5 Q17.2344,240.3438 17.2344,238.9531 Q17.2344,237.5781 17.6094,236.4219 Q17.9844,235.2656 18.7031,234.4375 Q19.4219,233.6094 20.4844,233.1563 Q21.5469,232.6875 22.9375,232.6875 Q23.8438,232.6875 24.75,232.9219 Q25.6563,233.1406 26.4844,233.5469 L25.6563,235.6406 Q24.9688,235.3125 24.2813,235.0781 Q23.5938,234.8281 22.9375,234.8281 Z " fill="#000000"/><text fill="#000000" font-family="sans-serif" font-size="14" lengthAdjust="spacing" textLength="99" x="37" y="243.8467">InputController</text><line style="stroke:#181818;stroke-width:0.5;" x1="9" x2="138" y1="255" y2="255"/><line style="stroke:#181818;stroke-width:0.5;" x1="9" x2="138" y1="263" y2="263"/></g><!--reverse link MonoBehaviour to Controller--><g id="link_MonoBehaviour_Controller"><path codeLine="3" d="M73.5,75.02 C73.5,88.58 73.5,103.04 73.5,114.68 " fill="none" id="MonoBehaviour-backto-Controller" style="stroke:#181818;stroke-width:1.0;"/><polygon fill="none" points="66.5,75,73.5,55,80.5,75,66.5,75" style="stroke:#181818;stroke-width:1.0;"/></g><!--link Controller to InputController--><g id="link_Controller_InputController"><path codeLine="4" d="M73.5,163 C73.5,179 73.5,200.45 73.5,217.53 " fill="none" id="Controller-to-InputController" style="stroke:#181818;stroke-width:1.0;"/><polygon fill="#181818" points="73.5,222.68,77.5,213.68,73.5,217.68,69.5,213.68,73.5,222.68" style="stroke:#181818;stroke-width:1.0;"/><text fill="#000000" font-family="sans-serif" font-size="13" lengthAdjust="spacing" textLength="32" x="37.6" y="212.007">Input</text></g><!--SRC=[Iyv9B2vMSCxFAodApyb9BLAevghbyitFotTApKWioymlBLAmgT7LHLB1XQHOLzTEGSaphw2qH4a1J27a0000]--></g></svg>