<?xml version="1.0" encoding="us-ascii" standalone="no"?><svg xmlns="http://www.w3.org/2000/svg" xmlns:xlink="http://www.w3.org/1999/xlink" contentStyleType="text/css" height="170px" preserveAspectRatio="none" style="width:147px;height:170px;background:#FFFFFF;" version="1.1" viewBox="0 0 147 170" width="147px" zoomAndPan="magnify"><defs/><g><!--class DoorController--><g id="elem_DoorController"><rect codeLine="1" fill="#F1F1F1" height="48" id="DoorController" rx="2.5" ry="2.5" style="stroke:#181818;stroke-width:0.5;" width="129" x="9" y="115"/><ellipse cx="24" cy="131" fill="#ADD1B2" rx="11" ry="11" style="stroke:#181818;stroke-width:1.0;"/><path d="M23.9375,126.8281 Q23.1875,126.8281 22.625,127.125 Q22.0625,127.4063 21.6719,127.9375 Q21.2813,128.4688 21.0781,129.25 Q20.8906,130.0156 20.8906,130.9688 Q20.8906,131.9375 21.0625,132.7031 Q21.25,133.4531 21.6094,133.9688 Q21.9844,134.4844 22.5625,134.7656 Q23.1406,135.0313 23.9375,135.0313 Q24.6719,135.0313 25.4063,134.8594 Q26.1563,134.6875 27.0313,134.3906 L27.0313,136.5469 Q26.625,136.7031 26.2344,136.8281 Q25.8438,136.9375 25.4375,137.0156 Q25.0313,137.0938 24.6094,137.125 Q24.1875,137.1719 23.6875,137.1719 Q22.2813,137.1719 21.25,136.7188 Q20.2344,136.2656 19.5625,135.4531 Q18.8906,134.6406 18.5625,133.5 Q18.2344,132.3438 18.2344,130.9531 Q18.2344,129.5781 18.6094,128.4219 Q18.9844,127.2656 19.7031,126.4375 Q20.4219,125.6094 21.4844,125.1563 Q22.5469,124.6875 23.9375,124.6875 Q24.8438,124.6875 25.75,124.9219 Q26.6563,125.1406 27.4844,125.5469 L26.6563,127.6406 Q25.9688,127.3125 25.2813,127.0781 Q24.5938,126.8281 23.9375,126.8281 Z " fill="#000000"/><text fill="#000000" font-family="sans-serif" font-size="14" lengthAdjust="spacing" textLength="97" x="38" y="135.8467">DoorController</text><line style="stroke:#181818;stroke-width:0.5;" x1="10" x2="137" y1="147" y2="147"/><line style="stroke:#181818;stroke-width:0.5;" x1="10" x2="137" y1="155" y2="155"/></g><!--class MonoBehaviour--><g id="elem_MonoBehaviour"><rect fill="#F1F1F1" height="48" id="MonoBehaviour" rx="2.5" ry="2.5" style="stroke:#181818;stroke-width:0.5;" width="133" x="7" y="7"/><ellipse cx="22" cy="23" fill="#ADD1B2" rx="11" ry="11" style="stroke:#181818;stroke-width:1.0;"/><path d="M21.9375,18.8281 Q21.1875,18.8281 20.625,19.125 Q20.0625,19.4063 19.6719,19.9375 Q19.2813,20.4688 19.0781,21.25 Q18.8906,22.0156 18.8906,22.9688 Q18.8906,23.9375 19.0625,24.7031 Q19.25,25.4531 19.6094,25.9688 Q19.9844,26.4844 20.5625,26.7656 Q21.1406,27.0313 21.9375,27.0313 Q22.6719,27.0313 23.4063,26.8594 Q24.1563,26.6875 25.0313,26.3906 L25.0313,28.5469 Q24.625,28.7031 24.2344,28.8281 Q23.8438,28.9375 23.4375,29.0156 Q23.0313,29.0938 22.6094,29.125 Q22.1875,29.1719 21.6875,29.1719 Q20.2813,29.1719 19.25,28.7188 Q18.2344,28.2656 17.5625,27.4531 Q16.8906,26.6406 16.5625,25.5 Q16.2344,24.3438 16.2344,22.9531 Q16.2344,21.5781 16.6094,20.4219 Q16.9844,19.2656 17.7031,18.4375 Q18.4219,17.6094 19.4844,17.1563 Q20.5469,16.6875 21.9375,16.6875 Q22.8438,16.6875 23.75,16.9219 Q24.6563,17.1406 25.4844,17.5469 L24.6563,19.6406 Q23.9688,19.3125 23.2813,19.0781 Q22.5938,18.8281 21.9375,18.8281 Z " fill="#000000"/><text fill="#000000" font-family="sans-serif" font-size="14" lengthAdjust="spacing" textLength="101" x="36" y="27.8467">MonoBehaviour</text><line style="stroke:#181818;stroke-width:0.5;" x1="8" x2="139" y1="39" y2="39"/><line style="stroke:#181818;stroke-width:0.5;" x1="8" x2="139" y1="47" y2="47"/></g><!--reverse link MonoBehaviour to DoorController--><g id="link_MonoBehaviour_DoorController"><path codeLine="3" d="M73.5,75.02 C73.5,88.58 73.5,103.04 73.5,114.68 " fill="none" id="MonoBehaviour-backto-DoorController" style="stroke:#181818;stroke-width:1.0;"/><polygon fill="none" points="66.5,75,73.5,55,80.5,75,66.5,75" style="stroke:#181818;stroke-width:1.0;"/></g><!--SRC=[Iyv9B2vMSCdFBtBEpoifoi_9IIrIgEQgvVBDpyjtIir8BClCBorIiAdHrKLJ1G00]--></g></svg>