<?xml version="1.0" encoding="us-ascii" standalone="no"?><svg xmlns="http://www.w3.org/2000/svg" xmlns:xlink="http://www.w3.org/1999/xlink" contentStyleType="text/css" height="332px" preserveAspectRatio="none" style="width:316px;height:332px;background:#FFFFFF;" version="1.1" viewBox="0 0 316 332" width="316px" zoomAndPan="magnify"><defs/><g><!--class PlayerController--><g id="elem_PlayerController"><rect codeLine="1" fill="#F1F1F1" height="210.9688" id="PlayerController" rx="2.5" ry="2.5" style="stroke:#181818;stroke-width:0.5;" width="287" x="15.5" y="115"/><ellipse cx="102.25" cy="131" fill="#ADD1B2" rx="11" ry="11" style="stroke:#181818;stroke-width:1.0;"/><path d="M102.1875,126.8281 Q101.4375,126.8281 100.875,127.125 Q100.3125,127.4063 99.9219,127.9375 Q99.5313,128.4688 99.3281,129.25 Q99.1406,130.0156 99.1406,130.9688 Q99.1406,131.9375 99.3125,132.7031 Q99.5,133.4531 99.8594,133.9688 Q100.2344,134.4844 100.8125,134.7656 Q101.3906,135.0313 102.1875,135.0313 Q102.9219,135.0313 103.6563,134.8594 Q104.4063,134.6875 105.2813,134.3906 L105.2813,136.5469 Q104.875,136.7031 104.4844,136.8281 Q104.0938,136.9375 103.6875,137.0156 Q103.2813,137.0938 102.8594,137.125 Q102.4375,137.1719 101.9375,137.1719 Q100.5313,137.1719 99.5,136.7188 Q98.4844,136.2656 97.8125,135.4531 Q97.1406,134.6406 96.8125,133.5 Q96.4844,132.3438 96.4844,130.9531 Q96.4844,129.5781 96.8594,128.4219 Q97.2344,127.2656 97.9531,126.4375 Q98.6719,125.6094 99.7344,125.1563 Q100.7969,124.6875 102.1875,124.6875 Q103.0938,124.6875 104,124.9219 Q104.9063,125.1406 105.7344,125.5469 L104.9063,127.6406 Q104.2188,127.3125 103.5313,127.0781 Q102.8438,126.8281 102.1875,126.8281 Z " fill="#000000"/><text fill="#000000" font-family="sans-serif" font-size="14" lengthAdjust="spacing" textLength="105" x="122.75" y="135.8467">PlayerController</text><line style="stroke:#181818;stroke-width:0.5;" x1="16.5" x2="301.5" y1="147" y2="147"/><line style="stroke:#181818;stroke-width:0.5;" x1="16.5" x2="301.5" y1="155" y2="155"/><ellipse cx="26.5" cy="168.6484" fill="#84BE84" rx="3" ry="3" style="stroke:#038048;stroke-width:1.0;"/><text fill="#000000" font-family="sans-serif" font-size="14" lengthAdjust="spacing" textLength="207" x="35.5" y="171.9951">GetHorizontalMovement() : float</text><ellipse cx="26.5" cy="184.9453" fill="#84BE84" rx="3" ry="3" style="stroke:#038048;stroke-width:1.0;"/><text fill="#000000" font-family="sans-serif" font-size="14" lengthAdjust="spacing" textLength="189" x="35.5" y="188.292">GetVerticalMovement() : float</text><ellipse cx="26.5" cy="201.2422" fill="#84BE84" rx="3" ry="3" style="stroke:#038048;stroke-width:1.0;"/><text fill="#000000" font-family="sans-serif" font-size="14" lengthAdjust="spacing" textLength="142" x="35.5" y="204.5889">IsJumpPressed() : bool</text><ellipse cx="26.5" cy="217.5391" fill="#84BE84" rx="3" ry="3" style="stroke:#038048;stroke-width:1.0;"/><text fill="#000000" font-family="sans-serif" font-size="14" lengthAdjust="spacing" textLength="122" x="35.5" y="220.8857">IsJumpHeld() : bool</text><ellipse cx="26.5" cy="233.8359" fill="#84BE84" rx="3" ry="3" style="stroke:#038048;stroke-width:1.0;"/><text fill="#000000" font-family="sans-serif" font-size="14" lengthAdjust="spacing" textLength="140" x="35.5" y="237.1826">IsDashPressed() : bool</text><ellipse cx="26.5" cy="250.1328" fill="#84BE84" rx="3" ry="3" style="stroke:#038048;stroke-width:1.0;"/><text fill="#000000" font-family="sans-serif" font-size="14" lengthAdjust="spacing" textLength="196" x="35.5" y="253.4795">GetAttackDirection() : Vector2?</text><ellipse cx="26.5" cy="266.4297" fill="#84BE84" rx="3" ry="3" style="stroke:#038048;stroke-width:1.0;"/><text fill="#000000" font-family="sans-serif" font-size="14" lengthAdjust="spacing" textLength="261" x="35.5" y="269.7764">GetContinuedAttackDirection() : Vector2?</text><ellipse cx="26.5" cy="282.7266" fill="#84BE84" rx="3" ry="3" style="stroke:#038048;stroke-width:1.0;"/><text fill="#000000" font-family="sans-serif" font-size="14" lengthAdjust="spacing" textLength="152" x="35.5" y="286.0732">IsReloadPressed() : bool</text><ellipse cx="26.5" cy="299.0234" fill="#84BE84" rx="3" ry="3" style="stroke:#038048;stroke-width:1.0;"/><text fill="#000000" font-family="sans-serif" font-size="14" lengthAdjust="spacing" textLength="192" x="35.5" y="302.3701">IsSwapWeaponPressed() : bool</text><ellipse cx="26.5" cy="315.3203" fill="#84BE84" rx="3" ry="3" style="stroke:#038048;stroke-width:1.0;"/><text fill="#000000" font-family="sans-serif" font-size="14" lengthAdjust="spacing" textLength="162" x="35.5" y="318.667">GetHackInput() : Vector2?</text></g><!--class ScriptableObject--><g id="elem_ScriptableObject"><rect fill="#F1F1F1" height="48" id="ScriptableObject" rx="2.5" ry="2.5" style="stroke:#181818;stroke-width:0.5;" width="136" x="7" y="7"/><ellipse cx="22" cy="23" fill="#ADD1B2" rx="11" ry="11" style="stroke:#181818;stroke-width:1.0;"/><path d="M21.9375,18.8281 Q21.1875,18.8281 20.625,19.125 Q20.0625,19.4063 19.6719,19.9375 Q19.2813,20.4688 19.0781,21.25 Q18.8906,22.0156 18.8906,22.9688 Q18.8906,23.9375 19.0625,24.7031 Q19.25,25.4531 19.6094,25.9688 Q19.9844,26.4844 20.5625,26.7656 Q21.1406,27.0313 21.9375,27.0313 Q22.6719,27.0313 23.4063,26.8594 Q24.1563,26.6875 25.0313,26.3906 L25.0313,28.5469 Q24.625,28.7031 24.2344,28.8281 Q23.8438,28.9375 23.4375,29.0156 Q23.0313,29.0938 22.6094,29.125 Q22.1875,29.1719 21.6875,29.1719 Q20.2813,29.1719 19.25,28.7188 Q18.2344,28.2656 17.5625,27.4531 Q16.8906,26.6406 16.5625,25.5 Q16.2344,24.3438 16.2344,22.9531 Q16.2344,21.5781 16.6094,20.4219 Q16.9844,19.2656 17.7031,18.4375 Q18.4219,17.6094 19.4844,17.1563 Q20.5469,16.6875 21.9375,16.6875 Q22.8438,16.6875 23.75,16.9219 Q24.6563,17.1406 25.4844,17.5469 L24.6563,19.6406 Q23.9688,19.3125 23.2813,19.0781 Q22.5938,18.8281 21.9375,18.8281 Z " fill="#000000"/><text fill="#000000" font-family="sans-serif" font-size="14" lengthAdjust="spacing" textLength="104" x="36" y="27.8467">ScriptableObject</text><line style="stroke:#181818;stroke-width:0.5;" x1="8" x2="142" y1="39" y2="39"/><line style="stroke:#181818;stroke-width:0.5;" x1="8" x2="142" y1="47" y2="47"/></g><!--class InputController--><g id="elem_InputController"><rect fill="#F1F1F1" height="48" id="InputController" rx="2.5" ry="2.5" style="stroke:#181818;stroke-width:0.5;" width="131" x="178.5" y="7"/><ellipse cx="193.5" cy="23" fill="#ADD1B2" rx="11" ry="11" style="stroke:#181818;stroke-width:1.0;"/><path d="M193.4375,18.8281 Q192.6875,18.8281 192.125,19.125 Q191.5625,19.4063 191.1719,19.9375 Q190.7813,20.4688 190.5781,21.25 Q190.3906,22.0156 190.3906,22.9688 Q190.3906,23.9375 190.5625,24.7031 Q190.75,25.4531 191.1094,25.9688 Q191.4844,26.4844 192.0625,26.7656 Q192.6406,27.0313 193.4375,27.0313 Q194.1719,27.0313 194.9063,26.8594 Q195.6563,26.6875 196.5313,26.3906 L196.5313,28.5469 Q196.125,28.7031 195.7344,28.8281 Q195.3438,28.9375 194.9375,29.0156 Q194.5313,29.0938 194.1094,29.125 Q193.6875,29.1719 193.1875,29.1719 Q191.7813,29.1719 190.75,28.7188 Q189.7344,28.2656 189.0625,27.4531 Q188.3906,26.6406 188.0625,25.5 Q187.7344,24.3438 187.7344,22.9531 Q187.7344,21.5781 188.1094,20.4219 Q188.4844,19.2656 189.2031,18.4375 Q189.9219,17.6094 190.9844,17.1563 Q192.0469,16.6875 193.4375,16.6875 Q194.3438,16.6875 195.25,16.9219 Q196.1563,17.1406 196.9844,17.5469 L196.1563,19.6406 Q195.4688,19.3125 194.7813,19.0781 Q194.0938,18.8281 193.4375,18.8281 Z " fill="#000000"/><text fill="#000000" font-family="sans-serif" font-size="14" lengthAdjust="spacing" textLength="99" x="207.5" y="27.8467">InputController</text><line style="stroke:#181818;stroke-width:0.5;" x1="179.5" x2="308.5" y1="39" y2="39"/><line style="stroke:#181818;stroke-width:0.5;" x1="179.5" x2="308.5" y1="47" y2="47"/></g><!--reverse link ScriptableObject to PlayerController--><g id="link_ScriptableObject_PlayerController"><path codeLine="13" d="M93.7,73.75 C99.26,86.15 105.61,100.33 112.12,114.86 " fill="none" id="ScriptableObject-backto-PlayerController" style="stroke:#181818;stroke-width:1.0;"/><polygon fill="none" points="87.26,76.48,85.47,55.37,100.03,70.76,87.26,76.48" style="stroke:#181818;stroke-width:1.0;"/></g><!--reverse link InputController to PlayerController--><g id="link_InputController_PlayerController"><path codeLine="14" d="M225.08,73.75 C219.45,86.15 213.03,100.33 206.44,114.86 " fill="none" id="InputController-backto-PlayerController" style="stroke:#181818;stroke-width:1.0;"/><polygon fill="none" points="218.77,70.69,233.41,55.37,231.52,76.47,218.77,70.69" style="stroke:#181818;stroke-width:1.0;"/></g><!--SRC=[ZP51Qm8n48Nl-ojoR2bUUfI2b2wuAuYYi9vdirCQdSs4oQoYhV-zwLwiw9Rc5FA-ntipiGGncYN14UMDlGeJePZFpAJpPAQe1Oix9GLepdjiqUl3encRTsBG2rMXgBD_C6MSTMrO2iQ8JQ_Mp7Gb5aXtb1pYnu0jvRwgWjtbJj2gOzyJLRgpF4ykrCzapdVO_0ClumfJxsQmwle0OOCGs0_NAb9AwKEdrmddR6t51OMQS55lqxDv-HgDRlQVzTvV_t6N-WO0]--></g></svg>