<?xml version="1.0" encoding="us-ascii" standalone="no"?><svg xmlns="http://www.w3.org/2000/svg" xmlns:xlink="http://www.w3.org/1999/xlink" contentStyleType="text/css" height="218px" preserveAspectRatio="none" style="width:291px;height:218px;background:#FFFFFF;" version="1.1" viewBox="0 0 291 218" width="291px" zoomAndPan="magnify"><defs/><g><!--class SwitchController--><g id="elem_SwitchController"><rect codeLine="1" fill="#F1F1F1" height="96.8906" id="SwitchController" rx="2.5" ry="2.5" style="stroke:#181818;stroke-width:0.5;" width="230" x="36.5" y="115"/><ellipse cx="94.75" cy="131" fill="#ADD1B2" rx="11" ry="11" style="stroke:#181818;stroke-width:1.0;"/><path d="M94.6875,126.8281 Q93.9375,126.8281 93.375,127.125 Q92.8125,127.4063 92.4219,127.9375 Q92.0313,128.4688 91.8281,129.25 Q91.6406,130.0156 91.6406,130.9688 Q91.6406,131.9375 91.8125,132.7031 Q92,133.4531 92.3594,133.9688 Q92.7344,134.4844 93.3125,134.7656 Q93.8906,135.0313 94.6875,135.0313 Q95.4219,135.0313 96.1563,134.8594 Q96.9063,134.6875 97.7813,134.3906 L97.7813,136.5469 Q97.375,136.7031 96.9844,136.8281 Q96.5938,136.9375 96.1875,137.0156 Q95.7813,137.0938 95.3594,137.125 Q94.9375,137.1719 94.4375,137.1719 Q93.0313,137.1719 92,136.7188 Q90.9844,136.2656 90.3125,135.4531 Q89.6406,134.6406 89.3125,133.5 Q88.9844,132.3438 88.9844,130.9531 Q88.9844,129.5781 89.3594,128.4219 Q89.7344,127.2656 90.4531,126.4375 Q91.1719,125.6094 92.2344,125.1563 Q93.2969,124.6875 94.6875,124.6875 Q95.5938,124.6875 96.5,124.9219 Q97.4063,125.1406 98.2344,125.5469 L97.4063,127.6406 Q96.7188,127.3125 96.0313,127.0781 Q95.3438,126.8281 94.6875,126.8281 Z " fill="#000000"/><text fill="#000000" font-family="sans-serif" font-size="14" lengthAdjust="spacing" textLength="105" x="115.25" y="135.8467">SwitchController</text><line style="stroke:#181818;stroke-width:0.5;" x1="37.5" x2="265.5" y1="147" y2="147"/><ellipse cx="47.5" cy="160.6484" fill="none" rx="3" ry="3" style="stroke:#038048;stroke-width:1.0;"/><text fill="#000000" font-family="sans-serif" font-size="14" lengthAdjust="spacing" textLength="131" x="56.5" y="163.9951">Clicked : bool = false</text><line style="stroke:#181818;stroke-width:0.5;" x1="37.5" x2="265.5" y1="171.2969" y2="171.2969"/><ellipse cx="47.5" cy="184.9453" fill="#84BE84" rx="3" ry="3" style="stroke:#038048;stroke-width:1.0;"/><text fill="#000000" font-family="sans-serif" font-size="14" lengthAdjust="spacing" textLength="203" x="56.5" y="188.292">SaveData(data:GameData) : void</text><ellipse cx="47.5" cy="201.2422" fill="#84BE84" rx="3" ry="3" style="stroke:#038048;stroke-width:1.0;"/><text fill="#000000" font-family="sans-serif" font-size="14" lengthAdjust="spacing" textLength="204" x="56.5" y="204.5889">LoadData(data:GameData) : void</text></g><!--class MonoBehaviour--><g id="elem_MonoBehaviour"><rect fill="#F1F1F1" height="48" id="MonoBehaviour" rx="2.5" ry="2.5" style="stroke:#181818;stroke-width:0.5;" width="133" x="7" y="7"/><ellipse cx="22" cy="23" fill="#ADD1B2" rx="11" ry="11" style="stroke:#181818;stroke-width:1.0;"/><path d="M21.9375,18.8281 Q21.1875,18.8281 20.625,19.125 Q20.0625,19.4063 19.6719,19.9375 Q19.2813,20.4688 19.0781,21.25 Q18.8906,22.0156 18.8906,22.9688 Q18.8906,23.9375 19.0625,24.7031 Q19.25,25.4531 19.6094,25.9688 Q19.9844,26.4844 20.5625,26.7656 Q21.1406,27.0313 21.9375,27.0313 Q22.6719,27.0313 23.4063,26.8594 Q24.1563,26.6875 25.0313,26.3906 L25.0313,28.5469 Q24.625,28.7031 24.2344,28.8281 Q23.8438,28.9375 23.4375,29.0156 Q23.0313,29.0938 22.6094,29.125 Q22.1875,29.1719 21.6875,29.1719 Q20.2813,29.1719 19.25,28.7188 Q18.2344,28.2656 17.5625,27.4531 Q16.8906,26.6406 16.5625,25.5 Q16.2344,24.3438 16.2344,22.9531 Q16.2344,21.5781 16.6094,20.4219 Q16.9844,19.2656 17.7031,18.4375 Q18.4219,17.6094 19.4844,17.1563 Q20.5469,16.6875 21.9375,16.6875 Q22.8438,16.6875 23.75,16.9219 Q24.6563,17.1406 25.4844,17.5469 L24.6563,19.6406 Q23.9688,19.3125 23.2813,19.0781 Q22.5938,18.8281 21.9375,18.8281 Z " fill="#000000"/><text fill="#000000" font-family="sans-serif" font-size="14" lengthAdjust="spacing" textLength="101" x="36" y="27.8467">MonoBehaviour</text><line style="stroke:#181818;stroke-width:0.5;" x1="8" x2="139" y1="39" y2="39"/><line style="stroke:#181818;stroke-width:0.5;" x1="8" x2="139" y1="47" y2="47"/></g><!--class IDataPersist--><g id="elem_IDataPersist"><rect fill="#F1F1F1" height="48" id="IDataPersist" rx="2.5" ry="2.5" style="stroke:#181818;stroke-width:0.5;" width="109" x="175" y="7"/><ellipse cx="190" cy="23" fill="#ADD1B2" rx="11" ry="11" style="stroke:#181818;stroke-width:1.0;"/><path d="M189.9375,18.8281 Q189.1875,18.8281 188.625,19.125 Q188.0625,19.4063 187.6719,19.9375 Q187.2813,20.4688 187.0781,21.25 Q186.8906,22.0156 186.8906,22.9688 Q186.8906,23.9375 187.0625,24.7031 Q187.25,25.4531 187.6094,25.9688 Q187.9844,26.4844 188.5625,26.7656 Q189.1406,27.0313 189.9375,27.0313 Q190.6719,27.0313 191.4063,26.8594 Q192.1563,26.6875 193.0313,26.3906 L193.0313,28.5469 Q192.625,28.7031 192.2344,28.8281 Q191.8438,28.9375 191.4375,29.0156 Q191.0313,29.0938 190.6094,29.125 Q190.1875,29.1719 189.6875,29.1719 Q188.2813,29.1719 187.25,28.7188 Q186.2344,28.2656 185.5625,27.4531 Q184.8906,26.6406 184.5625,25.5 Q184.2344,24.3438 184.2344,22.9531 Q184.2344,21.5781 184.6094,20.4219 Q184.9844,19.2656 185.7031,18.4375 Q186.4219,17.6094 187.4844,17.1563 Q188.5469,16.6875 189.9375,16.6875 Q190.8438,16.6875 191.75,16.9219 Q192.6563,17.1406 193.4844,17.5469 L192.6563,19.6406 Q191.9688,19.3125 191.2813,19.0781 Q190.5938,18.8281 189.9375,18.8281 Z " fill="#000000"/><text fill="#000000" font-family="sans-serif" font-size="14" lengthAdjust="spacing" textLength="77" x="204" y="27.8467">IDataPersist</text><line style="stroke:#181818;stroke-width:0.5;" x1="176" x2="283" y1="39" y2="39"/><line style="stroke:#181818;stroke-width:0.5;" x1="176" x2="283" y1="47" y2="47"/></g><!--reverse link MonoBehaviour to SwitchController--><g id="link_MonoBehaviour_SwitchController"><path codeLine="6" d="M97.76,72.58 C105.76,85.97 114.73,100.98 123.02,114.84 " fill="none" id="MonoBehaviour-backto-SwitchController" style="stroke:#181818;stroke-width:1.0;"/><polygon fill="none" points="91.52,75.79,87.27,55.03,103.53,68.61,91.52,75.79" style="stroke:#181818;stroke-width:1.0;"/></g><!--reverse link IDataPersist to SwitchController--><g id="link_IDataPersist_SwitchController"><path codeLine="7" d="M205.24,72.58 C197.24,85.97 188.27,100.98 179.98,114.84 " fill="none" id="IDataPersist-backto-SwitchController" style="stroke:#181818;stroke-width:1.0;"/><polygon fill="none" points="199.47,68.61,215.73,55.03,211.48,75.79,199.47,68.61" style="stroke:#181818;stroke-width:1.0;"/></g><!--SRC=[Iyv9B2vM22xFB4dESCxFAodApyb9BLAevb800cq5vvpCvEpK50KhXQJy_1m5MuMqn9pYLAXaS69PgajYIQ962f2mSa_C1VCqWOhByZDJe8fyyXDJy2YgvVBDpyjtIir8BClCBorIiAdHrSLm3fSdI4z0Qb5nPd49TYK0]--></g></svg>