<?xml version="1.0" encoding="us-ascii" standalone="no"?><svg xmlns="http://www.w3.org/2000/svg" xmlns:xlink="http://www.w3.org/1999/xlink" contentStyleType="text/css" height="202px" preserveAspectRatio="none" style="width:500px;height:202px;background:#FFFFFF;" version="1.1" viewBox="0 0 500 202" width="500px" zoomAndPan="magnify"><defs/><g><!--class Bullet--><g id="elem_Bullet"><rect codeLine="1" fill="#F1F1F1" height="80.5938" id="Bullet" rx="2.5" ry="2.5" style="stroke:#181818;stroke-width:0.5;" width="486" x="7" y="115"/><ellipse cx="226.75" cy="131" fill="#ADD1B2" rx="11" ry="11" style="stroke:#181818;stroke-width:1.0;"/><path d="M226.6875,126.8281 Q225.9375,126.8281 225.375,127.125 Q224.8125,127.4063 224.4219,127.9375 Q224.0313,128.4688 223.8281,129.25 Q223.6406,130.0156 223.6406,130.9688 Q223.6406,131.9375 223.8125,132.7031 Q224,133.4531 224.3594,133.9688 Q224.7344,134.4844 225.3125,134.7656 Q225.8906,135.0313 226.6875,135.0313 Q227.4219,135.0313 228.1563,134.8594 Q228.9063,134.6875 229.7813,134.3906 L229.7813,136.5469 Q229.375,136.7031 228.9844,136.8281 Q228.5938,136.9375 228.1875,137.0156 Q227.7813,137.0938 227.3594,137.125 Q226.9375,137.1719 226.4375,137.1719 Q225.0313,137.1719 224,136.7188 Q222.9844,136.2656 222.3125,135.4531 Q221.6406,134.6406 221.3125,133.5 Q220.9844,132.3438 220.9844,130.9531 Q220.9844,129.5781 221.3594,128.4219 Q221.7344,127.2656 222.4531,126.4375 Q223.1719,125.6094 224.2344,125.1563 Q225.2969,124.6875 226.6875,124.6875 Q227.5938,124.6875 228.5,124.9219 Q229.4063,125.1406 230.2344,125.5469 L229.4063,127.6406 Q228.7188,127.3125 228.0313,127.0781 Q227.3438,126.8281 226.6875,126.8281 Z " fill="#000000"/><text fill="#000000" font-family="sans-serif" font-size="14" lengthAdjust="spacing" textLength="38" x="247.25" y="135.8467">Bullet</text><line style="stroke:#181818;stroke-width:0.5;" x1="8" x2="492" y1="147" y2="147"/><line style="stroke:#181818;stroke-width:0.5;" x1="8" x2="492" y1="155" y2="155"/><ellipse cx="18" cy="168.6484" fill="#84BE84" rx="3" ry="3" style="stroke:#038048;stroke-width:1.0;"/><text fill="#000000" font-family="sans-serif" font-size="14" lengthAdjust="spacing" textLength="460" x="27" y="171.9951">Fire(velocity:Vector2, knockbackMultiplier:float, bulletDamage:int) : void</text><ellipse cx="18" cy="184.9453" fill="#84BE84" rx="3" ry="3" style="stroke:#038048;stroke-width:1.0;"/><text fill="#000000" font-family="sans-serif" font-size="14" lengthAdjust="spacing" textLength="190" x="27" y="188.292">SetDamage(damage:int) : void</text></g><!--class BaseProjectile--><g id="elem_BaseProjectile"><rect fill="#F1F1F1" height="48" id="BaseProjectile" rx="2.5" ry="2.5" style="stroke:#181818;stroke-width:0.5;" width="123" x="188.5" y="7"/><ellipse cx="203.5" cy="23" fill="#ADD1B2" rx="11" ry="11" style="stroke:#181818;stroke-width:1.0;"/><path d="M203.4375,18.8281 Q202.6875,18.8281 202.125,19.125 Q201.5625,19.4063 201.1719,19.9375 Q200.7813,20.4688 200.5781,21.25 Q200.3906,22.0156 200.3906,22.9688 Q200.3906,23.9375 200.5625,24.7031 Q200.75,25.4531 201.1094,25.9688 Q201.4844,26.4844 202.0625,26.7656 Q202.6406,27.0313 203.4375,27.0313 Q204.1719,27.0313 204.9063,26.8594 Q205.6563,26.6875 206.5313,26.3906 L206.5313,28.5469 Q206.125,28.7031 205.7344,28.8281 Q205.3438,28.9375 204.9375,29.0156 Q204.5313,29.0938 204.1094,29.125 Q203.6875,29.1719 203.1875,29.1719 Q201.7813,29.1719 200.75,28.7188 Q199.7344,28.2656 199.0625,27.4531 Q198.3906,26.6406 198.0625,25.5 Q197.7344,24.3438 197.7344,22.9531 Q197.7344,21.5781 198.1094,20.4219 Q198.4844,19.2656 199.2031,18.4375 Q199.9219,17.6094 200.9844,17.1563 Q202.0469,16.6875 203.4375,16.6875 Q204.3438,16.6875 205.25,16.9219 Q206.1563,17.1406 206.9844,17.5469 L206.1563,19.6406 Q205.4688,19.3125 204.7813,19.0781 Q204.0938,18.8281 203.4375,18.8281 Z " fill="#000000"/><text fill="#000000" font-family="sans-serif" font-size="14" lengthAdjust="spacing" textLength="91" x="217.5" y="27.8467">BaseProjectile</text><line style="stroke:#181818;stroke-width:0.5;" x1="189.5" x2="310.5" y1="39" y2="39"/><line style="stroke:#181818;stroke-width:0.5;" x1="189.5" x2="310.5" y1="47" y2="47"/></g><!--reverse link BaseProjectile to Bullet--><g id="link_BaseProjectile_Bullet"><path codeLine="5" d="M250,75.14 C250,88 250,102.04 250,114.69 " fill="none" id="BaseProjectile-backto-Bullet" style="stroke:#181818;stroke-width:1.0;"/><polygon fill="none" points="243,75.04,250,55.04,257,75.04,243,75.04" style="stroke:#181818;stroke-width:1.0;"/></g><!--SRC=[POwn2i9044JxVCMM4PF6yh0AOYS8WlrciyfwQpRSRGAY_hj1OkMqRtWpf9WpDACgEpmBcBE6lIGk9rOZyKSuCxcbJGMnDuejKZoCwZAeS0eNDVGAsgzWXtUySf3ULn1WCkaMuUd7okw_yYuQp7nCTfk7H1cshxfUBdq0]--></g></svg>