<?xml version="1.0" encoding="us-ascii" standalone="no"?><svg xmlns="http://www.w3.org/2000/svg" xmlns:xlink="http://www.w3.org/1999/xlink" contentStyleType="text/css" height="186px" preserveAspectRatio="none" style="width:382px;height:186px;background:#FFFFFF;" version="1.1" viewBox="0 0 382 186" width="382px" zoomAndPan="magnify"><defs/><g><!--class Bullet--><g id="elem_Bullet"><rect codeLine="1" fill="#F1F1F1" height="64.2969" id="Bullet" rx="2.5" ry="2.5" style="stroke:#181818;stroke-width:0.5;" width="368" x="7" y="115"/><ellipse cx="167.75" cy="131" fill="#ADD1B2" rx="11" ry="11" style="stroke:#181818;stroke-width:1.0;"/><path d="M167.6875,126.8281 Q166.9375,126.8281 166.375,127.125 Q165.8125,127.4063 165.4219,127.9375 Q165.0313,128.4688 164.8281,129.25 Q164.6406,130.0156 164.6406,130.9688 Q164.6406,131.9375 164.8125,132.7031 Q165,133.4531 165.3594,133.9688 Q165.7344,134.4844 166.3125,134.7656 Q166.8906,135.0313 167.6875,135.0313 Q168.4219,135.0313 169.1563,134.8594 Q169.9063,134.6875 170.7813,134.3906 L170.7813,136.5469 Q170.375,136.7031 169.9844,136.8281 Q169.5938,136.9375 169.1875,137.0156 Q168.7813,137.0938 168.3594,137.125 Q167.9375,137.1719 167.4375,137.1719 Q166.0313,137.1719 165,136.7188 Q163.9844,136.2656 163.3125,135.4531 Q162.6406,134.6406 162.3125,133.5 Q161.9844,132.3438 161.9844,130.9531 Q161.9844,129.5781 162.3594,128.4219 Q162.7344,127.2656 163.4531,126.4375 Q164.1719,125.6094 165.2344,125.1563 Q166.2969,124.6875 167.6875,124.6875 Q168.5938,124.6875 169.5,124.9219 Q170.4063,125.1406 171.2344,125.5469 L170.4063,127.6406 Q169.7188,127.3125 169.0313,127.0781 Q168.3438,126.8281 167.6875,126.8281 Z " fill="#000000"/><text fill="#000000" font-family="sans-serif" font-size="14" lengthAdjust="spacing" textLength="38" x="188.25" y="135.8467">Bullet</text><line style="stroke:#181818;stroke-width:0.5;" x1="8" x2="374" y1="147" y2="147"/><line style="stroke:#181818;stroke-width:0.5;" x1="8" x2="374" y1="155" y2="155"/><ellipse cx="18" cy="168.6484" fill="#84BE84" rx="3" ry="3" style="stroke:#038048;stroke-width:1.0;"/><text fill="#000000" font-family="sans-serif" font-size="14" lengthAdjust="spacing" textLength="342" x="27" y="171.9951">Fire(velocity:Vector2, knockbackMultiplier:float) : void</text></g><!--class BaseProjectile--><g id="elem_BaseProjectile"><rect fill="#F1F1F1" height="48" id="BaseProjectile" rx="2.5" ry="2.5" style="stroke:#181818;stroke-width:0.5;" width="123" x="129.5" y="7"/><ellipse cx="144.5" cy="23" fill="#ADD1B2" rx="11" ry="11" style="stroke:#181818;stroke-width:1.0;"/><path d="M144.4375,18.8281 Q143.6875,18.8281 143.125,19.125 Q142.5625,19.4063 142.1719,19.9375 Q141.7813,20.4688 141.5781,21.25 Q141.3906,22.0156 141.3906,22.9688 Q141.3906,23.9375 141.5625,24.7031 Q141.75,25.4531 142.1094,25.9688 Q142.4844,26.4844 143.0625,26.7656 Q143.6406,27.0313 144.4375,27.0313 Q145.1719,27.0313 145.9063,26.8594 Q146.6563,26.6875 147.5313,26.3906 L147.5313,28.5469 Q147.125,28.7031 146.7344,28.8281 Q146.3438,28.9375 145.9375,29.0156 Q145.5313,29.0938 145.1094,29.125 Q144.6875,29.1719 144.1875,29.1719 Q142.7813,29.1719 141.75,28.7188 Q140.7344,28.2656 140.0625,27.4531 Q139.3906,26.6406 139.0625,25.5 Q138.7344,24.3438 138.7344,22.9531 Q138.7344,21.5781 139.1094,20.4219 Q139.4844,19.2656 140.2031,18.4375 Q140.9219,17.6094 141.9844,17.1563 Q143.0469,16.6875 144.4375,16.6875 Q145.3438,16.6875 146.25,16.9219 Q147.1563,17.1406 147.9844,17.5469 L147.1563,19.6406 Q146.4688,19.3125 145.7813,19.0781 Q145.0938,18.8281 144.4375,18.8281 Z " fill="#000000"/><text fill="#000000" font-family="sans-serif" font-size="14" lengthAdjust="spacing" textLength="91" x="158.5" y="27.8467">BaseProjectile</text><line style="stroke:#181818;stroke-width:0.5;" x1="130.5" x2="251.5" y1="39" y2="39"/><line style="stroke:#181818;stroke-width:0.5;" x1="130.5" x2="251.5" y1="47" y2="47"/></g><!--reverse link BaseProjectile to Bullet--><g id="link_BaseProjectile_Bullet"><path codeLine="4" d="M191,75.09 C191,88.28 191,102.52 191,114.75 " fill="none" id="BaseProjectile-backto-Bullet" style="stroke:#181818;stroke-width:1.0;"/><polygon fill="none" points="184,75.07,191,55.07,198,75.07,184,75.07" style="stroke:#181818;stroke-width:1.0;"/></g><!--SRC=[Iyv9B2vMS2hDoKajKQZcKW02RGMtpA9KZRBKdFpap99Agx3Kv9By8YCTXUoy_EJifCJaRD_Id9BCWfpCr2Ahj9pyn19D1Ik5ilpC5AvQBgV4ujI0elmie9xCd5G5cnfTNQZf0000]--></g></svg>