<?xml version="1.0" encoding="us-ascii" standalone="no"?><svg xmlns="http://www.w3.org/2000/svg" xmlns:xlink="http://www.w3.org/1999/xlink" contentStyleType="text/css" height="365px" preserveAspectRatio="none" style="width:351px;height:365px;background:#FFFFFF;" version="1.1" viewBox="0 0 351 365" width="351px" zoomAndPan="magnify"><defs/><g><!--class Gun--><g id="elem_Gun"><rect codeLine="1" fill="#F1F1F1" height="243.5625" id="Gun" rx="2.5" ry="2.5" style="stroke:#181818;stroke-width:0.5;" width="337" x="7" y="115"/><ellipse cx="158.25" cy="131" fill="#ADD1B2" rx="11" ry="11" style="stroke:#181818;stroke-width:1.0;"/><path d="M158.1875,126.8281 Q157.4375,126.8281 156.875,127.125 Q156.3125,127.4063 155.9219,127.9375 Q155.5313,128.4688 155.3281,129.25 Q155.1406,130.0156 155.1406,130.9688 Q155.1406,131.9375 155.3125,132.7031 Q155.5,133.4531 155.8594,133.9688 Q156.2344,134.4844 156.8125,134.7656 Q157.3906,135.0313 158.1875,135.0313 Q158.9219,135.0313 159.6563,134.8594 Q160.4063,134.6875 161.2813,134.3906 L161.2813,136.5469 Q160.875,136.7031 160.4844,136.8281 Q160.0938,136.9375 159.6875,137.0156 Q159.2813,137.0938 158.8594,137.125 Q158.4375,137.1719 157.9375,137.1719 Q156.5313,137.1719 155.5,136.7188 Q154.4844,136.2656 153.8125,135.4531 Q153.1406,134.6406 152.8125,133.5 Q152.4844,132.3438 152.4844,130.9531 Q152.4844,129.5781 152.8594,128.4219 Q153.2344,127.2656 153.9531,126.4375 Q154.6719,125.6094 155.7344,125.1563 Q156.7969,124.6875 158.1875,124.6875 Q159.0938,124.6875 160,124.9219 Q160.9063,125.1406 161.7344,125.5469 L160.9063,127.6406 Q160.2188,127.3125 159.5313,127.0781 Q158.8438,126.8281 158.1875,126.8281 Z " fill="#000000"/><text fill="#000000" font-family="sans-serif" font-size="14" lengthAdjust="spacing" textLength="26" x="178.75" y="135.8467">Gun</text><line style="stroke:#181818;stroke-width:0.5;" x1="8" x2="343" y1="147" y2="147"/><ellipse cx="18" cy="160.6484" fill="none" rx="3" ry="3" style="stroke:#038048;stroke-width:1.0;"/><text fill="#000000" font-family="sans-serif" font-size="14" lengthAdjust="spacing" textLength="138" x="27" y="163.9951">MaxAmmo : uint = 20</text><ellipse cx="18" cy="176.9453" fill="none" rx="3" ry="3" style="stroke:#038048;stroke-width:1.0;"/><text fill="#000000" font-family="sans-serif" font-size="14" lengthAdjust="spacing" textLength="161" x="27" y="180.292">CurrentAmmo : uint = 20</text><ellipse cx="18" cy="193.2422" fill="none" rx="3" ry="3" style="stroke:#038048;stroke-width:1.0;"/><text fill="#000000" font-family="sans-serif" font-size="14" lengthAdjust="spacing" textLength="102" x="27" y="196.5889">Reloading : bool</text><line style="stroke:#181818;stroke-width:0.5;" x1="8" x2="343" y1="203.8906" y2="203.8906"/><ellipse cx="18" cy="217.5391" fill="#84BE84" rx="3" ry="3" style="stroke:#038048;stroke-width:1.0;"/><text fill="#000000" font-family="sans-serif" font-size="14" lengthAdjust="spacing" textLength="174" x="27" y="220.8857">Shoot(target:Vector2) : void</text><ellipse cx="18" cy="233.8359" fill="#84BE84" rx="3" ry="3" style="stroke:#038048;stroke-width:1.0;"/><text fill="#000000" font-family="sans-serif" font-size="14" lengthAdjust="spacing" textLength="121" x="27" y="237.1826">IsReloading() : bool</text><ellipse cx="18" cy="250.1328" fill="#84BE84" rx="3" ry="3" style="stroke:#038048;stroke-width:1.0;"/><text fill="#000000" font-family="sans-serif" font-size="14" lengthAdjust="spacing" textLength="228" x="27" y="253.4795">GetCurrentReloadPercent() : double</text><ellipse cx="18" cy="266.4297" fill="#84BE84" rx="3" ry="3" style="stroke:#038048;stroke-width:1.0;"/><text fill="#000000" font-family="sans-serif" font-size="14" lengthAdjust="spacing" textLength="178" x="27" y="269.7764">GetUnlimitedAmmo() : bool</text><ellipse cx="18" cy="282.7266" fill="#84BE84" rx="3" ry="3" style="stroke:#038048;stroke-width:1.0;"/><text fill="#000000" font-family="sans-serif" font-size="14" lengthAdjust="spacing" textLength="311" x="27" y="286.0732">SetUnlimitedAmmo(unlimitedAmmo:bool) : void</text><ellipse cx="18" cy="299.0234" fill="#84BE84" rx="3" ry="3" style="stroke:#038048;stroke-width:1.0;"/><text fill="#000000" font-family="sans-serif" font-size="14" lengthAdjust="spacing" textLength="149" x="27" y="302.3701">GetBulletSpeed() : float</text><ellipse cx="18" cy="315.3203" fill="#84BE84" rx="3" ry="3" style="stroke:#038048;stroke-width:1.0;"/><text fill="#000000" font-family="sans-serif" font-size="14" lengthAdjust="spacing" textLength="253" x="27" y="318.667">SetBulletSpeed(bulletSpeed:float) : void</text><ellipse cx="18" cy="331.6172" fill="#84BE84" rx="3" ry="3" style="stroke:#038048;stroke-width:1.0;"/><text fill="#000000" font-family="sans-serif" font-size="14" lengthAdjust="spacing" textLength="178" x="27" y="334.9639">GetShootingDelay() : double</text><ellipse cx="18" cy="347.9141" fill="#84BE84" rx="3" ry="3" style="stroke:#038048;stroke-width:1.0;"/><text fill="#000000" font-family="sans-serif" font-size="14" lengthAdjust="spacing" textLength="296" x="27" y="351.2607">SetShootingDelay(shootingDelay:double) : void</text></g><!--class BaseWeapon--><g id="elem_BaseWeapon"><rect fill="#F1F1F1" height="48" id="BaseWeapon" rx="2.5" ry="2.5" style="stroke:#181818;stroke-width:0.5;" width="113" x="119" y="7"/><ellipse cx="134" cy="23" fill="#ADD1B2" rx="11" ry="11" style="stroke:#181818;stroke-width:1.0;"/><path d="M133.9375,18.8281 Q133.1875,18.8281 132.625,19.125 Q132.0625,19.4063 131.6719,19.9375 Q131.2813,20.4688 131.0781,21.25 Q130.8906,22.0156 130.8906,22.9688 Q130.8906,23.9375 131.0625,24.7031 Q131.25,25.4531 131.6094,25.9688 Q131.9844,26.4844 132.5625,26.7656 Q133.1406,27.0313 133.9375,27.0313 Q134.6719,27.0313 135.4063,26.8594 Q136.1563,26.6875 137.0313,26.3906 L137.0313,28.5469 Q136.625,28.7031 136.2344,28.8281 Q135.8438,28.9375 135.4375,29.0156 Q135.0313,29.0938 134.6094,29.125 Q134.1875,29.1719 133.6875,29.1719 Q132.2813,29.1719 131.25,28.7188 Q130.2344,28.2656 129.5625,27.4531 Q128.8906,26.6406 128.5625,25.5 Q128.2344,24.3438 128.2344,22.9531 Q128.2344,21.5781 128.6094,20.4219 Q128.9844,19.2656 129.7031,18.4375 Q130.4219,17.6094 131.4844,17.1563 Q132.5469,16.6875 133.9375,16.6875 Q134.8438,16.6875 135.75,16.9219 Q136.6563,17.1406 137.4844,17.5469 L136.6563,19.6406 Q135.9688,19.3125 135.2813,19.0781 Q134.5938,18.8281 133.9375,18.8281 Z " fill="#000000"/><text fill="#000000" font-family="sans-serif" font-size="14" lengthAdjust="spacing" textLength="81" x="148" y="27.8467">BaseWeapon</text><line style="stroke:#181818;stroke-width:0.5;" x1="120" x2="231" y1="39" y2="39"/><line style="stroke:#181818;stroke-width:0.5;" x1="120" x2="231" y1="47" y2="47"/></g><!--reverse link BaseWeapon to Gun--><g id="link_BaseWeapon_Gun"><path codeLine="15" d="M175.5,75.02 C175.5,86.94 175.5,100.49 175.5,114.55 " fill="none" id="BaseWeapon-backto-Gun" style="stroke:#181818;stroke-width:1.0;"/><polygon fill="none" points="168.5,75,175.5,55,182.5,75,168.5,75" style="stroke:#181818;stroke-width:1.0;"/></g><!--SRC=[TP51Yy8m48Nl_eevAb8GZs4zw0fb3mjYKSzfCseWpPHaiYYw_ttJMcotOawPl6zUtYI5aTv36YpSHX3N5BxbPLcM10A2jWmBcCzQvJCuXvRVg5iq99MsfwZbHAOzpiv4F6RfJiXYZmMJcqyYyaDQjSYNV_QE9_-xK-JsrWUoGLV4ei4KXTnW1-wiqQLcL7N0eL4sr4E_4ZKvI1KTLy4OvAn2L8tVCKRWph0lvzrUDDYhM_CISSOr6dbzdI0R4hvVYGVxTFqThQJ70ygAB7pSawJ-mpy0]--></g></svg>