<?xml version="1.0" encoding="us-ascii" standalone="no"?><svg xmlns="http://www.w3.org/2000/svg" xmlns:xlink="http://www.w3.org/1999/xlink" contentStyleType="text/css" height="414px" preserveAspectRatio="none" style="width:395px;height:414px;background:#FFFFFF;" version="1.1" viewBox="0 0 395 414" width="395px" zoomAndPan="magnify"><defs/><g><!--class Gun--><g id="elem_Gun"><rect codeLine="1" fill="#F1F1F1" height="292.4531" id="Gun" rx="2.5" ry="2.5" style="stroke:#181818;stroke-width:0.5;" width="381" x="7" y="115"/><ellipse cx="180.25" cy="131" fill="#ADD1B2" rx="11" ry="11" style="stroke:#181818;stroke-width:1.0;"/><path d="M180.1875,126.8281 Q179.4375,126.8281 178.875,127.125 Q178.3125,127.4063 177.9219,127.9375 Q177.5313,128.4688 177.3281,129.25 Q177.1406,130.0156 177.1406,130.9688 Q177.1406,131.9375 177.3125,132.7031 Q177.5,133.4531 177.8594,133.9688 Q178.2344,134.4844 178.8125,134.7656 Q179.3906,135.0313 180.1875,135.0313 Q180.9219,135.0313 181.6563,134.8594 Q182.4063,134.6875 183.2813,134.3906 L183.2813,136.5469 Q182.875,136.7031 182.4844,136.8281 Q182.0938,136.9375 181.6875,137.0156 Q181.2813,137.0938 180.8594,137.125 Q180.4375,137.1719 179.9375,137.1719 Q178.5313,137.1719 177.5,136.7188 Q176.4844,136.2656 175.8125,135.4531 Q175.1406,134.6406 174.8125,133.5 Q174.4844,132.3438 174.4844,130.9531 Q174.4844,129.5781 174.8594,128.4219 Q175.2344,127.2656 175.9531,126.4375 Q176.6719,125.6094 177.7344,125.1563 Q178.7969,124.6875 180.1875,124.6875 Q181.0938,124.6875 182,124.9219 Q182.9063,125.1406 183.7344,125.5469 L182.9063,127.6406 Q182.2188,127.3125 181.5313,127.0781 Q180.8438,126.8281 180.1875,126.8281 Z " fill="#000000"/><text fill="#000000" font-family="sans-serif" font-size="14" lengthAdjust="spacing" textLength="26" x="200.75" y="135.8467">Gun</text><line style="stroke:#181818;stroke-width:0.5;" x1="8" x2="387" y1="147" y2="147"/><ellipse cx="18" cy="160.6484" fill="none" rx="3" ry="3" style="stroke:#038048;stroke-width:1.0;"/><text fill="#000000" font-family="sans-serif" font-size="14" lengthAdjust="spacing" textLength="138" x="27" y="163.9951">MaxAmmo : uint = 20</text><ellipse cx="18" cy="176.9453" fill="none" rx="3" ry="3" style="stroke:#038048;stroke-width:1.0;"/><text fill="#000000" font-family="sans-serif" font-size="14" lengthAdjust="spacing" textLength="161" x="27" y="180.292">CurrentAmmo : uint = 20</text><ellipse cx="18" cy="193.2422" fill="none" rx="3" ry="3" style="stroke:#038048;stroke-width:1.0;"/><text fill="#000000" font-family="sans-serif" font-size="14" lengthAdjust="spacing" textLength="102" x="27" y="196.5889">Reloading : bool</text><line style="stroke:#181818;stroke-width:0.5;" x1="8" x2="387" y1="203.8906" y2="203.8906"/><ellipse cx="18" cy="217.5391" fill="#84BE84" rx="3" ry="3" style="stroke:#038048;stroke-width:1.0;"/><text fill="#000000" font-family="sans-serif" font-size="14" lengthAdjust="spacing" textLength="233" x="27" y="220.8857">&#171;virtual&#187; Shoot(target:Vector2) : void</text><ellipse cx="18" cy="233.8359" fill="#84BE84" rx="3" ry="3" style="stroke:#038048;stroke-width:1.0;"/><text fill="#000000" font-family="sans-serif" font-size="14" lengthAdjust="spacing" textLength="121" x="27" y="237.1826">IsReloading() : bool</text><ellipse cx="18" cy="250.1328" fill="#84BE84" rx="3" ry="3" style="stroke:#038048;stroke-width:1.0;"/><text fill="#000000" font-family="sans-serif" font-size="14" lengthAdjust="spacing" textLength="228" x="27" y="253.4795">GetCurrentReloadPercent() : double</text><ellipse cx="18" cy="266.4297" fill="#84BE84" rx="3" ry="3" style="stroke:#038048;stroke-width:1.0;"/><text fill="#000000" font-family="sans-serif" font-size="14" lengthAdjust="spacing" textLength="178" x="27" y="269.7764">GetUnlimitedAmmo() : bool</text><ellipse cx="18" cy="282.7266" fill="#84BE84" rx="3" ry="3" style="stroke:#038048;stroke-width:1.0;"/><text fill="#000000" font-family="sans-serif" font-size="14" lengthAdjust="spacing" textLength="311" x="27" y="286.0732">SetUnlimitedAmmo(unlimitedAmmo:bool) : void</text><ellipse cx="18" cy="299.0234" fill="#84BE84" rx="3" ry="3" style="stroke:#038048;stroke-width:1.0;"/><text fill="#000000" font-family="sans-serif" font-size="14" lengthAdjust="spacing" textLength="149" x="27" y="302.3701">GetBulletSpeed() : float</text><ellipse cx="18" cy="315.3203" fill="#84BE84" rx="3" ry="3" style="stroke:#038048;stroke-width:1.0;"/><text fill="#000000" font-family="sans-serif" font-size="14" lengthAdjust="spacing" textLength="253" x="27" y="318.667">SetBulletSpeed(bulletSpeed:float) : void</text><ellipse cx="18" cy="331.6172" fill="#84BE84" rx="3" ry="3" style="stroke:#038048;stroke-width:1.0;"/><text fill="#000000" font-family="sans-serif" font-size="14" lengthAdjust="spacing" textLength="178" x="27" y="334.9639">GetShootingDelay() : double</text><ellipse cx="18" cy="347.9141" fill="#84BE84" rx="3" ry="3" style="stroke:#038048;stroke-width:1.0;"/><text fill="#000000" font-family="sans-serif" font-size="14" lengthAdjust="spacing" textLength="296" x="27" y="351.2607">SetShootingDelay(shootingDelay:double) : void</text><ellipse cx="18" cy="364.2109" fill="#84BE84" rx="3" ry="3" style="stroke:#038048;stroke-width:1.0;"/><text fill="#000000" font-family="sans-serif" font-size="14" lengthAdjust="spacing" textLength="355" x="27" y="367.5576">SetKnockbackMultiplier(knockbackMultiplier:float) : void</text><ellipse cx="18" cy="380.5078" fill="#84BE84" rx="3" ry="3" style="stroke:#038048;stroke-width:1.0;"/><text fill="#000000" font-family="sans-serif" font-size="14" lengthAdjust="spacing" textLength="281" x="27" y="383.8545">SetShootingDelay(shootingDelay:float) : void</text><ellipse cx="18" cy="396.8047" fill="#84BE84" rx="3" ry="3" style="stroke:#038048;stroke-width:1.0;"/><text fill="#000000" font-family="sans-serif" font-size="14" lengthAdjust="spacing" textLength="248" x="27" y="400.1514">SetReloadTime(reloadTime:float) : void</text></g><!--class BaseWeapon--><g id="elem_BaseWeapon"><rect fill="#F1F1F1" height="48" id="BaseWeapon" rx="2.5" ry="2.5" style="stroke:#181818;stroke-width:0.5;" width="113" x="141" y="7"/><ellipse cx="156" cy="23" fill="#ADD1B2" rx="11" ry="11" style="stroke:#181818;stroke-width:1.0;"/><path d="M155.9375,18.8281 Q155.1875,18.8281 154.625,19.125 Q154.0625,19.4063 153.6719,19.9375 Q153.2813,20.4688 153.0781,21.25 Q152.8906,22.0156 152.8906,22.9688 Q152.8906,23.9375 153.0625,24.7031 Q153.25,25.4531 153.6094,25.9688 Q153.9844,26.4844 154.5625,26.7656 Q155.1406,27.0313 155.9375,27.0313 Q156.6719,27.0313 157.4063,26.8594 Q158.1563,26.6875 159.0313,26.3906 L159.0313,28.5469 Q158.625,28.7031 158.2344,28.8281 Q157.8438,28.9375 157.4375,29.0156 Q157.0313,29.0938 156.6094,29.125 Q156.1875,29.1719 155.6875,29.1719 Q154.2813,29.1719 153.25,28.7188 Q152.2344,28.2656 151.5625,27.4531 Q150.8906,26.6406 150.5625,25.5 Q150.2344,24.3438 150.2344,22.9531 Q150.2344,21.5781 150.6094,20.4219 Q150.9844,19.2656 151.7031,18.4375 Q152.4219,17.6094 153.4844,17.1563 Q154.5469,16.6875 155.9375,16.6875 Q156.8438,16.6875 157.75,16.9219 Q158.6563,17.1406 159.4844,17.5469 L158.6563,19.6406 Q157.9688,19.3125 157.2813,19.0781 Q156.5938,18.8281 155.9375,18.8281 Z " fill="#000000"/><text fill="#000000" font-family="sans-serif" font-size="14" lengthAdjust="spacing" textLength="81" x="170" y="27.8467">BaseWeapon</text><line style="stroke:#181818;stroke-width:0.5;" x1="142" x2="253" y1="39" y2="39"/><line style="stroke:#181818;stroke-width:0.5;" x1="142" x2="253" y1="47" y2="47"/></g><!--reverse link BaseWeapon to Gun--><g id="link_BaseWeapon_Gun"><path codeLine="18" d="M197.5,75.52 C197.5,87.32 197.5,100.78 197.5,114.94 " fill="none" id="BaseWeapon-backto-Gun" style="stroke:#181818;stroke-width:1.0;"/><polygon fill="none" points="190.5,75.12,197.5,55.12,204.5,75.12,190.5,75.12" style="stroke:#181818;stroke-width:1.0;"/></g><!--SRC=[XPBBQiCm44Nt-Gej7KgWP2dSGDD2A24GwZxMiZrDXSSQ8uz2Izj_h_mWTkM4QgMPUtHrzSXGrRNOE2E-PiAFAx5J7xTbIK8AfmsB6x6yxfKxPoqOlg0-0fBAjJbuBIN2lXt7HstPALojHF9En14hUm2MBv0nsUNSuqVIUOy_r2UVQFxNQGFS9-YGFTZC5osMaqiH1l3Pe2urGzw43OsIK7VZIZPaaCexhXqYS581vAtVcu_0W-5OJeUvRB6fMtiJ_eptWEfpUe8a9Efn9JisSFLhjeQo8bLPiNF8ka8DDYgclREX_jdomfBk9Pvq2P4zJGFuPxPMDRo2giY8-7knQBxRBm00]--></g></svg>