<?xml version="1.0" encoding="us-ascii" standalone="no"?><svg xmlns="http://www.w3.org/2000/svg" xmlns:xlink="http://www.w3.org/1999/xlink" contentStyleType="text/css" height="506px" preserveAspectRatio="none" style="width:544px;height:506px;background:#FFFFFF;" version="1.1" viewBox="0 0 544 506" width="544px" zoomAndPan="magnify"><defs/><g><!--class Health--><g id="elem_Health"><rect codeLine="1" fill="#F1F1F1" height="276.1563" id="Health" rx="2.5" ry="2.5" style="stroke:#181818;stroke-width:0.5;" width="530" x="7" y="115"/><ellipse cx="246.75" cy="131" fill="#ADD1B2" rx="11" ry="11" style="stroke:#181818;stroke-width:1.0;"/><path d="M246.6875,126.8281 Q245.9375,126.8281 245.375,127.125 Q244.8125,127.4063 244.4219,127.9375 Q244.0313,128.4688 243.8281,129.25 Q243.6406,130.0156 243.6406,130.9688 Q243.6406,131.9375 243.8125,132.7031 Q244,133.4531 244.3594,133.9688 Q244.7344,134.4844 245.3125,134.7656 Q245.8906,135.0313 246.6875,135.0313 Q247.4219,135.0313 248.1563,134.8594 Q248.9063,134.6875 249.7813,134.3906 L249.7813,136.5469 Q249.375,136.7031 248.9844,136.8281 Q248.5938,136.9375 248.1875,137.0156 Q247.7813,137.0938 247.3594,137.125 Q246.9375,137.1719 246.4375,137.1719 Q245.0313,137.1719 244,136.7188 Q242.9844,136.2656 242.3125,135.4531 Q241.6406,134.6406 241.3125,133.5 Q240.9844,132.3438 240.9844,130.9531 Q240.9844,129.5781 241.3594,128.4219 Q241.7344,127.2656 242.4531,126.4375 Q243.1719,125.6094 244.2344,125.1563 Q245.2969,124.6875 246.6875,124.6875 Q247.5938,124.6875 248.5,124.9219 Q249.4063,125.1406 250.2344,125.5469 L249.4063,127.6406 Q248.7188,127.3125 248.0313,127.0781 Q247.3438,126.8281 246.6875,126.8281 Z " fill="#000000"/><text fill="#000000" font-family="sans-serif" font-size="14" lengthAdjust="spacing" textLength="42" x="267.25" y="135.8467">Health</text><line style="stroke:#181818;stroke-width:0.5;" x1="8" x2="536" y1="147" y2="147"/><line style="stroke:#181818;stroke-width:0.5;" x1="8" x2="536" y1="155" y2="155"/><ellipse cx="18" cy="168.6484" fill="#84BE84" rx="3" ry="3" style="stroke:#038048;stroke-width:1.0;"/><text fill="#000000" font-family="sans-serif" font-size="14" lengthAdjust="spacing" textLength="124" x="27" y="171.9951">ResetHealth() : void</text><ellipse cx="18" cy="184.9453" fill="#84BE84" rx="3" ry="3" style="stroke:#038048;stroke-width:1.0;"/><text fill="#000000" font-family="sans-serif" font-size="14" lengthAdjust="spacing" textLength="310" x="27" y="188.292">ResetHealthWithNewMaxHealth(health:int) : void</text><ellipse cx="18" cy="201.2422" fill="#84BE84" rx="3" ry="3" style="stroke:#038048;stroke-width:1.0;"/><text fill="#000000" font-family="sans-serif" font-size="14" lengthAdjust="spacing" textLength="504" x="27" y="204.5889">TakeDamage(damage:int, hitDirection:Vector2, knockbackMultiplier:float) : void</text><ellipse cx="18" cy="217.5391" fill="#84BE84" rx="3" ry="3" style="stroke:#038048;stroke-width:1.0;"/><text fill="#000000" font-family="sans-serif" font-size="14" lengthAdjust="spacing" textLength="128" x="27" y="220.8857">GetMaxHealth() : int</text><ellipse cx="18" cy="233.8359" fill="#84BE84" rx="3" ry="3" style="stroke:#038048;stroke-width:1.0;"/><text fill="#000000" font-family="sans-serif" font-size="14" lengthAdjust="spacing" textLength="151" x="27" y="237.1826">GetCurrentHealth() : int</text><ellipse cx="18" cy="250.1328" fill="#84BE84" rx="3" ry="3" style="stroke:#038048;stroke-width:1.0;"/><text fill="#000000" font-family="sans-serif" font-size="14" lengthAdjust="spacing" textLength="219" x="27" y="253.4795">SetCurrentHealth(health:int) : void</text><ellipse cx="18" cy="266.4297" fill="#84BE84" rx="3" ry="3" style="stroke:#038048;stroke-width:1.0;"/><text fill="#000000" font-family="sans-serif" font-size="14" lengthAdjust="spacing" textLength="116" x="27" y="269.7764">IsHackable() : bool</text><ellipse cx="18" cy="282.7266" fill="#84BE84" rx="3" ry="3" style="stroke:#038048;stroke-width:1.0;"/><text fill="#000000" font-family="sans-serif" font-size="14" lengthAdjust="spacing" textLength="382" x="27" y="286.0732">ApplyKnockback(hitDirection:Vector2, multiplier:float) : void</text><ellipse cx="18" cy="299.0234" fill="#84BE84" rx="3" ry="3" style="stroke:#038048;stroke-width:1.0;"/><text fill="#000000" font-family="sans-serif" font-size="14" lengthAdjust="spacing" textLength="138" x="27" y="302.3701">TriggerIFrame() : void</text><ellipse cx="18" cy="315.3203" fill="#84BE84" rx="3" ry="3" style="stroke:#038048;stroke-width:1.0;"/><text fill="#000000" font-family="sans-serif" font-size="14" lengthAdjust="spacing" textLength="137" x="27" y="318.667">Heal(health:int) : void</text><ellipse cx="18" cy="331.6172" fill="#84BE84" rx="3" ry="3" style="stroke:#038048;stroke-width:1.0;"/><text fill="#000000" font-family="sans-serif" font-size="14" lengthAdjust="spacing" textLength="222" x="27" y="334.9639">HealPercent(percent:double) : void</text><ellipse cx="18" cy="347.9141" fill="#84BE84" rx="3" ry="3" style="stroke:#038048;stroke-width:1.0;"/><text fill="#000000" font-family="sans-serif" font-size="14" lengthAdjust="spacing" textLength="129" x="27" y="351.2607">GetMortality() : bool</text><ellipse cx="18" cy="364.2109" fill="#84BE84" rx="3" ry="3" style="stroke:#038048;stroke-width:1.0;"/><text fill="#000000" font-family="sans-serif" font-size="14" lengthAdjust="spacing" textLength="200" x="27" y="367.5576">SetMortality(mortal:bool) : void</text><ellipse cx="18" cy="380.5078" fill="#84BE84" rx="3" ry="3" style="stroke:#038048;stroke-width:1.0;"/><text fill="#000000" font-family="sans-serif" font-size="14" lengthAdjust="spacing" textLength="227" x="27" y="383.8545">SetHackableHealth(health:int) : void</text></g><!--class MonoBehaviour--><g id="elem_MonoBehaviour"><rect fill="#F1F1F1" height="48" id="MonoBehaviour" rx="2.5" ry="2.5" style="stroke:#181818;stroke-width:0.5;" width="133" x="205.5" y="7"/><ellipse cx="220.5" cy="23" fill="#ADD1B2" rx="11" ry="11" style="stroke:#181818;stroke-width:1.0;"/><path d="M220.4375,18.8281 Q219.6875,18.8281 219.125,19.125 Q218.5625,19.4063 218.1719,19.9375 Q217.7813,20.4688 217.5781,21.25 Q217.3906,22.0156 217.3906,22.9688 Q217.3906,23.9375 217.5625,24.7031 Q217.75,25.4531 218.1094,25.9688 Q218.4844,26.4844 219.0625,26.7656 Q219.6406,27.0313 220.4375,27.0313 Q221.1719,27.0313 221.9063,26.8594 Q222.6563,26.6875 223.5313,26.3906 L223.5313,28.5469 Q223.125,28.7031 222.7344,28.8281 Q222.3438,28.9375 221.9375,29.0156 Q221.5313,29.0938 221.1094,29.125 Q220.6875,29.1719 220.1875,29.1719 Q218.7813,29.1719 217.75,28.7188 Q216.7344,28.2656 216.0625,27.4531 Q215.3906,26.6406 215.0625,25.5 Q214.7344,24.3438 214.7344,22.9531 Q214.7344,21.5781 215.1094,20.4219 Q215.4844,19.2656 216.2031,18.4375 Q216.9219,17.6094 217.9844,17.1563 Q219.0469,16.6875 220.4375,16.6875 Q221.3438,16.6875 222.25,16.9219 Q223.1563,17.1406 223.9844,17.5469 L223.1563,19.6406 Q222.4688,19.3125 221.7813,19.0781 Q221.0938,18.8281 220.4375,18.8281 Z " fill="#000000"/><text fill="#000000" font-family="sans-serif" font-size="14" lengthAdjust="spacing" textLength="101" x="234.5" y="27.8467">MonoBehaviour</text><line style="stroke:#181818;stroke-width:0.5;" x1="206.5" x2="337.5" y1="39" y2="39"/><line style="stroke:#181818;stroke-width:0.5;" x1="206.5" x2="337.5" y1="47" y2="47"/></g><!--class UnityEvent--><g id="elem_UnityEvent"><rect fill="#F1F1F1" height="48" id="UnityEvent" rx="2.5" ry="2.5" style="stroke:#181818;stroke-width:0.5;" width="101" x="162.5" y="451"/><ellipse cx="177.5" cy="467" fill="#ADD1B2" rx="11" ry="11" style="stroke:#181818;stroke-width:1.0;"/><path d="M177.4375,462.8281 Q176.6875,462.8281 176.125,463.125 Q175.5625,463.4063 175.1719,463.9375 Q174.7813,464.4688 174.5781,465.25 Q174.3906,466.0156 174.3906,466.9688 Q174.3906,467.9375 174.5625,468.7031 Q174.75,469.4531 175.1094,469.9688 Q175.4844,470.4844 176.0625,470.7656 Q176.6406,471.0313 177.4375,471.0313 Q178.1719,471.0313 178.9063,470.8594 Q179.6563,470.6875 180.5313,470.3906 L180.5313,472.5469 Q180.125,472.7031 179.7344,472.8281 Q179.3438,472.9375 178.9375,473.0156 Q178.5313,473.0938 178.1094,473.125 Q177.6875,473.1719 177.1875,473.1719 Q175.7813,473.1719 174.75,472.7188 Q173.7344,472.2656 173.0625,471.4531 Q172.3906,470.6406 172.0625,469.5 Q171.7344,468.3438 171.7344,466.9531 Q171.7344,465.5781 172.1094,464.4219 Q172.4844,463.2656 173.2031,462.4375 Q173.9219,461.6094 174.9844,461.1563 Q176.0469,460.6875 177.4375,460.6875 Q178.3438,460.6875 179.25,460.9219 Q180.1563,461.1406 180.9844,461.5469 L180.1563,463.6406 Q179.4688,463.3125 178.7813,463.0781 Q178.0938,462.8281 177.4375,462.8281 Z " fill="#000000"/><text fill="#000000" font-family="sans-serif" font-size="14" lengthAdjust="spacing" textLength="69" x="191.5" y="471.8467">UnityEvent</text><line style="stroke:#181818;stroke-width:0.5;" x1="163.5" x2="262.5" y1="483" y2="483"/><line style="stroke:#181818;stroke-width:0.5;" x1="163.5" x2="262.5" y1="491" y2="491"/></g><!--class Color--><g id="elem_Color"><rect fill="#F1F1F1" height="48" id="Color" rx="2.5" ry="2.5" style="stroke:#181818;stroke-width:0.5;" width="66" x="299" y="451"/><ellipse cx="314" cy="467" fill="#ADD1B2" rx="11" ry="11" style="stroke:#181818;stroke-width:1.0;"/><path d="M313.9375,462.8281 Q313.1875,462.8281 312.625,463.125 Q312.0625,463.4063 311.6719,463.9375 Q311.2813,464.4688 311.0781,465.25 Q310.8906,466.0156 310.8906,466.9688 Q310.8906,467.9375 311.0625,468.7031 Q311.25,469.4531 311.6094,469.9688 Q311.9844,470.4844 312.5625,470.7656 Q313.1406,471.0313 313.9375,471.0313 Q314.6719,471.0313 315.4063,470.8594 Q316.1563,470.6875 317.0313,470.3906 L317.0313,472.5469 Q316.625,472.7031 316.2344,472.8281 Q315.8438,472.9375 315.4375,473.0156 Q315.0313,473.0938 314.6094,473.125 Q314.1875,473.1719 313.6875,473.1719 Q312.2813,473.1719 311.25,472.7188 Q310.2344,472.2656 309.5625,471.4531 Q308.8906,470.6406 308.5625,469.5 Q308.2344,468.3438 308.2344,466.9531 Q308.2344,465.5781 308.6094,464.4219 Q308.9844,463.2656 309.7031,462.4375 Q310.4219,461.6094 311.4844,461.1563 Q312.5469,460.6875 313.9375,460.6875 Q314.8438,460.6875 315.75,460.9219 Q316.6563,461.1406 317.4844,461.5469 L316.6563,463.6406 Q315.9688,463.3125 315.2813,463.0781 Q314.5938,462.8281 313.9375,462.8281 Z " fill="#000000"/><text fill="#000000" font-family="sans-serif" font-size="14" lengthAdjust="spacing" textLength="34" x="328" y="471.8467">Color</text><line style="stroke:#181818;stroke-width:0.5;" x1="300" x2="364" y1="483" y2="483"/><line style="stroke:#181818;stroke-width:0.5;" x1="300" x2="364" y1="491" y2="491"/></g><!--reverse link MonoBehaviour to Health--><g id="link_MonoBehaviour_Health"><path codeLine="17" d="M272,75.58 C272,87.4 272,100.86 272,114.95 " fill="none" id="MonoBehaviour-backto-Health" style="stroke:#181818;stroke-width:1.0;"/><polygon fill="none" points="265,75.13,272,55.13,279,75.13,265,75.13" style="stroke:#181818;stroke-width:1.0;"/></g><!--link Health to UnityEvent--><g id="link_Health_UnityEvent"><path codeLine="18" d="M235.22,391.14 C229.73,411.62 224.59,430.77 220.65,445.48 " fill="none" id="Health-to-UnityEvent" style="stroke:#181818;stroke-width:1.0;"/><polygon fill="#181818" points="219.25,450.7,225.4311,443.0323,220.5365,445.8684,217.7004,440.9738,219.25,450.7" style="stroke:#181818;stroke-width:1.0;"/><text fill="#000000" font-family="sans-serif" font-size="13" lengthAdjust="spacing" textLength="71" x="141.1203" y="440.0318">OnHackable</text></g><!--link Health to Color--><g id="link_Health_Color"><path codeLine="19" d="M309.4,391.14 C315.04,411.8 320.3,431.11 324.33,445.87 " fill="none" id="Health-to-Color" style="stroke:#181818;stroke-width:1.0;"/><polygon fill="#181818" points="325.65,450.7,327.1459,440.9654,324.3368,445.8755,319.4267,443.0665,325.65,450.7" style="stroke:#181818;stroke-width:1.0;"/><text fill="#000000" font-family="sans-serif" font-size="13" lengthAdjust="spacing" textLength="78" x="265.5594" y="439.9702">OriginalColor</text></g><!--SRC=[VP91JuD048Nl_8fDJnZBnUF6c6YhjZ6eiTMU1nXXmx93bWLjrF_kGY7L5UJo2D_mzitBnXAgYgqGfCdOXyViSygUi49p-EQVCCuQ4ibVj1CckyUt4DxxqQmJBfHnVjf2Zaie84K_wQITcRDCcANG61j1YhzO9NqsPxcYE8yWpiDQ6b5AWPg_IWBNz1RDyUYMMSyZMjHQepAZUEFYoU3hQcM3G2IniuY8P4ykorBkxuQe_lWgnVyRRBL8KzJh6mq5kaMtqQQ3jVGHTMntyCk3yeHg6tIa9T86f31xTuVDJrPqRxp5ZeKT6rgOxklB2qdH5MRG2AerE_yCWlvQUVtj2e8BDdjGWzUCFIjxy7LZi_yUiRK81N91alICTV8D]--></g></svg>