<?xml version="1.0" encoding="us-ascii" standalone="no"?><svg xmlns="http://www.w3.org/2000/svg" xmlns:xlink="http://www.w3.org/1999/xlink" contentStyleType="text/css" height="474px" preserveAspectRatio="none" style="width:544px;height:474px;background:#FFFFFF;" version="1.1" viewBox="0 0 544 474" width="544px" zoomAndPan="magnify"><defs/><g><!--class Health--><g id="elem_Health"><rect codeLine="1" fill="#F1F1F1" height="243.5625" id="Health" rx="2.5" ry="2.5" style="stroke:#181818;stroke-width:0.5;" width="530" x="7" y="115"/><ellipse cx="246.75" cy="131" fill="#ADD1B2" rx="11" ry="11" style="stroke:#181818;stroke-width:1.0;"/><path d="M246.6875,126.8281 Q245.9375,126.8281 245.375,127.125 Q244.8125,127.4063 244.4219,127.9375 Q244.0313,128.4688 243.8281,129.25 Q243.6406,130.0156 243.6406,130.9688 Q243.6406,131.9375 243.8125,132.7031 Q244,133.4531 244.3594,133.9688 Q244.7344,134.4844 245.3125,134.7656 Q245.8906,135.0313 246.6875,135.0313 Q247.4219,135.0313 248.1563,134.8594 Q248.9063,134.6875 249.7813,134.3906 L249.7813,136.5469 Q249.375,136.7031 248.9844,136.8281 Q248.5938,136.9375 248.1875,137.0156 Q247.7813,137.0938 247.3594,137.125 Q246.9375,137.1719 246.4375,137.1719 Q245.0313,137.1719 244,136.7188 Q242.9844,136.2656 242.3125,135.4531 Q241.6406,134.6406 241.3125,133.5 Q240.9844,132.3438 240.9844,130.9531 Q240.9844,129.5781 241.3594,128.4219 Q241.7344,127.2656 242.4531,126.4375 Q243.1719,125.6094 244.2344,125.1563 Q245.2969,124.6875 246.6875,124.6875 Q247.5938,124.6875 248.5,124.9219 Q249.4063,125.1406 250.2344,125.5469 L249.4063,127.6406 Q248.7188,127.3125 248.0313,127.0781 Q247.3438,126.8281 246.6875,126.8281 Z " fill="#000000"/><text fill="#000000" font-family="sans-serif" font-size="14" lengthAdjust="spacing" textLength="42" x="267.25" y="135.8467">Health</text><line style="stroke:#181818;stroke-width:0.5;" x1="8" x2="536" y1="147" y2="147"/><line style="stroke:#181818;stroke-width:0.5;" x1="8" x2="536" y1="155" y2="155"/><ellipse cx="18" cy="168.6484" fill="#84BE84" rx="3" ry="3" style="stroke:#038048;stroke-width:1.0;"/><text fill="#000000" font-family="sans-serif" font-size="14" lengthAdjust="spacing" textLength="124" x="27" y="171.9951">ResetHealth() : void</text><ellipse cx="18" cy="184.9453" fill="#84BE84" rx="3" ry="3" style="stroke:#038048;stroke-width:1.0;"/><text fill="#000000" font-family="sans-serif" font-size="14" lengthAdjust="spacing" textLength="504" x="27" y="188.292">TakeDamage(damage:int, hitDirection:Vector2, knockbackMultiplier:float) : void</text><ellipse cx="18" cy="201.2422" fill="#84BE84" rx="3" ry="3" style="stroke:#038048;stroke-width:1.0;"/><text fill="#000000" font-family="sans-serif" font-size="14" lengthAdjust="spacing" textLength="128" x="27" y="204.5889">GetMaxHealth() : int</text><ellipse cx="18" cy="217.5391" fill="#84BE84" rx="3" ry="3" style="stroke:#038048;stroke-width:1.0;"/><text fill="#000000" font-family="sans-serif" font-size="14" lengthAdjust="spacing" textLength="151" x="27" y="220.8857">GetCurrentHealth() : int</text><ellipse cx="18" cy="233.8359" fill="#84BE84" rx="3" ry="3" style="stroke:#038048;stroke-width:1.0;"/><text fill="#000000" font-family="sans-serif" font-size="14" lengthAdjust="spacing" textLength="219" x="27" y="237.1826">SetCurrentHealth(health:int) : void</text><ellipse cx="18" cy="250.1328" fill="#84BE84" rx="3" ry="3" style="stroke:#038048;stroke-width:1.0;"/><text fill="#000000" font-family="sans-serif" font-size="14" lengthAdjust="spacing" textLength="116" x="27" y="253.4795">IsHackable() : bool</text><ellipse cx="18" cy="266.4297" fill="#84BE84" rx="3" ry="3" style="stroke:#038048;stroke-width:1.0;"/><text fill="#000000" font-family="sans-serif" font-size="14" lengthAdjust="spacing" textLength="382" x="27" y="269.7764">ApplyKnockback(hitDirection:Vector2, multiplier:float) : void</text><ellipse cx="18" cy="282.7266" fill="#84BE84" rx="3" ry="3" style="stroke:#038048;stroke-width:1.0;"/><text fill="#000000" font-family="sans-serif" font-size="14" lengthAdjust="spacing" textLength="138" x="27" y="286.0732">TriggerIFrame() : void</text><ellipse cx="18" cy="299.0234" fill="#84BE84" rx="3" ry="3" style="stroke:#038048;stroke-width:1.0;"/><text fill="#000000" font-family="sans-serif" font-size="14" lengthAdjust="spacing" textLength="137" x="27" y="302.3701">Heal(health:int) : void</text><ellipse cx="18" cy="315.3203" fill="#84BE84" rx="3" ry="3" style="stroke:#038048;stroke-width:1.0;"/><text fill="#000000" font-family="sans-serif" font-size="14" lengthAdjust="spacing" textLength="222" x="27" y="318.667">HealPercent(percent:double) : void</text><ellipse cx="18" cy="331.6172" fill="#84BE84" rx="3" ry="3" style="stroke:#038048;stroke-width:1.0;"/><text fill="#000000" font-family="sans-serif" font-size="14" lengthAdjust="spacing" textLength="129" x="27" y="334.9639">GetMortality() : bool</text><ellipse cx="18" cy="347.9141" fill="#84BE84" rx="3" ry="3" style="stroke:#038048;stroke-width:1.0;"/><text fill="#000000" font-family="sans-serif" font-size="14" lengthAdjust="spacing" textLength="200" x="27" y="351.2607">SetMortality(mortal:bool) : void</text></g><!--class MonoBehaviour--><g id="elem_MonoBehaviour"><rect fill="#F1F1F1" height="48" id="MonoBehaviour" rx="2.5" ry="2.5" style="stroke:#181818;stroke-width:0.5;" width="133" x="205.5" y="7"/><ellipse cx="220.5" cy="23" fill="#ADD1B2" rx="11" ry="11" style="stroke:#181818;stroke-width:1.0;"/><path d="M220.4375,18.8281 Q219.6875,18.8281 219.125,19.125 Q218.5625,19.4063 218.1719,19.9375 Q217.7813,20.4688 217.5781,21.25 Q217.3906,22.0156 217.3906,22.9688 Q217.3906,23.9375 217.5625,24.7031 Q217.75,25.4531 218.1094,25.9688 Q218.4844,26.4844 219.0625,26.7656 Q219.6406,27.0313 220.4375,27.0313 Q221.1719,27.0313 221.9063,26.8594 Q222.6563,26.6875 223.5313,26.3906 L223.5313,28.5469 Q223.125,28.7031 222.7344,28.8281 Q222.3438,28.9375 221.9375,29.0156 Q221.5313,29.0938 221.1094,29.125 Q220.6875,29.1719 220.1875,29.1719 Q218.7813,29.1719 217.75,28.7188 Q216.7344,28.2656 216.0625,27.4531 Q215.3906,26.6406 215.0625,25.5 Q214.7344,24.3438 214.7344,22.9531 Q214.7344,21.5781 215.1094,20.4219 Q215.4844,19.2656 216.2031,18.4375 Q216.9219,17.6094 217.9844,17.1563 Q219.0469,16.6875 220.4375,16.6875 Q221.3438,16.6875 222.25,16.9219 Q223.1563,17.1406 223.9844,17.5469 L223.1563,19.6406 Q222.4688,19.3125 221.7813,19.0781 Q221.0938,18.8281 220.4375,18.8281 Z " fill="#000000"/><text fill="#000000" font-family="sans-serif" font-size="14" lengthAdjust="spacing" textLength="101" x="234.5" y="27.8467">MonoBehaviour</text><line style="stroke:#181818;stroke-width:0.5;" x1="206.5" x2="337.5" y1="39" y2="39"/><line style="stroke:#181818;stroke-width:0.5;" x1="206.5" x2="337.5" y1="47" y2="47"/></g><!--class UnityEvent--><g id="elem_UnityEvent"><rect fill="#F1F1F1" height="48" id="UnityEvent" rx="2.5" ry="2.5" style="stroke:#181818;stroke-width:0.5;" width="101" x="221.5" y="419"/><ellipse cx="236.5" cy="435" fill="#ADD1B2" rx="11" ry="11" style="stroke:#181818;stroke-width:1.0;"/><path d="M236.4375,430.8281 Q235.6875,430.8281 235.125,431.125 Q234.5625,431.4063 234.1719,431.9375 Q233.7813,432.4688 233.5781,433.25 Q233.3906,434.0156 233.3906,434.9688 Q233.3906,435.9375 233.5625,436.7031 Q233.75,437.4531 234.1094,437.9688 Q234.4844,438.4844 235.0625,438.7656 Q235.6406,439.0313 236.4375,439.0313 Q237.1719,439.0313 237.9063,438.8594 Q238.6563,438.6875 239.5313,438.3906 L239.5313,440.5469 Q239.125,440.7031 238.7344,440.8281 Q238.3438,440.9375 237.9375,441.0156 Q237.5313,441.0938 237.1094,441.125 Q236.6875,441.1719 236.1875,441.1719 Q234.7813,441.1719 233.75,440.7188 Q232.7344,440.2656 232.0625,439.4531 Q231.3906,438.6406 231.0625,437.5 Q230.7344,436.3438 230.7344,434.9531 Q230.7344,433.5781 231.1094,432.4219 Q231.4844,431.2656 232.2031,430.4375 Q232.9219,429.6094 233.9844,429.1563 Q235.0469,428.6875 236.4375,428.6875 Q237.3438,428.6875 238.25,428.9219 Q239.1563,429.1406 239.9844,429.5469 L239.1563,431.6406 Q238.4688,431.3125 237.7813,431.0781 Q237.0938,430.8281 236.4375,430.8281 Z " fill="#000000"/><text fill="#000000" font-family="sans-serif" font-size="14" lengthAdjust="spacing" textLength="69" x="250.5" y="439.8467">UnityEvent</text><line style="stroke:#181818;stroke-width:0.5;" x1="222.5" x2="321.5" y1="451" y2="451"/><line style="stroke:#181818;stroke-width:0.5;" x1="222.5" x2="321.5" y1="459" y2="459"/></g><!--reverse link MonoBehaviour to Health--><g id="link_MonoBehaviour_Health"><path codeLine="15" d="M272,75.02 C272,86.94 272,100.49 272,114.55 " fill="none" id="MonoBehaviour-backto-Health" style="stroke:#181818;stroke-width:1.0;"/><polygon fill="none" points="265,75,272,55,279,75,265,75" style="stroke:#181818;stroke-width:1.0;"/></g><!--link Health to UnityEvent--><g id="link_Health_UnityEvent"><path codeLine="16" d="M272,359.03 C272,379.35 272,398.63 272,413.48 " fill="none" id="Health-to-UnityEvent" style="stroke:#181818;stroke-width:1.0;"/><polygon fill="#181818" points="272,418.75,276,409.75,272,413.75,268,409.75,272,418.75" style="stroke:#181818;stroke-width:1.0;"/><text fill="#000000" font-family="sans-serif" font-size="13" lengthAdjust="spacing" textLength="71" x="192.3469" y="408.094">OnHackable</text></g><!--SRC=[VP51JuD048Nl_8fDJnZBnUF6cAXLsnYYiTNx02DiM7R8C3GswdzteTGs1DtBs-oNl7rl9hNGD6g9OALGdu7ovrozO8EoVmlFb5PRCjc0Db3Y0Yh8CSnwqSR9N1L65eOn5KDEltablfYhqb5Q9f2MSMl5rDOWwtTB82FJ1vGOFau-z9v7TDioevD9l1xZefSkrEYFLRFqGI2ns5iaH7OWrtLjTu-7gE5qbUh_1XisUOwykcUeS3opBjhVmJhwZ9pw3c6zLvrHwuDEJ8bOm1hPZJkiJrdLttI7Vos-WvWStM01MqCjgyklA1hM7WpRZw8hDNjoXp7DrAlpRdTR7-W7]--></g></svg>