<?xml version="1.0" encoding="us-ascii" standalone="no"?><svg xmlns="http://www.w3.org/2000/svg" xmlns:xlink="http://www.w3.org/1999/xlink" contentStyleType="text/css" height="186px" preserveAspectRatio="none" style="width:287px;height:186px;background:#FFFFFF;" version="1.1" viewBox="0 0 287 186" width="287px" zoomAndPan="magnify"><defs/><g><!--class ShotGun--><g id="elem_ShotGun"><rect codeLine="1" fill="#F1F1F1" height="64.2969" id="ShotGun" rx="2.5" ry="2.5" style="stroke:#181818;stroke-width:0.5;" width="273" x="7" y="115"/><ellipse cx="112.25" cy="131" fill="#ADD1B2" rx="11" ry="11" style="stroke:#181818;stroke-width:1.0;"/><path d="M112.1875,126.8281 Q111.4375,126.8281 110.875,127.125 Q110.3125,127.4063 109.9219,127.9375 Q109.5313,128.4688 109.3281,129.25 Q109.1406,130.0156 109.1406,130.9688 Q109.1406,131.9375 109.3125,132.7031 Q109.5,133.4531 109.8594,133.9688 Q110.2344,134.4844 110.8125,134.7656 Q111.3906,135.0313 112.1875,135.0313 Q112.9219,135.0313 113.6563,134.8594 Q114.4063,134.6875 115.2813,134.3906 L115.2813,136.5469 Q114.875,136.7031 114.4844,136.8281 Q114.0938,136.9375 113.6875,137.0156 Q113.2813,137.0938 112.8594,137.125 Q112.4375,137.1719 111.9375,137.1719 Q110.5313,137.1719 109.5,136.7188 Q108.4844,136.2656 107.8125,135.4531 Q107.1406,134.6406 106.8125,133.5 Q106.4844,132.3438 106.4844,130.9531 Q106.4844,129.5781 106.8594,128.4219 Q107.2344,127.2656 107.9531,126.4375 Q108.6719,125.6094 109.7344,125.1563 Q110.7969,124.6875 112.1875,124.6875 Q113.0938,124.6875 114,124.9219 Q114.9063,125.1406 115.7344,125.5469 L114.9063,127.6406 Q114.2188,127.3125 113.5313,127.0781 Q112.8438,126.8281 112.1875,126.8281 Z " fill="#000000"/><text fill="#000000" font-family="sans-serif" font-size="14" lengthAdjust="spacing" textLength="54" x="132.75" y="135.8467">ShotGun</text><line style="stroke:#181818;stroke-width:0.5;" x1="8" x2="279" y1="147" y2="147"/><line style="stroke:#181818;stroke-width:0.5;" x1="8" x2="279" y1="155" y2="155"/><ellipse cx="18" cy="168.6484" fill="#84BE84" rx="3" ry="3" style="stroke:#038048;stroke-width:1.0;"/><text fill="#000000" font-family="sans-serif" font-size="14" lengthAdjust="spacing" textLength="247" x="27" y="171.9951">&#171;override&#187; Shoot(target:Vector2) : void</text></g><!--class Gun--><g id="elem_Gun"><rect fill="#F1F1F1" height="48" id="Gun" rx="2.5" ry="2.5" style="stroke:#181818;stroke-width:0.5;" width="58" x="114.5" y="7"/><ellipse cx="129.5" cy="23" fill="#ADD1B2" rx="11" ry="11" style="stroke:#181818;stroke-width:1.0;"/><path d="M129.4375,18.8281 Q128.6875,18.8281 128.125,19.125 Q127.5625,19.4063 127.1719,19.9375 Q126.7813,20.4688 126.5781,21.25 Q126.3906,22.0156 126.3906,22.9688 Q126.3906,23.9375 126.5625,24.7031 Q126.75,25.4531 127.1094,25.9688 Q127.4844,26.4844 128.0625,26.7656 Q128.6406,27.0313 129.4375,27.0313 Q130.1719,27.0313 130.9063,26.8594 Q131.6563,26.6875 132.5313,26.3906 L132.5313,28.5469 Q132.125,28.7031 131.7344,28.8281 Q131.3438,28.9375 130.9375,29.0156 Q130.5313,29.0938 130.1094,29.125 Q129.6875,29.1719 129.1875,29.1719 Q127.7813,29.1719 126.75,28.7188 Q125.7344,28.2656 125.0625,27.4531 Q124.3906,26.6406 124.0625,25.5 Q123.7344,24.3438 123.7344,22.9531 Q123.7344,21.5781 124.1094,20.4219 Q124.4844,19.2656 125.2031,18.4375 Q125.9219,17.6094 126.9844,17.1563 Q128.0469,16.6875 129.4375,16.6875 Q130.3438,16.6875 131.25,16.9219 Q132.1563,17.1406 132.9844,17.5469 L132.1563,19.6406 Q131.4688,19.3125 130.7813,19.0781 Q130.0938,18.8281 129.4375,18.8281 Z " fill="#000000"/><text fill="#000000" font-family="sans-serif" font-size="14" lengthAdjust="spacing" textLength="26" x="143.5" y="27.8467">Gun</text><line style="stroke:#181818;stroke-width:0.5;" x1="115.5" x2="171.5" y1="39" y2="39"/><line style="stroke:#181818;stroke-width:0.5;" x1="115.5" x2="171.5" y1="47" y2="47"/></g><!--reverse link Gun to ShotGun--><g id="link_Gun_ShotGun"><path codeLine="4" d="M143.5,75.09 C143.5,88.28 143.5,102.52 143.5,114.75 " fill="none" id="Gun-backto-ShotGun" style="stroke:#181818;stroke-width:1.0;"/><polygon fill="none" points="136.5,75.07,143.5,55.07,150.5,75.07,136.5,75.07" style="stroke:#181818;stroke-width:1.0;"/></g><!--SRC=[Iyv9B2vM2Cx8Bt4lpLEevb800cq56vlyijIYeioKL3ixa6H-YKP9Ob5wQebLM6foINwHaQQ2bK9PVcOALoqNI9zDZQukp100]--></g></svg>