<?xml version="1.0" encoding="us-ascii" standalone="no"?><svg xmlns="http://www.w3.org/2000/svg" xmlns:xlink="http://www.w3.org/1999/xlink" contentStyleType="text/css" height="278px" preserveAspectRatio="none" style="width:128px;height:278px;background:#FFFFFF;" version="1.1" viewBox="0 0 128 278" width="128px" zoomAndPan="magnify"><defs/><g><!--class Sword--><g id="elem_Sword"><rect codeLine="1" fill="#F1F1F1" height="48" id="Sword" rx="2.5" ry="2.5" style="stroke:#181818;stroke-width:0.5;" width="71" x="29.9594" y="115"/><ellipse cx="44.9594" cy="131" fill="#ADD1B2" rx="11" ry="11" style="stroke:#181818;stroke-width:1.0;"/><path d="M44.8969,126.8281 Q44.1469,126.8281 43.5844,127.125 Q43.0219,127.4063 42.6313,127.9375 Q42.2406,128.4688 42.0375,129.25 Q41.85,130.0156 41.85,130.9688 Q41.85,131.9375 42.0219,132.7031 Q42.2094,133.4531 42.5688,133.9688 Q42.9438,134.4844 43.5219,134.7656 Q44.1,135.0313 44.8969,135.0313 Q45.6313,135.0313 46.3656,134.8594 Q47.1156,134.6875 47.9906,134.3906 L47.9906,136.5469 Q47.5844,136.7031 47.1938,136.8281 Q46.8031,136.9375 46.3969,137.0156 Q45.9906,137.0938 45.5688,137.125 Q45.1469,137.1719 44.6469,137.1719 Q43.2406,137.1719 42.2094,136.7188 Q41.1938,136.2656 40.5219,135.4531 Q39.85,134.6406 39.5219,133.5 Q39.1938,132.3438 39.1938,130.9531 Q39.1938,129.5781 39.5688,128.4219 Q39.9438,127.2656 40.6625,126.4375 Q41.3813,125.6094 42.4438,125.1563 Q43.5063,124.6875 44.8969,124.6875 Q45.8031,124.6875 46.7094,124.9219 Q47.6156,125.1406 48.4438,125.5469 L47.6156,127.6406 Q46.9281,127.3125 46.2406,127.0781 Q45.5531,126.8281 44.8969,126.8281 Z " fill="#000000"/><text fill="#000000" font-family="sans-serif" font-size="14" lengthAdjust="spacing" textLength="39" x="58.9594" y="135.8467">Sword</text><line style="stroke:#181818;stroke-width:0.5;" x1="30.9594" x2="99.9594" y1="147" y2="147"/><line style="stroke:#181818;stroke-width:0.5;" x1="30.9594" x2="99.9594" y1="155" y2="155"/></g><!--class BaseWeapon--><g id="elem_BaseWeapon"><rect fill="#F1F1F1" height="48" id="BaseWeapon" rx="2.5" ry="2.5" style="stroke:#181818;stroke-width:0.5;" width="113" x="8.9594" y="7"/><ellipse cx="23.9594" cy="23" fill="#ADD1B2" rx="11" ry="11" style="stroke:#181818;stroke-width:1.0;"/><path d="M23.8969,18.8281 Q23.1469,18.8281 22.5844,19.125 Q22.0219,19.4063 21.6313,19.9375 Q21.2406,20.4688 21.0375,21.25 Q20.85,22.0156 20.85,22.9688 Q20.85,23.9375 21.0219,24.7031 Q21.2094,25.4531 21.5688,25.9688 Q21.9438,26.4844 22.5219,26.7656 Q23.1,27.0313 23.8969,27.0313 Q24.6313,27.0313 25.3656,26.8594 Q26.1156,26.6875 26.9906,26.3906 L26.9906,28.5469 Q26.5844,28.7031 26.1938,28.8281 Q25.8031,28.9375 25.3969,29.0156 Q24.9906,29.0938 24.5688,29.125 Q24.1469,29.1719 23.6469,29.1719 Q22.2406,29.1719 21.2094,28.7188 Q20.1938,28.2656 19.5219,27.4531 Q18.85,26.6406 18.5219,25.5 Q18.1938,24.3438 18.1938,22.9531 Q18.1938,21.5781 18.5688,20.4219 Q18.9438,19.2656 19.6625,18.4375 Q20.3813,17.6094 21.4438,17.1563 Q22.5063,16.6875 23.8969,16.6875 Q24.8031,16.6875 25.7094,16.9219 Q26.6156,17.1406 27.4438,17.5469 L26.6156,19.6406 Q25.9281,19.3125 25.2406,19.0781 Q24.5531,18.8281 23.8969,18.8281 Z " fill="#000000"/><text fill="#000000" font-family="sans-serif" font-size="14" lengthAdjust="spacing" textLength="81" x="37.9594" y="27.8467">BaseWeapon</text><line style="stroke:#181818;stroke-width:0.5;" x1="9.9594" x2="120.9594" y1="39" y2="39"/><line style="stroke:#181818;stroke-width:0.5;" x1="9.9594" x2="120.9594" y1="47" y2="47"/></g><!--class UnityEvent--><g id="elem_UnityEvent"><rect fill="#F1F1F1" height="48" id="UnityEvent" rx="2.5" ry="2.5" style="stroke:#181818;stroke-width:0.5;" width="101" x="14.9594" y="223"/><ellipse cx="29.9594" cy="239" fill="#ADD1B2" rx="11" ry="11" style="stroke:#181818;stroke-width:1.0;"/><path d="M29.8969,234.8281 Q29.1469,234.8281 28.5844,235.125 Q28.0219,235.4063 27.6313,235.9375 Q27.2406,236.4688 27.0375,237.25 Q26.85,238.0156 26.85,238.9688 Q26.85,239.9375 27.0219,240.7031 Q27.2094,241.4531 27.5688,241.9688 Q27.9438,242.4844 28.5219,242.7656 Q29.1,243.0313 29.8969,243.0313 Q30.6313,243.0313 31.3656,242.8594 Q32.1156,242.6875 32.9906,242.3906 L32.9906,244.5469 Q32.5844,244.7031 32.1938,244.8281 Q31.8031,244.9375 31.3969,245.0156 Q30.9906,245.0938 30.5688,245.125 Q30.1469,245.1719 29.6469,245.1719 Q28.2406,245.1719 27.2094,244.7188 Q26.1938,244.2656 25.5219,243.4531 Q24.85,242.6406 24.5219,241.5 Q24.1938,240.3438 24.1938,238.9531 Q24.1938,237.5781 24.5688,236.4219 Q24.9438,235.2656 25.6625,234.4375 Q26.3813,233.6094 27.4438,233.1563 Q28.5063,232.6875 29.8969,232.6875 Q30.8031,232.6875 31.7094,232.9219 Q32.6156,233.1406 33.4438,233.5469 L32.6156,235.6406 Q31.9281,235.3125 31.2406,235.0781 Q30.5531,234.8281 29.8969,234.8281 Z " fill="#000000"/><text fill="#000000" font-family="sans-serif" font-size="14" lengthAdjust="spacing" textLength="69" x="43.9594" y="243.8467">UnityEvent</text><line style="stroke:#181818;stroke-width:0.5;" x1="15.9594" x2="114.9594" y1="255" y2="255"/><line style="stroke:#181818;stroke-width:0.5;" x1="15.9594" x2="114.9594" y1="263" y2="263"/></g><!--reverse link BaseWeapon to Sword--><g id="link_BaseWeapon_Sword"><path codeLine="3" d="M65.4594,75.02 C65.4594,88.58 65.4594,103.04 65.4594,114.68 " fill="none" id="BaseWeapon-backto-Sword" style="stroke:#181818;stroke-width:1.0;"/><polygon fill="none" points="58.4594,75,65.4594,55,72.4594,75,58.4594,75" style="stroke:#181818;stroke-width:1.0;"/></g><!--link Sword to UnityEvent--><g id="link_Sword_UnityEvent"><path codeLine="4" d="M65.4594,163 C65.4594,179 65.4594,200.45 65.4594,217.53 " fill="none" id="Sword-to-UnityEvent" style="stroke:#181818;stroke-width:1.0;"/><polygon fill="#181818" points="65.4594,222.68,69.4594,213.68,65.4594,217.68,61.4594,213.68,65.4594,222.68" style="stroke:#181818;stroke-width:1.0;"/><text fill="#000000" font-family="sans-serif" font-size="13" lengthAdjust="spacing" textLength="53" x="6" y="212.007">OnAttack</text></g><!--SRC=[Iyv9B2vM22xFBqfHgEQgvN9AB4uDJqqioCzJiAdHrON8S47aTNNj59JyynnBIXAJivKKGlCoIofTorBpIW00]--></g></svg>