<?xml version="1.0" encoding="us-ascii" standalone="no"?><svg xmlns="http://www.w3.org/2000/svg" xmlns:xlink="http://www.w3.org/1999/xlink" contentStyleType="text/css" height="186px" preserveAspectRatio="none" style="width:247px;height:186px;background:#FFFFFF;" version="1.1" viewBox="0 0 247 186" width="247px" zoomAndPan="magnify"><defs/><g><!--class WeaponManager--><g id="elem_WeaponManager"><rect codeLine="1" fill="#F1F1F1" height="64.2969" id="WeaponManager" rx="2.5" ry="2.5" style="stroke:#181818;stroke-width:0.5;" width="233" x="7" y="115"/><ellipse cx="66.25" cy="131" fill="#ADD1B2" rx="11" ry="11" style="stroke:#181818;stroke-width:1.0;"/><path d="M66.1875,126.8281 Q65.4375,126.8281 64.875,127.125 Q64.3125,127.4063 63.9219,127.9375 Q63.5313,128.4688 63.3281,129.25 Q63.1406,130.0156 63.1406,130.9688 Q63.1406,131.9375 63.3125,132.7031 Q63.5,133.4531 63.8594,133.9688 Q64.2344,134.4844 64.8125,134.7656 Q65.3906,135.0313 66.1875,135.0313 Q66.9219,135.0313 67.6563,134.8594 Q68.4063,134.6875 69.2813,134.3906 L69.2813,136.5469 Q68.875,136.7031 68.4844,136.8281 Q68.0938,136.9375 67.6875,137.0156 Q67.2813,137.0938 66.8594,137.125 Q66.4375,137.1719 65.9375,137.1719 Q64.5313,137.1719 63.5,136.7188 Q62.4844,136.2656 61.8125,135.4531 Q61.1406,134.6406 60.8125,133.5 Q60.4844,132.3438 60.4844,130.9531 Q60.4844,129.5781 60.8594,128.4219 Q61.2344,127.2656 61.9531,126.4375 Q62.6719,125.6094 63.7344,125.1563 Q64.7969,124.6875 66.1875,124.6875 Q67.0938,124.6875 68,124.9219 Q68.9063,125.1406 69.7344,125.5469 L68.9063,127.6406 Q68.2188,127.3125 67.5313,127.0781 Q66.8438,126.8281 66.1875,126.8281 Z " fill="#000000"/><text fill="#000000" font-family="sans-serif" font-size="14" lengthAdjust="spacing" textLength="106" x="86.75" y="135.8467">WeaponManager</text><line style="stroke:#181818;stroke-width:0.5;" x1="8" x2="239" y1="147" y2="147"/><line style="stroke:#181818;stroke-width:0.5;" x1="8" x2="239" y1="155" y2="155"/><ellipse cx="18" cy="168.6484" fill="#84BE84" rx="3" ry="3" style="stroke:#038048;stroke-width:1.0;"/><text fill="#000000" font-family="sans-serif" font-size="14" lengthAdjust="spacing" textLength="207" x="27" y="171.9951">CurrentWeapon() : BaseWeapon?</text></g><!--class MonoBehaviour--><g id="elem_MonoBehaviour"><rect fill="#F1F1F1" height="48" id="MonoBehaviour" rx="2.5" ry="2.5" style="stroke:#181818;stroke-width:0.5;" width="133" x="57" y="7"/><ellipse cx="72" cy="23" fill="#ADD1B2" rx="11" ry="11" style="stroke:#181818;stroke-width:1.0;"/><path d="M71.9375,18.8281 Q71.1875,18.8281 70.625,19.125 Q70.0625,19.4063 69.6719,19.9375 Q69.2813,20.4688 69.0781,21.25 Q68.8906,22.0156 68.8906,22.9688 Q68.8906,23.9375 69.0625,24.7031 Q69.25,25.4531 69.6094,25.9688 Q69.9844,26.4844 70.5625,26.7656 Q71.1406,27.0313 71.9375,27.0313 Q72.6719,27.0313 73.4063,26.8594 Q74.1563,26.6875 75.0313,26.3906 L75.0313,28.5469 Q74.625,28.7031 74.2344,28.8281 Q73.8438,28.9375 73.4375,29.0156 Q73.0313,29.0938 72.6094,29.125 Q72.1875,29.1719 71.6875,29.1719 Q70.2813,29.1719 69.25,28.7188 Q68.2344,28.2656 67.5625,27.4531 Q66.8906,26.6406 66.5625,25.5 Q66.2344,24.3438 66.2344,22.9531 Q66.2344,21.5781 66.6094,20.4219 Q66.9844,19.2656 67.7031,18.4375 Q68.4219,17.6094 69.4844,17.1563 Q70.5469,16.6875 71.9375,16.6875 Q72.8438,16.6875 73.75,16.9219 Q74.6563,17.1406 75.4844,17.5469 L74.6563,19.6406 Q73.9688,19.3125 73.2813,19.0781 Q72.5938,18.8281 71.9375,18.8281 Z " fill="#000000"/><text fill="#000000" font-family="sans-serif" font-size="14" lengthAdjust="spacing" textLength="101" x="86" y="27.8467">MonoBehaviour</text><line style="stroke:#181818;stroke-width:0.5;" x1="58" x2="189" y1="39" y2="39"/><line style="stroke:#181818;stroke-width:0.5;" x1="58" x2="189" y1="47" y2="47"/></g><!--reverse link MonoBehaviour to WeaponManager--><g id="link_MonoBehaviour_WeaponManager"><path codeLine="4" d="M123.5,75.09 C123.5,88.28 123.5,102.52 123.5,114.75 " fill="none" id="MonoBehaviour-backto-WeaponManager" style="stroke:#181818;stroke-width:1.0;"/><polygon fill="none" points="116.5,75.07,123.5,55.07,130.5,75.07,116.5,75.07" style="stroke:#181818;stroke-width:1.0;"/></g><!--SRC=[Iyv9B2vM24zDBCZFyqtCIqnFBLAevb800cq5vzAYejIy4eYaXgQ2bO9JOd4gX6lFLSlbcv-NxvIQaLYMcLzQf61JewkBQX00]--></g></svg>