<?xml version="1.0" encoding="us-ascii" standalone="no"?><svg xmlns="http://www.w3.org/2000/svg" xmlns:xlink="http://www.w3.org/1999/xlink" contentStyleType="text/css" height="375px" preserveAspectRatio="none" style="width:320px;height:375px;background:#FFFFFF;" version="1.1" viewBox="0 0 320 375" width="320px" zoomAndPan="magnify"><defs/><g><!--class BomberController--><g id="elem_BomberController"><rect codeLine="1" fill="#F1F1F1" height="96.8906" id="BomberController" rx="2.5" ry="2.5" style="stroke:#181818;stroke-width:0.5;" width="306" x="7" y="115"/><ellipse cx="97.25" cy="131" fill="#ADD1B2" rx="11" ry="11" style="stroke:#181818;stroke-width:1.0;"/><path d="M97.1875,126.8281 Q96.4375,126.8281 95.875,127.125 Q95.3125,127.4063 94.9219,127.9375 Q94.5313,128.4688 94.3281,129.25 Q94.1406,130.0156 94.1406,130.9688 Q94.1406,131.9375 94.3125,132.7031 Q94.5,133.4531 94.8594,133.9688 Q95.2344,134.4844 95.8125,134.7656 Q96.3906,135.0313 97.1875,135.0313 Q97.9219,135.0313 98.6563,134.8594 Q99.4063,134.6875 100.2813,134.3906 L100.2813,136.5469 Q99.875,136.7031 99.4844,136.8281 Q99.0938,136.9375 98.6875,137.0156 Q98.2813,137.0938 97.8594,137.125 Q97.4375,137.1719 96.9375,137.1719 Q95.5313,137.1719 94.5,136.7188 Q93.4844,136.2656 92.8125,135.4531 Q92.1406,134.6406 91.8125,133.5 Q91.4844,132.3438 91.4844,130.9531 Q91.4844,129.5781 91.8594,128.4219 Q92.2344,127.2656 92.9531,126.4375 Q93.6719,125.6094 94.7344,125.1563 Q95.7969,124.6875 97.1875,124.6875 Q98.0938,124.6875 99,124.9219 Q99.9063,125.1406 100.7344,125.5469 L99.9063,127.6406 Q99.2188,127.3125 98.5313,127.0781 Q97.8438,126.8281 97.1875,126.8281 Z " fill="#000000"/><text fill="#000000" font-family="sans-serif" font-size="14" lengthAdjust="spacing" textLength="117" x="117.75" y="135.8467">BomberController</text><line style="stroke:#181818;stroke-width:0.5;" x1="8" x2="312" y1="147" y2="147"/><line style="stroke:#181818;stroke-width:0.5;" x1="8" x2="312" y1="155" y2="155"/><ellipse cx="18" cy="168.6484" fill="#84BE84" rx="3" ry="3" style="stroke:#038048;stroke-width:1.0;"/><text fill="#000000" font-family="sans-serif" font-size="14" lengthAdjust="spacing" textLength="280" x="27" y="171.9951">&#171;override&#187; GetHorizontalMovement() : float</text><ellipse cx="18" cy="184.9453" fill="#84BE84" rx="3" ry="3" style="stroke:#038048;stroke-width:1.0;"/><text fill="#000000" font-family="sans-serif" font-size="14" lengthAdjust="spacing" textLength="262" x="27" y="188.292">&#171;override&#187; GetVerticalMovement() : float</text><ellipse cx="18" cy="201.2422" fill="#84BE84" rx="3" ry="3" style="stroke:#038048;stroke-width:1.0;"/><text fill="#000000" font-family="sans-serif" font-size="14" lengthAdjust="spacing" textLength="215" x="27" y="204.5889">&#171;override&#187; IsJumpPressed() : bool</text></g><!--class State--><g id="elem_State"><rect codeLine="6" fill="#F1F1F1" height="96.8906" id="State" rx="2.5" ry="2.5" style="stroke:#181818;stroke-width:0.5;" width="79" x="120.5" y="272"/><ellipse cx="142.25" cy="288" fill="#EB937F" rx="11" ry="11" style="stroke:#181818;stroke-width:1.0;"/><path d="M145.2656,294 L138.2813,294 L138.2813,281.8594 L145.2656,281.8594 L145.2656,283.9688 L140.8438,283.9688 L140.8438,286.6406 L144.9531,286.6406 L144.9531,288.75 L140.8438,288.75 L140.8438,291.875 L145.2656,291.875 L145.2656,294 Z " fill="#000000"/><text fill="#000000" font-family="sans-serif" font-size="14" lengthAdjust="spacing" textLength="32" x="157.75" y="292.8467">State</text><line style="stroke:#181818;stroke-width:0.5;" x1="121.5" x2="198.5" y1="304" y2="304"/><text fill="#000000" font-family="sans-serif" font-size="14" lengthAdjust="spacing" textLength="47" x="126.5" y="320.9951">INITAL,</text><text fill="#000000" font-family="sans-serif" font-size="14" lengthAdjust="spacing" textLength="33" x="126.5" y="337.292">IDLE,</text><text fill="#000000" font-family="sans-serif" font-size="14" lengthAdjust="spacing" textLength="67" x="126.5" y="353.5889">RUNNING,</text><line style="stroke:#181818;stroke-width:0.5;" x1="121.5" x2="198.5" y1="360.8906" y2="360.8906"/></g><!--class AIController--><g id="elem_AIController"><rect fill="#F1F1F1" height="48" id="AIController" rx="2.5" ry="2.5" style="stroke:#181818;stroke-width:0.5;" width="111" x="26.5" y="7"/><ellipse cx="41.5" cy="23" fill="#ADD1B2" rx="11" ry="11" style="stroke:#181818;stroke-width:1.0;"/><path d="M41.4375,18.8281 Q40.6875,18.8281 40.125,19.125 Q39.5625,19.4063 39.1719,19.9375 Q38.7813,20.4688 38.5781,21.25 Q38.3906,22.0156 38.3906,22.9688 Q38.3906,23.9375 38.5625,24.7031 Q38.75,25.4531 39.1094,25.9688 Q39.4844,26.4844 40.0625,26.7656 Q40.6406,27.0313 41.4375,27.0313 Q42.1719,27.0313 42.9063,26.8594 Q43.6563,26.6875 44.5313,26.3906 L44.5313,28.5469 Q44.125,28.7031 43.7344,28.8281 Q43.3438,28.9375 42.9375,29.0156 Q42.5313,29.0938 42.1094,29.125 Q41.6875,29.1719 41.1875,29.1719 Q39.7813,29.1719 38.75,28.7188 Q37.7344,28.2656 37.0625,27.4531 Q36.3906,26.6406 36.0625,25.5 Q35.7344,24.3438 35.7344,22.9531 Q35.7344,21.5781 36.1094,20.4219 Q36.4844,19.2656 37.2031,18.4375 Q37.9219,17.6094 38.9844,17.1563 Q40.0469,16.6875 41.4375,16.6875 Q42.3438,16.6875 43.25,16.9219 Q44.1563,17.1406 44.9844,17.5469 L44.1563,19.6406 Q43.4688,19.3125 42.7813,19.0781 Q42.0938,18.8281 41.4375,18.8281 Z " fill="#000000"/><text fill="#000000" font-family="sans-serif" font-size="14" lengthAdjust="spacing" textLength="79" x="55.5" y="27.8467">AIController</text><line style="stroke:#181818;stroke-width:0.5;" x1="27.5" x2="136.5" y1="39" y2="39"/><line style="stroke:#181818;stroke-width:0.5;" x1="27.5" x2="136.5" y1="47" y2="47"/></g><!--class InputController--><g id="elem_InputController"><rect fill="#F1F1F1" height="48" id="InputController" rx="2.5" ry="2.5" style="stroke:#181818;stroke-width:0.5;" width="131" x="172.5" y="7"/><ellipse cx="187.5" cy="23" fill="#ADD1B2" rx="11" ry="11" style="stroke:#181818;stroke-width:1.0;"/><path d="M187.4375,18.8281 Q186.6875,18.8281 186.125,19.125 Q185.5625,19.4063 185.1719,19.9375 Q184.7813,20.4688 184.5781,21.25 Q184.3906,22.0156 184.3906,22.9688 Q184.3906,23.9375 184.5625,24.7031 Q184.75,25.4531 185.1094,25.9688 Q185.4844,26.4844 186.0625,26.7656 Q186.6406,27.0313 187.4375,27.0313 Q188.1719,27.0313 188.9063,26.8594 Q189.6563,26.6875 190.5313,26.3906 L190.5313,28.5469 Q190.125,28.7031 189.7344,28.8281 Q189.3438,28.9375 188.9375,29.0156 Q188.5313,29.0938 188.1094,29.125 Q187.6875,29.1719 187.1875,29.1719 Q185.7813,29.1719 184.75,28.7188 Q183.7344,28.2656 183.0625,27.4531 Q182.3906,26.6406 182.0625,25.5 Q181.7344,24.3438 181.7344,22.9531 Q181.7344,21.5781 182.1094,20.4219 Q182.4844,19.2656 183.2031,18.4375 Q183.9219,17.6094 184.9844,17.1563 Q186.0469,16.6875 187.4375,16.6875 Q188.3438,16.6875 189.25,16.9219 Q190.1563,17.1406 190.9844,17.5469 L190.1563,19.6406 Q189.4688,19.3125 188.7813,19.0781 Q188.0938,18.8281 187.4375,18.8281 Z " fill="#000000"/><text fill="#000000" font-family="sans-serif" font-size="14" lengthAdjust="spacing" textLength="99" x="201.5" y="27.8467">InputController</text><line style="stroke:#181818;stroke-width:0.5;" x1="173.5" x2="302.5" y1="39" y2="39"/><line style="stroke:#181818;stroke-width:0.5;" x1="173.5" x2="302.5" y1="47" y2="47"/></g><!--reverse link AIController to BomberController--><g id="link_AIController_BomberController"><path codeLine="11" d="M106.26,72.58 C114.26,85.97 123.23,100.98 131.52,114.84 " fill="none" id="AIController-backto-BomberController" style="stroke:#181818;stroke-width:1.0;"/><polygon fill="none" points="100.02,75.79,95.77,55.03,112.03,68.61,100.02,75.79" style="stroke:#181818;stroke-width:1.0;"/></g><!--reverse link InputController to BomberController--><g id="link_InputController_BomberController"><path codeLine="12" d="M213.74,72.58 C205.74,85.97 196.77,100.98 188.48,114.84 " fill="none" id="InputController-backto-BomberController" style="stroke:#181818;stroke-width:1.0;"/><polygon fill="none" points="207.97,68.61,224.23,55.03,219.98,75.79,207.97,68.61" style="stroke:#181818;stroke-width:1.0;"/></g><!--reverse link BomberController to State--><g id="link_BomberController_State"><path codeLine="13" d="M160,227.38 C160,242.24 160,257.84 160,271.89 " fill="none" id="BomberController-backto-State" style="stroke:#181818;stroke-width:1.0;"/><ellipse cx="160" cy="220.27" fill="#FFFFFF" rx="8" ry="8" style="stroke:#181818;stroke-width:1.0;"/><line style="stroke:#181818;stroke-width:1.0;" x1="160" x2="160" y1="228.27" y2="212.27"/><line style="stroke:#181818;stroke-width:1.0;" x1="152" x2="168" y1="220.27" y2="220.27"/></g><!--SRC=[ZP1B2y8m48Jl-HKvAct_W9H2VL0ZDOYlUnyh599iIROUVFntG-j1AA9x6jXlO6OgLJZ7vwXBi0iqP54fiFpEkB-0np5UmTgcXYJX6T0QRNFpMA6s_g71q6JAP_oYiA0lbZDOQgf_3S9jEjtkB3W7TO-MY8ez6PXEymCL1EzmGefZceU3NkQhGUrFKWgPXTwHYez2yIEAHZMPC6r7FwdHEe6d-YWl]--></g></svg>