<?xml version="1.0" encoding="us-ascii" standalone="no"?><svg xmlns="http://www.w3.org/2000/svg" xmlns:xlink="http://www.w3.org/1999/xlink" contentStyleType="text/css" height="424px" preserveAspectRatio="none" style="width:320px;height:424px;background:#FFFFFF;" version="1.1" viewBox="0 0 320 424" width="320px" zoomAndPan="magnify"><defs/><g><!--class GunnerController--><g id="elem_GunnerController"><rect codeLine="1" fill="#F1F1F1" height="129.4844" id="GunnerController" rx="2.5" ry="2.5" style="stroke:#181818;stroke-width:0.5;" width="306" x="7" y="115"/><ellipse cx="99.25" cy="131" fill="#ADD1B2" rx="11" ry="11" style="stroke:#181818;stroke-width:1.0;"/><path d="M99.1875,126.8281 Q98.4375,126.8281 97.875,127.125 Q97.3125,127.4063 96.9219,127.9375 Q96.5313,128.4688 96.3281,129.25 Q96.1406,130.0156 96.1406,130.9688 Q96.1406,131.9375 96.3125,132.7031 Q96.5,133.4531 96.8594,133.9688 Q97.2344,134.4844 97.8125,134.7656 Q98.3906,135.0313 99.1875,135.0313 Q99.9219,135.0313 100.6563,134.8594 Q101.4063,134.6875 102.2813,134.3906 L102.2813,136.5469 Q101.875,136.7031 101.4844,136.8281 Q101.0938,136.9375 100.6875,137.0156 Q100.2813,137.0938 99.8594,137.125 Q99.4375,137.1719 98.9375,137.1719 Q97.5313,137.1719 96.5,136.7188 Q95.4844,136.2656 94.8125,135.4531 Q94.1406,134.6406 93.8125,133.5 Q93.4844,132.3438 93.4844,130.9531 Q93.4844,129.5781 93.8594,128.4219 Q94.2344,127.2656 94.9531,126.4375 Q95.6719,125.6094 96.7344,125.1563 Q97.7969,124.6875 99.1875,124.6875 Q100.0938,124.6875 101,124.9219 Q101.9063,125.1406 102.7344,125.5469 L101.9063,127.6406 Q101.2188,127.3125 100.5313,127.0781 Q99.8438,126.8281 99.1875,126.8281 Z " fill="#000000"/><text fill="#000000" font-family="sans-serif" font-size="14" lengthAdjust="spacing" textLength="113" x="119.75" y="135.8467">GunnerController</text><line style="stroke:#181818;stroke-width:0.5;" x1="8" x2="312" y1="147" y2="147"/><ellipse cx="18" cy="160.6484" fill="none" rx="3" ry="3" style="stroke:#038048;stroke-width:1.0;"/><text fill="#000000" font-family="sans-serif" font-size="14" lengthAdjust="spacing" textLength="187" x="27" y="163.9951">preferredDistance : float = 5f</text><ellipse cx="18" cy="176.9453" fill="none" rx="3" ry="3" style="stroke:#038048;stroke-width:1.0;"/><text fill="#000000" font-family="sans-serif" font-size="14" lengthAdjust="spacing" textLength="166" x="27" y="180.292">_jumpChance : float = 0.2f</text><line style="stroke:#181818;stroke-width:0.5;" x1="8" x2="312" y1="187.5938" y2="187.5938"/><ellipse cx="18" cy="201.2422" fill="#84BE84" rx="3" ry="3" style="stroke:#038048;stroke-width:1.0;"/><text fill="#000000" font-family="sans-serif" font-size="14" lengthAdjust="spacing" textLength="280" x="27" y="204.5889">&#171;override&#187; GetHorizontalMovement() : float</text><ellipse cx="18" cy="217.5391" fill="#84BE84" rx="3" ry="3" style="stroke:#038048;stroke-width:1.0;"/><text fill="#000000" font-family="sans-serif" font-size="14" lengthAdjust="spacing" textLength="215" x="27" y="220.8857">&#171;override&#187; IsJumpPressed() : bool</text><ellipse cx="18" cy="233.8359" fill="#84BE84" rx="3" ry="3" style="stroke:#038048;stroke-width:1.0;"/><text fill="#000000" font-family="sans-serif" font-size="14" lengthAdjust="spacing" textLength="269" x="27" y="237.1826">&#171;override&#187; GetAttackDirection() : Vector2?</text></g><!--class State--><g id="elem_State"><rect codeLine="8" fill="#F1F1F1" height="113.1875" id="State" rx="2.5" ry="2.5" style="stroke:#181818;stroke-width:0.5;" width="92" x="114" y="304"/><ellipse cx="141.6" cy="320" fill="#EB937F" rx="11" ry="11" style="stroke:#181818;stroke-width:1.0;"/><path d="M144.6156,326 L137.6313,326 L137.6313,313.8594 L144.6156,313.8594 L144.6156,315.9688 L140.1938,315.9688 L140.1938,318.6406 L144.3031,318.6406 L144.3031,320.75 L140.1938,320.75 L140.1938,323.875 L144.6156,323.875 L144.6156,326 Z " fill="#000000"/><text fill="#000000" font-family="sans-serif" font-size="14" lengthAdjust="spacing" textLength="32" x="158.4" y="324.8467">State</text><line style="stroke:#181818;stroke-width:0.5;" x1="115" x2="205" y1="336" y2="336"/><text fill="#000000" font-family="sans-serif" font-size="14" lengthAdjust="spacing" textLength="47" x="120" y="352.9951">INITAL,</text><text fill="#000000" font-family="sans-serif" font-size="14" lengthAdjust="spacing" textLength="33" x="120" y="369.292">IDLE,</text><text fill="#000000" font-family="sans-serif" font-size="14" lengthAdjust="spacing" textLength="77" x="120" y="385.5889">ATTACKING,</text><text fill="#000000" font-family="sans-serif" font-size="14" lengthAdjust="spacing" textLength="80" x="120" y="401.8857">RELOADING,</text><line style="stroke:#181818;stroke-width:0.5;" x1="115" x2="205" y1="409.1875" y2="409.1875"/></g><!--class AIController--><g id="elem_AIController"><rect fill="#F1F1F1" height="48" id="AIController" rx="2.5" ry="2.5" style="stroke:#181818;stroke-width:0.5;" width="111" x="26.5" y="7"/><ellipse cx="41.5" cy="23" fill="#ADD1B2" rx="11" ry="11" style="stroke:#181818;stroke-width:1.0;"/><path d="M41.4375,18.8281 Q40.6875,18.8281 40.125,19.125 Q39.5625,19.4063 39.1719,19.9375 Q38.7813,20.4688 38.5781,21.25 Q38.3906,22.0156 38.3906,22.9688 Q38.3906,23.9375 38.5625,24.7031 Q38.75,25.4531 39.1094,25.9688 Q39.4844,26.4844 40.0625,26.7656 Q40.6406,27.0313 41.4375,27.0313 Q42.1719,27.0313 42.9063,26.8594 Q43.6563,26.6875 44.5313,26.3906 L44.5313,28.5469 Q44.125,28.7031 43.7344,28.8281 Q43.3438,28.9375 42.9375,29.0156 Q42.5313,29.0938 42.1094,29.125 Q41.6875,29.1719 41.1875,29.1719 Q39.7813,29.1719 38.75,28.7188 Q37.7344,28.2656 37.0625,27.4531 Q36.3906,26.6406 36.0625,25.5 Q35.7344,24.3438 35.7344,22.9531 Q35.7344,21.5781 36.1094,20.4219 Q36.4844,19.2656 37.2031,18.4375 Q37.9219,17.6094 38.9844,17.1563 Q40.0469,16.6875 41.4375,16.6875 Q42.3438,16.6875 43.25,16.9219 Q44.1563,17.1406 44.9844,17.5469 L44.1563,19.6406 Q43.4688,19.3125 42.7813,19.0781 Q42.0938,18.8281 41.4375,18.8281 Z " fill="#000000"/><text fill="#000000" font-family="sans-serif" font-size="14" lengthAdjust="spacing" textLength="79" x="55.5" y="27.8467">AIController</text><line style="stroke:#181818;stroke-width:0.5;" x1="27.5" x2="136.5" y1="39" y2="39"/><line style="stroke:#181818;stroke-width:0.5;" x1="27.5" x2="136.5" y1="47" y2="47"/></g><!--class InputController--><g id="elem_InputController"><rect fill="#F1F1F1" height="48" id="InputController" rx="2.5" ry="2.5" style="stroke:#181818;stroke-width:0.5;" width="131" x="172.5" y="7"/><ellipse cx="187.5" cy="23" fill="#ADD1B2" rx="11" ry="11" style="stroke:#181818;stroke-width:1.0;"/><path d="M187.4375,18.8281 Q186.6875,18.8281 186.125,19.125 Q185.5625,19.4063 185.1719,19.9375 Q184.7813,20.4688 184.5781,21.25 Q184.3906,22.0156 184.3906,22.9688 Q184.3906,23.9375 184.5625,24.7031 Q184.75,25.4531 185.1094,25.9688 Q185.4844,26.4844 186.0625,26.7656 Q186.6406,27.0313 187.4375,27.0313 Q188.1719,27.0313 188.9063,26.8594 Q189.6563,26.6875 190.5313,26.3906 L190.5313,28.5469 Q190.125,28.7031 189.7344,28.8281 Q189.3438,28.9375 188.9375,29.0156 Q188.5313,29.0938 188.1094,29.125 Q187.6875,29.1719 187.1875,29.1719 Q185.7813,29.1719 184.75,28.7188 Q183.7344,28.2656 183.0625,27.4531 Q182.3906,26.6406 182.0625,25.5 Q181.7344,24.3438 181.7344,22.9531 Q181.7344,21.5781 182.1094,20.4219 Q182.4844,19.2656 183.2031,18.4375 Q183.9219,17.6094 184.9844,17.1563 Q186.0469,16.6875 187.4375,16.6875 Q188.3438,16.6875 189.25,16.9219 Q190.1563,17.1406 190.9844,17.5469 L190.1563,19.6406 Q189.4688,19.3125 188.7813,19.0781 Q188.0938,18.8281 187.4375,18.8281 Z " fill="#000000"/><text fill="#000000" font-family="sans-serif" font-size="14" lengthAdjust="spacing" textLength="99" x="201.5" y="27.8467">InputController</text><line style="stroke:#181818;stroke-width:0.5;" x1="173.5" x2="302.5" y1="39" y2="39"/><line style="stroke:#181818;stroke-width:0.5;" x1="173.5" x2="302.5" y1="47" y2="47"/></g><!--reverse link AIController to GunnerController--><g id="link_AIController_GunnerController"><path codeLine="14" d="M103.99,73.3 C110.88,86.24 118.64,100.83 126.15,114.93 " fill="none" id="AIController-backto-GunnerController" style="stroke:#181818;stroke-width:1.0;"/><polygon fill="none" points="97.58,76.16,94.36,55.21,109.94,69.58,97.58,76.16" style="stroke:#181818;stroke-width:1.0;"/></g><!--reverse link InputController to GunnerController--><g id="link_InputController_GunnerController"><path codeLine="15" d="M216.01,73.3 C209.12,86.24 201.36,100.83 193.85,114.93 " fill="none" id="InputController-backto-GunnerController" style="stroke:#181818;stroke-width:1.0;"/><polygon fill="none" points="210.06,69.58,225.64,55.21,222.42,76.16,210.06,69.58" style="stroke:#181818;stroke-width:1.0;"/></g><!--reverse link GunnerController to State--><g id="link_GunnerController_State"><path codeLine="16" d="M160,259.48 C160,274.43 160,289.77 160,303.82 " fill="none" id="GunnerController-backto-State" style="stroke:#181818;stroke-width:1.0;"/><ellipse cx="160" cy="252.11" fill="#FFFFFF" rx="8" ry="8" style="stroke:#181818;stroke-width:1.0;"/><line style="stroke:#181818;stroke-width:1.0;" x1="160" x2="160" y1="260.11" y2="244.11"/><line style="stroke:#181818;stroke-width:1.0;" x1="152" x2="168" y1="252.11" y2="252.11"/></g><!--SRC=[XP1DIyD048Rl-olcgDGMANYHM5cI4bTZ5HkybZMPuEfcDynEFAZzxov92s8Lv_GEyypNMraT0kIzSqYfTqpUMYJu411Z0XrXWqHOPoQmTXN2EJJMQuOBE6jsqEQbRxlq-KVvT3RV0qdYt-8KK-DY0JdobIVp7fTfUniBBJe-Ejvt_jQYmdNSS4yO0jO3-kIz_MEuPDRLQsO8ApRU3VXZr9xcbs8hqFKjh5apxfvKArNAucJKMR4SbInBcTweLJwc3ylYJcP3kXLIVNCg-PnE3_mJodKz_qiTs3w9r73R5m00]--></g></svg>