<?xml version="1.0" encoding="us-ascii" standalone="no"?><svg xmlns="http://www.w3.org/2000/svg" xmlns:xlink="http://www.w3.org/1999/xlink" contentStyleType="text/css" height="343px" preserveAspectRatio="none" style="width:320px;height:343px;background:#FFFFFF;" version="1.1" viewBox="0 0 320 343" width="320px" zoomAndPan="magnify"><defs/><g><!--class MenuBomberController--><g id="elem_MenuBomberController"><rect codeLine="1" fill="#F1F1F1" height="80.5938" id="MenuBomberController" rx="2.5" ry="2.5" style="stroke:#181818;stroke-width:0.5;" width="306" x="7" y="115"/><ellipse cx="79.25" cy="131" fill="#ADD1B2" rx="11" ry="11" style="stroke:#181818;stroke-width:1.0;"/><path d="M79.1875,126.8281 Q78.4375,126.8281 77.875,127.125 Q77.3125,127.4063 76.9219,127.9375 Q76.5313,128.4688 76.3281,129.25 Q76.1406,130.0156 76.1406,130.9688 Q76.1406,131.9375 76.3125,132.7031 Q76.5,133.4531 76.8594,133.9688 Q77.2344,134.4844 77.8125,134.7656 Q78.3906,135.0313 79.1875,135.0313 Q79.9219,135.0313 80.6563,134.8594 Q81.4063,134.6875 82.2813,134.3906 L82.2813,136.5469 Q81.875,136.7031 81.4844,136.8281 Q81.0938,136.9375 80.6875,137.0156 Q80.2813,137.0938 79.8594,137.125 Q79.4375,137.1719 78.9375,137.1719 Q77.5313,137.1719 76.5,136.7188 Q75.4844,136.2656 74.8125,135.4531 Q74.1406,134.6406 73.8125,133.5 Q73.4844,132.3438 73.4844,130.9531 Q73.4844,129.5781 73.8594,128.4219 Q74.2344,127.2656 74.9531,126.4375 Q75.6719,125.6094 76.7344,125.1563 Q77.7969,124.6875 79.1875,124.6875 Q80.0938,124.6875 81,124.9219 Q81.9063,125.1406 82.7344,125.5469 L81.9063,127.6406 Q81.2188,127.3125 80.5313,127.0781 Q79.8438,126.8281 79.1875,126.8281 Z " fill="#000000"/><text fill="#000000" font-family="sans-serif" font-size="14" lengthAdjust="spacing" textLength="153" x="99.75" y="135.8467">MenuBomberController</text><line style="stroke:#181818;stroke-width:0.5;" x1="8" x2="312" y1="147" y2="147"/><line style="stroke:#181818;stroke-width:0.5;" x1="8" x2="312" y1="155" y2="155"/><ellipse cx="18" cy="168.6484" fill="#84BE84" rx="3" ry="3" style="stroke:#038048;stroke-width:1.0;"/><text fill="#000000" font-family="sans-serif" font-size="14" lengthAdjust="spacing" textLength="280" x="27" y="171.9951">&#171;override&#187; GetHorizontalMovement() : float</text><ellipse cx="18" cy="184.9453" fill="#84BE84" rx="3" ry="3" style="stroke:#038048;stroke-width:1.0;"/><text fill="#000000" font-family="sans-serif" font-size="14" lengthAdjust="spacing" textLength="215" x="27" y="188.292">&#171;override&#187; IsJumpPressed() : bool</text></g><!--class State--><g id="elem_State"><rect codeLine="5" fill="#F1F1F1" height="80.5938" id="State" rx="2.5" ry="2.5" style="stroke:#181818;stroke-width:0.5;" width="64" x="128" y="256"/><ellipse cx="143" cy="272" fill="#EB937F" rx="11" ry="11" style="stroke:#181818;stroke-width:1.0;"/><path d="M146.0156,278 L139.0313,278 L139.0313,265.8594 L146.0156,265.8594 L146.0156,267.9688 L141.5938,267.9688 L141.5938,270.6406 L145.7031,270.6406 L145.7031,272.75 L141.5938,272.75 L141.5938,275.875 L146.0156,275.875 L146.0156,278 Z " fill="#000000"/><text fill="#000000" font-family="sans-serif" font-size="14" lengthAdjust="spacing" textLength="32" x="157" y="276.8467">State</text><line style="stroke:#181818;stroke-width:0.5;" x1="129" x2="191" y1="288" y2="288"/><text fill="#000000" font-family="sans-serif" font-size="14" lengthAdjust="spacing" textLength="47" x="134" y="304.9951">INITAL,</text><text fill="#000000" font-family="sans-serif" font-size="14" lengthAdjust="spacing" textLength="33" x="134" y="321.292">IDLE,</text><line style="stroke:#181818;stroke-width:0.5;" x1="129" x2="191" y1="328.5938" y2="328.5938"/></g><!--class AIController--><g id="elem_AIController"><rect fill="#F1F1F1" height="48" id="AIController" rx="2.5" ry="2.5" style="stroke:#181818;stroke-width:0.5;" width="111" x="26.5" y="7"/><ellipse cx="41.5" cy="23" fill="#ADD1B2" rx="11" ry="11" style="stroke:#181818;stroke-width:1.0;"/><path d="M41.4375,18.8281 Q40.6875,18.8281 40.125,19.125 Q39.5625,19.4063 39.1719,19.9375 Q38.7813,20.4688 38.5781,21.25 Q38.3906,22.0156 38.3906,22.9688 Q38.3906,23.9375 38.5625,24.7031 Q38.75,25.4531 39.1094,25.9688 Q39.4844,26.4844 40.0625,26.7656 Q40.6406,27.0313 41.4375,27.0313 Q42.1719,27.0313 42.9063,26.8594 Q43.6563,26.6875 44.5313,26.3906 L44.5313,28.5469 Q44.125,28.7031 43.7344,28.8281 Q43.3438,28.9375 42.9375,29.0156 Q42.5313,29.0938 42.1094,29.125 Q41.6875,29.1719 41.1875,29.1719 Q39.7813,29.1719 38.75,28.7188 Q37.7344,28.2656 37.0625,27.4531 Q36.3906,26.6406 36.0625,25.5 Q35.7344,24.3438 35.7344,22.9531 Q35.7344,21.5781 36.1094,20.4219 Q36.4844,19.2656 37.2031,18.4375 Q37.9219,17.6094 38.9844,17.1563 Q40.0469,16.6875 41.4375,16.6875 Q42.3438,16.6875 43.25,16.9219 Q44.1563,17.1406 44.9844,17.5469 L44.1563,19.6406 Q43.4688,19.3125 42.7813,19.0781 Q42.0938,18.8281 41.4375,18.8281 Z " fill="#000000"/><text fill="#000000" font-family="sans-serif" font-size="14" lengthAdjust="spacing" textLength="79" x="55.5" y="27.8467">AIController</text><line style="stroke:#181818;stroke-width:0.5;" x1="27.5" x2="136.5" y1="39" y2="39"/><line style="stroke:#181818;stroke-width:0.5;" x1="27.5" x2="136.5" y1="47" y2="47"/></g><!--class InputController--><g id="elem_InputController"><rect fill="#F1F1F1" height="48" id="InputController" rx="2.5" ry="2.5" style="stroke:#181818;stroke-width:0.5;" width="131" x="172.5" y="7"/><ellipse cx="187.5" cy="23" fill="#ADD1B2" rx="11" ry="11" style="stroke:#181818;stroke-width:1.0;"/><path d="M187.4375,18.8281 Q186.6875,18.8281 186.125,19.125 Q185.5625,19.4063 185.1719,19.9375 Q184.7813,20.4688 184.5781,21.25 Q184.3906,22.0156 184.3906,22.9688 Q184.3906,23.9375 184.5625,24.7031 Q184.75,25.4531 185.1094,25.9688 Q185.4844,26.4844 186.0625,26.7656 Q186.6406,27.0313 187.4375,27.0313 Q188.1719,27.0313 188.9063,26.8594 Q189.6563,26.6875 190.5313,26.3906 L190.5313,28.5469 Q190.125,28.7031 189.7344,28.8281 Q189.3438,28.9375 188.9375,29.0156 Q188.5313,29.0938 188.1094,29.125 Q187.6875,29.1719 187.1875,29.1719 Q185.7813,29.1719 184.75,28.7188 Q183.7344,28.2656 183.0625,27.4531 Q182.3906,26.6406 182.0625,25.5 Q181.7344,24.3438 181.7344,22.9531 Q181.7344,21.5781 182.1094,20.4219 Q182.4844,19.2656 183.2031,18.4375 Q183.9219,17.6094 184.9844,17.1563 Q186.0469,16.6875 187.4375,16.6875 Q188.3438,16.6875 189.25,16.9219 Q190.1563,17.1406 190.9844,17.5469 L190.1563,19.6406 Q189.4688,19.3125 188.7813,19.0781 Q188.0938,18.8281 187.4375,18.8281 Z " fill="#000000"/><text fill="#000000" font-family="sans-serif" font-size="14" lengthAdjust="spacing" textLength="99" x="201.5" y="27.8467">InputController</text><line style="stroke:#181818;stroke-width:0.5;" x1="173.5" x2="302.5" y1="39" y2="39"/><line style="stroke:#181818;stroke-width:0.5;" x1="173.5" x2="302.5" y1="47" y2="47"/></g><!--reverse link AIController to MenuBomberController--><g id="link_AIController_MenuBomberController"><path codeLine="9" d="M107.68,72.33 C116.35,85.94 126.01,101.12 134.65,114.69 " fill="none" id="AIController-backto-MenuBomberController" style="stroke:#181818;stroke-width:1.0;"/><polygon fill="none" points="101.51,75.67,96.67,55.04,113.32,68.15,101.51,75.67" style="stroke:#181818;stroke-width:1.0;"/></g><!--reverse link InputController to MenuBomberController--><g id="link_InputController_MenuBomberController"><path codeLine="10" d="M212.32,72.33 C203.65,85.94 193.99,101.12 185.35,114.69 " fill="none" id="InputController-backto-MenuBomberController" style="stroke:#181818;stroke-width:1.0;"/><polygon fill="none" points="206.68,68.15,223.33,55.04,218.49,75.67,206.68,68.15" style="stroke:#181818;stroke-width:1.0;"/></g><!--reverse link MenuBomberController to State--><g id="link_MenuBomberController_State"><path codeLine="11" d="M160,211.77 C160,226.44 160,241.99 160,255.66 " fill="none" id="MenuBomberController-backto-State" style="stroke:#181818;stroke-width:1.0;"/><ellipse cx="160" cy="204.33" fill="#FFFFFF" rx="8" ry="8" style="stroke:#181818;stroke-width:1.0;"/><line style="stroke:#181818;stroke-width:1.0;" x1="160" x2="160" y1="212.33" y2="196.33"/><line style="stroke:#181818;stroke-width:1.0;" x1="152" x2="168" y1="204.33" y2="204.33"/></g><!--SRC=[ZO_B2i9034NtynLPAcr_G4gXFj2HLWJzWQcDK9YPb4pgmiU_ErGNBhemgq1EkETUh0a1QlJ3abo3l28lJDOYmqD1d0Jod6x8tBLO5B15sH5tzuWPMyU3Go-pEIpWQid8r8iE-y7rHyOGi1tHXiYgbugX3avY1BzP-g3FPPL-zdMrIIDKwX-b_9bbax9A-twGlyZ9hacaHvCt]--></g></svg>