<?xml version="1.0" encoding="us-ascii" standalone="no"?><svg xmlns="http://www.w3.org/2000/svg" xmlns:xlink="http://www.w3.org/1999/xlink" contentStyleType="text/css" height="473px" preserveAspectRatio="none" style="width:546px;height:473px;background:#FFFFFF;" version="1.1" viewBox="0 0 546 473" width="546px" zoomAndPan="magnify"><defs/><g><!--class SpawnerController--><g id="elem_SpawnerController"><rect codeLine="1" fill="#F1F1F1" height="80.5938" id="SpawnerController" rx="2.5" ry="2.5" style="stroke:#181818;stroke-width:0.5;" width="354" x="61" y="115"/><ellipse cx="174.25" cy="131" fill="#ADD1B2" rx="11" ry="11" style="stroke:#181818;stroke-width:1.0;"/><path d="M174.1875,126.8281 Q173.4375,126.8281 172.875,127.125 Q172.3125,127.4063 171.9219,127.9375 Q171.5313,128.4688 171.3281,129.25 Q171.1406,130.0156 171.1406,130.9688 Q171.1406,131.9375 171.3125,132.7031 Q171.5,133.4531 171.8594,133.9688 Q172.2344,134.4844 172.8125,134.7656 Q173.3906,135.0313 174.1875,135.0313 Q174.9219,135.0313 175.6563,134.8594 Q176.4063,134.6875 177.2813,134.3906 L177.2813,136.5469 Q176.875,136.7031 176.4844,136.8281 Q176.0938,136.9375 175.6875,137.0156 Q175.2813,137.0938 174.8594,137.125 Q174.4375,137.1719 173.9375,137.1719 Q172.5313,137.1719 171.5,136.7188 Q170.4844,136.2656 169.8125,135.4531 Q169.1406,134.6406 168.8125,133.5 Q168.4844,132.3438 168.4844,130.9531 Q168.4844,129.5781 168.8594,128.4219 Q169.2344,127.2656 169.9531,126.4375 Q170.6719,125.6094 171.7344,125.1563 Q172.7969,124.6875 174.1875,124.6875 Q175.0938,124.6875 176,124.9219 Q176.9063,125.1406 177.7344,125.5469 L176.9063,127.6406 Q176.2188,127.3125 175.5313,127.0781 Q174.8438,126.8281 174.1875,126.8281 Z " fill="#000000"/><text fill="#000000" font-family="sans-serif" font-size="14" lengthAdjust="spacing" textLength="119" x="194.75" y="135.8467">SpawnerController</text><line style="stroke:#181818;stroke-width:0.5;" x1="62" x2="414" y1="147" y2="147"/><line style="stroke:#181818;stroke-width:0.5;" x1="62" x2="414" y1="155" y2="155"/><ellipse cx="72" cy="168.6484" fill="#84BE84" rx="3" ry="3" style="stroke:#038048;stroke-width:1.0;"/><text fill="#000000" font-family="sans-serif" font-size="14" lengthAdjust="spacing" textLength="328" x="81" y="171.9951">SetSpawnerSettings(settings:SpawnerSettings) : void</text><ellipse cx="72" cy="184.9453" fill="#84BE84" rx="3" ry="3" style="stroke:#038048;stroke-width:1.0;"/><text fill="#000000" font-family="sans-serif" font-size="14" lengthAdjust="spacing" textLength="237" x="81" y="188.292">ReachedSpawnedObjectsLimit() : bool</text></g><!--class SpawningGameObject--><g id="elem_SpawningGameObject"><rect codeLine="5" fill="#F1F1F1" height="113.1875" id="SpawningGameObject" rx="2.5" ry="2.5" style="stroke:#181818;stroke-width:0.5;" width="178" x="7" y="305"/><ellipse cx="25.6" cy="321" fill="#EB937F" rx="11" ry="11" style="stroke:#181818;stroke-width:1.0;"/><path d="M28.6156,327 L21.6313,327 L21.6313,314.8594 L28.6156,314.8594 L28.6156,316.9688 L24.1938,316.9688 L24.1938,319.6406 L28.3031,319.6406 L28.3031,321.75 L24.1938,321.75 L24.1938,324.875 L28.6156,324.875 L28.6156,327 Z " fill="#000000"/><text fill="#000000" font-family="sans-serif" font-size="14" lengthAdjust="spacing" textLength="138" x="40.4" y="325.8467">SpawningGameObject</text><line style="stroke:#181818;stroke-width:0.5;" x1="8" x2="184" y1="337" y2="337"/><text fill="#000000" font-family="sans-serif" font-size="14" lengthAdjust="spacing" textLength="117" x="13" y="353.9951">SWORD_CHARGER,</text><text fill="#000000" font-family="sans-serif" font-size="14" lengthAdjust="spacing" textLength="59" x="13" y="370.292">BOMBER,</text><text fill="#000000" font-family="sans-serif" font-size="14" lengthAdjust="spacing" textLength="113" x="13" y="386.5889">SWORD_WIELDER,</text><text fill="#000000" font-family="sans-serif" font-size="14" lengthAdjust="spacing" textLength="166" x="13" y="402.8857">BOSS_PUPPETEER_TURRET,</text><line style="stroke:#181818;stroke-width:0.5;" x1="8" x2="184" y1="410.1875" y2="410.1875"/></g><!--class SpawnerSettings--><g id="elem_SpawnerSettings"><rect codeLine="11" fill="#F1F1F1" height="210.9688" id="SpawnerSettings" rx="2.5" ry="2.5" style="stroke:#181818;stroke-width:0.5;" width="319" x="220.5" y="256"/><ellipse cx="323.75" cy="272" fill="#ADD1B2" rx="11" ry="11" style="stroke:#181818;stroke-width:1.0;"/><path d="M323.6875,267.8281 Q322.9375,267.8281 322.375,268.125 Q321.8125,268.4063 321.4219,268.9375 Q321.0313,269.4688 320.8281,270.25 Q320.6406,271.0156 320.6406,271.9688 Q320.6406,272.9375 320.8125,273.7031 Q321,274.4531 321.3594,274.9688 Q321.7344,275.4844 322.3125,275.7656 Q322.8906,276.0313 323.6875,276.0313 Q324.4219,276.0313 325.1563,275.8594 Q325.9063,275.6875 326.7813,275.3906 L326.7813,277.5469 Q326.375,277.7031 325.9844,277.8281 Q325.5938,277.9375 325.1875,278.0156 Q324.7813,278.0938 324.3594,278.125 Q323.9375,278.1719 323.4375,278.1719 Q322.0313,278.1719 321,277.7188 Q319.9844,277.2656 319.3125,276.4531 Q318.6406,275.6406 318.3125,274.5 Q317.9844,273.3438 317.9844,271.9531 Q317.9844,270.5781 318.3594,269.4219 Q318.7344,268.2656 319.4531,267.4375 Q320.1719,266.6094 321.2344,266.1563 Q322.2969,265.6875 323.6875,265.6875 Q324.5938,265.6875 325.5,265.9219 Q326.4063,266.1406 327.2344,266.5469 L326.4063,268.6406 Q325.7188,268.3125 325.0313,268.0781 Q324.3438,267.8281 323.6875,267.8281 Z " fill="#000000"/><text fill="#000000" font-family="sans-serif" font-size="14" lengthAdjust="spacing" textLength="104" x="344.25" y="276.8467">SpawnerSettings</text><line style="stroke:#181818;stroke-width:0.5;" x1="221.5" x2="538.5" y1="288" y2="288"/><ellipse cx="231.5" cy="301.6484" fill="none" rx="3" ry="3" style="stroke:#038048;stroke-width:1.0;"/><text fill="#000000" font-family="sans-serif" font-size="14" lengthAdjust="spacing" textLength="137" x="240.5" y="304.9951">spawnCountMax : int?</text><ellipse cx="231.5" cy="317.9453" fill="none" rx="3" ry="3" style="stroke:#038048;stroke-width:1.0;"/><text fill="#000000" font-family="sans-serif" font-size="14" lengthAdjust="spacing" textLength="135" x="240.5" y="321.292">spawnCountMin : int?</text><ellipse cx="231.5" cy="334.2422" fill="none" rx="3" ry="3" style="stroke:#038048;stroke-width:1.0;"/><text fill="#000000" font-family="sans-serif" font-size="14" lengthAdjust="spacing" textLength="162" x="240.5" y="337.5889">spawnIntervalMax : float?</text><ellipse cx="231.5" cy="350.5391" fill="none" rx="3" ry="3" style="stroke:#038048;stroke-width:1.0;"/><text fill="#000000" font-family="sans-serif" font-size="14" lengthAdjust="spacing" textLength="160" x="240.5" y="353.8857">spawnIntervalMin : float?</text><ellipse cx="231.5" cy="366.8359" fill="none" rx="3" ry="3" style="stroke:#038048;stroke-width:1.0;"/><text fill="#000000" font-family="sans-serif" font-size="14" lengthAdjust="spacing" textLength="104" x="240.5" y="370.1826">waveCount : int?</text><ellipse cx="231.5" cy="383.1328" fill="none" rx="3" ry="3" style="stroke:#038048;stroke-width:1.0;"/><text fill="#000000" font-family="sans-serif" font-size="14" lengthAdjust="spacing" textLength="129" x="240.5" y="386.4795">waveInterval : float?</text><ellipse cx="231.5" cy="399.4297" fill="none" rx="3" ry="3" style="stroke:#038048;stroke-width:1.0;"/><text fill="#000000" font-family="sans-serif" font-size="14" lengthAdjust="spacing" textLength="116" x="240.5" y="402.7764">currentWave : int?</text><ellipse cx="231.5" cy="415.7266" fill="none" rx="3" ry="3" style="stroke:#038048;stroke-width:1.0;"/><text fill="#000000" font-family="sans-serif" font-size="14" lengthAdjust="spacing" textLength="127" x="240.5" y="419.0732">delayedStart : float?</text><ellipse cx="231.5" cy="432.0234" fill="none" rx="3" ry="3" style="stroke:#038048;stroke-width:1.0;"/><text fill="#000000" font-family="sans-serif" font-size="14" lengthAdjust="spacing" textLength="149" x="240.5" y="435.3701">maxSpawnObjects : int?</text><ellipse cx="231.5" cy="448.3203" fill="none" rx="3" ry="3" style="stroke:#038048;stroke-width:1.0;"/><text fill="#000000" font-family="sans-serif" font-size="14" lengthAdjust="spacing" textLength="293" x="240.5" y="451.667">spawningGameObject : SpawningGameObject?</text><line style="stroke:#181818;stroke-width:0.5;" x1="221.5" x2="538.5" y1="458.9688" y2="458.9688"/></g><!--class MonoBehaviour--><g id="elem_MonoBehaviour"><rect fill="#F1F1F1" height="48" id="MonoBehaviour" rx="2.5" ry="2.5" style="stroke:#181818;stroke-width:0.5;" width="133" x="171.5" y="7"/><ellipse cx="186.5" cy="23" fill="#ADD1B2" rx="11" ry="11" style="stroke:#181818;stroke-width:1.0;"/><path d="M186.4375,18.8281 Q185.6875,18.8281 185.125,19.125 Q184.5625,19.4063 184.1719,19.9375 Q183.7813,20.4688 183.5781,21.25 Q183.3906,22.0156 183.3906,22.9688 Q183.3906,23.9375 183.5625,24.7031 Q183.75,25.4531 184.1094,25.9688 Q184.4844,26.4844 185.0625,26.7656 Q185.6406,27.0313 186.4375,27.0313 Q187.1719,27.0313 187.9063,26.8594 Q188.6563,26.6875 189.5313,26.3906 L189.5313,28.5469 Q189.125,28.7031 188.7344,28.8281 Q188.3438,28.9375 187.9375,29.0156 Q187.5313,29.0938 187.1094,29.125 Q186.6875,29.1719 186.1875,29.1719 Q184.7813,29.1719 183.75,28.7188 Q182.7344,28.2656 182.0625,27.4531 Q181.3906,26.6406 181.0625,25.5 Q180.7344,24.3438 180.7344,22.9531 Q180.7344,21.5781 181.1094,20.4219 Q181.4844,19.2656 182.2031,18.4375 Q182.9219,17.6094 183.9844,17.1563 Q185.0469,16.6875 186.4375,16.6875 Q187.3438,16.6875 188.25,16.9219 Q189.1563,17.1406 189.9844,17.5469 L189.1563,19.6406 Q188.4688,19.3125 187.7813,19.0781 Q187.0938,18.8281 186.4375,18.8281 Z " fill="#000000"/><text fill="#000000" font-family="sans-serif" font-size="14" lengthAdjust="spacing" textLength="101" x="200.5" y="27.8467">MonoBehaviour</text><line style="stroke:#181818;stroke-width:0.5;" x1="172.5" x2="303.5" y1="39" y2="39"/><line style="stroke:#181818;stroke-width:0.5;" x1="172.5" x2="303.5" y1="47" y2="47"/></g><!--reverse link MonoBehaviour to SpawnerController--><g id="link_MonoBehaviour_SpawnerController"><path codeLine="23" d="M238,75.14 C238,88 238,102.04 238,114.69 " fill="none" id="MonoBehaviour-backto-SpawnerController" style="stroke:#181818;stroke-width:1.0;"/><polygon fill="none" points="231,75.04,238,55.04,245,75.04,231,75.04" style="stroke:#181818;stroke-width:1.0;"/></g><!--reverse link SpawnerController to SpawningGameObject--><g id="link_SpawnerController_SpawningGameObject"><path codeLine="24" d="M201.55,208.86 C181.06,238.3 155.5,275.03 134.66,304.96 " fill="none" id="SpawnerController-backto-SpawningGameObject" style="stroke:#181818;stroke-width:1.0;"/><ellipse cx="205.7061" cy="202.8835" fill="#FFFFFF" rx="8" ry="8" style="stroke:#181818;stroke-width:1.0;"/><line style="stroke:#181818;stroke-width:1.0;" x1="201.1323" x2="210.28" y1="209.447" y2="196.32"/><line style="stroke:#181818;stroke-width:1.0;" x1="199.1426" x2="212.2696" y1="198.3096" y2="207.4574"/></g><!--reverse link SpawnerController to SpawnerSettings--><g id="link_SpawnerController_SpawnerSettings"><path codeLine="25" d="M274.58,209.05 C284.64,223.51 295.92,239.71 307.25,255.99 " fill="none" id="SpawnerController-backto-SpawnerSettings" style="stroke:#181818;stroke-width:1.0;"/><ellipse cx="270.2939" cy="202.8835" fill="#FFFFFF" rx="8" ry="8" style="stroke:#181818;stroke-width:1.0;"/><line style="stroke:#181818;stroke-width:1.0;" x1="274.8677" x2="265.72" y1="209.447" y2="196.32"/><line style="stroke:#181818;stroke-width:1.0;" x1="263.7304" x2="276.8574" y1="207.4574" y2="198.3096"/></g><!--SRC=[VLBBReCm4Bpp5JwcIl83g59KY9L62W8P8ex8WMtZojYLCIHLst-lUJNXqVgqsfdPtTbrocbHeF2TNWGeLmgj9EUWqAU5p5kY47G7caWpyLeiYYwmHy03ib4bMTOf2T3q35bBolpJ6wIwEB2SwKNDF4d9hMyBH9ctxKs97SsX9NRzmzWdsyHzVY8xJ5PDol4zfuzREDxZm_O6Xs4I78C0HnYJ93eIWgELQPJU6-r7_hLPr7bNba9xz6gcOq9lfX0JCz1UQ50LvQtmXKlw1zwe1_Y5Lj1K7fQjqxrgB4bBfK3es526eWmu_J3hrbJfiIYdryPuTuGP4yFbspCNsPWTUb981ywqOh9KwF5hlPx-76lwbvOzRr3mF-BjGZy0]--></g></svg>