<?xml version="1.0" encoding="us-ascii" standalone="no"?><svg xmlns="http://www.w3.org/2000/svg" xmlns:xlink="http://www.w3.org/1999/xlink" contentStyleType="text/css" height="473px" preserveAspectRatio="none" style="width:824px;height:473px;background:#FFFFFF;" version="1.1" viewBox="0 0 824 473" width="824px" zoomAndPan="magnify"><defs/><g><!--class SpawnerController--><g id="elem_SpawnerController"><rect codeLine="1" fill="#F1F1F1" height="80.5938" id="SpawnerController" rx="2.5" ry="2.5" style="stroke:#181818;stroke-width:0.5;" width="354" x="203" y="115"/><ellipse cx="316.25" cy="131" fill="#ADD1B2" rx="11" ry="11" style="stroke:#181818;stroke-width:1.0;"/><path d="M316.1875,126.8281 Q315.4375,126.8281 314.875,127.125 Q314.3125,127.4063 313.9219,127.9375 Q313.5313,128.4688 313.3281,129.25 Q313.1406,130.0156 313.1406,130.9688 Q313.1406,131.9375 313.3125,132.7031 Q313.5,133.4531 313.8594,133.9688 Q314.2344,134.4844 314.8125,134.7656 Q315.3906,135.0313 316.1875,135.0313 Q316.9219,135.0313 317.6563,134.8594 Q318.4063,134.6875 319.2813,134.3906 L319.2813,136.5469 Q318.875,136.7031 318.4844,136.8281 Q318.0938,136.9375 317.6875,137.0156 Q317.2813,137.0938 316.8594,137.125 Q316.4375,137.1719 315.9375,137.1719 Q314.5313,137.1719 313.5,136.7188 Q312.4844,136.2656 311.8125,135.4531 Q311.1406,134.6406 310.8125,133.5 Q310.4844,132.3438 310.4844,130.9531 Q310.4844,129.5781 310.8594,128.4219 Q311.2344,127.2656 311.9531,126.4375 Q312.6719,125.6094 313.7344,125.1563 Q314.7969,124.6875 316.1875,124.6875 Q317.0938,124.6875 318,124.9219 Q318.9063,125.1406 319.7344,125.5469 L318.9063,127.6406 Q318.2188,127.3125 317.5313,127.0781 Q316.8438,126.8281 316.1875,126.8281 Z " fill="#000000"/><text fill="#000000" font-family="sans-serif" font-size="14" lengthAdjust="spacing" textLength="119" x="336.75" y="135.8467">SpawnerController</text><line style="stroke:#181818;stroke-width:0.5;" x1="204" x2="556" y1="147" y2="147"/><line style="stroke:#181818;stroke-width:0.5;" x1="204" x2="556" y1="155" y2="155"/><ellipse cx="214" cy="168.6484" fill="#84BE84" rx="3" ry="3" style="stroke:#038048;stroke-width:1.0;"/><text fill="#000000" font-family="sans-serif" font-size="14" lengthAdjust="spacing" textLength="328" x="223" y="171.9951">SetSpawnerSettings(settings:SpawnerSettings) : void</text><ellipse cx="214" cy="184.9453" fill="#84BE84" rx="3" ry="3" style="stroke:#038048;stroke-width:1.0;"/><text fill="#000000" font-family="sans-serif" font-size="14" lengthAdjust="spacing" textLength="237" x="223" y="188.292">ReachedSpawnedObjectsLimit() : bool</text></g><!--class SpawningGameObject--><g id="elem_SpawningGameObject"><rect codeLine="5" fill="#F1F1F1" height="113.1875" id="SpawningGameObject" rx="2.5" ry="2.5" style="stroke:#181818;stroke-width:0.5;" width="178" x="7" y="305"/><ellipse cx="25.6" cy="321" fill="#EB937F" rx="11" ry="11" style="stroke:#181818;stroke-width:1.0;"/><path d="M28.6156,327 L21.6313,327 L21.6313,314.8594 L28.6156,314.8594 L28.6156,316.9688 L24.1938,316.9688 L24.1938,319.6406 L28.3031,319.6406 L28.3031,321.75 L24.1938,321.75 L24.1938,324.875 L28.6156,324.875 L28.6156,327 Z " fill="#000000"/><text fill="#000000" font-family="sans-serif" font-size="14" lengthAdjust="spacing" textLength="138" x="40.4" y="325.8467">SpawningGameObject</text><line style="stroke:#181818;stroke-width:0.5;" x1="8" x2="184" y1="337" y2="337"/><text fill="#000000" font-family="sans-serif" font-size="14" lengthAdjust="spacing" textLength="117" x="13" y="353.9951">SWORD_CHARGER,</text><text fill="#000000" font-family="sans-serif" font-size="14" lengthAdjust="spacing" textLength="59" x="13" y="370.292">BOMBER,</text><text fill="#000000" font-family="sans-serif" font-size="14" lengthAdjust="spacing" textLength="113" x="13" y="386.5889">SWORD_WIELDER,</text><text fill="#000000" font-family="sans-serif" font-size="14" lengthAdjust="spacing" textLength="166" x="13" y="402.8857">BOSS_PUPPETEER_TURRET,</text><line style="stroke:#181818;stroke-width:0.5;" x1="8" x2="184" y1="410.1875" y2="410.1875"/></g><!--class SpawnerSettings--><g id="elem_SpawnerSettings"><rect codeLine="11" fill="#F1F1F1" height="210.9688" id="SpawnerSettings" rx="2.5" ry="2.5" style="stroke:#181818;stroke-width:0.5;" width="319" x="220.5" y="256"/><ellipse cx="323.75" cy="272" fill="#ADD1B2" rx="11" ry="11" style="stroke:#181818;stroke-width:1.0;"/><path d="M323.6875,267.8281 Q322.9375,267.8281 322.375,268.125 Q321.8125,268.4063 321.4219,268.9375 Q321.0313,269.4688 320.8281,270.25 Q320.6406,271.0156 320.6406,271.9688 Q320.6406,272.9375 320.8125,273.7031 Q321,274.4531 321.3594,274.9688 Q321.7344,275.4844 322.3125,275.7656 Q322.8906,276.0313 323.6875,276.0313 Q324.4219,276.0313 325.1563,275.8594 Q325.9063,275.6875 326.7813,275.3906 L326.7813,277.5469 Q326.375,277.7031 325.9844,277.8281 Q325.5938,277.9375 325.1875,278.0156 Q324.7813,278.0938 324.3594,278.125 Q323.9375,278.1719 323.4375,278.1719 Q322.0313,278.1719 321,277.7188 Q319.9844,277.2656 319.3125,276.4531 Q318.6406,275.6406 318.3125,274.5 Q317.9844,273.3438 317.9844,271.9531 Q317.9844,270.5781 318.3594,269.4219 Q318.7344,268.2656 319.4531,267.4375 Q320.1719,266.6094 321.2344,266.1563 Q322.2969,265.6875 323.6875,265.6875 Q324.5938,265.6875 325.5,265.9219 Q326.4063,266.1406 327.2344,266.5469 L326.4063,268.6406 Q325.7188,268.3125 325.0313,268.0781 Q324.3438,267.8281 323.6875,267.8281 Z " fill="#000000"/><text fill="#000000" font-family="sans-serif" font-size="14" lengthAdjust="spacing" textLength="104" x="344.25" y="276.8467">SpawnerSettings</text><line style="stroke:#181818;stroke-width:0.5;" x1="221.5" x2="538.5" y1="288" y2="288"/><ellipse cx="231.5" cy="301.6484" fill="none" rx="3" ry="3" style="stroke:#038048;stroke-width:1.0;"/><text fill="#000000" font-family="sans-serif" font-size="14" lengthAdjust="spacing" textLength="137" x="240.5" y="304.9951">spawnCountMax : int?</text><ellipse cx="231.5" cy="317.9453" fill="none" rx="3" ry="3" style="stroke:#038048;stroke-width:1.0;"/><text fill="#000000" font-family="sans-serif" font-size="14" lengthAdjust="spacing" textLength="135" x="240.5" y="321.292">spawnCountMin : int?</text><ellipse cx="231.5" cy="334.2422" fill="none" rx="3" ry="3" style="stroke:#038048;stroke-width:1.0;"/><text fill="#000000" font-family="sans-serif" font-size="14" lengthAdjust="spacing" textLength="162" x="240.5" y="337.5889">spawnIntervalMax : float?</text><ellipse cx="231.5" cy="350.5391" fill="none" rx="3" ry="3" style="stroke:#038048;stroke-width:1.0;"/><text fill="#000000" font-family="sans-serif" font-size="14" lengthAdjust="spacing" textLength="160" x="240.5" y="353.8857">spawnIntervalMin : float?</text><ellipse cx="231.5" cy="366.8359" fill="none" rx="3" ry="3" style="stroke:#038048;stroke-width:1.0;"/><text fill="#000000" font-family="sans-serif" font-size="14" lengthAdjust="spacing" textLength="104" x="240.5" y="370.1826">waveCount : int?</text><ellipse cx="231.5" cy="383.1328" fill="none" rx="3" ry="3" style="stroke:#038048;stroke-width:1.0;"/><text fill="#000000" font-family="sans-serif" font-size="14" lengthAdjust="spacing" textLength="129" x="240.5" y="386.4795">waveInterval : float?</text><ellipse cx="231.5" cy="399.4297" fill="none" rx="3" ry="3" style="stroke:#038048;stroke-width:1.0;"/><text fill="#000000" font-family="sans-serif" font-size="14" lengthAdjust="spacing" textLength="116" x="240.5" y="402.7764">currentWave : int?</text><ellipse cx="231.5" cy="415.7266" fill="none" rx="3" ry="3" style="stroke:#038048;stroke-width:1.0;"/><text fill="#000000" font-family="sans-serif" font-size="14" lengthAdjust="spacing" textLength="127" x="240.5" y="419.0732">delayedStart : float?</text><ellipse cx="231.5" cy="432.0234" fill="none" rx="3" ry="3" style="stroke:#038048;stroke-width:1.0;"/><text fill="#000000" font-family="sans-serif" font-size="14" lengthAdjust="spacing" textLength="149" x="240.5" y="435.3701">maxSpawnObjects : int?</text><ellipse cx="231.5" cy="448.3203" fill="none" rx="3" ry="3" style="stroke:#038048;stroke-width:1.0;"/><text fill="#000000" font-family="sans-serif" font-size="14" lengthAdjust="spacing" textLength="293" x="240.5" y="451.667">spawningGameObject : SpawningGameObject?</text><line style="stroke:#181818;stroke-width:0.5;" x1="221.5" x2="538.5" y1="458.9688" y2="458.9688"/></g><!--class SetSwordChargerModulesParams--><g id="elem_SetSwordChargerModulesParams"><rect codeLine="23" fill="#F1F1F1" height="80.5938" id="SetSwordChargerModulesParams" rx="2.5" ry="2.5" style="stroke:#181818;stroke-width:0.5;" width="242" x="575" y="321"/><ellipse cx="590" cy="337" fill="#ADD1B2" rx="11" ry="11" style="stroke:#181818;stroke-width:1.0;"/><path d="M589.9375,332.8281 Q589.1875,332.8281 588.625,333.125 Q588.0625,333.4063 587.6719,333.9375 Q587.2813,334.4688 587.0781,335.25 Q586.8906,336.0156 586.8906,336.9688 Q586.8906,337.9375 587.0625,338.7031 Q587.25,339.4531 587.6094,339.9688 Q587.9844,340.4844 588.5625,340.7656 Q589.1406,341.0313 589.9375,341.0313 Q590.6719,341.0313 591.4063,340.8594 Q592.1563,340.6875 593.0313,340.3906 L593.0313,342.5469 Q592.625,342.7031 592.2344,342.8281 Q591.8438,342.9375 591.4375,343.0156 Q591.0313,343.0938 590.6094,343.125 Q590.1875,343.1719 589.6875,343.1719 Q588.2813,343.1719 587.25,342.7188 Q586.2344,342.2656 585.5625,341.4531 Q584.8906,340.6406 584.5625,339.5 Q584.2344,338.3438 584.2344,336.9531 Q584.2344,335.5781 584.6094,334.4219 Q584.9844,333.2656 585.7031,332.4375 Q586.4219,331.6094 587.4844,331.1563 Q588.5469,330.6875 589.9375,330.6875 Q590.8438,330.6875 591.75,330.9219 Q592.6563,331.1406 593.4844,331.5469 L592.6563,333.6406 Q591.9688,333.3125 591.2813,333.0781 Q590.5938,332.8281 589.9375,332.8281 Z " fill="#000000"/><text fill="#000000" font-family="sans-serif" font-size="14" lengthAdjust="spacing" textLength="210" x="604" y="341.8467">SetSwordChargerModulesParams</text><line style="stroke:#181818;stroke-width:0.5;" x1="576" x2="816" y1="353" y2="353"/><ellipse cx="586" cy="366.6484" fill="none" rx="3" ry="3" style="stroke:#038048;stroke-width:1.0;"/><text fill="#000000" font-family="sans-serif" font-size="14" lengthAdjust="spacing" textLength="92" x="595" y="369.9951">canDash : bool</text><ellipse cx="586" cy="382.9453" fill="none" rx="3" ry="3" style="stroke:#038048;stroke-width:1.0;"/><text fill="#000000" font-family="sans-serif" font-size="14" lengthAdjust="spacing" textLength="140" x="595" y="386.292">canDoubleJump : bool</text><line style="stroke:#181818;stroke-width:0.5;" x1="576" x2="816" y1="393.5938" y2="393.5938"/></g><!--class MonoBehaviour--><g id="elem_MonoBehaviour"><rect fill="#F1F1F1" height="48" id="MonoBehaviour" rx="2.5" ry="2.5" style="stroke:#181818;stroke-width:0.5;" width="133" x="313.5" y="7"/><ellipse cx="328.5" cy="23" fill="#ADD1B2" rx="11" ry="11" style="stroke:#181818;stroke-width:1.0;"/><path d="M328.4375,18.8281 Q327.6875,18.8281 327.125,19.125 Q326.5625,19.4063 326.1719,19.9375 Q325.7813,20.4688 325.5781,21.25 Q325.3906,22.0156 325.3906,22.9688 Q325.3906,23.9375 325.5625,24.7031 Q325.75,25.4531 326.1094,25.9688 Q326.4844,26.4844 327.0625,26.7656 Q327.6406,27.0313 328.4375,27.0313 Q329.1719,27.0313 329.9063,26.8594 Q330.6563,26.6875 331.5313,26.3906 L331.5313,28.5469 Q331.125,28.7031 330.7344,28.8281 Q330.3438,28.9375 329.9375,29.0156 Q329.5313,29.0938 329.1094,29.125 Q328.6875,29.1719 328.1875,29.1719 Q326.7813,29.1719 325.75,28.7188 Q324.7344,28.2656 324.0625,27.4531 Q323.3906,26.6406 323.0625,25.5 Q322.7344,24.3438 322.7344,22.9531 Q322.7344,21.5781 323.1094,20.4219 Q323.4844,19.2656 324.2031,18.4375 Q324.9219,17.6094 325.9844,17.1563 Q327.0469,16.6875 328.4375,16.6875 Q329.3438,16.6875 330.25,16.9219 Q331.1563,17.1406 331.9844,17.5469 L331.1563,19.6406 Q330.4688,19.3125 329.7813,19.0781 Q329.0938,18.8281 328.4375,18.8281 Z " fill="#000000"/><text fill="#000000" font-family="sans-serif" font-size="14" lengthAdjust="spacing" textLength="101" x="342.5" y="27.8467">MonoBehaviour</text><line style="stroke:#181818;stroke-width:0.5;" x1="314.5" x2="445.5" y1="39" y2="39"/><line style="stroke:#181818;stroke-width:0.5;" x1="314.5" x2="445.5" y1="47" y2="47"/></g><!--reverse link MonoBehaviour to SpawnerController--><g id="link_MonoBehaviour_SpawnerController"><path codeLine="27" d="M380,75.14 C380,88 380,102.04 380,114.69 " fill="none" id="MonoBehaviour-backto-SpawnerController" style="stroke:#181818;stroke-width:1.0;"/><polygon fill="none" points="373,75.04,380,55.04,387,75.04,373,75.04" style="stroke:#181818;stroke-width:1.0;"/></g><!--reverse link SpawnerController to SpawningGameObject--><g id="link_SpawnerController_SpawningGameObject"><path codeLine="28" d="M285.89,203.42 C258.24,218.77 228.58,236.84 203,256 C183.67,270.48 164.27,288.23 147.39,304.96 " fill="none" id="SpawnerController-backto-SpawningGameObject" style="stroke:#181818;stroke-width:1.0;"/><ellipse cx="292.2489" cy="199.9546" fill="#FFFFFF" rx="8" ry="8" style="stroke:#181818;stroke-width:1.0;"/><line style="stroke:#181818;stroke-width:1.0;" x1="285.2278" x2="299.27" y1="203.7891" y2="196.12"/><line style="stroke:#181818;stroke-width:1.0;" x1="288.4143" x2="296.0834" y1="192.9334" y2="206.9757"/></g><!--reverse link SpawnerController to SpawnerSettings--><g id="link_SpawnerController_SpawnerSettings"><path codeLine="29" d="M380,211.73 C380,225.49 380,240.7 380,255.99 " fill="none" id="SpawnerController-backto-SpawnerSettings" style="stroke:#181818;stroke-width:1.0;"/><ellipse cx="380" cy="204.32" fill="#FFFFFF" rx="8" ry="8" style="stroke:#181818;stroke-width:1.0;"/><line style="stroke:#181818;stroke-width:1.0;" x1="380" x2="380" y1="212.32" y2="196.32"/><line style="stroke:#181818;stroke-width:1.0;" x1="372" x2="388" y1="204.32" y2="204.32"/></g><!--reverse link SpawnerController to SetSwordChargerModulesParams--><g id="link_SpawnerController_SetSwordChargerModulesParams"><path codeLine="30" d="M469.12,203.58 C497.67,219.45 529.1,237.78 557,256 C587.72,276.05 620.59,300.61 646.65,320.88 " fill="none" id="SpawnerController-backto-SetSwordChargerModulesParams" style="stroke:#181818;stroke-width:1.0;"/><ellipse cx="462.8047" cy="200.0944" fill="#FFFFFF" rx="8" ry="8" style="stroke:#181818;stroke-width:1.0;"/><line style="stroke:#181818;stroke-width:1.0;" x1="469.8095" x2="455.8" y1="203.9588" y2="196.23"/><line style="stroke:#181818;stroke-width:1.0;" x1="458.9403" x2="466.6691" y1="207.0991" y2="193.0897"/></g><!--SRC=[VLBRRi8m37tlL-IH2VW1D0cDKZ4cAgeKn2CohKSpfGdAfJ1j-_U5NjQLMvuidtDY7zi91wr9V82ZGELBOPJa71NvyeXxVHAZgK4N6IRskgVhO7G1F94HAIHBQoL5I39CArAwt7rWOlI2vSpqpioTbDpxyL3Ol2hllfX1ZXMnhXzlbdIwzLzVw2oWWp8rMOQJ9gxWpJnOJ5iuZhVHEeg2LH3GxMfDQR0Qk4B9VwDDotyszJdlIojC22VN7HDcV0qnSGEQ2uEg05u9txc4EtYfxk17AB3ykVljETseBYM9LGg5sJXALvGYXqytRWFAN8foE9N6woNSCD4T_kZ6HiRj3Dr97ALA_GpK7bKeKyjHHw0WRmUQW9Y2pff5jqbfTnpVR7veRo2KGaumWu99gyZpzt1uVP3UzOds6rwdpqV4Tl7tM0-i_G80]--></g></svg>