<?xml version="1.0" encoding="us-ascii" standalone="no"?><svg xmlns="http://www.w3.org/2000/svg" xmlns:xlink="http://www.w3.org/1999/xlink" contentStyleType="text/css" height="392px" preserveAspectRatio="none" style="width:309px;height:392px;background:#FFFFFF;" version="1.1" viewBox="0 0 309 392" width="309px" zoomAndPan="magnify"><defs/><g><!--class TemplateController--><g id="elem_TemplateController"><rect codeLine="1" fill="#F1F1F1" height="96.8906" id="TemplateController" rx="2.5" ry="2.5" style="stroke:#181818;stroke-width:0.5;" width="295" x="7" y="115"/><ellipse cx="87.75" cy="131" fill="#ADD1B2" rx="11" ry="11" style="stroke:#181818;stroke-width:1.0;"/><path d="M87.6875,126.8281 Q86.9375,126.8281 86.375,127.125 Q85.8125,127.4063 85.4219,127.9375 Q85.0313,128.4688 84.8281,129.25 Q84.6406,130.0156 84.6406,130.9688 Q84.6406,131.9375 84.8125,132.7031 Q85,133.4531 85.3594,133.9688 Q85.7344,134.4844 86.3125,134.7656 Q86.8906,135.0313 87.6875,135.0313 Q88.4219,135.0313 89.1563,134.8594 Q89.9063,134.6875 90.7813,134.3906 L90.7813,136.5469 Q90.375,136.7031 89.9844,136.8281 Q89.5938,136.9375 89.1875,137.0156 Q88.7813,137.0938 88.3594,137.125 Q87.9375,137.1719 87.4375,137.1719 Q86.0313,137.1719 85,136.7188 Q83.9844,136.2656 83.3125,135.4531 Q82.6406,134.6406 82.3125,133.5 Q81.9844,132.3438 81.9844,130.9531 Q81.9844,129.5781 82.3594,128.4219 Q82.7344,127.2656 83.4531,126.4375 Q84.1719,125.6094 85.2344,125.1563 Q86.2969,124.6875 87.6875,124.6875 Q88.5938,124.6875 89.5,124.9219 Q90.4063,125.1406 91.2344,125.5469 L90.4063,127.6406 Q89.7188,127.3125 89.0313,127.0781 Q88.3438,126.8281 87.6875,126.8281 Z " fill="#000000"/><text fill="#000000" font-family="sans-serif" font-size="14" lengthAdjust="spacing" textLength="125" x="108.25" y="135.8467">TemplateController</text><line style="stroke:#181818;stroke-width:0.5;" x1="8" x2="301" y1="147" y2="147"/><line style="stroke:#181818;stroke-width:0.5;" x1="8" x2="301" y1="155" y2="155"/><ellipse cx="18" cy="168.6484" fill="#84BE84" rx="3" ry="3" style="stroke:#038048;stroke-width:1.0;"/><text fill="#000000" font-family="sans-serif" font-size="14" lengthAdjust="spacing" textLength="269" x="27" y="171.9951">&#171;override&#187; GetAttackDirection() : Vector2?</text><ellipse cx="18" cy="184.9453" fill="#84BE84" rx="3" ry="3" style="stroke:#038048;stroke-width:1.0;"/><text fill="#000000" font-family="sans-serif" font-size="14" lengthAdjust="spacing" textLength="225" x="27" y="188.292">&#171;override&#187; IsReloadPressed() : bool</text><ellipse cx="18" cy="201.2422" fill="#84BE84" rx="3" ry="3" style="stroke:#038048;stroke-width:1.0;"/><text fill="#000000" font-family="sans-serif" font-size="14" lengthAdjust="spacing" textLength="215" x="27" y="204.5889">&#171;override&#187; IsJumpPressed() : bool</text></g><!--class State--><g id="elem_State"><rect codeLine="6" fill="#F1F1F1" height="113.1875" id="State" rx="2.5" ry="2.5" style="stroke:#181818;stroke-width:0.5;" width="92" x="108.5" y="272"/><ellipse cx="136.1" cy="288" fill="#EB937F" rx="11" ry="11" style="stroke:#181818;stroke-width:1.0;"/><path d="M139.1156,294 L132.1313,294 L132.1313,281.8594 L139.1156,281.8594 L139.1156,283.9688 L134.6938,283.9688 L134.6938,286.6406 L138.8031,286.6406 L138.8031,288.75 L134.6938,288.75 L134.6938,291.875 L139.1156,291.875 L139.1156,294 Z " fill="#000000"/><text fill="#000000" font-family="sans-serif" font-size="14" lengthAdjust="spacing" textLength="32" x="152.9" y="292.8467">State</text><line style="stroke:#181818;stroke-width:0.5;" x1="109.5" x2="199.5" y1="304" y2="304"/><text fill="#000000" font-family="sans-serif" font-size="14" lengthAdjust="spacing" textLength="47" x="114.5" y="320.9951">INITAL,</text><text fill="#000000" font-family="sans-serif" font-size="14" lengthAdjust="spacing" textLength="33" x="114.5" y="337.292">IDLE,</text><text fill="#000000" font-family="sans-serif" font-size="14" lengthAdjust="spacing" textLength="73" x="114.5" y="353.5889">SHOOTING,</text><text fill="#000000" font-family="sans-serif" font-size="14" lengthAdjust="spacing" textLength="80" x="114.5" y="369.8857">RELOADING,</text><line style="stroke:#181818;stroke-width:0.5;" x1="109.5" x2="199.5" y1="377.1875" y2="377.1875"/></g><!--class AIController--><g id="elem_AIController"><rect fill="#F1F1F1" height="48" id="AIController" rx="2.5" ry="2.5" style="stroke:#181818;stroke-width:0.5;" width="111" x="21" y="7"/><ellipse cx="36" cy="23" fill="#ADD1B2" rx="11" ry="11" style="stroke:#181818;stroke-width:1.0;"/><path d="M35.9375,18.8281 Q35.1875,18.8281 34.625,19.125 Q34.0625,19.4063 33.6719,19.9375 Q33.2813,20.4688 33.0781,21.25 Q32.8906,22.0156 32.8906,22.9688 Q32.8906,23.9375 33.0625,24.7031 Q33.25,25.4531 33.6094,25.9688 Q33.9844,26.4844 34.5625,26.7656 Q35.1406,27.0313 35.9375,27.0313 Q36.6719,27.0313 37.4063,26.8594 Q38.1563,26.6875 39.0313,26.3906 L39.0313,28.5469 Q38.625,28.7031 38.2344,28.8281 Q37.8438,28.9375 37.4375,29.0156 Q37.0313,29.0938 36.6094,29.125 Q36.1875,29.1719 35.6875,29.1719 Q34.2813,29.1719 33.25,28.7188 Q32.2344,28.2656 31.5625,27.4531 Q30.8906,26.6406 30.5625,25.5 Q30.2344,24.3438 30.2344,22.9531 Q30.2344,21.5781 30.6094,20.4219 Q30.9844,19.2656 31.7031,18.4375 Q32.4219,17.6094 33.4844,17.1563 Q34.5469,16.6875 35.9375,16.6875 Q36.8438,16.6875 37.75,16.9219 Q38.6563,17.1406 39.4844,17.5469 L38.6563,19.6406 Q37.9688,19.3125 37.2813,19.0781 Q36.5938,18.8281 35.9375,18.8281 Z " fill="#000000"/><text fill="#000000" font-family="sans-serif" font-size="14" lengthAdjust="spacing" textLength="79" x="50" y="27.8467">AIController</text><line style="stroke:#181818;stroke-width:0.5;" x1="22" x2="131" y1="39" y2="39"/><line style="stroke:#181818;stroke-width:0.5;" x1="22" x2="131" y1="47" y2="47"/></g><!--class InputController--><g id="elem_InputController"><rect fill="#F1F1F1" height="48" id="InputController" rx="2.5" ry="2.5" style="stroke:#181818;stroke-width:0.5;" width="131" x="167" y="7"/><ellipse cx="182" cy="23" fill="#ADD1B2" rx="11" ry="11" style="stroke:#181818;stroke-width:1.0;"/><path d="M181.9375,18.8281 Q181.1875,18.8281 180.625,19.125 Q180.0625,19.4063 179.6719,19.9375 Q179.2813,20.4688 179.0781,21.25 Q178.8906,22.0156 178.8906,22.9688 Q178.8906,23.9375 179.0625,24.7031 Q179.25,25.4531 179.6094,25.9688 Q179.9844,26.4844 180.5625,26.7656 Q181.1406,27.0313 181.9375,27.0313 Q182.6719,27.0313 183.4063,26.8594 Q184.1563,26.6875 185.0313,26.3906 L185.0313,28.5469 Q184.625,28.7031 184.2344,28.8281 Q183.8438,28.9375 183.4375,29.0156 Q183.0313,29.0938 182.6094,29.125 Q182.1875,29.1719 181.6875,29.1719 Q180.2813,29.1719 179.25,28.7188 Q178.2344,28.2656 177.5625,27.4531 Q176.8906,26.6406 176.5625,25.5 Q176.2344,24.3438 176.2344,22.9531 Q176.2344,21.5781 176.6094,20.4219 Q176.9844,19.2656 177.7031,18.4375 Q178.4219,17.6094 179.4844,17.1563 Q180.5469,16.6875 181.9375,16.6875 Q182.8438,16.6875 183.75,16.9219 Q184.6563,17.1406 185.4844,17.5469 L184.6563,19.6406 Q183.9688,19.3125 183.2813,19.0781 Q182.5938,18.8281 181.9375,18.8281 Z " fill="#000000"/><text fill="#000000" font-family="sans-serif" font-size="14" lengthAdjust="spacing" textLength="99" x="196" y="27.8467">InputController</text><line style="stroke:#181818;stroke-width:0.5;" x1="168" x2="297" y1="39" y2="39"/><line style="stroke:#181818;stroke-width:0.5;" x1="168" x2="297" y1="47" y2="47"/></g><!--reverse link AIController to TemplateController--><g id="link_AIController_TemplateController"><path codeLine="12" d="M100.76,72.58 C108.76,85.97 117.73,100.98 126.02,114.84 " fill="none" id="AIController-backto-TemplateController" style="stroke:#181818;stroke-width:1.0;"/><polygon fill="none" points="94.52,75.79,90.27,55.03,106.53,68.61,94.52,75.79" style="stroke:#181818;stroke-width:1.0;"/></g><!--reverse link InputController to TemplateController--><g id="link_InputController_TemplateController"><path codeLine="13" d="M208.24,72.58 C200.24,85.97 191.27,100.98 182.98,114.84 " fill="none" id="InputController-backto-TemplateController" style="stroke:#181818;stroke-width:1.0;"/><polygon fill="none" points="202.47,68.61,218.73,55.03,214.48,75.79,202.47,68.61" style="stroke:#181818;stroke-width:1.0;"/></g><!--reverse link TemplateController to State--><g id="link_TemplateController_State"><path codeLine="14" d="M154.5,227.5 C154.5,242.1 154.5,257.54 154.5,271.8 " fill="none" id="TemplateController-backto-State" style="stroke:#181818;stroke-width:1.0;"/><ellipse cx="154.5" cy="220.08" fill="#FFFFFF" rx="8" ry="8" style="stroke:#181818;stroke-width:1.0;"/><line style="stroke:#181818;stroke-width:1.0;" x1="154.5" x2="154.5" y1="228.08" y2="212.08"/><line style="stroke:#181818;stroke-width:1.0;" x1="146.5" x2="162.5" y1="220.08" y2="220.08"/></g><!--SRC=[ZP0n3u8m58Jt_egE6dHnD0JJ2C4Q0WQ8UuKt44jBseUByjzjmC743hxfBlbUSdUD5DRI6lf12eIZLcYqb63ear1t0Gr3_G1ZkXQYYAQ0354qzxWpq62drMfDz_Jgj3QxW- -5snAa5kt5WBNGplnDQ-bdpsC__90J0JNsj4ANy9EBvxncsMRHSPOigZeLHStpT75baXKidkr46F_g5hwsMqzdmjKmuX-SPwx0aNF0Dm00]--></g></svg>