<?xml version="1.0" encoding="us-ascii" standalone="no"?><svg xmlns="http://www.w3.org/2000/svg" xmlns:xlink="http://www.w3.org/1999/xlink" contentStyleType="text/css" height="359px" preserveAspectRatio="none" style="width:309px;height:359px;background:#FFFFFF;" version="1.1" viewBox="0 0 309 359" width="309px" zoomAndPan="magnify"><defs/><g><!--class Boss1BaseController--><g id="elem_Boss1BaseController"><rect codeLine="1" fill="#F1F1F1" height="80.5938" id="Boss1BaseController" rx="2.5" ry="2.5" style="stroke:#181818;stroke-width:0.5;" width="295" x="7" y="115"/><ellipse cx="84.25" cy="131" fill="#A9DCDF" rx="11" ry="11" style="stroke:#181818;stroke-width:1.0;"/><path d="M87.2031,136 L86.375,133.1094 L82.1875,133.1094 L81.3438,136 L78.75,136 L82.6875,123.8125 L85.8438,123.8125 L89.7969,136 L87.2031,136 Z M85.7656,130.9531 L85,128.2969 Q84.9375,128.1406 84.8438,127.8125 Q84.75,127.4688 84.625,127.0625 Q84.5156,126.6406 84.4063,126.2344 Q84.3125,125.8125 84.2813,125.5313 Q84.25,125.7031 84.1875,125.9531 Q84.1406,126.2031 84.0625,126.4844 Q84,126.7656 83.9219,127.0469 Q83.8438,127.3281 83.7813,127.5781 Q83.7188,127.8281 83.6563,128.0156 Q83.6094,128.2031 83.5781,128.2969 L82.8125,130.9531 L85.7656,130.9531 Z " fill="#000000"/><text fill="#000000" font-family="sans-serif" font-size="14" font-style="italic" lengthAdjust="spacing" textLength="132" x="104.75" y="135.8467">Boss1BaseController</text><line style="stroke:#181818;stroke-width:0.5;" x1="8" x2="301" y1="147" y2="147"/><line style="stroke:#181818;stroke-width:0.5;" x1="8" x2="301" y1="155" y2="155"/><ellipse cx="18" cy="168.6484" fill="#84BE84" rx="3" ry="3" style="stroke:#038048;stroke-width:1.0;"/><text fill="#000000" font-family="sans-serif" font-size="14" lengthAdjust="spacing" textLength="109" x="27" y="171.9951">IsDestroy() : bool</text><ellipse cx="18" cy="184.9453" fill="#84BE84" rx="3" ry="3" style="stroke:#038048;stroke-width:1.0;"/><text fill="#000000" font-family="sans-serif" font-size="14" lengthAdjust="spacing" textLength="269" x="27" y="188.292">&#171;override&#187; GetAttackDirection() : Vector2?</text></g><!--class State--><g id="elem_State"><rect codeLine="5" fill="#F1F1F1" height="96.8906" id="State" rx="2.5" ry="2.5" style="stroke:#181818;stroke-width:0.5;" width="85" x="112" y="256"/><ellipse cx="136.45" cy="272" fill="#EB937F" rx="11" ry="11" style="stroke:#181818;stroke-width:1.0;"/><path d="M139.4656,278 L132.4813,278 L132.4813,265.8594 L139.4656,265.8594 L139.4656,267.9688 L135.0438,267.9688 L135.0438,270.6406 L139.1531,270.6406 L139.1531,272.75 L135.0438,272.75 L135.0438,275.875 L139.4656,275.875 L139.4656,278 Z " fill="#000000"/><text fill="#000000" font-family="sans-serif" font-size="14" lengthAdjust="spacing" textLength="32" x="152.55" y="276.8467">State</text><line style="stroke:#181818;stroke-width:0.5;" x1="113" x2="196" y1="288" y2="288"/><text fill="#000000" font-family="sans-serif" font-size="14" lengthAdjust="spacing" textLength="47" x="118" y="304.9951">INITAL,</text><text fill="#000000" font-family="sans-serif" font-size="14" lengthAdjust="spacing" textLength="33" x="118" y="321.292">IDLE,</text><text fill="#000000" font-family="sans-serif" font-size="14" lengthAdjust="spacing" textLength="73" x="118" y="337.5889">SHOOTING,</text><line style="stroke:#181818;stroke-width:0.5;" x1="113" x2="196" y1="344.8906" y2="344.8906"/></g><!--class AIController--><g id="elem_AIController"><rect fill="#F1F1F1" height="48" id="AIController" rx="2.5" ry="2.5" style="stroke:#181818;stroke-width:0.5;" width="111" x="21" y="7"/><ellipse cx="36" cy="23" fill="#ADD1B2" rx="11" ry="11" style="stroke:#181818;stroke-width:1.0;"/><path d="M35.9375,18.8281 Q35.1875,18.8281 34.625,19.125 Q34.0625,19.4063 33.6719,19.9375 Q33.2813,20.4688 33.0781,21.25 Q32.8906,22.0156 32.8906,22.9688 Q32.8906,23.9375 33.0625,24.7031 Q33.25,25.4531 33.6094,25.9688 Q33.9844,26.4844 34.5625,26.7656 Q35.1406,27.0313 35.9375,27.0313 Q36.6719,27.0313 37.4063,26.8594 Q38.1563,26.6875 39.0313,26.3906 L39.0313,28.5469 Q38.625,28.7031 38.2344,28.8281 Q37.8438,28.9375 37.4375,29.0156 Q37.0313,29.0938 36.6094,29.125 Q36.1875,29.1719 35.6875,29.1719 Q34.2813,29.1719 33.25,28.7188 Q32.2344,28.2656 31.5625,27.4531 Q30.8906,26.6406 30.5625,25.5 Q30.2344,24.3438 30.2344,22.9531 Q30.2344,21.5781 30.6094,20.4219 Q30.9844,19.2656 31.7031,18.4375 Q32.4219,17.6094 33.4844,17.1563 Q34.5469,16.6875 35.9375,16.6875 Q36.8438,16.6875 37.75,16.9219 Q38.6563,17.1406 39.4844,17.5469 L38.6563,19.6406 Q37.9688,19.3125 37.2813,19.0781 Q36.5938,18.8281 35.9375,18.8281 Z " fill="#000000"/><text fill="#000000" font-family="sans-serif" font-size="14" lengthAdjust="spacing" textLength="79" x="50" y="27.8467">AIController</text><line style="stroke:#181818;stroke-width:0.5;" x1="22" x2="131" y1="39" y2="39"/><line style="stroke:#181818;stroke-width:0.5;" x1="22" x2="131" y1="47" y2="47"/></g><!--class InputController--><g id="elem_InputController"><rect fill="#F1F1F1" height="48" id="InputController" rx="2.5" ry="2.5" style="stroke:#181818;stroke-width:0.5;" width="131" x="167" y="7"/><ellipse cx="182" cy="23" fill="#ADD1B2" rx="11" ry="11" style="stroke:#181818;stroke-width:1.0;"/><path d="M181.9375,18.8281 Q181.1875,18.8281 180.625,19.125 Q180.0625,19.4063 179.6719,19.9375 Q179.2813,20.4688 179.0781,21.25 Q178.8906,22.0156 178.8906,22.9688 Q178.8906,23.9375 179.0625,24.7031 Q179.25,25.4531 179.6094,25.9688 Q179.9844,26.4844 180.5625,26.7656 Q181.1406,27.0313 181.9375,27.0313 Q182.6719,27.0313 183.4063,26.8594 Q184.1563,26.6875 185.0313,26.3906 L185.0313,28.5469 Q184.625,28.7031 184.2344,28.8281 Q183.8438,28.9375 183.4375,29.0156 Q183.0313,29.0938 182.6094,29.125 Q182.1875,29.1719 181.6875,29.1719 Q180.2813,29.1719 179.25,28.7188 Q178.2344,28.2656 177.5625,27.4531 Q176.8906,26.6406 176.5625,25.5 Q176.2344,24.3438 176.2344,22.9531 Q176.2344,21.5781 176.6094,20.4219 Q176.9844,19.2656 177.7031,18.4375 Q178.4219,17.6094 179.4844,17.1563 Q180.5469,16.6875 181.9375,16.6875 Q182.8438,16.6875 183.75,16.9219 Q184.6563,17.1406 185.4844,17.5469 L184.6563,19.6406 Q183.9688,19.3125 183.2813,19.0781 Q182.5938,18.8281 181.9375,18.8281 Z " fill="#000000"/><text fill="#000000" font-family="sans-serif" font-size="14" lengthAdjust="spacing" textLength="99" x="196" y="27.8467">InputController</text><line style="stroke:#181818;stroke-width:0.5;" x1="168" x2="297" y1="39" y2="39"/><line style="stroke:#181818;stroke-width:0.5;" x1="168" x2="297" y1="47" y2="47"/></g><!--reverse link AIController to Boss1BaseController--><g id="link_AIController_Boss1BaseController"><path codeLine="10" d="M102.18,72.33 C110.85,85.94 120.51,101.12 129.15,114.69 " fill="none" id="AIController-backto-Boss1BaseController" style="stroke:#181818;stroke-width:1.0;"/><polygon fill="none" points="96.01,75.67,91.17,55.04,107.82,68.15,96.01,75.67" style="stroke:#181818;stroke-width:1.0;"/></g><!--reverse link InputController to Boss1BaseController--><g id="link_InputController_Boss1BaseController"><path codeLine="11" d="M206.82,72.33 C198.15,85.94 188.49,101.12 179.85,114.69 " fill="none" id="InputController-backto-Boss1BaseController" style="stroke:#181818;stroke-width:1.0;"/><polygon fill="none" points="201.18,68.15,217.83,55.04,212.99,75.67,201.18,68.15" style="stroke:#181818;stroke-width:1.0;"/></g><!--reverse link Boss1BaseController to State--><g id="link_Boss1BaseController_State"><path codeLine="12" d="M154.5,211.56 C154.5,226.12 154.5,241.71 154.5,255.84 " fill="none" id="Boss1BaseController-backto-State" style="stroke:#181818;stroke-width:1.0;"/><ellipse cx="154.5" cy="204.28" fill="#FFFFFF" rx="8" ry="8" style="stroke:#181818;stroke-width:1.0;"/><line style="stroke:#181818;stroke-width:1.0;" x1="154.5" x2="154.5" y1="212.28" y2="196.28"/><line style="stroke:#181818;stroke-width:1.0;" x1="146.5" x2="162.5" y1="204.28" y2="204.28"/></g><!--SRC=[ZO-n3e9038PtdgAZ1XXqD0G3Ol0I0WF4_JWx4F5gxeg9KT_T2p0uCDZfJ_gr-NxPMZPICQXUMWifMRj9fSK3QJRKzsZWvO4R7uJDqC7qNArX1orHFo-YY1veJ7V1E8OSEM6Mwffr1XLtf4Vyx3APxTxxUAY76zGi6UVNeXHDKWHJpehZbEfJLJMYp0DtaeWVd-WTXakYdj3tWVy1brhwZXsblW00]--></g></svg>