<?xml version="1.0" encoding="us-ascii" standalone="no"?><svg xmlns="http://www.w3.org/2000/svg" xmlns:xlink="http://www.w3.org/1999/xlink" contentStyleType="text/css" height="235px" preserveAspectRatio="none" style="width:328px;height:235px;background:#FFFFFF;" version="1.1" viewBox="0 0 328 235" width="328px" zoomAndPan="magnify"><defs/><g><!--class HackCompletion--><g id="elem_HackCompletion"><rect codeLine="1" fill="#F1F1F1" height="113.1875" id="HackCompletion" rx="2.5" ry="2.5" style="stroke:#181818;stroke-width:0.5;" width="314" x="7" y="115"/><ellipse cx="107.75" cy="131" fill="#A9DCDF" rx="11" ry="11" style="stroke:#181818;stroke-width:1.0;"/><path d="M110.7031,136 L109.875,133.1094 L105.6875,133.1094 L104.8438,136 L102.25,136 L106.1875,123.8125 L109.3438,123.8125 L113.2969,136 L110.7031,136 Z M109.2656,130.9531 L108.5,128.2969 Q108.4375,128.1406 108.3438,127.8125 Q108.25,127.4688 108.125,127.0625 Q108.0156,126.6406 107.9063,126.2344 Q107.8125,125.8125 107.7813,125.5313 Q107.75,125.7031 107.6875,125.9531 Q107.6406,126.2031 107.5625,126.4844 Q107.5,126.7656 107.4219,127.0469 Q107.3438,127.3281 107.2813,127.5781 Q107.2188,127.8281 107.1563,128.0156 Q107.1094,128.2031 107.0781,128.2969 L106.3125,130.9531 L109.2656,130.9531 Z " fill="#000000"/><text fill="#000000" font-family="sans-serif" font-size="14" font-style="italic" lengthAdjust="spacing" textLength="104" x="128.25" y="135.8467">HackCompletion</text><line style="stroke:#181818;stroke-width:0.5;" x1="8" x2="320" y1="147" y2="147"/><line style="stroke:#181818;stroke-width:0.5;" x1="8" x2="320" y1="155" y2="155"/><ellipse cx="18" cy="168.6484" fill="#84BE84" rx="3" ry="3" style="stroke:#038048;stroke-width:1.0;"/><text fill="#000000" font-family="sans-serif" font-size="14" font-style="italic" lengthAdjust="spacing" textLength="142" x="27" y="171.9951">OnHackSuccess() : void</text><ellipse cx="18" cy="184.9453" fill="#84BE84" rx="3" ry="3" style="stroke:#038048;stroke-width:1.0;"/><text fill="#000000" font-family="sans-serif" font-size="14" font-style="italic" lengthAdjust="spacing" textLength="117" x="27" y="188.292">OnHackFail() : void</text><ellipse cx="18" cy="201.2422" fill="#84BE84" rx="3" ry="3" style="stroke:#038048;stroke-width:1.0;"/><text fill="#000000" font-family="sans-serif" font-size="14" font-style="italic" lengthAdjust="spacing" textLength="288" x="27" y="204.5889">OnComboHackSuccess(comboCount:int) : void</text><ellipse cx="18" cy="217.5391" fill="#84BE84" rx="3" ry="3" style="stroke:#038048;stroke-width:1.0;"/><text fill="#000000" font-family="sans-serif" font-size="14" font-style="italic" lengthAdjust="spacing" textLength="263" x="27" y="220.8857">OnComboHackFail(comboCount:int) : void</text></g><!--class MonoBehaviour--><g id="elem_MonoBehaviour"><rect fill="#F1F1F1" height="48" id="MonoBehaviour" rx="2.5" ry="2.5" style="stroke:#181818;stroke-width:0.5;" width="133" x="97.5" y="7"/><ellipse cx="112.5" cy="23" fill="#ADD1B2" rx="11" ry="11" style="stroke:#181818;stroke-width:1.0;"/><path d="M112.4375,18.8281 Q111.6875,18.8281 111.125,19.125 Q110.5625,19.4063 110.1719,19.9375 Q109.7813,20.4688 109.5781,21.25 Q109.3906,22.0156 109.3906,22.9688 Q109.3906,23.9375 109.5625,24.7031 Q109.75,25.4531 110.1094,25.9688 Q110.4844,26.4844 111.0625,26.7656 Q111.6406,27.0313 112.4375,27.0313 Q113.1719,27.0313 113.9063,26.8594 Q114.6563,26.6875 115.5313,26.3906 L115.5313,28.5469 Q115.125,28.7031 114.7344,28.8281 Q114.3438,28.9375 113.9375,29.0156 Q113.5313,29.0938 113.1094,29.125 Q112.6875,29.1719 112.1875,29.1719 Q110.7813,29.1719 109.75,28.7188 Q108.7344,28.2656 108.0625,27.4531 Q107.3906,26.6406 107.0625,25.5 Q106.7344,24.3438 106.7344,22.9531 Q106.7344,21.5781 107.1094,20.4219 Q107.4844,19.2656 108.2031,18.4375 Q108.9219,17.6094 109.9844,17.1563 Q111.0469,16.6875 112.4375,16.6875 Q113.3438,16.6875 114.25,16.9219 Q115.1563,17.1406 115.9844,17.5469 L115.1563,19.6406 Q114.4688,19.3125 113.7813,19.0781 Q113.0938,18.8281 112.4375,18.8281 Z " fill="#000000"/><text fill="#000000" font-family="sans-serif" font-size="14" lengthAdjust="spacing" textLength="101" x="126.5" y="27.8467">MonoBehaviour</text><line style="stroke:#181818;stroke-width:0.5;" x1="98.5" x2="229.5" y1="39" y2="39"/><line style="stroke:#181818;stroke-width:0.5;" x1="98.5" x2="229.5" y1="47" y2="47"/></g><!--reverse link MonoBehaviour to HackCompletion--><g id="link_MonoBehaviour_HackCompletion"><path codeLine="7" d="M164,75.3 C164,87.85 164,101.74 164,114.94 " fill="none" id="MonoBehaviour-backto-HackCompletion" style="stroke:#181818;stroke-width:1.0;"/><polygon fill="none" points="157,75.18,164,55.18,171,75.18,157,75.18" style="stroke:#181818;stroke-width:1.0;"/></g><!--SRC=[IqmgBYbAJ2vHICv9B2vMy4XCpdREpot8IIt9pCzJgEPI009jXUf4gB9Q1Vyya9hWqkJarE9Y3Kq5AuMo_CmKNEhS4ZDpy2e2MfQKZsnYCaZ0ERyqhyGgCw-4AArWIt3eg-NopS_BTqhDI2pBp2yjKh2fqTL5yoK0]--></g></svg>