<?xml version="1.0" encoding="us-ascii" standalone="no"?><svg xmlns="http://www.w3.org/2000/svg" xmlns:xlink="http://www.w3.org/1999/xlink" contentStyleType="text/css" height="170px" preserveAspectRatio="none" style="width:147px;height:170px;background:#FFFFFF;" version="1.1" viewBox="0 0 147 170" width="147px" zoomAndPan="magnify"><defs/><g><!--class Hack--><g id="elem_Hack"><rect codeLine="1" fill="#F1F1F1" height="48" id="Hack" rx="2.5" ry="2.5" style="stroke:#181818;stroke-width:0.5;" width="62" x="42.5" y="115"/><ellipse cx="57.5" cy="131" fill="#ADD1B2" rx="11" ry="11" style="stroke:#181818;stroke-width:1.0;"/><path d="M57.4375,126.8281 Q56.6875,126.8281 56.125,127.125 Q55.5625,127.4063 55.1719,127.9375 Q54.7813,128.4688 54.5781,129.25 Q54.3906,130.0156 54.3906,130.9688 Q54.3906,131.9375 54.5625,132.7031 Q54.75,133.4531 55.1094,133.9688 Q55.4844,134.4844 56.0625,134.7656 Q56.6406,135.0313 57.4375,135.0313 Q58.1719,135.0313 58.9063,134.8594 Q59.6563,134.6875 60.5313,134.3906 L60.5313,136.5469 Q60.125,136.7031 59.7344,136.8281 Q59.3438,136.9375 58.9375,137.0156 Q58.5313,137.0938 58.1094,137.125 Q57.6875,137.1719 57.1875,137.1719 Q55.7813,137.1719 54.75,136.7188 Q53.7344,136.2656 53.0625,135.4531 Q52.3906,134.6406 52.0625,133.5 Q51.7344,132.3438 51.7344,130.9531 Q51.7344,129.5781 52.1094,128.4219 Q52.4844,127.2656 53.2031,126.4375 Q53.9219,125.6094 54.9844,125.1563 Q56.0469,124.6875 57.4375,124.6875 Q58.3438,124.6875 59.25,124.9219 Q60.1563,125.1406 60.9844,125.5469 L60.1563,127.6406 Q59.4688,127.3125 58.7813,127.0781 Q58.0938,126.8281 57.4375,126.8281 Z " fill="#000000"/><text fill="#000000" font-family="sans-serif" font-size="14" lengthAdjust="spacing" textLength="30" x="71.5" y="135.8467">Hack</text><line style="stroke:#181818;stroke-width:0.5;" x1="43.5" x2="103.5" y1="147" y2="147"/><line style="stroke:#181818;stroke-width:0.5;" x1="43.5" x2="103.5" y1="155" y2="155"/></g><!--class MonoBehaviour--><g id="elem_MonoBehaviour"><rect fill="#F1F1F1" height="48" id="MonoBehaviour" rx="2.5" ry="2.5" style="stroke:#181818;stroke-width:0.5;" width="133" x="7" y="7"/><ellipse cx="22" cy="23" fill="#ADD1B2" rx="11" ry="11" style="stroke:#181818;stroke-width:1.0;"/><path d="M21.9375,18.8281 Q21.1875,18.8281 20.625,19.125 Q20.0625,19.4063 19.6719,19.9375 Q19.2813,20.4688 19.0781,21.25 Q18.8906,22.0156 18.8906,22.9688 Q18.8906,23.9375 19.0625,24.7031 Q19.25,25.4531 19.6094,25.9688 Q19.9844,26.4844 20.5625,26.7656 Q21.1406,27.0313 21.9375,27.0313 Q22.6719,27.0313 23.4063,26.8594 Q24.1563,26.6875 25.0313,26.3906 L25.0313,28.5469 Q24.625,28.7031 24.2344,28.8281 Q23.8438,28.9375 23.4375,29.0156 Q23.0313,29.0938 22.6094,29.125 Q22.1875,29.1719 21.6875,29.1719 Q20.2813,29.1719 19.25,28.7188 Q18.2344,28.2656 17.5625,27.4531 Q16.8906,26.6406 16.5625,25.5 Q16.2344,24.3438 16.2344,22.9531 Q16.2344,21.5781 16.6094,20.4219 Q16.9844,19.2656 17.7031,18.4375 Q18.4219,17.6094 19.4844,17.1563 Q20.5469,16.6875 21.9375,16.6875 Q22.8438,16.6875 23.75,16.9219 Q24.6563,17.1406 25.4844,17.5469 L24.6563,19.6406 Q23.9688,19.3125 23.2813,19.0781 Q22.5938,18.8281 21.9375,18.8281 Z " fill="#000000"/><text fill="#000000" font-family="sans-serif" font-size="14" lengthAdjust="spacing" textLength="101" x="36" y="27.8467">MonoBehaviour</text><line style="stroke:#181818;stroke-width:0.5;" x1="8" x2="139" y1="39" y2="39"/><line style="stroke:#181818;stroke-width:0.5;" x1="8" x2="139" y1="47" y2="47"/></g><!--reverse link MonoBehaviour to Hack--><g id="link_MonoBehaviour_Hack"><path codeLine="3" d="M73.5,75.02 C73.5,88.58 73.5,103.04 73.5,114.68 " fill="none" id="MonoBehaviour-backto-Hack" style="stroke:#181818;stroke-width:1.0;"/><polygon fill="none" points="66.5,75,73.5,55,80.5,75,66.5,75" style="stroke:#181818;stroke-width:1.0;"/></g><!--SRC=[Iyv9B2vMy4XCpbQevghbyitFotTApKWioymlBLAmgT7L1Si10000]--></g></svg>