<?xml version="1.0" encoding="us-ascii" standalone="no"?><svg xmlns="http://www.w3.org/2000/svg" xmlns:xlink="http://www.w3.org/1999/xlink" contentStyleType="text/css" height="186px" preserveAspectRatio="none" style="width:178px;height:186px;background:#FFFFFF;" version="1.1" viewBox="0 0 178 186" width="178px" zoomAndPan="magnify"><defs/><g><!--class Jump--><g id="elem_Jump"><rect codeLine="1" fill="#F1F1F1" height="64.2969" id="Jump" rx="2.5" ry="2.5" style="stroke:#181818;stroke-width:0.5;" width="164" x="7" y="115"/><ellipse cx="68.25" cy="131" fill="#ADD1B2" rx="11" ry="11" style="stroke:#181818;stroke-width:1.0;"/><path d="M68.1875,126.8281 Q67.4375,126.8281 66.875,127.125 Q66.3125,127.4063 65.9219,127.9375 Q65.5313,128.4688 65.3281,129.25 Q65.1406,130.0156 65.1406,130.9688 Q65.1406,131.9375 65.3125,132.7031 Q65.5,133.4531 65.8594,133.9688 Q66.2344,134.4844 66.8125,134.7656 Q67.3906,135.0313 68.1875,135.0313 Q68.9219,135.0313 69.6563,134.8594 Q70.4063,134.6875 71.2813,134.3906 L71.2813,136.5469 Q70.875,136.7031 70.4844,136.8281 Q70.0938,136.9375 69.6875,137.0156 Q69.2813,137.0938 68.8594,137.125 Q68.4375,137.1719 67.9375,137.1719 Q66.5313,137.1719 65.5,136.7188 Q64.4844,136.2656 63.8125,135.4531 Q63.1406,134.6406 62.8125,133.5 Q62.4844,132.3438 62.4844,130.9531 Q62.4844,129.5781 62.8594,128.4219 Q63.2344,127.2656 63.9531,126.4375 Q64.6719,125.6094 65.7344,125.1563 Q66.7969,124.6875 68.1875,124.6875 Q69.0938,124.6875 70,124.9219 Q70.9063,125.1406 71.7344,125.5469 L70.9063,127.6406 Q70.2188,127.3125 69.5313,127.0781 Q68.8438,126.8281 68.1875,126.8281 Z " fill="#000000"/><text fill="#000000" font-family="sans-serif" font-size="14" lengthAdjust="spacing" textLength="33" x="88.75" y="135.8467">Jump</text><line style="stroke:#181818;stroke-width:0.5;" x1="8" x2="170" y1="147" y2="147"/><line style="stroke:#181818;stroke-width:0.5;" x1="8" x2="170" y1="155" y2="155"/><ellipse cx="18" cy="168.6484" fill="#84BE84" rx="3" ry="3" style="stroke:#038048;stroke-width:1.0;"/><text fill="#000000" font-family="sans-serif" font-size="14" lengthAdjust="spacing" textLength="138" x="27" y="171.9951">GetMaxAirJump() : int</text></g><!--class MonoBehaviour--><g id="elem_MonoBehaviour"><rect fill="#F1F1F1" height="48" id="MonoBehaviour" rx="2.5" ry="2.5" style="stroke:#181818;stroke-width:0.5;" width="133" x="22.5" y="7"/><ellipse cx="37.5" cy="23" fill="#ADD1B2" rx="11" ry="11" style="stroke:#181818;stroke-width:1.0;"/><path d="M37.4375,18.8281 Q36.6875,18.8281 36.125,19.125 Q35.5625,19.4063 35.1719,19.9375 Q34.7813,20.4688 34.5781,21.25 Q34.3906,22.0156 34.3906,22.9688 Q34.3906,23.9375 34.5625,24.7031 Q34.75,25.4531 35.1094,25.9688 Q35.4844,26.4844 36.0625,26.7656 Q36.6406,27.0313 37.4375,27.0313 Q38.1719,27.0313 38.9063,26.8594 Q39.6563,26.6875 40.5313,26.3906 L40.5313,28.5469 Q40.125,28.7031 39.7344,28.8281 Q39.3438,28.9375 38.9375,29.0156 Q38.5313,29.0938 38.1094,29.125 Q37.6875,29.1719 37.1875,29.1719 Q35.7813,29.1719 34.75,28.7188 Q33.7344,28.2656 33.0625,27.4531 Q32.3906,26.6406 32.0625,25.5 Q31.7344,24.3438 31.7344,22.9531 Q31.7344,21.5781 32.1094,20.4219 Q32.4844,19.2656 33.2031,18.4375 Q33.9219,17.6094 34.9844,17.1563 Q36.0469,16.6875 37.4375,16.6875 Q38.3438,16.6875 39.25,16.9219 Q40.1563,17.1406 40.9844,17.5469 L40.1563,19.6406 Q39.4688,19.3125 38.7813,19.0781 Q38.0938,18.8281 37.4375,18.8281 Z " fill="#000000"/><text fill="#000000" font-family="sans-serif" font-size="14" lengthAdjust="spacing" textLength="101" x="51.5" y="27.8467">MonoBehaviour</text><line style="stroke:#181818;stroke-width:0.5;" x1="23.5" x2="154.5" y1="39" y2="39"/><line style="stroke:#181818;stroke-width:0.5;" x1="23.5" x2="154.5" y1="47" y2="47"/></g><!--reverse link MonoBehaviour to Jump--><g id="link_MonoBehaviour_Jump"><path codeLine="4" d="M89,75.09 C89,88.28 89,102.52 89,114.75 " fill="none" id="MonoBehaviour-backto-Jump" style="stroke:#181818;stroke-width:1.0;"/><polygon fill="none" points="82,75.07,89,55.07,96,75.07,82,75.07" style="stroke:#181818;stroke-width:1.0;"/></g><!--SRC=[Iyv9B2vMy2hDBL2evb800cq5zzGItyGAnymYaAY6feALGcPU2LSjbsz-NhvJQaPYMMP-QP62JOskBbWV0000]--></g></svg>