<?xml version="1.0" encoding="us-ascii" standalone="no"?><svg xmlns="http://www.w3.org/2000/svg" xmlns:xlink="http://www.w3.org/1999/xlink" contentStyleType="text/css" height="202px" preserveAspectRatio="none" style="width:285px;height:202px;background:#FFFFFF;" version="1.1" viewBox="0 0 285 202" width="285px" zoomAndPan="magnify"><defs/><g><!--class Jump--><g id="elem_Jump"><rect codeLine="1" fill="#F1F1F1" height="80.5938" id="Jump" rx="2.5" ry="2.5" style="stroke:#181818;stroke-width:0.5;" width="271" x="7" y="115"/><ellipse cx="121.75" cy="131" fill="#ADD1B2" rx="11" ry="11" style="stroke:#181818;stroke-width:1.0;"/><path d="M121.6875,126.8281 Q120.9375,126.8281 120.375,127.125 Q119.8125,127.4063 119.4219,127.9375 Q119.0313,128.4688 118.8281,129.25 Q118.6406,130.0156 118.6406,130.9688 Q118.6406,131.9375 118.8125,132.7031 Q119,133.4531 119.3594,133.9688 Q119.7344,134.4844 120.3125,134.7656 Q120.8906,135.0313 121.6875,135.0313 Q122.4219,135.0313 123.1563,134.8594 Q123.9063,134.6875 124.7813,134.3906 L124.7813,136.5469 Q124.375,136.7031 123.9844,136.8281 Q123.5938,136.9375 123.1875,137.0156 Q122.7813,137.0938 122.3594,137.125 Q121.9375,137.1719 121.4375,137.1719 Q120.0313,137.1719 119,136.7188 Q117.9844,136.2656 117.3125,135.4531 Q116.6406,134.6406 116.3125,133.5 Q115.9844,132.3438 115.9844,130.9531 Q115.9844,129.5781 116.3594,128.4219 Q116.7344,127.2656 117.4531,126.4375 Q118.1719,125.6094 119.2344,125.1563 Q120.2969,124.6875 121.6875,124.6875 Q122.5938,124.6875 123.5,124.9219 Q124.4063,125.1406 125.2344,125.5469 L124.4063,127.6406 Q123.7188,127.3125 123.0313,127.0781 Q122.3438,126.8281 121.6875,126.8281 Z " fill="#000000"/><text fill="#000000" font-family="sans-serif" font-size="14" lengthAdjust="spacing" textLength="33" x="142.25" y="135.8467">Jump</text><line style="stroke:#181818;stroke-width:0.5;" x1="8" x2="277" y1="147" y2="147"/><line style="stroke:#181818;stroke-width:0.5;" x1="8" x2="277" y1="155" y2="155"/><ellipse cx="18" cy="168.6484" fill="#84BE84" rx="3" ry="3" style="stroke:#038048;stroke-width:1.0;"/><text fill="#000000" font-family="sans-serif" font-size="14" lengthAdjust="spacing" textLength="138" x="27" y="171.9951">GetMaxAirJump() : int</text><ellipse cx="18" cy="184.9453" fill="#84BE84" rx="3" ry="3" style="stroke:#038048;stroke-width:1.0;"/><text fill="#000000" font-family="sans-serif" font-size="14" lengthAdjust="spacing" textLength="245" x="27" y="188.292">SetMaxAirJump(maxAirJump:int) : void</text></g><!--class MonoBehaviour--><g id="elem_MonoBehaviour"><rect fill="#F1F1F1" height="48" id="MonoBehaviour" rx="2.5" ry="2.5" style="stroke:#181818;stroke-width:0.5;" width="133" x="76" y="7"/><ellipse cx="91" cy="23" fill="#ADD1B2" rx="11" ry="11" style="stroke:#181818;stroke-width:1.0;"/><path d="M90.9375,18.8281 Q90.1875,18.8281 89.625,19.125 Q89.0625,19.4063 88.6719,19.9375 Q88.2813,20.4688 88.0781,21.25 Q87.8906,22.0156 87.8906,22.9688 Q87.8906,23.9375 88.0625,24.7031 Q88.25,25.4531 88.6094,25.9688 Q88.9844,26.4844 89.5625,26.7656 Q90.1406,27.0313 90.9375,27.0313 Q91.6719,27.0313 92.4063,26.8594 Q93.1563,26.6875 94.0313,26.3906 L94.0313,28.5469 Q93.625,28.7031 93.2344,28.8281 Q92.8438,28.9375 92.4375,29.0156 Q92.0313,29.0938 91.6094,29.125 Q91.1875,29.1719 90.6875,29.1719 Q89.2813,29.1719 88.25,28.7188 Q87.2344,28.2656 86.5625,27.4531 Q85.8906,26.6406 85.5625,25.5 Q85.2344,24.3438 85.2344,22.9531 Q85.2344,21.5781 85.6094,20.4219 Q85.9844,19.2656 86.7031,18.4375 Q87.4219,17.6094 88.4844,17.1563 Q89.5469,16.6875 90.9375,16.6875 Q91.8438,16.6875 92.75,16.9219 Q93.6563,17.1406 94.4844,17.5469 L93.6563,19.6406 Q92.9688,19.3125 92.2813,19.0781 Q91.5938,18.8281 90.9375,18.8281 Z " fill="#000000"/><text fill="#000000" font-family="sans-serif" font-size="14" lengthAdjust="spacing" textLength="101" x="105" y="27.8467">MonoBehaviour</text><line style="stroke:#181818;stroke-width:0.5;" x1="77" x2="208" y1="39" y2="39"/><line style="stroke:#181818;stroke-width:0.5;" x1="77" x2="208" y1="47" y2="47"/></g><!--reverse link MonoBehaviour to Jump--><g id="link_MonoBehaviour_Jump"><path codeLine="5" d="M142.5,75.14 C142.5,88 142.5,102.04 142.5,114.69 " fill="none" id="MonoBehaviour-backto-Jump" style="stroke:#181818;stroke-width:1.0;"/><polygon fill="none" points="135.5,75.04,142.5,55.04,149.5,75.04,135.5,75.04" style="stroke:#181818;stroke-width:1.0;"/></g><!--SRC=[Iyv9B2vMy2hDBL2evb800cq5zzGItyGAnymYaAY6feALGcPU2LGk64Kk5ywq0Ye1gIpBpqpXgkNopS_BTqhDI2pBp2yjKh2fqTK5Mm40]--></g></svg>