<?xml version="1.0" encoding="us-ascii" standalone="no"?><svg xmlns="http://www.w3.org/2000/svg" xmlns:xlink="http://www.w3.org/1999/xlink" contentStyleType="text/css" height="202px" preserveAspectRatio="none" style="width:357px;height:202px;background:#FFFFFF;" version="1.1" viewBox="0 0 357 202" width="357px" zoomAndPan="magnify"><defs/><g><!--class Move--><g id="elem_Move"><rect codeLine="1" fill="#F1F1F1" height="80.5938" id="Move" rx="2.5" ry="2.5" style="stroke:#181818;stroke-width:0.5;" width="343" x="7" y="115"/><ellipse cx="156.75" cy="131" fill="#ADD1B2" rx="11" ry="11" style="stroke:#181818;stroke-width:1.0;"/><path d="M156.6875,126.8281 Q155.9375,126.8281 155.375,127.125 Q154.8125,127.4063 154.4219,127.9375 Q154.0313,128.4688 153.8281,129.25 Q153.6406,130.0156 153.6406,130.9688 Q153.6406,131.9375 153.8125,132.7031 Q154,133.4531 154.3594,133.9688 Q154.7344,134.4844 155.3125,134.7656 Q155.8906,135.0313 156.6875,135.0313 Q157.4219,135.0313 158.1563,134.8594 Q158.9063,134.6875 159.7813,134.3906 L159.7813,136.5469 Q159.375,136.7031 158.9844,136.8281 Q158.5938,136.9375 158.1875,137.0156 Q157.7813,137.0938 157.3594,137.125 Q156.9375,137.1719 156.4375,137.1719 Q155.0313,137.1719 154,136.7188 Q152.9844,136.2656 152.3125,135.4531 Q151.6406,134.6406 151.3125,133.5 Q150.9844,132.3438 150.9844,130.9531 Q150.9844,129.5781 151.3594,128.4219 Q151.7344,127.2656 152.4531,126.4375 Q153.1719,125.6094 154.2344,125.1563 Q155.2969,124.6875 156.6875,124.6875 Q157.5938,124.6875 158.5,124.9219 Q159.4063,125.1406 160.2344,125.5469 L159.4063,127.6406 Q158.7188,127.3125 158.0313,127.0781 Q157.3438,126.8281 156.6875,126.8281 Z " fill="#000000"/><text fill="#000000" font-family="sans-serif" font-size="14" lengthAdjust="spacing" textLength="35" x="177.25" y="135.8467">Move</text><line style="stroke:#181818;stroke-width:0.5;" x1="8" x2="349" y1="147" y2="147"/><ellipse cx="18" cy="160.6484" fill="none" rx="3" ry="3" style="stroke:#038048;stroke-width:1.0;"/><text fill="#000000" font-family="sans-serif" font-size="14" lengthAdjust="spacing" textLength="141" x="27" y="163.9951">_hasDash : bool = true</text><line style="stroke:#181818;stroke-width:0.5;" x1="8" x2="349" y1="171.2969" y2="171.2969"/><ellipse cx="18" cy="184.9453" fill="#84BE84" rx="3" ry="3" style="stroke:#038048;stroke-width:1.0;"/><text fill="#000000" font-family="sans-serif" font-size="14" lengthAdjust="spacing" textLength="317" x="27" y="188.292">SetFollowMovement(followMovement:bool) : void</text></g><!--class MonoBehaviour--><g id="elem_MonoBehaviour"><rect fill="#F1F1F1" height="48" id="MonoBehaviour" rx="2.5" ry="2.5" style="stroke:#181818;stroke-width:0.5;" width="133" x="112" y="7"/><ellipse cx="127" cy="23" fill="#ADD1B2" rx="11" ry="11" style="stroke:#181818;stroke-width:1.0;"/><path d="M126.9375,18.8281 Q126.1875,18.8281 125.625,19.125 Q125.0625,19.4063 124.6719,19.9375 Q124.2813,20.4688 124.0781,21.25 Q123.8906,22.0156 123.8906,22.9688 Q123.8906,23.9375 124.0625,24.7031 Q124.25,25.4531 124.6094,25.9688 Q124.9844,26.4844 125.5625,26.7656 Q126.1406,27.0313 126.9375,27.0313 Q127.6719,27.0313 128.4063,26.8594 Q129.1563,26.6875 130.0313,26.3906 L130.0313,28.5469 Q129.625,28.7031 129.2344,28.8281 Q128.8438,28.9375 128.4375,29.0156 Q128.0313,29.0938 127.6094,29.125 Q127.1875,29.1719 126.6875,29.1719 Q125.2813,29.1719 124.25,28.7188 Q123.2344,28.2656 122.5625,27.4531 Q121.8906,26.6406 121.5625,25.5 Q121.2344,24.3438 121.2344,22.9531 Q121.2344,21.5781 121.6094,20.4219 Q121.9844,19.2656 122.7031,18.4375 Q123.4219,17.6094 124.4844,17.1563 Q125.5469,16.6875 126.9375,16.6875 Q127.8438,16.6875 128.75,16.9219 Q129.6563,17.1406 130.4844,17.5469 L129.6563,19.6406 Q128.9688,19.3125 128.2813,19.0781 Q127.5938,18.8281 126.9375,18.8281 Z " fill="#000000"/><text fill="#000000" font-family="sans-serif" font-size="14" lengthAdjust="spacing" textLength="101" x="141" y="27.8467">MonoBehaviour</text><line style="stroke:#181818;stroke-width:0.5;" x1="113" x2="244" y1="39" y2="39"/><line style="stroke:#181818;stroke-width:0.5;" x1="113" x2="244" y1="47" y2="47"/></g><!--reverse link MonoBehaviour to Move--><g id="link_MonoBehaviour_Move"><path codeLine="5" d="M178.5,75.14 C178.5,88 178.5,102.04 178.5,114.69 " fill="none" id="MonoBehaviour-backto-Move" style="stroke:#181818;stroke-width:1.0;"/><polygon fill="none" points="171.5,75.04,178.5,55.04,185.5,75.04,171.5,75.04" style="stroke:#181818;stroke-width:1.0;"/></g><!--SRC=[Iyv9B2vMyCqlIrMevb800cs5-8p4OfV4uWm5AuMa_FmS1Lk5agBILAXaS6g9MtvEJduvI4jkQbw9HXeArmgaHHEejIm_CuMhbiitFo_VAJKZiImplxH8mQP6LnTi6G00]--></g></svg>