<?xml version="1.0" encoding="us-ascii" standalone="no"?><svg xmlns="http://www.w3.org/2000/svg" xmlns:xlink="http://www.w3.org/1999/xlink" contentStyleType="text/css" height="278px" preserveAspectRatio="none" style="width:147px;height:278px;background:#FFFFFF;" version="1.1" viewBox="0 0 147 278" width="147px" zoomAndPan="magnify"><defs/><g><!--class Parallax--><g id="elem_Parallax"><rect codeLine="1" fill="#F1F1F1" height="48" id="Parallax" rx="2.5" ry="2.5" style="stroke:#181818;stroke-width:0.5;" width="82" x="32.5" y="115"/><ellipse cx="47.5" cy="131" fill="#ADD1B2" rx="11" ry="11" style="stroke:#181818;stroke-width:1.0;"/><path d="M47.4375,126.8281 Q46.6875,126.8281 46.125,127.125 Q45.5625,127.4063 45.1719,127.9375 Q44.7813,128.4688 44.5781,129.25 Q44.3906,130.0156 44.3906,130.9688 Q44.3906,131.9375 44.5625,132.7031 Q44.75,133.4531 45.1094,133.9688 Q45.4844,134.4844 46.0625,134.7656 Q46.6406,135.0313 47.4375,135.0313 Q48.1719,135.0313 48.9063,134.8594 Q49.6563,134.6875 50.5313,134.3906 L50.5313,136.5469 Q50.125,136.7031 49.7344,136.8281 Q49.3438,136.9375 48.9375,137.0156 Q48.5313,137.0938 48.1094,137.125 Q47.6875,137.1719 47.1875,137.1719 Q45.7813,137.1719 44.75,136.7188 Q43.7344,136.2656 43.0625,135.4531 Q42.3906,134.6406 42.0625,133.5 Q41.7344,132.3438 41.7344,130.9531 Q41.7344,129.5781 42.1094,128.4219 Q42.4844,127.2656 43.2031,126.4375 Q43.9219,125.6094 44.9844,125.1563 Q46.0469,124.6875 47.4375,124.6875 Q48.3438,124.6875 49.25,124.9219 Q50.1563,125.1406 50.9844,125.5469 L50.1563,127.6406 Q49.4688,127.3125 48.7813,127.0781 Q48.0938,126.8281 47.4375,126.8281 Z " fill="#000000"/><text fill="#000000" font-family="sans-serif" font-size="14" lengthAdjust="spacing" textLength="50" x="61.5" y="135.8467">Parallax</text><line style="stroke:#181818;stroke-width:0.5;" x1="33.5" x2="113.5" y1="147" y2="147"/><line style="stroke:#181818;stroke-width:0.5;" x1="33.5" x2="113.5" y1="155" y2="155"/></g><!--class MonoBehaviour--><g id="elem_MonoBehaviour"><rect fill="#F1F1F1" height="48" id="MonoBehaviour" rx="2.5" ry="2.5" style="stroke:#181818;stroke-width:0.5;" width="133" x="7" y="7"/><ellipse cx="22" cy="23" fill="#ADD1B2" rx="11" ry="11" style="stroke:#181818;stroke-width:1.0;"/><path d="M21.9375,18.8281 Q21.1875,18.8281 20.625,19.125 Q20.0625,19.4063 19.6719,19.9375 Q19.2813,20.4688 19.0781,21.25 Q18.8906,22.0156 18.8906,22.9688 Q18.8906,23.9375 19.0625,24.7031 Q19.25,25.4531 19.6094,25.9688 Q19.9844,26.4844 20.5625,26.7656 Q21.1406,27.0313 21.9375,27.0313 Q22.6719,27.0313 23.4063,26.8594 Q24.1563,26.6875 25.0313,26.3906 L25.0313,28.5469 Q24.625,28.7031 24.2344,28.8281 Q23.8438,28.9375 23.4375,29.0156 Q23.0313,29.0938 22.6094,29.125 Q22.1875,29.1719 21.6875,29.1719 Q20.2813,29.1719 19.25,28.7188 Q18.2344,28.2656 17.5625,27.4531 Q16.8906,26.6406 16.5625,25.5 Q16.2344,24.3438 16.2344,22.9531 Q16.2344,21.5781 16.6094,20.4219 Q16.9844,19.2656 17.7031,18.4375 Q18.4219,17.6094 19.4844,17.1563 Q20.5469,16.6875 21.9375,16.6875 Q22.8438,16.6875 23.75,16.9219 Q24.6563,17.1406 25.4844,17.5469 L24.6563,19.6406 Q23.9688,19.3125 23.2813,19.0781 Q22.5938,18.8281 21.9375,18.8281 Z " fill="#000000"/><text fill="#000000" font-family="sans-serif" font-size="14" lengthAdjust="spacing" textLength="101" x="36" y="27.8467">MonoBehaviour</text><line style="stroke:#181818;stroke-width:0.5;" x1="8" x2="139" y1="39" y2="39"/><line style="stroke:#181818;stroke-width:0.5;" x1="8" x2="139" y1="47" y2="47"/></g><!--class Vector2--><g id="elem_Vector2"><rect fill="#F1F1F1" height="48" id="Vector2" rx="2.5" ry="2.5" style="stroke:#181818;stroke-width:0.5;" width="81" x="33" y="223"/><ellipse cx="48" cy="239" fill="#ADD1B2" rx="11" ry="11" style="stroke:#181818;stroke-width:1.0;"/><path d="M47.9375,234.8281 Q47.1875,234.8281 46.625,235.125 Q46.0625,235.4063 45.6719,235.9375 Q45.2813,236.4688 45.0781,237.25 Q44.8906,238.0156 44.8906,238.9688 Q44.8906,239.9375 45.0625,240.7031 Q45.25,241.4531 45.6094,241.9688 Q45.9844,242.4844 46.5625,242.7656 Q47.1406,243.0313 47.9375,243.0313 Q48.6719,243.0313 49.4063,242.8594 Q50.1563,242.6875 51.0313,242.3906 L51.0313,244.5469 Q50.625,244.7031 50.2344,244.8281 Q49.8438,244.9375 49.4375,245.0156 Q49.0313,245.0938 48.6094,245.125 Q48.1875,245.1719 47.6875,245.1719 Q46.2813,245.1719 45.25,244.7188 Q44.2344,244.2656 43.5625,243.4531 Q42.8906,242.6406 42.5625,241.5 Q42.2344,240.3438 42.2344,238.9531 Q42.2344,237.5781 42.6094,236.4219 Q42.9844,235.2656 43.7031,234.4375 Q44.4219,233.6094 45.4844,233.1563 Q46.5469,232.6875 47.9375,232.6875 Q48.8438,232.6875 49.75,232.9219 Q50.6563,233.1406 51.4844,233.5469 L50.6563,235.6406 Q49.9688,235.3125 49.2813,235.0781 Q48.5938,234.8281 47.9375,234.8281 Z " fill="#000000"/><text fill="#000000" font-family="sans-serif" font-size="14" lengthAdjust="spacing" textLength="49" x="62" y="243.8467">Vector2</text><line style="stroke:#181818;stroke-width:0.5;" x1="34" x2="113" y1="255" y2="255"/><line style="stroke:#181818;stroke-width:0.5;" x1="34" x2="113" y1="263" y2="263"/></g><!--reverse link MonoBehaviour to Parallax--><g id="link_MonoBehaviour_Parallax"><path codeLine="3" d="M73.5,75.02 C73.5,88.58 73.5,103.04 73.5,114.68 " fill="none" id="MonoBehaviour-backto-Parallax" style="stroke:#181818;stroke-width:1.0;"/><polygon fill="none" points="66.5,75,73.5,55,80.5,75,66.5,75" style="stroke:#181818;stroke-width:1.0;"/></g><!--link Parallax to Vector2--><g id="link_Parallax_Vector2"><path codeLine="4" d="M73.5,163 C73.5,179 73.5,200.45 73.5,217.53 " fill="none" id="Parallax-to-Vector2" style="stroke:#181818;stroke-width:1.0;"/><polygon fill="#181818" points="73.5,222.68,77.5,213.68,73.5,217.68,69.5,213.68,73.5,222.68" style="stroke:#181818;stroke-width:1.0;"/><text fill="#000000" font-family="sans-serif" font-size="13" lengthAdjust="spacing" textLength="34" x="35.3563" y="212.007">factor</text></g><!--SRC=[Iyv9B2vM24WiIip9IQnGgEQgvVBDpyjtIir8BClCBorIiAdHrONBSy4LwkhQAIYb9IQNv1SfAOIbWcWZ0000]--></g></svg>