<?xml version="1.0" encoding="us-ascii" standalone="no"?><svg xmlns="http://www.w3.org/2000/svg" xmlns:xlink="http://www.w3.org/1999/xlink" contentStyleType="text/css" height="359px" preserveAspectRatio="none" style="width:482px;height:359px;background:#FFFFFF;" version="1.1" viewBox="0 0 482 359" width="482px" zoomAndPan="magnify"><defs/><g><!--class ScreenShake--><g id="elem_ScreenShake"><rect codeLine="1" fill="#F1F1F1" height="80.5938" id="ScreenShake" rx="2.5" ry="2.5" style="stroke:#181818;stroke-width:0.5;" width="281" x="137" y="115"/><ellipse cx="233.25" cy="131" fill="#ADD1B2" rx="11" ry="11" style="stroke:#181818;stroke-width:1.0;"/><path d="M233.1875,126.8281 Q232.4375,126.8281 231.875,127.125 Q231.3125,127.4063 230.9219,127.9375 Q230.5313,128.4688 230.3281,129.25 Q230.1406,130.0156 230.1406,130.9688 Q230.1406,131.9375 230.3125,132.7031 Q230.5,133.4531 230.8594,133.9688 Q231.2344,134.4844 231.8125,134.7656 Q232.3906,135.0313 233.1875,135.0313 Q233.9219,135.0313 234.6563,134.8594 Q235.4063,134.6875 236.2813,134.3906 L236.2813,136.5469 Q235.875,136.7031 235.4844,136.8281 Q235.0938,136.9375 234.6875,137.0156 Q234.2813,137.0938 233.8594,137.125 Q233.4375,137.1719 232.9375,137.1719 Q231.5313,137.1719 230.5,136.7188 Q229.4844,136.2656 228.8125,135.4531 Q228.1406,134.6406 227.8125,133.5 Q227.4844,132.3438 227.4844,130.9531 Q227.4844,129.5781 227.8594,128.4219 Q228.2344,127.2656 228.9531,126.4375 Q229.6719,125.6094 230.7344,125.1563 Q231.7969,124.6875 233.1875,124.6875 Q234.0938,124.6875 235,124.9219 Q235.9063,125.1406 236.7344,125.5469 L235.9063,127.6406 Q235.2188,127.3125 234.5313,127.0781 Q233.8438,126.8281 233.1875,126.8281 Z " fill="#000000"/><text fill="#000000" font-family="sans-serif" font-size="14" lengthAdjust="spacing" textLength="80" x="253.75" y="135.8467">ScreenShake</text><line style="stroke:#181818;stroke-width:0.5;" x1="138" x2="417" y1="147" y2="147"/><line style="stroke:#181818;stroke-width:0.5;" x1="138" x2="417" y1="155" y2="155"/><ellipse cx="148" cy="168.6484" fill="#84BE84" rx="3" ry="3" style="stroke:#038048;stroke-width:1.0;"/><text fill="#000000" font-family="sans-serif" font-size="14" lengthAdjust="spacing" text-decoration="underline" textLength="255" x="157" y="171.9951">Shake(shakeParams:ShakeParams) : void</text><ellipse cx="148" cy="184.9453" fill="#84BE84" rx="3" ry="3" style="stroke:#038048;stroke-width:1.0;"/><text fill="#000000" font-family="sans-serif" font-size="14" lengthAdjust="spacing" text-decoration="underline" textLength="221" x="157" y="188.292">Shake(shakeType:ShakeType) : void</text></g><!--class ShakeParams--><g id="elem_ShakeParams"><rect codeLine="5" fill="#F1F1F1" height="96.8906" id="ShakeParams" rx="2.5" ry="2.5" style="stroke:#181818;stroke-width:0.5;" width="305" x="7" y="256"/><ellipse cx="113.25" cy="272" fill="#F1F1F1" rx="11" ry="11" style="stroke:#181818;stroke-width:1.0;"/><path d="M117.4219,274.625 Q117.4219,275.4375 117.1406,276.0938 Q116.875,276.75 116.3281,277.2188 Q115.7969,277.6719 115.0156,277.9219 Q114.25,278.1719 113.25,278.1719 Q112.3594,278.1719 111.5469,277.9844 Q110.7344,277.7969 110.0313,277.4375 L110.0313,275.0469 Q110.4219,275.2344 110.8281,275.4219 Q111.25,275.5938 111.6563,275.7344 Q112.0781,275.875 112.5,275.9688 Q112.9219,276.0469 113.3281,276.0469 Q113.75,276.0469 114.0469,275.9531 Q114.3594,275.8438 114.5469,275.6875 Q114.7344,275.5156 114.8125,275.2813 Q114.9063,275.0313 114.9063,274.75 Q114.9063,274.4063 114.7656,274.1563 Q114.625,273.8906 114.3594,273.6719 Q114.0938,273.4375 113.7188,273.2188 Q113.3594,273 112.9063,272.7656 Q112.5156,272.5625 112.0469,272.2813 Q111.5781,272 111.1563,271.5781 Q110.7344,271.1563 110.4531,270.5625 Q110.1719,269.9688 110.1719,269.1406 Q110.1719,268.3281 110.4375,267.6875 Q110.7188,267.0469 111.2031,266.6094 Q111.7031,266.1563 112.4063,265.9219 Q113.125,265.6875 114,265.6875 Q114.4531,265.6875 114.8594,265.75 Q115.2813,265.8125 115.6875,265.9219 Q116.1094,266.0156 116.5156,266.1875 Q116.9375,266.3438 117.375,266.5469 L116.5469,268.5469 Q116.1719,268.375 115.8438,268.25 Q115.5313,268.1094 115.2188,268.0156 Q114.9063,267.9219 114.6094,267.875 Q114.3281,267.8281 114.0156,267.8281 Q113.375,267.8281 113.0313,268.1719 Q112.6875,268.5156 112.6875,269.0938 Q112.6875,269.4063 112.7813,269.6406 Q112.8906,269.875 113.1094,270.0781 Q113.3438,270.2813 113.7031,270.5 Q114.0781,270.7188 114.5938,271 Q115.2031,271.3281 115.7188,271.6719 Q116.25,272.0156 116.625,272.4375 Q117.0156,272.8594 117.2188,273.3906 Q117.4219,273.9219 117.4219,274.625 Z " fill="#000000"/><text fill="#000000" font-family="sans-serif" font-size="14" lengthAdjust="spacing" textLength="84" x="133.75" y="276.8467">ShakeParams</text><line style="stroke:#181818;stroke-width:0.5;" x1="8" x2="311" y1="288" y2="288"/><ellipse cx="18" cy="301.6484" fill="none" rx="3" ry="3" style="stroke:#038048;stroke-width:1.0;"/><text fill="#000000" font-family="sans-serif" font-size="14" lengthAdjust="spacing" textLength="96" x="27" y="304.9951">intensity : float</text><ellipse cx="18" cy="317.9453" fill="none" rx="3" ry="3" style="stroke:#038048;stroke-width:1.0;"/><text fill="#000000" font-family="sans-serif" font-size="14" lengthAdjust="spacing" textLength="91" x="27" y="321.292">seconds : float</text><line style="stroke:#181818;stroke-width:0.5;" x1="8" x2="311" y1="328.5938" y2="328.5938"/><ellipse cx="18" cy="342.2422" fill="#84BE84" rx="3" ry="3" style="stroke:#038048;stroke-width:1.0;"/><text fill="#000000" font-family="sans-serif" font-size="14" lengthAdjust="spacing" text-decoration="underline" textLength="279" x="27" y="345.5889">QuickShake(shakeLevel:float) : ShakeParams</text></g><!--class ShakeType--><g id="elem_ShakeType"><rect codeLine="10" fill="#F1F1F1" height="96.8906" id="ShakeType" rx="2.5" ry="2.5" style="stroke:#181818;stroke-width:0.5;" width="99" x="347" y="256"/><ellipse cx="362" cy="272" fill="#EB937F" rx="11" ry="11" style="stroke:#181818;stroke-width:1.0;"/><path d="M365.0156,278 L358.0313,278 L358.0313,265.8594 L365.0156,265.8594 L365.0156,267.9688 L360.5938,267.9688 L360.5938,270.6406 L364.7031,270.6406 L364.7031,272.75 L360.5938,272.75 L360.5938,275.875 L365.0156,275.875 L365.0156,278 Z " fill="#000000"/><text fill="#000000" font-family="sans-serif" font-size="14" lengthAdjust="spacing" textLength="67" x="376" y="276.8467">ShakeType</text><line style="stroke:#181818;stroke-width:0.5;" x1="348" x2="445" y1="288" y2="288"/><text fill="#000000" font-family="sans-serif" font-size="14" lengthAdjust="spacing" textLength="43" x="353" y="304.9951">Attack,</text><text fill="#000000" font-family="sans-serif" font-size="14" lengthAdjust="spacing" textLength="66" x="353" y="321.292">HitEnemy,</text><text fill="#000000" font-family="sans-serif" font-size="14" lengthAdjust="spacing" textLength="85" x="353" y="337.5889">TakeDamage,</text><line style="stroke:#181818;stroke-width:0.5;" x1="348" x2="445" y1="344.8906" y2="344.8906"/></g><!--class MonoBehaviour--><g id="elem_MonoBehaviour"><rect fill="#F1F1F1" height="48" id="MonoBehaviour" rx="2.5" ry="2.5" style="stroke:#181818;stroke-width:0.5;" width="133" x="211" y="7"/><ellipse cx="226" cy="23" fill="#ADD1B2" rx="11" ry="11" style="stroke:#181818;stroke-width:1.0;"/><path d="M225.9375,18.8281 Q225.1875,18.8281 224.625,19.125 Q224.0625,19.4063 223.6719,19.9375 Q223.2813,20.4688 223.0781,21.25 Q222.8906,22.0156 222.8906,22.9688 Q222.8906,23.9375 223.0625,24.7031 Q223.25,25.4531 223.6094,25.9688 Q223.9844,26.4844 224.5625,26.7656 Q225.1406,27.0313 225.9375,27.0313 Q226.6719,27.0313 227.4063,26.8594 Q228.1563,26.6875 229.0313,26.3906 L229.0313,28.5469 Q228.625,28.7031 228.2344,28.8281 Q227.8438,28.9375 227.4375,29.0156 Q227.0313,29.0938 226.6094,29.125 Q226.1875,29.1719 225.6875,29.1719 Q224.2813,29.1719 223.25,28.7188 Q222.2344,28.2656 221.5625,27.4531 Q220.8906,26.6406 220.5625,25.5 Q220.2344,24.3438 220.2344,22.9531 Q220.2344,21.5781 220.6094,20.4219 Q220.9844,19.2656 221.7031,18.4375 Q222.4219,17.6094 223.4844,17.1563 Q224.5469,16.6875 225.9375,16.6875 Q226.8438,16.6875 227.75,16.9219 Q228.6563,17.1406 229.4844,17.5469 L228.6563,19.6406 Q227.9688,19.3125 227.2813,19.0781 Q226.5938,18.8281 225.9375,18.8281 Z " fill="#000000"/><text fill="#000000" font-family="sans-serif" font-size="14" lengthAdjust="spacing" textLength="101" x="240" y="27.8467">MonoBehaviour</text><line style="stroke:#181818;stroke-width:0.5;" x1="212" x2="343" y1="39" y2="39"/><line style="stroke:#181818;stroke-width:0.5;" x1="212" x2="343" y1="47" y2="47"/></g><!--reverse link MonoBehaviour to ScreenShake--><g id="link_MonoBehaviour_ScreenShake"><path codeLine="15" d="M277.5,75.14 C277.5,88 277.5,102.04 277.5,114.69 " fill="none" id="MonoBehaviour-backto-ScreenShake" style="stroke:#181818;stroke-width:1.0;"/><polygon fill="none" points="270.5,75.04,277.5,55.04,284.5,75.04,270.5,75.04" style="stroke:#181818;stroke-width:1.0;"/></g><!--link ScreenShake to ScreenShake--><g id="link_ScreenShake_ScreenShake"><path codeLine="16" d="M418.3,134.46 C439.02,137.77 453,144.78 453,155.5 C453,165.3 441.32,172 423.49,175.6 " fill="none" id="ScreenShake-to-ScreenShake" style="stroke:#181818;stroke-width:1.0;"/><polygon fill="#181818" points="418.3,176.54,427.8668,178.8802,423.2207,175.6531,426.4478,171.0071,418.3,176.54" style="stroke:#181818;stroke-width:1.0;"/><text fill="#000000" font-family="sans-serif" font-size="13" lengthAdjust="spacing" textLength="50" x="425.8128" y="174.2326">Instance</text></g><!--reverse link ScreenShake to ShakeParams--><g id="link_ScreenShake_ShakeParams"><path codeLine="17" d="M235.9,208.32 C223.49,223.79 209.94,240.66 197.76,255.84 " fill="none" id="ScreenShake-backto-ShakeParams" style="stroke:#181818;stroke-width:1.0;"/><ellipse cx="240.5641" cy="202.5203" fill="#FFFFFF" rx="8" ry="8" style="stroke:#181818;stroke-width:1.0;"/><line style="stroke:#181818;stroke-width:1.0;" x1="235.5582" x2="245.57" y1="208.7605" y2="196.28"/><line style="stroke:#181818;stroke-width:1.0;" x1="234.3238" x2="246.8043" y1="197.5143" y2="207.5262"/></g><!--reverse link ScreenShake to ShakeType--><g id="link_ScreenShake_ShakeType"><path codeLine="18" d="M319.45,208.32 C331.97,223.79 345.63,240.66 357.92,255.84 " fill="none" id="ScreenShake-backto-ShakeType" style="stroke:#181818;stroke-width:1.0;"/><ellipse cx="314.731" cy="202.5001" fill="#FFFFFF" rx="8" ry="8" style="stroke:#181818;stroke-width:1.0;"/><line style="stroke:#181818;stroke-width:1.0;" x1="319.7619" x2="309.7" y1="208.7202" y2="196.28"/><line style="stroke:#181818;stroke-width:1.0;" x1="308.5109" x2="320.951" y1="207.531" y2="197.4691"/></g><!--SRC=[VP3HYi9034NV-nN1fnNj3nGHN1GKNDYb_a0OipgqpKYJ5ehwxyvKwGxYEWz39dDlpYMcH178JKt4-H4BWdC2_apWB8fgpHNwzeU4-njhh2JB_-enPD0wktzZsdKdkbj2DHYkYMZT68LesW2thCHYjVFgtzAXFlf2nl5Udhe3zQUnfeZGMsgfp7ffu4OaZoTkAXXoFT0BLJJ5jA_NLbTCLNT_xRnmYHKUQEhDNuxT9nsnjQwfONP9qtY9IRpGD9t3QCC-8niQ_IkRX15Hm9T_8UaD]--></g></svg>