<?xml version="1.0" encoding="us-ascii" standalone="no"?><svg xmlns="http://www.w3.org/2000/svg" xmlns:xlink="http://www.w3.org/1999/xlink" contentStyleType="text/css" height="376px" preserveAspectRatio="none" style="width:485px;height:376px;background:#FFFFFF;" version="1.1" viewBox="0 0 485 376" width="485px" zoomAndPan="magnify"><defs/><g><!--class ScreenShake--><g id="elem_ScreenShake"><rect codeLine="1" fill="#F1F1F1" height="80.5938" id="ScreenShake" rx="2.5" ry="2.5" style="stroke:#181818;stroke-width:0.5;" width="281" x="140" y="115"/><ellipse cx="236.25" cy="131" fill="#ADD1B2" rx="11" ry="11" style="stroke:#181818;stroke-width:1.0;"/><path d="M236.1875,126.8281 Q235.4375,126.8281 234.875,127.125 Q234.3125,127.4063 233.9219,127.9375 Q233.5313,128.4688 233.3281,129.25 Q233.1406,130.0156 233.1406,130.9688 Q233.1406,131.9375 233.3125,132.7031 Q233.5,133.4531 233.8594,133.9688 Q234.2344,134.4844 234.8125,134.7656 Q235.3906,135.0313 236.1875,135.0313 Q236.9219,135.0313 237.6563,134.8594 Q238.4063,134.6875 239.2813,134.3906 L239.2813,136.5469 Q238.875,136.7031 238.4844,136.8281 Q238.0938,136.9375 237.6875,137.0156 Q237.2813,137.0938 236.8594,137.125 Q236.4375,137.1719 235.9375,137.1719 Q234.5313,137.1719 233.5,136.7188 Q232.4844,136.2656 231.8125,135.4531 Q231.1406,134.6406 230.8125,133.5 Q230.4844,132.3438 230.4844,130.9531 Q230.4844,129.5781 230.8594,128.4219 Q231.2344,127.2656 231.9531,126.4375 Q232.6719,125.6094 233.7344,125.1563 Q234.7969,124.6875 236.1875,124.6875 Q237.0938,124.6875 238,124.9219 Q238.9063,125.1406 239.7344,125.5469 L238.9063,127.6406 Q238.2188,127.3125 237.5313,127.0781 Q236.8438,126.8281 236.1875,126.8281 Z " fill="#000000"/><text fill="#000000" font-family="sans-serif" font-size="14" lengthAdjust="spacing" textLength="80" x="256.75" y="135.8467">ScreenShake</text><line style="stroke:#181818;stroke-width:0.5;" x1="141" x2="420" y1="147" y2="147"/><line style="stroke:#181818;stroke-width:0.5;" x1="141" x2="420" y1="155" y2="155"/><ellipse cx="151" cy="168.6484" fill="#84BE84" rx="3" ry="3" style="stroke:#038048;stroke-width:1.0;"/><text fill="#000000" font-family="sans-serif" font-size="14" lengthAdjust="spacing" text-decoration="underline" textLength="255" x="160" y="171.9951">Shake(shakeParams:ShakeParams) : void</text><ellipse cx="151" cy="184.9453" fill="#84BE84" rx="3" ry="3" style="stroke:#038048;stroke-width:1.0;"/><text fill="#000000" font-family="sans-serif" font-size="14" lengthAdjust="spacing" text-decoration="underline" textLength="221" x="160" y="188.292">Shake(shakeType:ShakeType) : void</text></g><!--class ShakeParams--><g id="elem_ShakeParams"><rect codeLine="5" fill="#F1F1F1" height="96.8906" id="ShakeParams" rx="2.5" ry="2.5" style="stroke:#181818;stroke-width:0.5;" width="305" x="7" y="264"/><ellipse cx="113.25" cy="280" fill="#F1F1F1" rx="11" ry="11" style="stroke:#181818;stroke-width:1.0;"/><path d="M117.4219,282.625 Q117.4219,283.4375 117.1406,284.0938 Q116.875,284.75 116.3281,285.2188 Q115.7969,285.6719 115.0156,285.9219 Q114.25,286.1719 113.25,286.1719 Q112.3594,286.1719 111.5469,285.9844 Q110.7344,285.7969 110.0313,285.4375 L110.0313,283.0469 Q110.4219,283.2344 110.8281,283.4219 Q111.25,283.5938 111.6563,283.7344 Q112.0781,283.875 112.5,283.9688 Q112.9219,284.0469 113.3281,284.0469 Q113.75,284.0469 114.0469,283.9531 Q114.3594,283.8438 114.5469,283.6875 Q114.7344,283.5156 114.8125,283.2813 Q114.9063,283.0313 114.9063,282.75 Q114.9063,282.4063 114.7656,282.1563 Q114.625,281.8906 114.3594,281.6719 Q114.0938,281.4375 113.7188,281.2188 Q113.3594,281 112.9063,280.7656 Q112.5156,280.5625 112.0469,280.2813 Q111.5781,280 111.1563,279.5781 Q110.7344,279.1563 110.4531,278.5625 Q110.1719,277.9688 110.1719,277.1406 Q110.1719,276.3281 110.4375,275.6875 Q110.7188,275.0469 111.2031,274.6094 Q111.7031,274.1563 112.4063,273.9219 Q113.125,273.6875 114,273.6875 Q114.4531,273.6875 114.8594,273.75 Q115.2813,273.8125 115.6875,273.9219 Q116.1094,274.0156 116.5156,274.1875 Q116.9375,274.3438 117.375,274.5469 L116.5469,276.5469 Q116.1719,276.375 115.8438,276.25 Q115.5313,276.1094 115.2188,276.0156 Q114.9063,275.9219 114.6094,275.875 Q114.3281,275.8281 114.0156,275.8281 Q113.375,275.8281 113.0313,276.1719 Q112.6875,276.5156 112.6875,277.0938 Q112.6875,277.4063 112.7813,277.6406 Q112.8906,277.875 113.1094,278.0781 Q113.3438,278.2813 113.7031,278.5 Q114.0781,278.7188 114.5938,279 Q115.2031,279.3281 115.7188,279.6719 Q116.25,280.0156 116.625,280.4375 Q117.0156,280.8594 117.2188,281.3906 Q117.4219,281.9219 117.4219,282.625 Z " fill="#000000"/><text fill="#000000" font-family="sans-serif" font-size="14" lengthAdjust="spacing" textLength="84" x="133.75" y="284.8467">ShakeParams</text><line style="stroke:#181818;stroke-width:0.5;" x1="8" x2="311" y1="296" y2="296"/><ellipse cx="18" cy="309.6484" fill="none" rx="3" ry="3" style="stroke:#038048;stroke-width:1.0;"/><text fill="#000000" font-family="sans-serif" font-size="14" lengthAdjust="spacing" textLength="96" x="27" y="312.9951">intensity : float</text><ellipse cx="18" cy="325.9453" fill="none" rx="3" ry="3" style="stroke:#038048;stroke-width:1.0;"/><text fill="#000000" font-family="sans-serif" font-size="14" lengthAdjust="spacing" textLength="91" x="27" y="329.292">seconds : float</text><line style="stroke:#181818;stroke-width:0.5;" x1="8" x2="311" y1="336.5938" y2="336.5938"/><ellipse cx="18" cy="350.2422" fill="#84BE84" rx="3" ry="3" style="stroke:#038048;stroke-width:1.0;"/><text fill="#000000" font-family="sans-serif" font-size="14" lengthAdjust="spacing" text-decoration="underline" textLength="279" x="27" y="353.5889">QuickShake(shakeLevel:float) : ShakeParams</text></g><!--class ShakeType--><g id="elem_ShakeType"><rect codeLine="10" fill="#F1F1F1" height="113.1875" id="ShakeType" rx="2.5" ry="2.5" style="stroke:#181818;stroke-width:0.5;" width="110" x="347.5" y="256"/><ellipse cx="367.45" cy="272" fill="#EB937F" rx="11" ry="11" style="stroke:#181818;stroke-width:1.0;"/><path d="M370.4656,278 L363.4813,278 L363.4813,265.8594 L370.4656,265.8594 L370.4656,267.9688 L366.0438,267.9688 L366.0438,270.6406 L370.1531,270.6406 L370.1531,272.75 L366.0438,272.75 L366.0438,275.875 L370.4656,275.875 L370.4656,278 Z " fill="#000000"/><text fill="#000000" font-family="sans-serif" font-size="14" lengthAdjust="spacing" textLength="67" x="382.55" y="276.8467">ShakeType</text><line style="stroke:#181818;stroke-width:0.5;" x1="348.5" x2="456.5" y1="288" y2="288"/><text fill="#000000" font-family="sans-serif" font-size="14" lengthAdjust="spacing" textLength="43" x="353.5" y="304.9951">Attack,</text><text fill="#000000" font-family="sans-serif" font-size="14" lengthAdjust="spacing" textLength="66" x="353.5" y="321.292">HitEnemy,</text><text fill="#000000" font-family="sans-serif" font-size="14" lengthAdjust="spacing" textLength="85" x="353.5" y="337.5889">TakeDamage,</text><text fill="#000000" font-family="sans-serif" font-size="14" lengthAdjust="spacing" textLength="98" x="353.5" y="353.8857">ShootBigBullet,</text><line style="stroke:#181818;stroke-width:0.5;" x1="348.5" x2="456.5" y1="361.1875" y2="361.1875"/></g><!--class MonoBehaviour--><g id="elem_MonoBehaviour"><rect fill="#F1F1F1" height="48" id="MonoBehaviour" rx="2.5" ry="2.5" style="stroke:#181818;stroke-width:0.5;" width="133" x="214" y="7"/><ellipse cx="229" cy="23" fill="#ADD1B2" rx="11" ry="11" style="stroke:#181818;stroke-width:1.0;"/><path d="M228.9375,18.8281 Q228.1875,18.8281 227.625,19.125 Q227.0625,19.4063 226.6719,19.9375 Q226.2813,20.4688 226.0781,21.25 Q225.8906,22.0156 225.8906,22.9688 Q225.8906,23.9375 226.0625,24.7031 Q226.25,25.4531 226.6094,25.9688 Q226.9844,26.4844 227.5625,26.7656 Q228.1406,27.0313 228.9375,27.0313 Q229.6719,27.0313 230.4063,26.8594 Q231.1563,26.6875 232.0313,26.3906 L232.0313,28.5469 Q231.625,28.7031 231.2344,28.8281 Q230.8438,28.9375 230.4375,29.0156 Q230.0313,29.0938 229.6094,29.125 Q229.1875,29.1719 228.6875,29.1719 Q227.2813,29.1719 226.25,28.7188 Q225.2344,28.2656 224.5625,27.4531 Q223.8906,26.6406 223.5625,25.5 Q223.2344,24.3438 223.2344,22.9531 Q223.2344,21.5781 223.6094,20.4219 Q223.9844,19.2656 224.7031,18.4375 Q225.4219,17.6094 226.4844,17.1563 Q227.5469,16.6875 228.9375,16.6875 Q229.8438,16.6875 230.75,16.9219 Q231.6563,17.1406 232.4844,17.5469 L231.6563,19.6406 Q230.9688,19.3125 230.2813,19.0781 Q229.5938,18.8281 228.9375,18.8281 Z " fill="#000000"/><text fill="#000000" font-family="sans-serif" font-size="14" lengthAdjust="spacing" textLength="101" x="243" y="27.8467">MonoBehaviour</text><line style="stroke:#181818;stroke-width:0.5;" x1="215" x2="346" y1="39" y2="39"/><line style="stroke:#181818;stroke-width:0.5;" x1="215" x2="346" y1="47" y2="47"/></g><!--reverse link MonoBehaviour to ScreenShake--><g id="link_MonoBehaviour_ScreenShake"><path codeLine="16" d="M280.5,75.14 C280.5,88 280.5,102.04 280.5,114.69 " fill="none" id="MonoBehaviour-backto-ScreenShake" style="stroke:#181818;stroke-width:1.0;"/><polygon fill="none" points="273.5,75.04,280.5,55.04,287.5,75.04,273.5,75.04" style="stroke:#181818;stroke-width:1.0;"/></g><!--link ScreenShake to ScreenShake--><g id="link_ScreenShake_ScreenShake"><path codeLine="17" d="M421.3,134.46 C442.02,137.77 456,144.78 456,155.5 C456,165.3 444.32,172 426.49,175.6 " fill="none" id="ScreenShake-to-ScreenShake" style="stroke:#181818;stroke-width:1.0;"/><polygon fill="#181818" points="421.3,176.54,430.8668,178.8802,426.2207,175.6531,429.4478,171.0071,421.3,176.54" style="stroke:#181818;stroke-width:1.0;"/><text fill="#000000" font-family="sans-serif" font-size="13" lengthAdjust="spacing" textLength="50" x="428.8128" y="174.2326">Instance</text></g><!--reverse link ScreenShake to ShakeParams--><g id="link_ScreenShake_ShakeParams"><path codeLine="18" d="M240.25,208.07 C226.21,226.04 210.54,246.12 196.76,263.76 " fill="none" id="ScreenShake-backto-ShakeParams" style="stroke:#181818;stroke-width:1.0;"/><ellipse cx="244.729" cy="202.3174" fill="#FFFFFF" rx="8" ry="8" style="stroke:#181818;stroke-width:1.0;"/><line style="stroke:#181818;stroke-width:1.0;" x1="239.808" x2="249.65" y1="208.6249" y2="196.01"/><line style="stroke:#181818;stroke-width:1.0;" x1="238.4216" x2="251.0364" y1="197.3964" y2="207.2384"/></g><!--reverse link ScreenShake to ShakeType--><g id="link_ScreenShake_ShakeType"><path codeLine="19" d="M321.02,207.98 C333.14,223.38 346.48,240.33 358.8,255.98 " fill="none" id="ScreenShake-backto-ShakeType" style="stroke:#181818;stroke-width:1.0;"/><ellipse cx="316.551" cy="202.2939" fill="#FFFFFF" rx="8" ry="8" style="stroke:#181818;stroke-width:1.0;"/><line style="stroke:#181818;stroke-width:1.0;" x1="321.502" x2="311.6" y1="208.5779" y2="196.01"/><line style="stroke:#181818;stroke-width:1.0;" x1="310.267" x2="322.8349" y1="207.2449" y2="197.343"/></g><!--SRC=[VP1HIiH038RVUugmJyfkBr14i2WeA2ZT2uJPk1qwpKYJAPHrx-vCkzH1r7a8IUPFlfyOXoBGc868cnOxWbC1yMtX98fgpHdczfMa-8e3zb8rt_arL31wU_XdQ3zzq3AIidNWN8WEmIXasrQuPIKMgrDKlpkFUkaB6Sy7-T5TgM_1cYv3FzD8hfgbYPkH8fuuzB3wkg3lLD5qkpb_jFh0r4zBjO_2U-pnI4lTjDvhROzrS8vq5nU-UFOrjJXQ7mQu-IpB_B15VkIol8ND4qVVR6ZpfsoRLcIcV_rBxhy0]--></g></svg>