<?xml version="1.0" encoding="us-ascii" standalone="no"?><svg xmlns="http://www.w3.org/2000/svg" xmlns:xlink="http://www.w3.org/1999/xlink" contentStyleType="text/css" height="218px" preserveAspectRatio="none" style="width:312px;height:218px;background:#FFFFFF;" version="1.1" viewBox="0 0 312 218" width="312px" zoomAndPan="magnify"><defs/><g><!--class BossManager--><g id="elem_BossManager"><rect codeLine="1" fill="#F1F1F1" height="96.8906" id="BossManager" rx="2.5" ry="2.5" style="stroke:#181818;stroke-width:0.5;" width="240" x="7" y="115"/><ellipse cx="80.75" cy="131" fill="#ADD1B2" rx="11" ry="11" style="stroke:#181818;stroke-width:1.0;"/><path d="M80.6875,126.8281 Q79.9375,126.8281 79.375,127.125 Q78.8125,127.4063 78.4219,127.9375 Q78.0313,128.4688 77.8281,129.25 Q77.6406,130.0156 77.6406,130.9688 Q77.6406,131.9375 77.8125,132.7031 Q78,133.4531 78.3594,133.9688 Q78.7344,134.4844 79.3125,134.7656 Q79.8906,135.0313 80.6875,135.0313 Q81.4219,135.0313 82.1563,134.8594 Q82.9063,134.6875 83.7813,134.3906 L83.7813,136.5469 Q83.375,136.7031 82.9844,136.8281 Q82.5938,136.9375 82.1875,137.0156 Q81.7813,137.0938 81.3594,137.125 Q80.9375,137.1719 80.4375,137.1719 Q79.0313,137.1719 78,136.7188 Q76.9844,136.2656 76.3125,135.4531 Q75.6406,134.6406 75.3125,133.5 Q74.9844,132.3438 74.9844,130.9531 Q74.9844,129.5781 75.3594,128.4219 Q75.7344,127.2656 76.4531,126.4375 Q77.1719,125.6094 78.2344,125.1563 Q79.2969,124.6875 80.6875,124.6875 Q81.5938,124.6875 82.5,124.9219 Q83.4063,125.1406 84.2344,125.5469 L83.4063,127.6406 Q82.7188,127.3125 82.0313,127.0781 Q81.3438,126.8281 80.6875,126.8281 Z " fill="#000000"/><text fill="#000000" font-family="sans-serif" font-size="14" lengthAdjust="spacing" textLength="84" x="101.25" y="135.8467">BossManager</text><line style="stroke:#181818;stroke-width:0.5;" x1="8" x2="246" y1="147" y2="147"/><line style="stroke:#181818;stroke-width:0.5;" x1="8" x2="246" y1="155" y2="155"/><ellipse cx="18" cy="168.6484" fill="#84BE84" rx="3" ry="3" style="stroke:#038048;stroke-width:1.0;"/><text fill="#000000" font-family="sans-serif" font-size="14" lengthAdjust="spacing" textLength="139" x="27" y="171.9951">ResetKillCount() : void</text><ellipse cx="18" cy="184.9453" fill="#84BE84" rx="3" ry="3" style="stroke:#038048;stroke-width:1.0;"/><text fill="#000000" font-family="sans-serif" font-size="14" lengthAdjust="spacing" textLength="160" x="27" y="188.292">GetEnemyKillCount() : int</text><ellipse cx="18" cy="201.2422" fill="#84BE84" rx="3" ry="3" style="stroke:#038048;stroke-width:1.0;"/><text fill="#000000" font-family="sans-serif" font-size="14" lengthAdjust="spacing" textLength="214" x="27" y="204.5889">IncrementEnemyKillCount() : void</text></g><!--class MonoBehaviour--><g id="elem_MonoBehaviour"><rect fill="#F1F1F1" height="48" id="MonoBehaviour" rx="2.5" ry="2.5" style="stroke:#181818;stroke-width:0.5;" width="133" x="60.5" y="7"/><ellipse cx="75.5" cy="23" fill="#ADD1B2" rx="11" ry="11" style="stroke:#181818;stroke-width:1.0;"/><path d="M75.4375,18.8281 Q74.6875,18.8281 74.125,19.125 Q73.5625,19.4063 73.1719,19.9375 Q72.7813,20.4688 72.5781,21.25 Q72.3906,22.0156 72.3906,22.9688 Q72.3906,23.9375 72.5625,24.7031 Q72.75,25.4531 73.1094,25.9688 Q73.4844,26.4844 74.0625,26.7656 Q74.6406,27.0313 75.4375,27.0313 Q76.1719,27.0313 76.9063,26.8594 Q77.6563,26.6875 78.5313,26.3906 L78.5313,28.5469 Q78.125,28.7031 77.7344,28.8281 Q77.3438,28.9375 76.9375,29.0156 Q76.5313,29.0938 76.1094,29.125 Q75.6875,29.1719 75.1875,29.1719 Q73.7813,29.1719 72.75,28.7188 Q71.7344,28.2656 71.0625,27.4531 Q70.3906,26.6406 70.0625,25.5 Q69.7344,24.3438 69.7344,22.9531 Q69.7344,21.5781 70.1094,20.4219 Q70.4844,19.2656 71.2031,18.4375 Q71.9219,17.6094 72.9844,17.1563 Q74.0469,16.6875 75.4375,16.6875 Q76.3438,16.6875 77.25,16.9219 Q78.1563,17.1406 78.9844,17.5469 L78.1563,19.6406 Q77.4688,19.3125 76.7813,19.0781 Q76.0938,18.8281 75.4375,18.8281 Z " fill="#000000"/><text fill="#000000" font-family="sans-serif" font-size="14" lengthAdjust="spacing" textLength="101" x="89.5" y="27.8467">MonoBehaviour</text><line style="stroke:#181818;stroke-width:0.5;" x1="61.5" x2="192.5" y1="39" y2="39"/><line style="stroke:#181818;stroke-width:0.5;" x1="61.5" x2="192.5" y1="47" y2="47"/></g><!--reverse link MonoBehaviour to BossManager--><g id="link_MonoBehaviour_BossManager"><path codeLine="6" d="M127,75.37 C127,88.03 127,101.93 127,114.84 " fill="none" id="MonoBehaviour-backto-BossManager" style="stroke:#181818;stroke-width:1.0;"/><polygon fill="none" points="120,75.03,127,55.03,134,75.03,120,75.03" style="stroke:#181818;stroke-width:1.0;"/></g><!--link BossManager to BossManager--><g id="link_BossManager_BossManager"><path codeLine="7" d="M247.23,140.4 C267.77,143.55 282,151.25 282,163.5 C282,174.69 270.11,182.09 252.38,185.69 " fill="none" id="BossManager-to-BossManager" style="stroke:#181818;stroke-width:1.0;"/><polygon fill="#181818" points="247.23,186.6,256.7902,188.9671,252.1532,185.727,255.3933,181.09,247.23,186.6" style="stroke:#181818;stroke-width:1.0;"/><text fill="#000000" font-family="sans-serif" font-size="13" lengthAdjust="spacing" textLength="50" x="255.1723" y="184.5266">Instance</text></g><!--SRC=[Iyv9B2vMSCelBlPDp4jCJorIgEPI009jXQ3KujGIxyoS7EVyqhmI3Kq5AuMo_CmKgAnxQebhNcfk9Qg2pBmIgBndNd9HQcvg7ZPLO6DgkNppy_ATKZCIopBpIuiKR6fqTP7TmONi9brTEmKbpxpYaiIyv5GbP6K0]--></g></svg>