<?xml version="1.0" encoding="us-ascii" standalone="no"?><svg xmlns="http://www.w3.org/2000/svg" xmlns:xlink="http://www.w3.org/1999/xlink" contentStyleType="text/css" height="451px" preserveAspectRatio="none" style="width:374px;height:451px;background:#FFFFFF;" version="1.1" viewBox="0 0 374 451" width="374px" zoomAndPan="magnify"><defs/><g><!--class FightArenaManager--><g id="elem_FightArenaManager"><rect codeLine="1" fill="#F1F1F1" height="113.1875" id="FightArenaManager" rx="2.5" ry="2.5" style="stroke:#181818;stroke-width:0.5;" width="230" x="84.0274" y="115"/><ellipse cx="132.7774" cy="131" fill="#ADD1B2" rx="11" ry="11" style="stroke:#181818;stroke-width:1.0;"/><path d="M132.7149,126.8281 Q131.9649,126.8281 131.4024,127.125 Q130.8399,127.4063 130.4493,127.9375 Q130.0586,128.4688 129.8555,129.25 Q129.668,130.0156 129.668,130.9688 Q129.668,131.9375 129.8399,132.7031 Q130.0274,133.4531 130.3868,133.9688 Q130.7618,134.4844 131.3399,134.7656 Q131.918,135.0313 132.7149,135.0313 Q133.4493,135.0313 134.1836,134.8594 Q134.9336,134.6875 135.8086,134.3906 L135.8086,136.5469 Q135.4024,136.7031 135.0118,136.8281 Q134.6211,136.9375 134.2149,137.0156 Q133.8086,137.0938 133.3868,137.125 Q132.9649,137.1719 132.4649,137.1719 Q131.0586,137.1719 130.0274,136.7188 Q129.0118,136.2656 128.3399,135.4531 Q127.668,134.6406 127.3399,133.5 Q127.0118,132.3438 127.0118,130.9531 Q127.0118,129.5781 127.3868,128.4219 Q127.7618,127.2656 128.4805,126.4375 Q129.1993,125.6094 130.2618,125.1563 Q131.3243,124.6875 132.7149,124.6875 Q133.6211,124.6875 134.5274,124.9219 Q135.4336,125.1406 136.2618,125.5469 L135.4336,127.6406 Q134.7461,127.3125 134.0586,127.0781 Q133.3711,126.8281 132.7149,126.8281 Z " fill="#000000"/><text fill="#000000" font-family="sans-serif" font-size="14" lengthAdjust="spacing" textLength="124" x="153.2774" y="135.8467">FightArenaManager</text><line style="stroke:#181818;stroke-width:0.5;" x1="85.0274" x2="313.0274" y1="147" y2="147"/><line style="stroke:#181818;stroke-width:0.5;" x1="85.0274" x2="313.0274" y1="155" y2="155"/><ellipse cx="95.0274" cy="168.6484" fill="#84BE84" rx="3" ry="3" style="stroke:#038048;stroke-width:1.0;"/><text fill="#000000" font-family="sans-serif" font-size="14" lengthAdjust="spacing" textLength="203" x="104.0274" y="171.9951">SaveData(data:GameData) : void</text><ellipse cx="95.0274" cy="184.9453" fill="#84BE84" rx="3" ry="3" style="stroke:#038048;stroke-width:1.0;"/><text fill="#000000" font-family="sans-serif" font-size="14" lengthAdjust="spacing" textLength="204" x="104.0274" y="188.292">LoadData(data:GameData) : void</text><ellipse cx="95.0274" cy="201.2422" fill="#84BE84" rx="3" ry="3" style="stroke:#038048;stroke-width:1.0;"/><text fill="#000000" font-family="sans-serif" font-size="14" lengthAdjust="spacing" textLength="108" x="104.0274" y="204.5889">StartFight() : void</text><ellipse cx="95.0274" cy="217.5391" fill="#84BE84" rx="3" ry="3" style="stroke:#038048;stroke-width:1.0;"/><text fill="#000000" font-family="sans-serif" font-size="14" lengthAdjust="spacing" textLength="101" x="104.0274" y="220.8857">EndFight() : void</text></g><!--class EnemiesList--><g id="elem_EnemiesList"><rect codeLine="7" fill="#F1F1F1" height="48" id="EnemiesList" rx="2.5" ry="2.5" style="stroke:#181818;stroke-width:0.5;" width="108" x="199.0274" y="288"/><ellipse cx="214.0274" cy="304" fill="#ADD1B2" rx="11" ry="11" style="stroke:#181818;stroke-width:1.0;"/><path d="M213.9649,299.8281 Q213.2149,299.8281 212.6524,300.125 Q212.0899,300.4063 211.6993,300.9375 Q211.3086,301.4688 211.1055,302.25 Q210.918,303.0156 210.918,303.9688 Q210.918,304.9375 211.0899,305.7031 Q211.2774,306.4531 211.6368,306.9688 Q212.0118,307.4844 212.5899,307.7656 Q213.168,308.0313 213.9649,308.0313 Q214.6993,308.0313 215.4336,307.8594 Q216.1836,307.6875 217.0586,307.3906 L217.0586,309.5469 Q216.6524,309.7031 216.2618,309.8281 Q215.8711,309.9375 215.4649,310.0156 Q215.0586,310.0938 214.6368,310.125 Q214.2149,310.1719 213.7149,310.1719 Q212.3086,310.1719 211.2774,309.7188 Q210.2618,309.2656 209.5899,308.4531 Q208.918,307.6406 208.5899,306.5 Q208.2618,305.3438 208.2618,303.9531 Q208.2618,302.5781 208.6368,301.4219 Q209.0118,300.2656 209.7305,299.4375 Q210.4493,298.6094 211.5118,298.1563 Q212.5743,297.6875 213.9649,297.6875 Q214.8711,297.6875 215.7774,297.9219 Q216.6836,298.1406 217.5118,298.5469 L216.6836,300.6406 Q215.9961,300.3125 215.3086,300.0781 Q214.6211,299.8281 213.9649,299.8281 Z " fill="#000000"/><text fill="#000000" font-family="sans-serif" font-size="14" lengthAdjust="spacing" textLength="76" x="228.0274" y="308.8467">EnemiesList</text><line style="stroke:#181818;stroke-width:0.5;" x1="200.0274" x2="306.0274" y1="320" y2="320"/><line style="stroke:#181818;stroke-width:0.5;" x1="200.0274" x2="306.0274" y1="328" y2="328"/></g><!--class List`1--><g id="elem_List`1"><rect codeLine="9" fill="#F1F1F1" height="48" id="List`1" rx="2.5" ry="2.5" style="stroke:#181818;stroke-width:0.5;" width="80" x="159.0274" y="396"/><ellipse cx="174.0274" cy="412" fill="#ADD1B2" rx="11" ry="11" style="stroke:#181818;stroke-width:1.0;"/><path d="M173.9649,407.8281 Q173.2149,407.8281 172.6524,408.125 Q172.0899,408.4063 171.6993,408.9375 Q171.3086,409.4688 171.1055,410.25 Q170.918,411.0156 170.918,411.9688 Q170.918,412.9375 171.0899,413.7031 Q171.2774,414.4531 171.6368,414.9688 Q172.0118,415.4844 172.5899,415.7656 Q173.168,416.0313 173.9649,416.0313 Q174.6993,416.0313 175.4336,415.8594 Q176.1836,415.6875 177.0586,415.3906 L177.0586,417.5469 Q176.6524,417.7031 176.2618,417.8281 Q175.8711,417.9375 175.4649,418.0156 Q175.0586,418.0938 174.6368,418.125 Q174.2149,418.1719 173.7149,418.1719 Q172.3086,418.1719 171.2774,417.7188 Q170.2618,417.2656 169.5899,416.4531 Q168.918,415.6406 168.5899,414.5 Q168.2618,413.3438 168.2618,411.9531 Q168.2618,410.5781 168.6368,409.4219 Q169.0118,408.2656 169.7305,407.4375 Q170.4493,406.6094 171.5118,406.1563 Q172.5743,405.6875 173.9649,405.6875 Q174.8711,405.6875 175.7774,405.9219 Q176.6836,406.1406 177.5118,406.5469 L176.6836,408.6406 Q175.9961,408.3125 175.3086,408.0781 Q174.6211,407.8281 173.9649,407.8281 Z " fill="#000000"/><text fill="#000000" font-family="sans-serif" font-size="14" lengthAdjust="spacing" textLength="38" x="188.0274" y="416.8467">List`1</text><rect fill="#FFFFFF" height="15.9688" style="stroke:#181818;stroke-width:1.0;stroke-dasharray:2.0,2.0;" width="8" x="234.0274" y="393"/><text fill="#000000" font-family="sans-serif" font-size="12" font-style="italic" lengthAdjust="spacing" textLength="6" x="235.0274" y="405.1387">T</text><line style="stroke:#181818;stroke-width:0.5;" x1="160.0274" x2="238.0274" y1="428" y2="428"/><line style="stroke:#181818;stroke-width:0.5;" x1="160.0274" x2="238.0274" y1="436" y2="436"/></g><!--class MonoBehaviour--><g id="elem_MonoBehaviour"><rect fill="#F1F1F1" height="48" id="MonoBehaviour" rx="2.5" ry="2.5" style="stroke:#181818;stroke-width:0.5;" width="133" x="54.5274" y="7"/><ellipse cx="69.5274" cy="23" fill="#ADD1B2" rx="11" ry="11" style="stroke:#181818;stroke-width:1.0;"/><path d="M69.4649,18.8281 Q68.7149,18.8281 68.1524,19.125 Q67.5899,19.4063 67.1992,19.9375 Q66.8086,20.4688 66.6055,21.25 Q66.418,22.0156 66.418,22.9688 Q66.418,23.9375 66.5899,24.7031 Q66.7774,25.4531 67.1367,25.9688 Q67.5117,26.4844 68.0899,26.7656 Q68.668,27.0313 69.4649,27.0313 Q70.1992,27.0313 70.9336,26.8594 Q71.6836,26.6875 72.5586,26.3906 L72.5586,28.5469 Q72.1524,28.7031 71.7617,28.8281 Q71.3711,28.9375 70.9649,29.0156 Q70.5586,29.0938 70.1367,29.125 Q69.7149,29.1719 69.2149,29.1719 Q67.8086,29.1719 66.7774,28.7188 Q65.7617,28.2656 65.0899,27.4531 Q64.418,26.6406 64.0899,25.5 Q63.7617,24.3438 63.7617,22.9531 Q63.7617,21.5781 64.1367,20.4219 Q64.5117,19.2656 65.2305,18.4375 Q65.9492,17.6094 67.0117,17.1563 Q68.0742,16.6875 69.4649,16.6875 Q70.3711,16.6875 71.2774,16.9219 Q72.1836,17.1406 73.0117,17.5469 L72.1836,19.6406 Q71.4961,19.3125 70.8086,19.0781 Q70.1211,18.8281 69.4649,18.8281 Z " fill="#000000"/><text fill="#000000" font-family="sans-serif" font-size="14" lengthAdjust="spacing" textLength="101" x="83.5274" y="27.8467">MonoBehaviour</text><line style="stroke:#181818;stroke-width:0.5;" x1="55.5274" x2="186.5274" y1="39" y2="39"/><line style="stroke:#181818;stroke-width:0.5;" x1="55.5274" x2="186.5274" y1="47" y2="47"/></g><!--class IDataPersist--><g id="elem_IDataPersist"><rect fill="#F1F1F1" height="48" id="IDataPersist" rx="2.5" ry="2.5" style="stroke:#181818;stroke-width:0.5;" width="109" x="222.5274" y="7"/><ellipse cx="237.5274" cy="23" fill="#ADD1B2" rx="11" ry="11" style="stroke:#181818;stroke-width:1.0;"/><path d="M237.4649,18.8281 Q236.7149,18.8281 236.1524,19.125 Q235.5899,19.4063 235.1993,19.9375 Q234.8086,20.4688 234.6055,21.25 Q234.418,22.0156 234.418,22.9688 Q234.418,23.9375 234.5899,24.7031 Q234.7774,25.4531 235.1368,25.9688 Q235.5118,26.4844 236.0899,26.7656 Q236.668,27.0313 237.4649,27.0313 Q238.1993,27.0313 238.9336,26.8594 Q239.6836,26.6875 240.5586,26.3906 L240.5586,28.5469 Q240.1524,28.7031 239.7618,28.8281 Q239.3711,28.9375 238.9649,29.0156 Q238.5586,29.0938 238.1368,29.125 Q237.7149,29.1719 237.2149,29.1719 Q235.8086,29.1719 234.7774,28.7188 Q233.7618,28.2656 233.0899,27.4531 Q232.418,26.6406 232.0899,25.5 Q231.7618,24.3438 231.7618,22.9531 Q231.7618,21.5781 232.1368,20.4219 Q232.5118,19.2656 233.2305,18.4375 Q233.9493,17.6094 235.0118,17.1563 Q236.0743,16.6875 237.4649,16.6875 Q238.3711,16.6875 239.2774,16.9219 Q240.1836,17.1406 241.0118,17.5469 L240.1836,19.6406 Q239.4961,19.3125 238.8086,19.0781 Q238.1211,18.8281 237.4649,18.8281 Z " fill="#000000"/><text fill="#000000" font-family="sans-serif" font-size="14" lengthAdjust="spacing" textLength="77" x="251.5274" y="27.8467">IDataPersist</text><line style="stroke:#181818;stroke-width:0.5;" x1="223.5274" x2="330.5274" y1="39" y2="39"/><line style="stroke:#181818;stroke-width:0.5;" x1="223.5274" x2="330.5274" y1="47" y2="47"/></g><!--reverse link MonoBehaviour to FightArenaManager--><g id="link_MonoBehaviour_FightArenaManager"><path codeLine="11" d="M144.1174,72.99 C151.5174,86.14 159.8474,100.93 167.7374,114.94 " fill="none" id="MonoBehaviour-backto-FightArenaManager" style="stroke:#181818;stroke-width:1.0;"/><polygon fill="none" points="137.7974,76.04,134.0874,55.18,149.9974,69.17,137.7974,76.04" style="stroke:#181818;stroke-width:1.0;"/></g><!--reverse link IDataPersist to FightArenaManager--><g id="link_IDataPersist_FightArenaManager"><path codeLine="12" d="M253.9474,72.99 C246.5374,86.14 238.2174,100.93 230.3174,114.94 " fill="none" id="IDataPersist-backto-FightArenaManager" style="stroke:#181818;stroke-width:1.0;"/><polygon fill="none" points="248.0574,69.17,263.9774,55.18,260.2574,76.04,248.0574,69.17" style="stroke:#181818;stroke-width:1.0;"/></g><!--link FightArenaManager to List`1--><g id="link_FightArenaManager_List`1"><path codeLine="13" d="M184.8374,241.14 C180.5174,270.38 177.6874,304.85 181.0274,336 C182.6974,351.55 186.0774,368.47 189.4574,382.95 " fill="none" id="FightArenaManager-List`1" style="stroke:#181818;stroke-width:1.0;"/><polygon fill="none" points="186.9174,228.11,182.0245,233.4071,185.0323,239.961,189.9252,234.6639,186.9174,228.11" style="stroke:#181818;stroke-width:1.0;"/><polygon fill="#181818" points="192.6474,395.96,194.3839,386.2654,191.4541,391.1045,186.6151,388.1747,192.6474,395.96" style="stroke:#181818;stroke-width:1.0;"/><line style="stroke:#181818;stroke-width:1.0;" x1="191.4541" x2="189.5524" y1="391.1045" y2="383.335"/><text fill="#000000" font-family="sans-serif" font-size="13" lengthAdjust="spacing" textLength="164" x="6" y="384.9618">enemiesWave&lt;EnemiesList&gt;</text></g><!--reverse link FightArenaManager to EnemiesList--><g id="link_FightArenaManager_EnemiesList"><path codeLine="14" d="M226.2974,242.43 C232.7174,258.9 239.1174,275.32 244.0474,287.96 " fill="none" id="FightArenaManager-backto-EnemiesList" style="stroke:#181818;stroke-width:1.0;"/><ellipse cx="223.5954" cy="235.4927" fill="#FFFFFF" rx="8" ry="8" style="stroke:#181818;stroke-width:1.0;"/><line style="stroke:#181818;stroke-width:1.0;" x1="226.5034" x2="220.6874" y1="242.9455" y2="228.04"/><line style="stroke:#181818;stroke-width:1.0;" x1="216.1426" x2="231.0481" y1="238.4008" y2="232.5847"/></g><!--link EnemiesList to List`1--><g id="link_EnemiesList_List`1"><path codeLine="15" d="M241.3174,336 C233.0874,352.14 222.0474,373.82 213.3074,390.97 " fill="none" id="EnemiesList-to-List`1" style="stroke:#181818;stroke-width:1.0;"/><polygon fill="#181818" points="210.9074,395.68,218.5578,389.4774,213.1776,391.2251,211.43,385.845,210.9074,395.68" style="stroke:#181818;stroke-width:1.0;"/><text fill="#000000" font-family="sans-serif" font-size="13" lengthAdjust="spacing" textLength="137" x="230.5" y="385.007">enemies&lt;GameObject&gt;</text></g><!--SRC=[XP3D2i8m48JlUOhGKwNquBM4Wc8LeKMXWbVNTcaZDe4azgA-ksdz8RIAEGHsCfdzTeipQ4sNlAhDJA6030HKgEYLK7i2caEB2p3Wb_QALj3qrOH6j9MyV9bI2ULVKsv0cRwHFtX9H3dGxwJekHA13KUTScqiqLlrklemzTWkxjLC2Zd76bekBugoMnYE1oBh3ccBIdTPFppZDSWmfXu-AVPs5SmXYhqFoPUVWUtWc8axIkYaicvTc-C92pVm0G00]--></g></svg>