<?xml version="1.0" encoding="us-ascii" standalone="no"?><svg xmlns="http://www.w3.org/2000/svg" xmlns:xlink="http://www.w3.org/1999/xlink" contentStyleType="text/css" height="392px" preserveAspectRatio="none" style="width:425px;height:392px;background:#FFFFFF;" version="1.1" viewBox="0 0 425 392" width="425px" zoomAndPan="magnify"><defs/><g><!--class HackEventManager--><g id="elem_HackEventManager"><rect codeLine="1" fill="#F1F1F1" height="162.0781" id="HackEventManager" rx="2.5" ry="2.5" style="stroke:#181818;stroke-width:0.5;" width="328" x="32.6531" y="115"/><ellipse cx="132.4031" cy="131" fill="#ADD1B2" rx="11" ry="11" style="stroke:#181818;stroke-width:1.0;"/><path d="M132.3406,126.8281 Q131.5906,126.8281 131.0281,127.125 Q130.4656,127.4063 130.075,127.9375 Q129.6844,128.4688 129.4813,129.25 Q129.2938,130.0156 129.2938,130.9688 Q129.2938,131.9375 129.4656,132.7031 Q129.6531,133.4531 130.0125,133.9688 Q130.3875,134.4844 130.9656,134.7656 Q131.5438,135.0313 132.3406,135.0313 Q133.075,135.0313 133.8094,134.8594 Q134.5594,134.6875 135.4344,134.3906 L135.4344,136.5469 Q135.0281,136.7031 134.6375,136.8281 Q134.2469,136.9375 133.8406,137.0156 Q133.4344,137.0938 133.0125,137.125 Q132.5906,137.1719 132.0906,137.1719 Q130.6844,137.1719 129.6531,136.7188 Q128.6375,136.2656 127.9656,135.4531 Q127.2937,134.6406 126.9656,133.5 Q126.6375,132.3438 126.6375,130.9531 Q126.6375,129.5781 127.0125,128.4219 Q127.3875,127.2656 128.1063,126.4375 Q128.825,125.6094 129.8875,125.1563 Q130.95,124.6875 132.3406,124.6875 Q133.2469,124.6875 134.1531,124.9219 Q135.0594,125.1406 135.8875,125.5469 L135.0594,127.6406 Q134.3719,127.3125 133.6844,127.0781 Q132.9969,126.8281 132.3406,126.8281 Z " fill="#000000"/><text fill="#000000" font-family="sans-serif" font-size="14" lengthAdjust="spacing" textLength="120" x="152.9031" y="135.8467">HackEventManager</text><line style="stroke:#181818;stroke-width:0.5;" x1="33.6531" x2="359.6531" y1="147" y2="147"/><ellipse cx="43.6531" cy="160.6484" fill="none" rx="3" ry="3" style="stroke:#038048;stroke-width:1.0;"/><text fill="#000000" font-family="sans-serif" font-size="14" lengthAdjust="spacing" textLength="146" x="52.6531" y="163.9951">IsHacking : bool = false</text><ellipse cx="43.6531" cy="176.9453" fill="none" rx="3" ry="3" style="stroke:#038048;stroke-width:1.0;"/><text fill="#000000" font-family="sans-serif" font-size="14" lengthAdjust="spacing" textLength="109" x="52.6531" y="180.292">HackTimer : float</text><ellipse cx="43.6531" cy="193.2422" fill="none" rx="3" ry="3" style="stroke:#038048;stroke-width:1.0;"/><text fill="#000000" font-family="sans-serif" font-size="14" lengthAdjust="spacing" textLength="123" x="52.6531" y="196.5889">ButtonAmount : int</text><ellipse cx="43.6531" cy="209.5391" fill="none" rx="3" ry="3" style="stroke:#038048;stroke-width:1.0;"/><text fill="#000000" font-family="sans-serif" font-size="14" lengthAdjust="spacing" textLength="154" x="52.6531" y="212.8857">TotalButtonAmount : int</text><line style="stroke:#181818;stroke-width:0.5;" x1="33.6531" x2="359.6531" y1="220.1875" y2="220.1875"/><ellipse cx="43.6531" cy="233.8359" fill="#84BE84" rx="3" ry="3" style="stroke:#038048;stroke-width:1.0;"/><text fill="#000000" font-family="sans-serif" font-size="14" lengthAdjust="spacing" textLength="302" x="52.6531" y="237.1826">StartHack(hackDuration:float, amount:int) : void</text><ellipse cx="43.6531" cy="250.1328" fill="#84BE84" rx="3" ry="3" style="stroke:#038048;stroke-width:1.0;"/><text fill="#000000" font-family="sans-serif" font-size="14" lengthAdjust="spacing" textLength="101" x="52.6531" y="253.4795">EndHack() : bool</text><ellipse cx="43.6531" cy="266.4297" fill="#84BE84" rx="3" ry="3" style="stroke:#038048;stroke-width:1.0;"/><text fill="#000000" font-family="sans-serif" font-size="14" lengthAdjust="spacing" textLength="180" x="52.6531" y="269.7764">HackQuickTimeEvent() : bool</text></g><!--class List`1--><g id="elem_List`1"><rect codeLine="10" fill="#F1F1F1" height="48" id="List`1" rx="2.5" ry="2.5" style="stroke:#181818;stroke-width:0.5;" width="80" x="156.6531" y="337"/><ellipse cx="171.6531" cy="353" fill="#ADD1B2" rx="11" ry="11" style="stroke:#181818;stroke-width:1.0;"/><path d="M171.5906,348.8281 Q170.8406,348.8281 170.2781,349.125 Q169.7156,349.4063 169.325,349.9375 Q168.9344,350.4688 168.7313,351.25 Q168.5438,352.0156 168.5438,352.9688 Q168.5438,353.9375 168.7156,354.7031 Q168.9031,355.4531 169.2625,355.9688 Q169.6375,356.4844 170.2156,356.7656 Q170.7938,357.0313 171.5906,357.0313 Q172.325,357.0313 173.0594,356.8594 Q173.8094,356.6875 174.6844,356.3906 L174.6844,358.5469 Q174.2781,358.7031 173.8875,358.8281 Q173.4969,358.9375 173.0906,359.0156 Q172.6844,359.0938 172.2625,359.125 Q171.8406,359.1719 171.3406,359.1719 Q169.9344,359.1719 168.9031,358.7188 Q167.8875,358.2656 167.2156,357.4531 Q166.5438,356.6406 166.2156,355.5 Q165.8875,354.3438 165.8875,352.9531 Q165.8875,351.5781 166.2625,350.4219 Q166.6375,349.2656 167.3563,348.4375 Q168.075,347.6094 169.1375,347.1563 Q170.2,346.6875 171.5906,346.6875 Q172.4969,346.6875 173.4031,346.9219 Q174.3094,347.1406 175.1375,347.5469 L174.3094,349.6406 Q173.6219,349.3125 172.9344,349.0781 Q172.2469,348.8281 171.5906,348.8281 Z " fill="#000000"/><text fill="#000000" font-family="sans-serif" font-size="14" lengthAdjust="spacing" textLength="38" x="185.6531" y="357.8467">List`1</text><rect fill="#FFFFFF" height="15.9688" style="stroke:#181818;stroke-width:1.0;stroke-dasharray:2.0,2.0;" width="8" x="231.6531" y="334"/><text fill="#000000" font-family="sans-serif" font-size="12" font-style="italic" lengthAdjust="spacing" textLength="6" x="232.6531" y="346.1387">T</text><line style="stroke:#181818;stroke-width:0.5;" x1="157.6531" x2="235.6531" y1="369" y2="369"/><line style="stroke:#181818;stroke-width:0.5;" x1="157.6531" x2="235.6531" y1="377" y2="377"/></g><!--class MonoBehaviour--><g id="elem_MonoBehaviour"><rect fill="#F1F1F1" height="48" id="MonoBehaviour" rx="2.5" ry="2.5" style="stroke:#181818;stroke-width:0.5;" width="133" x="130.1531" y="7"/><ellipse cx="145.1531" cy="23" fill="#ADD1B2" rx="11" ry="11" style="stroke:#181818;stroke-width:1.0;"/><path d="M145.0906,18.8281 Q144.3406,18.8281 143.7781,19.125 Q143.2156,19.4063 142.825,19.9375 Q142.4344,20.4688 142.2313,21.25 Q142.0438,22.0156 142.0438,22.9688 Q142.0438,23.9375 142.2156,24.7031 Q142.4031,25.4531 142.7625,25.9688 Q143.1375,26.4844 143.7156,26.7656 Q144.2938,27.0313 145.0906,27.0313 Q145.825,27.0313 146.5594,26.8594 Q147.3094,26.6875 148.1844,26.3906 L148.1844,28.5469 Q147.7781,28.7031 147.3875,28.8281 Q146.9969,28.9375 146.5906,29.0156 Q146.1844,29.0938 145.7625,29.125 Q145.3406,29.1719 144.8406,29.1719 Q143.4344,29.1719 142.4031,28.7188 Q141.3875,28.2656 140.7156,27.4531 Q140.0438,26.6406 139.7156,25.5 Q139.3875,24.3438 139.3875,22.9531 Q139.3875,21.5781 139.7625,20.4219 Q140.1375,19.2656 140.8563,18.4375 Q141.575,17.6094 142.6375,17.1563 Q143.7,16.6875 145.0906,16.6875 Q145.9969,16.6875 146.9031,16.9219 Q147.8094,17.1406 148.6375,17.5469 L147.8094,19.6406 Q147.1219,19.3125 146.4344,19.0781 Q145.7469,18.8281 145.0906,18.8281 Z " fill="#000000"/><text fill="#000000" font-family="sans-serif" font-size="14" lengthAdjust="spacing" textLength="101" x="159.1531" y="27.8467">MonoBehaviour</text><line style="stroke:#181818;stroke-width:0.5;" x1="131.1531" x2="262.1531" y1="39" y2="39"/><line style="stroke:#181818;stroke-width:0.5;" x1="131.1531" x2="262.1531" y1="47" y2="47"/></g><!--reverse link MonoBehaviour to HackEventManager--><g id="link_MonoBehaviour_HackEventManager"><path codeLine="12" d="M196.6531,75.06 C196.6531,87.28 196.6531,101 196.6531,114.68 " fill="none" id="MonoBehaviour-backto-HackEventManager" style="stroke:#181818;stroke-width:1.0;"/><polygon fill="none" points="189.6531,75.01,196.6531,55.01,203.6531,75.01,189.6531,75.01" style="stroke:#181818;stroke-width:1.0;"/></g><!--link HackEventManager to HackEventManager--><g id="link_HackEventManager_HackEventManager"><path codeLine="13" d="M360.9831,169.14 C381.8731,173.83 395.6531,182.79 395.6531,196 C395.6531,208.08 384.1431,216.6 366.2031,221.56 " fill="none" id="HackEventManager-to-HackEventManager" style="stroke:#181818;stroke-width:1.0;"/><polygon fill="#181818" points="360.9831,222.86,370.6846,224.5577,365.8338,221.6473,368.7443,216.7966,360.9831,222.86" style="stroke:#181818;stroke-width:1.0;"/><text fill="#000000" font-family="sans-serif" font-size="13" lengthAdjust="spacing" textLength="50" x="368.3788" y="220.6842">Instance</text></g><!--link HackEventManager to List`1--><g id="link_HackEventManager_List`1"><path codeLine="14" d="M196.6531,277.07 C196.6531,296.74 196.6531,316.53 196.6531,331.84 " fill="none" id="HackEventManager-to-List`1" style="stroke:#181818;stroke-width:1.0;"/><polygon fill="#181818" points="196.6531,336.85,200.6531,327.85,196.6531,331.85,192.6531,327.85,196.6531,336.85" style="stroke:#181818;stroke-width:1.0;"/><text fill="#000000" font-family="sans-serif" font-size="13" lengthAdjust="spacing" textLength="169" x="6" y="325.8236">HackButtons&lt;HackButtonUI&gt;</text></g><!--SRC=[ZP11Yy8m48Nl_HL3JehRWzVIBQmeMD23sBqxMwC6ummqarxK_suQgox8mkOmX7dp3MzURT4vc6DzdBMQP8c4Uzt0EO7mHb2wJZAqXmn-c2rymWwjqxtSYPKv1I23dMMKlZ_n8anV9_OaGJBq42eMj7-gQy56kfs3GoXJtw0OfYnk_W2CG1R6Xu5gsMnxR4RR20rxax_ChRovEupNlIQkIHqFLmlZP3DMULM4cw_9aead-e2jOTz0VadJjsoIjx3Ij01LaXEaMgl_0bttdeJBN__lib1FLpS0]--></g></svg>