<?xml version="1.0" encoding="us-ascii" standalone="no"?><svg xmlns="http://www.w3.org/2000/svg" xmlns:xlink="http://www.w3.org/1999/xlink" contentStyleType="text/css" height="376px" preserveAspectRatio="none" style="width:806px;height:376px;background:#FFFFFF;" version="1.1" viewBox="0 0 806 376" width="806px" zoomAndPan="magnify"><defs/><g><!--class MapManager--><g id="elem_MapManager"><rect codeLine="1" fill="#F1F1F1" height="145.7813" id="MapManager" rx="2.5" ry="2.5" style="stroke:#181818;stroke-width:0.5;" width="734" x="7" y="115"/><ellipse cx="328.75" cy="131" fill="#ADD1B2" rx="11" ry="11" style="stroke:#181818;stroke-width:1.0;"/><path d="M328.6875,126.8281 Q327.9375,126.8281 327.375,127.125 Q326.8125,127.4063 326.4219,127.9375 Q326.0313,128.4688 325.8281,129.25 Q325.6406,130.0156 325.6406,130.9688 Q325.6406,131.9375 325.8125,132.7031 Q326,133.4531 326.3594,133.9688 Q326.7344,134.4844 327.3125,134.7656 Q327.8906,135.0313 328.6875,135.0313 Q329.4219,135.0313 330.1563,134.8594 Q330.9063,134.6875 331.7813,134.3906 L331.7813,136.5469 Q331.375,136.7031 330.9844,136.8281 Q330.5938,136.9375 330.1875,137.0156 Q329.7813,137.0938 329.3594,137.125 Q328.9375,137.1719 328.4375,137.1719 Q327.0313,137.1719 326,136.7188 Q324.9844,136.2656 324.3125,135.4531 Q323.6406,134.6406 323.3125,133.5 Q322.9844,132.3438 322.9844,130.9531 Q322.9844,129.5781 323.3594,128.4219 Q323.7344,127.2656 324.4531,126.4375 Q325.1719,125.6094 326.2344,125.1563 Q327.2969,124.6875 328.6875,124.6875 Q329.5938,124.6875 330.5,124.9219 Q331.4063,125.1406 332.2344,125.5469 L331.4063,127.6406 Q330.7188,127.3125 330.0313,127.0781 Q329.3438,126.8281 328.6875,126.8281 Z " fill="#000000"/><text fill="#000000" font-family="sans-serif" font-size="14" lengthAdjust="spacing" textLength="82" x="349.25" y="135.8467">MapManager</text><line style="stroke:#181818;stroke-width:0.5;" x1="8" x2="740" y1="147" y2="147"/><ellipse cx="18" cy="160.6484" fill="none" rx="3" ry="3" style="stroke:#038048;stroke-width:1.0;"/><text fill="#000000" font-family="sans-serif" font-size="14" lengthAdjust="spacing" textLength="145" x="27" y="163.9951">IsChangingScene : bool</text><ellipse cx="18" cy="176.9453" fill="none" rx="3" ry="3" style="stroke:#038048;stroke-width:1.0;"/><text fill="#000000" font-family="sans-serif" font-size="14" lengthAdjust="spacing" textLength="119" x="27" y="180.292">FromScene : string</text><ellipse cx="18" cy="193.2422" fill="none" rx="3" ry="3" style="stroke:#038048;stroke-width:1.0;"/><text fill="#000000" font-family="sans-serif" font-size="14" lengthAdjust="spacing" textLength="100" x="27" y="196.5889">ToScene : string</text><ellipse cx="18" cy="209.5391" fill="none" rx="3" ry="3" style="stroke:#038048;stroke-width:1.0;"/><text fill="#000000" font-family="sans-serif" font-size="14" lengthAdjust="spacing" textLength="169" x="27" y="212.8857">DistanceFromSpawn : float</text><ellipse cx="18" cy="225.8359" fill="none" rx="3" ry="3" style="stroke:#038048;stroke-width:1.0;"/><text fill="#000000" font-family="sans-serif" font-size="14" lengthAdjust="spacing" textLength="184" x="27" y="229.1826">CanChangeScene : bool &#171;get&#187;</text><line style="stroke:#181818;stroke-width:0.5;" x1="8" x2="740" y1="236.4844" y2="236.4844"/><ellipse cx="18" cy="250.1328" fill="#84BE84" rx="3" ry="3" style="stroke:#038048;stroke-width:1.0;"/><text fill="#000000" font-family="sans-serif" font-size="14" lengthAdjust="spacing" textLength="708" x="27" y="253.4795">ChangeScene(fromSceneName:string, toSceneName:string, direction:Direction, distanceFromSpawn:float) : void</text></g><!--class MonoBehaviour--><g id="elem_MonoBehaviour"><rect fill="#F1F1F1" height="48" id="MonoBehaviour" rx="2.5" ry="2.5" style="stroke:#181818;stroke-width:0.5;" width="133" x="307.5" y="7"/><ellipse cx="322.5" cy="23" fill="#ADD1B2" rx="11" ry="11" style="stroke:#181818;stroke-width:1.0;"/><path d="M322.4375,18.8281 Q321.6875,18.8281 321.125,19.125 Q320.5625,19.4063 320.1719,19.9375 Q319.7813,20.4688 319.5781,21.25 Q319.3906,22.0156 319.3906,22.9688 Q319.3906,23.9375 319.5625,24.7031 Q319.75,25.4531 320.1094,25.9688 Q320.4844,26.4844 321.0625,26.7656 Q321.6406,27.0313 322.4375,27.0313 Q323.1719,27.0313 323.9063,26.8594 Q324.6563,26.6875 325.5313,26.3906 L325.5313,28.5469 Q325.125,28.7031 324.7344,28.8281 Q324.3438,28.9375 323.9375,29.0156 Q323.5313,29.0938 323.1094,29.125 Q322.6875,29.1719 322.1875,29.1719 Q320.7813,29.1719 319.75,28.7188 Q318.7344,28.2656 318.0625,27.4531 Q317.3906,26.6406 317.0625,25.5 Q316.7344,24.3438 316.7344,22.9531 Q316.7344,21.5781 317.1094,20.4219 Q317.4844,19.2656 318.2031,18.4375 Q318.9219,17.6094 319.9844,17.1563 Q321.0469,16.6875 322.4375,16.6875 Q323.3438,16.6875 324.25,16.9219 Q325.1563,17.1406 325.9844,17.5469 L325.1563,19.6406 Q324.4688,19.3125 323.7813,19.0781 Q323.0938,18.8281 322.4375,18.8281 Z " fill="#000000"/><text fill="#000000" font-family="sans-serif" font-size="14" lengthAdjust="spacing" textLength="101" x="336.5" y="27.8467">MonoBehaviour</text><line style="stroke:#181818;stroke-width:0.5;" x1="308.5" x2="439.5" y1="39" y2="39"/><line style="stroke:#181818;stroke-width:0.5;" x1="308.5" x2="439.5" y1="47" y2="47"/></g><!--class Direction--><g id="elem_Direction"><rect fill="#F1F1F1" height="48" id="Direction" rx="2.5" ry="2.5" style="stroke:#181818;stroke-width:0.5;" width="91" x="328.5" y="321"/><ellipse cx="343.5" cy="337" fill="#ADD1B2" rx="11" ry="11" style="stroke:#181818;stroke-width:1.0;"/><path d="M343.4375,332.8281 Q342.6875,332.8281 342.125,333.125 Q341.5625,333.4063 341.1719,333.9375 Q340.7813,334.4688 340.5781,335.25 Q340.3906,336.0156 340.3906,336.9688 Q340.3906,337.9375 340.5625,338.7031 Q340.75,339.4531 341.1094,339.9688 Q341.4844,340.4844 342.0625,340.7656 Q342.6406,341.0313 343.4375,341.0313 Q344.1719,341.0313 344.9063,340.8594 Q345.6563,340.6875 346.5313,340.3906 L346.5313,342.5469 Q346.125,342.7031 345.7344,342.8281 Q345.3438,342.9375 344.9375,343.0156 Q344.5313,343.0938 344.1094,343.125 Q343.6875,343.1719 343.1875,343.1719 Q341.7813,343.1719 340.75,342.7188 Q339.7344,342.2656 339.0625,341.4531 Q338.3906,340.6406 338.0625,339.5 Q337.7344,338.3438 337.7344,336.9531 Q337.7344,335.5781 338.1094,334.4219 Q338.4844,333.2656 339.2031,332.4375 Q339.9219,331.6094 340.9844,331.1563 Q342.0469,330.6875 343.4375,330.6875 Q344.3438,330.6875 345.25,330.9219 Q346.1563,331.1406 346.9844,331.5469 L346.1563,333.6406 Q345.4688,333.3125 344.7813,333.0781 Q344.0938,332.8281 343.4375,332.8281 Z " fill="#000000"/><text fill="#000000" font-family="sans-serif" font-size="14" lengthAdjust="spacing" textLength="59" x="357.5" y="341.8467">Direction</text><line style="stroke:#181818;stroke-width:0.5;" x1="329.5" x2="418.5" y1="353" y2="353"/><line style="stroke:#181818;stroke-width:0.5;" x1="329.5" x2="418.5" y1="361" y2="361"/></g><!--reverse link MonoBehaviour to MapManager--><g id="link_MonoBehaviour_MapManager"><path codeLine="9" d="M374,75.41 C374,87.69 374,101.39 374,114.88 " fill="none" id="MonoBehaviour-backto-MapManager" style="stroke:#181818;stroke-width:1.0;"/><polygon fill="none" points="367,75.21,374,55.21,381,75.21,367,75.21" style="stroke:#181818;stroke-width:1.0;"/></g><!--link MapManager to MapManager--><g id="link_MapManager_MapManager"><path codeLine="10" d="M741.16,167.88 C762.95,172.68 776,179.39 776,188 C776,195.93 764.91,202.26 746.1,206.96 " fill="none" id="MapManager-to-MapManager" style="stroke:#181818;stroke-width:1.0;"/><polygon fill="#181818" points="741.16,208.12,750.8369,209.9523,746.0271,206.9748,749.0046,202.165,741.16,208.12" style="stroke:#181818;stroke-width:1.0;"/><text fill="#000000" font-family="sans-serif" font-size="13" lengthAdjust="spacing" textLength="50" x="749.1257" y="205.4468">Instance</text></g><!--link MapManager to Direction--><g id="link_MapManager_Direction"><path codeLine="11" d="M374,261.05 C374,280.52 374,300.44 374,315.88 " fill="none" id="MapManager-to-Direction" style="stroke:#181818;stroke-width:1.0;"/><polygon fill="#181818" points="374,320.94,378,311.94,374,315.94,370,311.94,374,320.94" style="stroke:#181818;stroke-width:1.0;"/><text fill="#000000" font-family="sans-serif" font-size="13" lengthAdjust="spacing" textLength="53" x="314.2094" y="309.9367">Direction</text></g><!--SRC=[VP113e9034NtdA9XfT6v024iX9Ymm8rUe6A1IQ0rCwCkrBkB24ZKs5Np_szVqxn6Qo73OuQC9HcuUj3M0b8RLyYbvdAR4nC4i1UfUtDjf1bawqmRwesT_9GJRHroJjtS4I_S1efQqFL-ZDpHQCg2C2p9HT6GUGTcnS3VO4F12xK49z_QGHlAdHOEag5xYX_d1DqnynPy5dtmxbucB2kgyApbP22yAJNvaJTvbr8H-2c_zld_GYFVXx5z0000]--></g></svg>