<?xml version="1.0" encoding="us-ascii" standalone="no"?><svg xmlns="http://www.w3.org/2000/svg" xmlns:xlink="http://www.w3.org/1999/xlink" contentStyleType="text/css" height="359px" preserveAspectRatio="none" style="width:220px;height:359px;background:#FFFFFF;" version="1.1" viewBox="0 0 220 359" width="220px" zoomAndPan="magnify"><defs/><g><!--class PauseMenu--><g id="elem_PauseMenu"><rect codeLine="1" fill="#F1F1F1" height="129.4844" id="PauseMenu" rx="2.5" ry="2.5" style="stroke:#181818;stroke-width:0.5;" width="206" x="7" y="115"/><ellipse cx="69.25" cy="131" fill="#ADD1B2" rx="11" ry="11" style="stroke:#181818;stroke-width:1.0;"/><path d="M69.1875,126.8281 Q68.4375,126.8281 67.875,127.125 Q67.3125,127.4063 66.9219,127.9375 Q66.5313,128.4688 66.3281,129.25 Q66.1406,130.0156 66.1406,130.9688 Q66.1406,131.9375 66.3125,132.7031 Q66.5,133.4531 66.8594,133.9688 Q67.2344,134.4844 67.8125,134.7656 Q68.3906,135.0313 69.1875,135.0313 Q69.9219,135.0313 70.6563,134.8594 Q71.4063,134.6875 72.2813,134.3906 L72.2813,136.5469 Q71.875,136.7031 71.4844,136.8281 Q71.0938,136.9375 70.6875,137.0156 Q70.2813,137.0938 69.8594,137.125 Q69.4375,137.1719 68.9375,137.1719 Q67.5313,137.1719 66.5,136.7188 Q65.4844,136.2656 64.8125,135.4531 Q64.1406,134.6406 63.8125,133.5 Q63.4844,132.3438 63.4844,130.9531 Q63.4844,129.5781 63.8594,128.4219 Q64.2344,127.2656 64.9531,126.4375 Q65.6719,125.6094 66.7344,125.1563 Q67.7969,124.6875 69.1875,124.6875 Q70.0938,124.6875 71,124.9219 Q71.9063,125.1406 72.7344,125.5469 L71.9063,127.6406 Q71.2188,127.3125 70.5313,127.0781 Q69.8438,126.8281 69.1875,126.8281 Z " fill="#000000"/><text fill="#000000" font-family="sans-serif" font-size="14" lengthAdjust="spacing" textLength="73" x="89.75" y="135.8467">PauseMenu</text><line style="stroke:#181818;stroke-width:0.5;" x1="8" x2="212" y1="147" y2="147"/><ellipse cx="18" cy="160.6484" fill="none" rx="3" ry="3" style="stroke:#038048;stroke-width:1.0;"/><text fill="#000000" font-family="sans-serif" font-size="14" lengthAdjust="spacing" text-decoration="underline" textLength="180" x="27" y="163.9951">GameIsPaused : bool = false</text><line style="stroke:#181818;stroke-width:0.5;" x1="8" x2="212" y1="171.2969" y2="171.2969"/><ellipse cx="18" cy="184.9453" fill="#84BE84" rx="3" ry="3" style="stroke:#038048;stroke-width:1.0;"/><text fill="#000000" font-family="sans-serif" font-size="14" lengthAdjust="spacing" textLength="98" x="27" y="188.292">Resume() : void</text><ellipse cx="18" cy="201.2422" fill="#84BE84" rx="3" ry="3" style="stroke:#038048;stroke-width:1.0;"/><text fill="#000000" font-family="sans-serif" font-size="14" lengthAdjust="spacing" textLength="92" x="27" y="204.5889">Restart() : void</text><ellipse cx="18" cy="217.5391" fill="#84BE84" rx="3" ry="3" style="stroke:#038048;stroke-width:1.0;"/><text fill="#000000" font-family="sans-serif" font-size="14" lengthAdjust="spacing" textLength="91" x="27" y="220.8857">Setting() : void</text><ellipse cx="18" cy="233.8359" fill="#84BE84" rx="3" ry="3" style="stroke:#038048;stroke-width:1.0;"/><text fill="#000000" font-family="sans-serif" font-size="14" lengthAdjust="spacing" textLength="74" x="27" y="237.1826">Quit() : void</text></g><!--class MonoBehaviour--><g id="elem_MonoBehaviour"><rect fill="#F1F1F1" height="48" id="MonoBehaviour" rx="2.5" ry="2.5" style="stroke:#181818;stroke-width:0.5;" width="133" x="43.5" y="7"/><ellipse cx="58.5" cy="23" fill="#ADD1B2" rx="11" ry="11" style="stroke:#181818;stroke-width:1.0;"/><path d="M58.4375,18.8281 Q57.6875,18.8281 57.125,19.125 Q56.5625,19.4063 56.1719,19.9375 Q55.7813,20.4688 55.5781,21.25 Q55.3906,22.0156 55.3906,22.9688 Q55.3906,23.9375 55.5625,24.7031 Q55.75,25.4531 56.1094,25.9688 Q56.4844,26.4844 57.0625,26.7656 Q57.6406,27.0313 58.4375,27.0313 Q59.1719,27.0313 59.9063,26.8594 Q60.6563,26.6875 61.5313,26.3906 L61.5313,28.5469 Q61.125,28.7031 60.7344,28.8281 Q60.3438,28.9375 59.9375,29.0156 Q59.5313,29.0938 59.1094,29.125 Q58.6875,29.1719 58.1875,29.1719 Q56.7813,29.1719 55.75,28.7188 Q54.7344,28.2656 54.0625,27.4531 Q53.3906,26.6406 53.0625,25.5 Q52.7344,24.3438 52.7344,22.9531 Q52.7344,21.5781 53.1094,20.4219 Q53.4844,19.2656 54.2031,18.4375 Q54.9219,17.6094 55.9844,17.1563 Q57.0469,16.6875 58.4375,16.6875 Q59.3438,16.6875 60.25,16.9219 Q61.1563,17.1406 61.9844,17.5469 L61.1563,19.6406 Q60.4688,19.3125 59.7813,19.0781 Q59.0938,18.8281 58.4375,18.8281 Z " fill="#000000"/><text fill="#000000" font-family="sans-serif" font-size="14" lengthAdjust="spacing" textLength="101" x="72.5" y="27.8467">MonoBehaviour</text><line style="stroke:#181818;stroke-width:0.5;" x1="44.5" x2="175.5" y1="39" y2="39"/><line style="stroke:#181818;stroke-width:0.5;" x1="44.5" x2="175.5" y1="47" y2="47"/></g><!--class GameObject--><g id="elem_GameObject"><rect fill="#F1F1F1" height="48" id="GameObject" rx="2.5" ry="2.5" style="stroke:#181818;stroke-width:0.5;" width="111" x="54.5" y="304"/><ellipse cx="69.5" cy="320" fill="#ADD1B2" rx="11" ry="11" style="stroke:#181818;stroke-width:1.0;"/><path d="M69.4375,315.8281 Q68.6875,315.8281 68.125,316.125 Q67.5625,316.4063 67.1719,316.9375 Q66.7813,317.4688 66.5781,318.25 Q66.3906,319.0156 66.3906,319.9688 Q66.3906,320.9375 66.5625,321.7031 Q66.75,322.4531 67.1094,322.9688 Q67.4844,323.4844 68.0625,323.7656 Q68.6406,324.0313 69.4375,324.0313 Q70.1719,324.0313 70.9063,323.8594 Q71.6563,323.6875 72.5313,323.3906 L72.5313,325.5469 Q72.125,325.7031 71.7344,325.8281 Q71.3438,325.9375 70.9375,326.0156 Q70.5313,326.0938 70.1094,326.125 Q69.6875,326.1719 69.1875,326.1719 Q67.7813,326.1719 66.75,325.7188 Q65.7344,325.2656 65.0625,324.4531 Q64.3906,323.6406 64.0625,322.5 Q63.7344,321.3438 63.7344,319.9531 Q63.7344,318.5781 64.1094,317.4219 Q64.4844,316.2656 65.2031,315.4375 Q65.9219,314.6094 66.9844,314.1563 Q68.0469,313.6875 69.4375,313.6875 Q70.3438,313.6875 71.25,313.9219 Q72.1563,314.1406 72.9844,314.5469 L72.1563,316.6406 Q71.4688,316.3125 70.7813,316.0781 Q70.0938,315.8281 69.4375,315.8281 Z " fill="#000000"/><text fill="#000000" font-family="sans-serif" font-size="14" lengthAdjust="spacing" textLength="79" x="83.5" y="324.8467">GameObject</text><line style="stroke:#181818;stroke-width:0.5;" x1="55.5" x2="164.5" y1="336" y2="336"/><line style="stroke:#181818;stroke-width:0.5;" x1="55.5" x2="164.5" y1="344" y2="344"/></g><!--reverse link MonoBehaviour to PauseMenu--><g id="link_MonoBehaviour_PauseMenu"><path codeLine="8" d="M110,75.6 C110,87.95 110,101.66 110,114.93 " fill="none" id="MonoBehaviour-backto-PauseMenu" style="stroke:#181818;stroke-width:1.0;"/><polygon fill="none" points="103,75.21,110,55.21,117,75.21,103,75.21" style="stroke:#181818;stroke-width:1.0;"/></g><!--link PauseMenu to GameObject--><g id="link_PauseMenu_GameObject"><path codeLine="9" d="M110,244.33 C110,263.31 110,283.15 110,298.64 " fill="none" id="PauseMenu-to-GameObject" style="stroke:#181818;stroke-width:1.0;"/><polygon fill="#181818" points="110,303.71,114,294.71,110,298.71,106,294.71,110,303.71" style="stroke:#181818;stroke-width:1.0;"/><text fill="#000000" font-family="sans-serif" font-size="13" lengthAdjust="spacing" textLength="83" x="16.8844" y="293.0443">pauseMenuUI</text></g><!--SRC=[NOuz3i8m34RtdCBg14Av00865jIXAZ_Y06vg82XDKErqARqxLGKAgZU_xmtFE6I68qQcWdo4Ni5uA-XPKAmPu80DvJm9DQoX2i715cxecBxgcJWsj5YEQnTidQXWAtDy8H7hxtDyYlPF7LGHVDZJ0piROWkRjzQfKQLQhNUGlNxlDS-ctB9waf4F]--></g></svg>