<?xml version="1.0" encoding="us-ascii" standalone="no"?><svg xmlns="http://www.w3.org/2000/svg" xmlns:xlink="http://www.w3.org/1999/xlink" contentStyleType="text/css" height="408px" preserveAspectRatio="none" style="width:444px;height:408px;background:#FFFFFF;" version="1.1" viewBox="0 0 444 408" width="444px" zoomAndPan="magnify"><defs/><g><!--class PlayerManager--><g id="elem_PlayerManager"><rect codeLine="1" fill="#F1F1F1" height="178.375" id="PlayerManager" rx="2.5" ry="2.5" style="stroke:#181818;stroke-width:0.5;" width="373" x="7" y="115"/><ellipse cx="141.75" cy="131" fill="#ADD1B2" rx="11" ry="11" style="stroke:#181818;stroke-width:1.0;"/><path d="M141.6875,126.8281 Q140.9375,126.8281 140.375,127.125 Q139.8125,127.4063 139.4219,127.9375 Q139.0313,128.4688 138.8281,129.25 Q138.6406,130.0156 138.6406,130.9688 Q138.6406,131.9375 138.8125,132.7031 Q139,133.4531 139.3594,133.9688 Q139.7344,134.4844 140.3125,134.7656 Q140.8906,135.0313 141.6875,135.0313 Q142.4219,135.0313 143.1563,134.8594 Q143.9063,134.6875 144.7813,134.3906 L144.7813,136.5469 Q144.375,136.7031 143.9844,136.8281 Q143.5938,136.9375 143.1875,137.0156 Q142.7813,137.0938 142.3594,137.125 Q141.9375,137.1719 141.4375,137.1719 Q140.0313,137.1719 139,136.7188 Q137.9844,136.2656 137.3125,135.4531 Q136.6406,134.6406 136.3125,133.5 Q135.9844,132.3438 135.9844,130.9531 Q135.9844,129.5781 136.3594,128.4219 Q136.7344,127.2656 137.4531,126.4375 Q138.1719,125.6094 139.2344,125.1563 Q140.2969,124.6875 141.6875,124.6875 Q142.5938,124.6875 143.5,124.9219 Q144.4063,125.1406 145.2344,125.5469 L144.4063,127.6406 Q143.7188,127.3125 143.0313,127.0781 Q142.3438,126.8281 141.6875,126.8281 Z " fill="#000000"/><text fill="#000000" font-family="sans-serif" font-size="14" lengthAdjust="spacing" textLength="95" x="162.25" y="135.8467">PlayerManager</text><line style="stroke:#181818;stroke-width:0.5;" x1="8" x2="379" y1="147" y2="147"/><ellipse cx="18" cy="160.6484" fill="none" rx="3" ry="3" style="stroke:#038048;stroke-width:1.0;"/><text fill="#000000" font-family="sans-serif" font-size="14" lengthAdjust="spacing" text-decoration="underline" textLength="347" x="27" y="163.9951">&#171;event&#187; OnPlayerChanged : UnityAction&lt;GameObject&gt;</text><ellipse cx="18" cy="176.9453" fill="none" rx="3" ry="3" style="stroke:#038048;stroke-width:1.0;"/><text fill="#000000" font-family="sans-serif" font-size="14" lengthAdjust="spacing" text-decoration="underline" textLength="228" x="27" y="180.292">&#171;event&#187; OnPlayerDied : UnityAction</text><ellipse cx="18" cy="193.2422" fill="none" rx="3" ry="3" style="stroke:#038048;stroke-width:1.0;"/><text fill="#000000" font-family="sans-serif" font-size="14" lengthAdjust="spacing" textLength="130" x="27" y="196.5889">IsDead : bool = false</text><line style="stroke:#181818;stroke-width:0.5;" x1="8" x2="379" y1="203.8906" y2="203.8906"/><ellipse cx="18" cy="217.5391" fill="#84BE84" rx="3" ry="3" style="stroke:#038048;stroke-width:1.0;"/><text fill="#000000" font-family="sans-serif" font-size="14" lengthAdjust="spacing" textLength="69" x="27" y="220.8857">Die() : void</text><ellipse cx="18" cy="233.8359" fill="#84BE84" rx="3" ry="3" style="stroke:#038048;stroke-width:1.0;"/><text fill="#000000" font-family="sans-serif" font-size="14" lengthAdjust="spacing" textLength="102" x="27" y="237.1826">Respawn() : void</text><ellipse cx="18" cy="250.1328" fill="#84BE84" rx="3" ry="3" style="stroke:#038048;stroke-width:1.0;"/><text fill="#000000" font-family="sans-serif" font-size="14" lengthAdjust="spacing" text-decoration="underline" textLength="205" x="27" y="253.4795">FindActivePlayer() : GameObject</text><ellipse cx="18" cy="266.4297" fill="#84BE84" rx="3" ry="3" style="stroke:#038048;stroke-width:1.0;"/><text fill="#000000" font-family="sans-serif" font-size="14" lengthAdjust="spacing" text-decoration="underline" textLength="219" x="27" y="269.7764">DestroyOtherActivePlayers() : void</text><ellipse cx="18" cy="282.7266" fill="#84BE84" rx="3" ry="3" style="stroke:#038048;stroke-width:1.0;"/><text fill="#000000" font-family="sans-serif" font-size="14" lengthAdjust="spacing" text-decoration="underline" textLength="273" x="27" y="286.0732">SetRespawnScene(sceneName:string) : void</text></g><!--class MonoBehaviour--><g id="elem_MonoBehaviour"><rect fill="#F1F1F1" height="48" id="MonoBehaviour" rx="2.5" ry="2.5" style="stroke:#181818;stroke-width:0.5;" width="133" x="127" y="7"/><ellipse cx="142" cy="23" fill="#ADD1B2" rx="11" ry="11" style="stroke:#181818;stroke-width:1.0;"/><path d="M141.9375,18.8281 Q141.1875,18.8281 140.625,19.125 Q140.0625,19.4063 139.6719,19.9375 Q139.2813,20.4688 139.0781,21.25 Q138.8906,22.0156 138.8906,22.9688 Q138.8906,23.9375 139.0625,24.7031 Q139.25,25.4531 139.6094,25.9688 Q139.9844,26.4844 140.5625,26.7656 Q141.1406,27.0313 141.9375,27.0313 Q142.6719,27.0313 143.4063,26.8594 Q144.1563,26.6875 145.0313,26.3906 L145.0313,28.5469 Q144.625,28.7031 144.2344,28.8281 Q143.8438,28.9375 143.4375,29.0156 Q143.0313,29.0938 142.6094,29.125 Q142.1875,29.1719 141.6875,29.1719 Q140.2813,29.1719 139.25,28.7188 Q138.2344,28.2656 137.5625,27.4531 Q136.8906,26.6406 136.5625,25.5 Q136.2344,24.3438 136.2344,22.9531 Q136.2344,21.5781 136.6094,20.4219 Q136.9844,19.2656 137.7031,18.4375 Q138.4219,17.6094 139.4844,17.1563 Q140.5469,16.6875 141.9375,16.6875 Q142.8438,16.6875 143.75,16.9219 Q144.6563,17.1406 145.4844,17.5469 L144.6563,19.6406 Q143.9688,19.3125 143.2813,19.0781 Q142.5938,18.8281 141.9375,18.8281 Z " fill="#000000"/><text fill="#000000" font-family="sans-serif" font-size="14" lengthAdjust="spacing" textLength="101" x="156" y="27.8467">MonoBehaviour</text><line style="stroke:#181818;stroke-width:0.5;" x1="128" x2="259" y1="39" y2="39"/><line style="stroke:#181818;stroke-width:0.5;" x1="128" x2="259" y1="47" y2="47"/></g><!--class GameObject--><g id="elem_GameObject"><rect fill="#F1F1F1" height="48" id="GameObject" rx="2.5" ry="2.5" style="stroke:#181818;stroke-width:0.5;" width="111" x="76" y="353"/><ellipse cx="91" cy="369" fill="#ADD1B2" rx="11" ry="11" style="stroke:#181818;stroke-width:1.0;"/><path d="M90.9375,364.8281 Q90.1875,364.8281 89.625,365.125 Q89.0625,365.4063 88.6719,365.9375 Q88.2813,366.4688 88.0781,367.25 Q87.8906,368.0156 87.8906,368.9688 Q87.8906,369.9375 88.0625,370.7031 Q88.25,371.4531 88.6094,371.9688 Q88.9844,372.4844 89.5625,372.7656 Q90.1406,373.0313 90.9375,373.0313 Q91.6719,373.0313 92.4063,372.8594 Q93.1563,372.6875 94.0313,372.3906 L94.0313,374.5469 Q93.625,374.7031 93.2344,374.8281 Q92.8438,374.9375 92.4375,375.0156 Q92.0313,375.0938 91.6094,375.125 Q91.1875,375.1719 90.6875,375.1719 Q89.2813,375.1719 88.25,374.7188 Q87.2344,374.2656 86.5625,373.4531 Q85.8906,372.6406 85.5625,371.5 Q85.2344,370.3438 85.2344,368.9531 Q85.2344,367.5781 85.6094,366.4219 Q85.9844,365.2656 86.7031,364.4375 Q87.4219,363.6094 88.4844,363.1563 Q89.5469,362.6875 90.9375,362.6875 Q91.8438,362.6875 92.75,362.9219 Q93.6563,363.1406 94.4844,363.5469 L93.6563,365.6406 Q92.9688,365.3125 92.2813,365.0781 Q91.5938,364.8281 90.9375,364.8281 Z " fill="#000000"/><text fill="#000000" font-family="sans-serif" font-size="14" lengthAdjust="spacing" textLength="79" x="105" y="373.8467">GameObject</text><line style="stroke:#181818;stroke-width:0.5;" x1="77" x2="186" y1="385" y2="385"/><line style="stroke:#181818;stroke-width:0.5;" x1="77" x2="186" y1="393" y2="393"/></g><!--class Color--><g id="elem_Color"><rect fill="#F1F1F1" height="48" id="Color" rx="2.5" ry="2.5" style="stroke:#181818;stroke-width:0.5;" width="66" x="222.5" y="353"/><ellipse cx="237.5" cy="369" fill="#ADD1B2" rx="11" ry="11" style="stroke:#181818;stroke-width:1.0;"/><path d="M237.4375,364.8281 Q236.6875,364.8281 236.125,365.125 Q235.5625,365.4063 235.1719,365.9375 Q234.7813,366.4688 234.5781,367.25 Q234.3906,368.0156 234.3906,368.9688 Q234.3906,369.9375 234.5625,370.7031 Q234.75,371.4531 235.1094,371.9688 Q235.4844,372.4844 236.0625,372.7656 Q236.6406,373.0313 237.4375,373.0313 Q238.1719,373.0313 238.9063,372.8594 Q239.6563,372.6875 240.5313,372.3906 L240.5313,374.5469 Q240.125,374.7031 239.7344,374.8281 Q239.3438,374.9375 238.9375,375.0156 Q238.5313,375.0938 238.1094,375.125 Q237.6875,375.1719 237.1875,375.1719 Q235.7813,375.1719 234.75,374.7188 Q233.7344,374.2656 233.0625,373.4531 Q232.3906,372.6406 232.0625,371.5 Q231.7344,370.3438 231.7344,368.9531 Q231.7344,367.5781 232.1094,366.4219 Q232.4844,365.2656 233.2031,364.4375 Q233.9219,363.6094 234.9844,363.1563 Q236.0469,362.6875 237.4375,362.6875 Q238.3438,362.6875 239.25,362.9219 Q240.1563,363.1406 240.9844,363.5469 L240.1563,365.6406 Q239.4688,365.3125 238.7813,365.0781 Q238.0938,364.8281 237.4375,364.8281 Z " fill="#000000"/><text fill="#000000" font-family="sans-serif" font-size="14" lengthAdjust="spacing" textLength="34" x="251.5" y="373.8467">Color</text><line style="stroke:#181818;stroke-width:0.5;" x1="223.5" x2="287.5" y1="385" y2="385"/><line style="stroke:#181818;stroke-width:0.5;" x1="223.5" x2="287.5" y1="393" y2="393"/></g><!--reverse link MonoBehaviour to PlayerManager--><g id="link_MonoBehaviour_PlayerManager"><path codeLine="11" d="M193.5,75.45 C193.5,87.5 193.5,101.04 193.5,114.67 " fill="none" id="MonoBehaviour-backto-PlayerManager" style="stroke:#181818;stroke-width:1.0;"/><polygon fill="none" points="186.5,75.06,193.5,55.06,200.5,75.06,186.5,75.06" style="stroke:#181818;stroke-width:1.0;"/></g><!--link PlayerManager to PlayerManager--><g id="link_PlayerManager_PlayerManager"><path codeLine="12" d="M380.14,176.67 C401.29,181.79 415,190.9 415,204 C415,215.98 403.55,224.62 385.42,229.92 " fill="none" id="PlayerManager-to-PlayerManager" style="stroke:#181818;stroke-width:1.0;"/><polygon fill="#181818" points="380.14,231.33,389.8662,232.8796,384.9716,230.0435,387.8077,225.1489,380.14,231.33" style="stroke:#181818;stroke-width:1.0;"/><text fill="#000000" font-family="sans-serif" font-size="13" lengthAdjust="spacing" textLength="50" x="387.7458" y="229.1052">Instance</text></g><!--link PlayerManager to GameObject--><g id="link_PlayerManager_GameObject"><path codeLine="13" d="M161.59,293 C154.39,312.86 147.26,332.53 141.75,347.73 " fill="none" id="PlayerManager-to-GameObject" style="stroke:#181818;stroke-width:1.0;"/><polygon fill="#181818" points="139.94,352.71,146.7818,345.6255,141.6533,348.0127,139.2661,342.8842,139.94,352.71" style="stroke:#181818;stroke-width:1.0;"/><text fill="#000000" font-family="sans-serif" font-size="13" lengthAdjust="spacing" textLength="35" x="102.7316" y="342.0443">Player</text></g><!--link PlayerManager to Color--><g id="link_PlayerManager_Color"><path codeLine="14" d="M225.41,293 C232.61,312.86 239.74,332.53 245.25,347.73 " fill="none" id="PlayerManager-to-Color" style="stroke:#181818;stroke-width:1.0;"/><polygon fill="#181818" points="247.06,352.71,247.7339,342.8842,245.3467,348.0127,240.2182,345.6255,247.06,352.71" style="stroke:#181818;stroke-width:1.0;"/><text fill="#000000" font-family="sans-serif" font-size="13" lengthAdjust="spacing" textLength="67" x="193.8074" y="341.9905">PlayerColor</text></g><!--SRC=[ZL7TQi8m5BxlKnnwfOo-W7I5pRBXXUjGzW37zApDoCuPITPHr7StjPtJWinS9F3zdYJAe7FmQh0bkqJ6YYni8mZh3hREezTg3v2cr13xB8E2U-syHgweX1cyiVRjW_9QE7t6Joes7wHy1ZU4v7gSyEjQk9omupOY1kxX7OsZWGkkoJHGZUXoW5Rall27n_2f-qbpsHKqr1SVXN_3ZkKvEM-bBNnDzjpchXQioGyph1KnJLotluI2MKZIN9ry-sWfB8zKOwFbsqAwIvBBvuykFoD9CeWN78fOKVo_j8VYyzjTLSt5I90UZmC0]--></g></svg>