<?xml version="1.0" encoding="us-ascii" standalone="no"?><svg xmlns="http://www.w3.org/2000/svg" xmlns:xlink="http://www.w3.org/1999/xlink" contentStyleType="text/css" height="392px" preserveAspectRatio="none" style="width:444px;height:392px;background:#FFFFFF;" version="1.1" viewBox="0 0 444 392" width="444px" zoomAndPan="magnify"><defs/><g><!--class PlayerManager--><g id="elem_PlayerManager"><rect codeLine="1" fill="#F1F1F1" height="162.0781" id="PlayerManager" rx="2.5" ry="2.5" style="stroke:#181818;stroke-width:0.5;" width="373" x="7" y="115"/><ellipse cx="141.75" cy="131" fill="#ADD1B2" rx="11" ry="11" style="stroke:#181818;stroke-width:1.0;"/><path d="M141.6875,126.8281 Q140.9375,126.8281 140.375,127.125 Q139.8125,127.4063 139.4219,127.9375 Q139.0313,128.4688 138.8281,129.25 Q138.6406,130.0156 138.6406,130.9688 Q138.6406,131.9375 138.8125,132.7031 Q139,133.4531 139.3594,133.9688 Q139.7344,134.4844 140.3125,134.7656 Q140.8906,135.0313 141.6875,135.0313 Q142.4219,135.0313 143.1563,134.8594 Q143.9063,134.6875 144.7813,134.3906 L144.7813,136.5469 Q144.375,136.7031 143.9844,136.8281 Q143.5938,136.9375 143.1875,137.0156 Q142.7813,137.0938 142.3594,137.125 Q141.9375,137.1719 141.4375,137.1719 Q140.0313,137.1719 139,136.7188 Q137.9844,136.2656 137.3125,135.4531 Q136.6406,134.6406 136.3125,133.5 Q135.9844,132.3438 135.9844,130.9531 Q135.9844,129.5781 136.3594,128.4219 Q136.7344,127.2656 137.4531,126.4375 Q138.1719,125.6094 139.2344,125.1563 Q140.2969,124.6875 141.6875,124.6875 Q142.5938,124.6875 143.5,124.9219 Q144.4063,125.1406 145.2344,125.5469 L144.4063,127.6406 Q143.7188,127.3125 143.0313,127.0781 Q142.3438,126.8281 141.6875,126.8281 Z " fill="#000000"/><text fill="#000000" font-family="sans-serif" font-size="14" lengthAdjust="spacing" textLength="95" x="162.25" y="135.8467">PlayerManager</text><line style="stroke:#181818;stroke-width:0.5;" x1="8" x2="379" y1="147" y2="147"/><ellipse cx="18" cy="160.6484" fill="none" rx="3" ry="3" style="stroke:#038048;stroke-width:1.0;"/><text fill="#000000" font-family="sans-serif" font-size="14" lengthAdjust="spacing" text-decoration="underline" textLength="347" x="27" y="163.9951">&#171;event&#187; OnPlayerChanged : UnityAction&lt;GameObject&gt;</text><ellipse cx="18" cy="176.9453" fill="none" rx="3" ry="3" style="stroke:#038048;stroke-width:1.0;"/><text fill="#000000" font-family="sans-serif" font-size="14" lengthAdjust="spacing" text-decoration="underline" textLength="228" x="27" y="180.292">&#171;event&#187; OnPlayerDied : UnityAction</text><line style="stroke:#181818;stroke-width:0.5;" x1="8" x2="379" y1="187.5938" y2="187.5938"/><ellipse cx="18" cy="201.2422" fill="#84BE84" rx="3" ry="3" style="stroke:#038048;stroke-width:1.0;"/><text fill="#000000" font-family="sans-serif" font-size="14" lengthAdjust="spacing" textLength="69" x="27" y="204.5889">Die() : void</text><ellipse cx="18" cy="217.5391" fill="#84BE84" rx="3" ry="3" style="stroke:#038048;stroke-width:1.0;"/><text fill="#000000" font-family="sans-serif" font-size="14" lengthAdjust="spacing" textLength="102" x="27" y="220.8857">Respawn() : void</text><ellipse cx="18" cy="233.8359" fill="#84BE84" rx="3" ry="3" style="stroke:#038048;stroke-width:1.0;"/><text fill="#000000" font-family="sans-serif" font-size="14" lengthAdjust="spacing" text-decoration="underline" textLength="205" x="27" y="237.1826">FindActivePlayer() : GameObject</text><ellipse cx="18" cy="250.1328" fill="#84BE84" rx="3" ry="3" style="stroke:#038048;stroke-width:1.0;"/><text fill="#000000" font-family="sans-serif" font-size="14" lengthAdjust="spacing" text-decoration="underline" textLength="219" x="27" y="253.4795">DestroyOtherActivePlayers() : void</text><ellipse cx="18" cy="266.4297" fill="#84BE84" rx="3" ry="3" style="stroke:#038048;stroke-width:1.0;"/><text fill="#000000" font-family="sans-serif" font-size="14" lengthAdjust="spacing" text-decoration="underline" textLength="273" x="27" y="269.7764">SetRespawnScene(sceneName:string) : void</text></g><!--class MonoBehaviour--><g id="elem_MonoBehaviour"><rect fill="#F1F1F1" height="48" id="MonoBehaviour" rx="2.5" ry="2.5" style="stroke:#181818;stroke-width:0.5;" width="133" x="127" y="7"/><ellipse cx="142" cy="23" fill="#ADD1B2" rx="11" ry="11" style="stroke:#181818;stroke-width:1.0;"/><path d="M141.9375,18.8281 Q141.1875,18.8281 140.625,19.125 Q140.0625,19.4063 139.6719,19.9375 Q139.2813,20.4688 139.0781,21.25 Q138.8906,22.0156 138.8906,22.9688 Q138.8906,23.9375 139.0625,24.7031 Q139.25,25.4531 139.6094,25.9688 Q139.9844,26.4844 140.5625,26.7656 Q141.1406,27.0313 141.9375,27.0313 Q142.6719,27.0313 143.4063,26.8594 Q144.1563,26.6875 145.0313,26.3906 L145.0313,28.5469 Q144.625,28.7031 144.2344,28.8281 Q143.8438,28.9375 143.4375,29.0156 Q143.0313,29.0938 142.6094,29.125 Q142.1875,29.1719 141.6875,29.1719 Q140.2813,29.1719 139.25,28.7188 Q138.2344,28.2656 137.5625,27.4531 Q136.8906,26.6406 136.5625,25.5 Q136.2344,24.3438 136.2344,22.9531 Q136.2344,21.5781 136.6094,20.4219 Q136.9844,19.2656 137.7031,18.4375 Q138.4219,17.6094 139.4844,17.1563 Q140.5469,16.6875 141.9375,16.6875 Q142.8438,16.6875 143.75,16.9219 Q144.6563,17.1406 145.4844,17.5469 L144.6563,19.6406 Q143.9688,19.3125 143.2813,19.0781 Q142.5938,18.8281 141.9375,18.8281 Z " fill="#000000"/><text fill="#000000" font-family="sans-serif" font-size="14" lengthAdjust="spacing" textLength="101" x="156" y="27.8467">MonoBehaviour</text><line style="stroke:#181818;stroke-width:0.5;" x1="128" x2="259" y1="39" y2="39"/><line style="stroke:#181818;stroke-width:0.5;" x1="128" x2="259" y1="47" y2="47"/></g><!--class GameObject--><g id="elem_GameObject"><rect fill="#F1F1F1" height="48" id="GameObject" rx="2.5" ry="2.5" style="stroke:#181818;stroke-width:0.5;" width="111" x="138" y="337"/><ellipse cx="153" cy="353" fill="#ADD1B2" rx="11" ry="11" style="stroke:#181818;stroke-width:1.0;"/><path d="M152.9375,348.8281 Q152.1875,348.8281 151.625,349.125 Q151.0625,349.4063 150.6719,349.9375 Q150.2813,350.4688 150.0781,351.25 Q149.8906,352.0156 149.8906,352.9688 Q149.8906,353.9375 150.0625,354.7031 Q150.25,355.4531 150.6094,355.9688 Q150.9844,356.4844 151.5625,356.7656 Q152.1406,357.0313 152.9375,357.0313 Q153.6719,357.0313 154.4063,356.8594 Q155.1563,356.6875 156.0313,356.3906 L156.0313,358.5469 Q155.625,358.7031 155.2344,358.8281 Q154.8438,358.9375 154.4375,359.0156 Q154.0313,359.0938 153.6094,359.125 Q153.1875,359.1719 152.6875,359.1719 Q151.2813,359.1719 150.25,358.7188 Q149.2344,358.2656 148.5625,357.4531 Q147.8906,356.6406 147.5625,355.5 Q147.2344,354.3438 147.2344,352.9531 Q147.2344,351.5781 147.6094,350.4219 Q147.9844,349.2656 148.7031,348.4375 Q149.4219,347.6094 150.4844,347.1563 Q151.5469,346.6875 152.9375,346.6875 Q153.8438,346.6875 154.75,346.9219 Q155.6563,347.1406 156.4844,347.5469 L155.6563,349.6406 Q154.9688,349.3125 154.2813,349.0781 Q153.5938,348.8281 152.9375,348.8281 Z " fill="#000000"/><text fill="#000000" font-family="sans-serif" font-size="14" lengthAdjust="spacing" textLength="79" x="167" y="357.8467">GameObject</text><line style="stroke:#181818;stroke-width:0.5;" x1="139" x2="248" y1="369" y2="369"/><line style="stroke:#181818;stroke-width:0.5;" x1="139" x2="248" y1="377" y2="377"/></g><!--reverse link MonoBehaviour to PlayerManager--><g id="link_MonoBehaviour_PlayerManager"><path codeLine="10" d="M193.5,75.06 C193.5,87.28 193.5,101 193.5,114.68 " fill="none" id="MonoBehaviour-backto-PlayerManager" style="stroke:#181818;stroke-width:1.0;"/><polygon fill="none" points="186.5,75.01,193.5,55.01,200.5,75.01,186.5,75.01" style="stroke:#181818;stroke-width:1.0;"/></g><!--link PlayerManager to PlayerManager--><g id="link_PlayerManager_PlayerManager"><path codeLine="11" d="M380.14,169.94 C401.29,174.82 415,183.51 415,196 C415,207.42 403.55,215.66 385.42,220.72 " fill="none" id="PlayerManager-to-PlayerManager" style="stroke:#181818;stroke-width:1.0;"/><polygon fill="#181818" points="380.14,222.06,389.8518,223.6972,384.9831,220.8171,387.8632,215.9483,380.14,222.06" style="stroke:#181818;stroke-width:1.0;"/><text fill="#000000" font-family="sans-serif" font-size="13" lengthAdjust="spacing" textLength="50" x="387.7458" y="219.7949">Instance</text></g><!--link PlayerManager to GameObject--><g id="link_PlayerManager_GameObject"><path codeLine="12" d="M193.5,277.07 C193.5,296.74 193.5,316.53 193.5,331.84 " fill="none" id="PlayerManager-to-GameObject" style="stroke:#181818;stroke-width:1.0;"/><polygon fill="#181818" points="193.5,336.85,197.5,327.85,193.5,331.85,189.5,327.85,193.5,336.85" style="stroke:#181818;stroke-width:1.0;"/><text fill="#000000" font-family="sans-serif" font-size="13" lengthAdjust="spacing" textLength="35" x="154.0156" y="325.8236">Player</text></g><!--SRC=[ZP3TYi9038Nl-nIXLvMbBo2bu0yhNcX5yG6oqz2EQ4PcOgLKtzrngwuMn9sBkKZE-KuIjKNdOB75ckmC6Gkoq0JWtnSqJb2qEWCa2LN4agQGSQiTbSW5vT27DMkf1qgquMI2Eyf-DgGaXNz0nhfBkBjy9-hvLcLqVYijoUtnoDtoW_-jERz2AchXlyA_WRhoCJcnfiwa9FjiSsy3LYIt6LQAc29t_US-eEz9cek7xnpC39iXbLXfSx2GdEBuzSJ1wy7ZE8LmoZw85OMVfMqfVDhk0W00]--></g></svg>