<?xml version="1.0" encoding="us-ascii" standalone="no"?><svg xmlns="http://www.w3.org/2000/svg" xmlns:xlink="http://www.w3.org/1999/xlink" contentStyleType="text/css" height="316px" preserveAspectRatio="none" style="width:385px;height:316px;background:#FFFFFF;" version="1.1" viewBox="0 0 385 316" width="385px" zoomAndPan="magnify"><defs/><g><!--class ResourceManager--><g id="elem_ResourceManager"><rect codeLine="1" fill="#F1F1F1" height="194.6719" id="ResourceManager" rx="2.5" ry="2.5" style="stroke:#181818;stroke-width:0.5;" width="314" x="7" y="115"/><ellipse cx="103.25" cy="131" fill="#ADD1B2" rx="11" ry="11" style="stroke:#181818;stroke-width:1.0;"/><path d="M103.1875,126.8281 Q102.4375,126.8281 101.875,127.125 Q101.3125,127.4063 100.9219,127.9375 Q100.5313,128.4688 100.3281,129.25 Q100.1406,130.0156 100.1406,130.9688 Q100.1406,131.9375 100.3125,132.7031 Q100.5,133.4531 100.8594,133.9688 Q101.2344,134.4844 101.8125,134.7656 Q102.3906,135.0313 103.1875,135.0313 Q103.9219,135.0313 104.6563,134.8594 Q105.4063,134.6875 106.2813,134.3906 L106.2813,136.5469 Q105.875,136.7031 105.4844,136.8281 Q105.0938,136.9375 104.6875,137.0156 Q104.2813,137.0938 103.8594,137.125 Q103.4375,137.1719 102.9375,137.1719 Q101.5313,137.1719 100.5,136.7188 Q99.4844,136.2656 98.8125,135.4531 Q98.1406,134.6406 97.8125,133.5 Q97.4844,132.3438 97.4844,130.9531 Q97.4844,129.5781 97.8594,128.4219 Q98.2344,127.2656 98.9531,126.4375 Q99.6719,125.6094 100.7344,125.1563 Q101.7969,124.6875 103.1875,124.6875 Q104.0938,124.6875 105,124.9219 Q105.9063,125.1406 106.7344,125.5469 L105.9063,127.6406 Q105.2188,127.3125 104.5313,127.0781 Q103.8438,126.8281 103.1875,126.8281 Z " fill="#000000"/><text fill="#000000" font-family="sans-serif" font-size="14" lengthAdjust="spacing" textLength="113" x="123.75" y="135.8467">ResourceManager</text><line style="stroke:#181818;stroke-width:0.5;" x1="8" x2="320" y1="147" y2="147"/><ellipse cx="18" cy="160.6484" fill="none" rx="3" ry="3" style="stroke:#038048;stroke-width:1.0;"/><text fill="#000000" font-family="sans-serif" font-size="14" lengthAdjust="spacing" text-decoration="underline" textLength="288" x="27" y="163.9951">&#171;event&#187; OnCurrenyChange : UnityAction&lt;int&gt;</text><line style="stroke:#181818;stroke-width:0.5;" x1="8" x2="320" y1="171.2969" y2="171.2969"/><ellipse cx="18" cy="184.9453" fill="#84BE84" rx="3" ry="3" style="stroke:#038048;stroke-width:1.0;"/><text fill="#000000" font-family="sans-serif" font-size="14" lengthAdjust="spacing" textLength="204" x="27" y="188.292">LoadData(data:GameData) : void</text><ellipse cx="18" cy="201.2422" fill="#84BE84" rx="3" ry="3" style="stroke:#038048;stroke-width:1.0;"/><text fill="#000000" font-family="sans-serif" font-size="14" lengthAdjust="spacing" textLength="203" x="27" y="204.5889">SaveData(data:GameData) : void</text><ellipse cx="18" cy="217.5391" fill="#84BE84" rx="3" ry="3" style="stroke:#038048;stroke-width:1.0;"/><text fill="#000000" font-family="sans-serif" font-size="14" lengthAdjust="spacing" textLength="117" x="27" y="220.8857">GetCurrency() : int</text><ellipse cx="18" cy="233.8359" fill="#84BE84" rx="3" ry="3" style="stroke:#038048;stroke-width:1.0;"/><text fill="#000000" font-family="sans-serif" font-size="14" lengthAdjust="spacing" textLength="179" x="27" y="237.1826">SetCurrency(value:int) : void</text><ellipse cx="18" cy="250.1328" fill="#84BE84" rx="3" ry="3" style="stroke:#038048;stroke-width:1.0;"/><text fill="#000000" font-family="sans-serif" font-size="14" lengthAdjust="spacing" textLength="184" x="27" y="253.4795">AddCurrency(value:int) : void</text><ellipse cx="18" cy="266.4297" fill="#84BE84" rx="3" ry="3" style="stroke:#038048;stroke-width:1.0;"/><text fill="#000000" font-family="sans-serif" font-size="14" lengthAdjust="spacing" textLength="135" x="27" y="269.7764">GetBombCount() : int</text><ellipse cx="18" cy="282.7266" fill="#84BE84" rx="3" ry="3" style="stroke:#038048;stroke-width:1.0;"/><text fill="#000000" font-family="sans-serif" font-size="14" lengthAdjust="spacing" textLength="110" x="27" y="286.0732">UseBomb() : bool</text><ellipse cx="18" cy="299.0234" fill="#84BE84" rx="3" ry="3" style="stroke:#038048;stroke-width:1.0;"/><text fill="#000000" font-family="sans-serif" font-size="14" lengthAdjust="spacing" textLength="200" x="27" y="302.3701">GetCurrencyPercentage() : float</text></g><!--class MonoBehaviour--><g id="elem_MonoBehaviour"><rect fill="#F1F1F1" height="48" id="MonoBehaviour" rx="2.5" ry="2.5" style="stroke:#181818;stroke-width:0.5;" width="133" x="19.5" y="7"/><ellipse cx="34.5" cy="23" fill="#ADD1B2" rx="11" ry="11" style="stroke:#181818;stroke-width:1.0;"/><path d="M34.4375,18.8281 Q33.6875,18.8281 33.125,19.125 Q32.5625,19.4063 32.1719,19.9375 Q31.7813,20.4688 31.5781,21.25 Q31.3906,22.0156 31.3906,22.9688 Q31.3906,23.9375 31.5625,24.7031 Q31.75,25.4531 32.1094,25.9688 Q32.4844,26.4844 33.0625,26.7656 Q33.6406,27.0313 34.4375,27.0313 Q35.1719,27.0313 35.9063,26.8594 Q36.6563,26.6875 37.5313,26.3906 L37.5313,28.5469 Q37.125,28.7031 36.7344,28.8281 Q36.3438,28.9375 35.9375,29.0156 Q35.5313,29.0938 35.1094,29.125 Q34.6875,29.1719 34.1875,29.1719 Q32.7813,29.1719 31.75,28.7188 Q30.7344,28.2656 30.0625,27.4531 Q29.3906,26.6406 29.0625,25.5 Q28.7344,24.3438 28.7344,22.9531 Q28.7344,21.5781 29.1094,20.4219 Q29.4844,19.2656 30.2031,18.4375 Q30.9219,17.6094 31.9844,17.1563 Q33.0469,16.6875 34.4375,16.6875 Q35.3438,16.6875 36.25,16.9219 Q37.1563,17.1406 37.9844,17.5469 L37.1563,19.6406 Q36.4688,19.3125 35.7813,19.0781 Q35.0938,18.8281 34.4375,18.8281 Z " fill="#000000"/><text fill="#000000" font-family="sans-serif" font-size="14" lengthAdjust="spacing" textLength="101" x="48.5" y="27.8467">MonoBehaviour</text><line style="stroke:#181818;stroke-width:0.5;" x1="20.5" x2="151.5" y1="39" y2="39"/><line style="stroke:#181818;stroke-width:0.5;" x1="20.5" x2="151.5" y1="47" y2="47"/></g><!--class IDataPersist--><g id="elem_IDataPersist"><rect fill="#F1F1F1" height="48" id="IDataPersist" rx="2.5" ry="2.5" style="stroke:#181818;stroke-width:0.5;" width="109" x="187.5" y="7"/><ellipse cx="202.5" cy="23" fill="#ADD1B2" rx="11" ry="11" style="stroke:#181818;stroke-width:1.0;"/><path d="M202.4375,18.8281 Q201.6875,18.8281 201.125,19.125 Q200.5625,19.4063 200.1719,19.9375 Q199.7813,20.4688 199.5781,21.25 Q199.3906,22.0156 199.3906,22.9688 Q199.3906,23.9375 199.5625,24.7031 Q199.75,25.4531 200.1094,25.9688 Q200.4844,26.4844 201.0625,26.7656 Q201.6406,27.0313 202.4375,27.0313 Q203.1719,27.0313 203.9063,26.8594 Q204.6563,26.6875 205.5313,26.3906 L205.5313,28.5469 Q205.125,28.7031 204.7344,28.8281 Q204.3438,28.9375 203.9375,29.0156 Q203.5313,29.0938 203.1094,29.125 Q202.6875,29.1719 202.1875,29.1719 Q200.7813,29.1719 199.75,28.7188 Q198.7344,28.2656 198.0625,27.4531 Q197.3906,26.6406 197.0625,25.5 Q196.7344,24.3438 196.7344,22.9531 Q196.7344,21.5781 197.1094,20.4219 Q197.4844,19.2656 198.2031,18.4375 Q198.9219,17.6094 199.9844,17.1563 Q201.0469,16.6875 202.4375,16.6875 Q203.3438,16.6875 204.25,16.9219 Q205.1563,17.1406 205.9844,17.5469 L205.1563,19.6406 Q204.4688,19.3125 203.7813,19.0781 Q203.0938,18.8281 202.4375,18.8281 Z " fill="#000000"/><text fill="#000000" font-family="sans-serif" font-size="14" lengthAdjust="spacing" textLength="77" x="216.5" y="27.8467">IDataPersist</text><line style="stroke:#181818;stroke-width:0.5;" x1="188.5" x2="295.5" y1="39" y2="39"/><line style="stroke:#181818;stroke-width:0.5;" x1="188.5" x2="295.5" y1="47" y2="47"/></g><!--reverse link MonoBehaviour to ResourceManager--><g id="link_MonoBehaviour_ResourceManager"><path codeLine="12" d="M104.09,73.62 C109.52,86.12 115.72,100.38 122.02,114.89 " fill="none" id="MonoBehaviour-backto-ResourceManager" style="stroke:#181818;stroke-width:1.0;"/><polygon fill="none" points="97.59,76.23,96.04,55.1,110.43,70.65,97.59,76.23" style="stroke:#181818;stroke-width:1.0;"/></g><!--reverse link IDataPersist to ResourceManager--><g id="link_IDataPersist_ResourceManager"><path codeLine="13" d="M223.91,73.62 C218.48,86.12 212.28,100.38 205.98,114.89 " fill="none" id="IDataPersist-backto-ResourceManager" style="stroke:#181818;stroke-width:1.0;"/><polygon fill="none" points="217.57,70.65,231.96,55.1,230.41,76.23,217.57,70.65" style="stroke:#181818;stroke-width:1.0;"/></g><!--link ResourceManager to ResourceManager--><g id="link_ResourceManager_ResourceManager"><path codeLine="14" d="M321.07,182.65 C342.05,187.7 356,197.65 356,212.5 C356,226.08 344.35,235.56 326.32,240.94 " fill="none" id="ResourceManager-to-ResourceManager" style="stroke:#181818;stroke-width:1.0;"/><polygon fill="#181818" points="321.07,242.35,330.8004,243.8727,325.8981,241.0501,328.7206,236.1478,321.07,242.35" style="stroke:#181818;stroke-width:1.0;"/><text fill="#000000" font-family="sans-serif" font-size="13" lengthAdjust="spacing" textLength="50" x="328.7511" y="240.3695">Instance</text></g><!--SRC=[XP5HQiCm44J_VOebNod55p36aBWG0WqDAJd0Hjec0cSNhBN0fBbxrsaAHIr47m9ftZ3IhEimHjXHbA5tj4768_LmAS3MCroYeWPt1QXhIiJQDF36xT3tn6DxGZuILB3deEF2QH2kWp5mTxyA-XTKd7lRgXMUQJezcID9y7Ve7HCzX5Qatw5kd4-IfVpOVoa9ku4gqpBtmlk7Z2KivNnePM3D8lQH9kbsUn3f_hvfIzOTgrLtWpuwGIsknKPObdJ25AnSg3_BCY-wM4-VDNiCKVydyj6KPGEpDTjWsD4inxy0]--></g></svg>