<?xml version="1.0" encoding="us-ascii" standalone="no"?><svg xmlns="http://www.w3.org/2000/svg" xmlns:xlink="http://www.w3.org/1999/xlink" contentStyleType="text/css" height="300px" preserveAspectRatio="none" style="width:302px;height:300px;background:#FFFFFF;" version="1.1" viewBox="0 0 302 300" width="302px" zoomAndPan="magnify"><defs/><g><!--class SaveManager--><g id="elem_SaveManager"><rect codeLine="1" fill="#F1F1F1" height="178.375" id="SaveManager" rx="2.5" ry="2.5" style="stroke:#181818;stroke-width:0.5;" width="231" x="7" y="115"/><ellipse cx="76.25" cy="131" fill="#ADD1B2" rx="11" ry="11" style="stroke:#181818;stroke-width:1.0;"/><path d="M76.1875,126.8281 Q75.4375,126.8281 74.875,127.125 Q74.3125,127.4063 73.9219,127.9375 Q73.5313,128.4688 73.3281,129.25 Q73.1406,130.0156 73.1406,130.9688 Q73.1406,131.9375 73.3125,132.7031 Q73.5,133.4531 73.8594,133.9688 Q74.2344,134.4844 74.8125,134.7656 Q75.3906,135.0313 76.1875,135.0313 Q76.9219,135.0313 77.6563,134.8594 Q78.4063,134.6875 79.2813,134.3906 L79.2813,136.5469 Q78.875,136.7031 78.4844,136.8281 Q78.0938,136.9375 77.6875,137.0156 Q77.2813,137.0938 76.8594,137.125 Q76.4375,137.1719 75.9375,137.1719 Q74.5313,137.1719 73.5,136.7188 Q72.4844,136.2656 71.8125,135.4531 Q71.1406,134.6406 70.8125,133.5 Q70.4844,132.3438 70.4844,130.9531 Q70.4844,129.5781 70.8594,128.4219 Q71.2344,127.2656 71.9531,126.4375 Q72.6719,125.6094 73.7344,125.1563 Q74.7969,124.6875 76.1875,124.6875 Q77.0938,124.6875 78,124.9219 Q78.9063,125.1406 79.7344,125.5469 L78.9063,127.6406 Q78.2188,127.3125 77.5313,127.0781 Q76.8438,126.8281 76.1875,126.8281 Z " fill="#000000"/><text fill="#000000" font-family="sans-serif" font-size="14" lengthAdjust="spacing" textLength="84" x="96.75" y="135.8467">SaveManager</text><line style="stroke:#181818;stroke-width:0.5;" x1="8" x2="237" y1="147" y2="147"/><ellipse cx="18" cy="160.6484" fill="none" rx="3" ry="3" style="stroke:#038048;stroke-width:1.0;"/><text fill="#000000" font-family="sans-serif" font-size="14" lengthAdjust="spacing" textLength="195" x="27" y="163.9951">&#171;event&#187; InitialLoaded : Action?</text><line style="stroke:#181818;stroke-width:0.5;" x1="8" x2="237" y1="171.2969" y2="171.2969"/><ellipse cx="18" cy="184.9453" fill="#84BE84" rx="3" ry="3" style="stroke:#038048;stroke-width:1.0;"/><text fill="#000000" font-family="sans-serif" font-size="14" lengthAdjust="spacing" textLength="105" x="27" y="188.292">SaveData() : void</text><ellipse cx="18" cy="201.2422" fill="#84BE84" rx="3" ry="3" style="stroke:#038048;stroke-width:1.0;"/><text fill="#000000" font-family="sans-serif" font-size="14" lengthAdjust="spacing" textLength="106" x="27" y="204.5889">LoadData() : void</text><ellipse cx="18" cy="217.5391" fill="#84BE84" rx="3" ry="3" style="stroke:#038048;stroke-width:1.0;"/><text fill="#000000" font-family="sans-serif" font-size="14" lengthAdjust="spacing" textLength="113" x="27" y="220.8857">NewGame() : void</text><ellipse cx="18" cy="233.8359" fill="#84BE84" rx="3" ry="3" style="stroke:#038048;stroke-width:1.0;"/><text fill="#000000" font-family="sans-serif" font-size="14" lengthAdjust="spacing" textLength="119" x="27" y="237.1826">PersistSave() : void</text><ellipse cx="18" cy="250.1328" fill="#84BE84" rx="3" ry="3" style="stroke:#038048;stroke-width:1.0;"/><text fill="#000000" font-family="sans-serif" font-size="14" lengthAdjust="spacing" textLength="106" x="27" y="253.4795">LoadSave() : void</text><ellipse cx="18" cy="266.4297" fill="#84BE84" rx="3" ry="3" style="stroke:#038048;stroke-width:1.0;"/><text fill="#000000" font-family="sans-serif" font-size="14" lengthAdjust="spacing" textLength="119" x="27" y="269.7764">DeleteSave() : void</text><ellipse cx="18" cy="282.7266" fill="#84BE84" rx="3" ry="3" style="stroke:#038048;stroke-width:1.0;"/><text fill="#000000" font-family="sans-serif" font-size="14" lengthAdjust="spacing" textLength="205" x="27" y="286.0732">ListSave() : IEnumerable&lt;string&gt;</text></g><!--class MonoBehaviour--><g id="elem_MonoBehaviour"><rect fill="#F1F1F1" height="48" id="MonoBehaviour" rx="2.5" ry="2.5" style="stroke:#181818;stroke-width:0.5;" width="133" x="56" y="7"/><ellipse cx="71" cy="23" fill="#ADD1B2" rx="11" ry="11" style="stroke:#181818;stroke-width:1.0;"/><path d="M70.9375,18.8281 Q70.1875,18.8281 69.625,19.125 Q69.0625,19.4063 68.6719,19.9375 Q68.2813,20.4688 68.0781,21.25 Q67.8906,22.0156 67.8906,22.9688 Q67.8906,23.9375 68.0625,24.7031 Q68.25,25.4531 68.6094,25.9688 Q68.9844,26.4844 69.5625,26.7656 Q70.1406,27.0313 70.9375,27.0313 Q71.6719,27.0313 72.4063,26.8594 Q73.1563,26.6875 74.0313,26.3906 L74.0313,28.5469 Q73.625,28.7031 73.2344,28.8281 Q72.8438,28.9375 72.4375,29.0156 Q72.0313,29.0938 71.6094,29.125 Q71.1875,29.1719 70.6875,29.1719 Q69.2813,29.1719 68.25,28.7188 Q67.2344,28.2656 66.5625,27.4531 Q65.8906,26.6406 65.5625,25.5 Q65.2344,24.3438 65.2344,22.9531 Q65.2344,21.5781 65.6094,20.4219 Q65.9844,19.2656 66.7031,18.4375 Q67.4219,17.6094 68.4844,17.1563 Q69.5469,16.6875 70.9375,16.6875 Q71.8438,16.6875 72.75,16.9219 Q73.6563,17.1406 74.4844,17.5469 L73.6563,19.6406 Q72.9688,19.3125 72.2813,19.0781 Q71.5938,18.8281 70.9375,18.8281 Z " fill="#000000"/><text fill="#000000" font-family="sans-serif" font-size="14" lengthAdjust="spacing" textLength="101" x="85" y="27.8467">MonoBehaviour</text><line style="stroke:#181818;stroke-width:0.5;" x1="57" x2="188" y1="39" y2="39"/><line style="stroke:#181818;stroke-width:0.5;" x1="57" x2="188" y1="47" y2="47"/></g><!--reverse link MonoBehaviour to SaveManager--><g id="link_MonoBehaviour_SaveManager"><path codeLine="11" d="M122.5,75.45 C122.5,87.5 122.5,101.04 122.5,114.67 " fill="none" id="MonoBehaviour-backto-SaveManager" style="stroke:#181818;stroke-width:1.0;"/><polygon fill="none" points="115.5,75.06,122.5,55.06,129.5,75.06,115.5,75.06" style="stroke:#181818;stroke-width:1.0;"/></g><!--link SaveManager to SaveManager--><g id="link_SaveManager_SaveManager"><path codeLine="12" d="M238.29,173.7 C258.74,177.69 273,187.79 273,204 C273,218.82 261.09,228.53 243.42,233.13 " fill="none" id="SaveManager-to-SaveManager" style="stroke:#181818;stroke-width:1.0;"/><polygon fill="#181818" points="238.29,234.3,247.9488,236.2255,243.1679,233.2018,246.1916,228.4209,238.29,234.3" style="stroke:#181818;stroke-width:1.0;"/><text fill="#000000" font-family="sans-serif" font-size="13" lengthAdjust="spacing" textLength="50" x="245.9895" y="232.6071">Instance</text></g><!--SRC=[RP112i8m44NtESNWIf5SG494gKZ1Yk09ndQeWNG2IHeNwjrjeOiWcUMRz__YjnP3W3icQf2n9mzl0TDj0PIYH1orXffDD6Wl3ZlgO0U7DXh7UrZCELrXnFLc-YLdkeNFVebVwNN6WVxnZNmm8SvjfQOIhyXIf68YRwfFF0xayM59XUWDzrfyHUFO7Uc9oRZHW_f8cUyWyasarB2gEKJabbQvzWC0]--></g></svg>