<?xml version="1.0" encoding="us-ascii" standalone="no"?><svg xmlns="http://www.w3.org/2000/svg" xmlns:xlink="http://www.w3.org/1999/xlink" contentStyleType="text/css" height="219px" preserveAspectRatio="none" style="width:254px;height:219px;background:#FFFFFF;" version="1.1" viewBox="0 0 254 219" width="254px" zoomAndPan="magnify"><defs/><g><!--class Sound--><g id="elem_Sound"><rect codeLine="1" fill="#F1F1F1" height="96.8906" id="Sound" rx="2.5" ry="2.5" style="stroke:#181818;stroke-width:0.5;" width="115" x="65" y="7"/><ellipse cx="99.8" cy="23" fill="#ADD1B2" rx="11" ry="11" style="stroke:#181818;stroke-width:1.0;"/><path d="M99.7375,18.8281 Q98.9875,18.8281 98.425,19.125 Q97.8625,19.4063 97.4719,19.9375 Q97.0813,20.4688 96.8781,21.25 Q96.6906,22.0156 96.6906,22.9688 Q96.6906,23.9375 96.8625,24.7031 Q97.05,25.4531 97.4094,25.9688 Q97.7844,26.4844 98.3625,26.7656 Q98.9406,27.0313 99.7375,27.0313 Q100.4719,27.0313 101.2063,26.8594 Q101.9563,26.6875 102.8313,26.3906 L102.8313,28.5469 Q102.425,28.7031 102.0344,28.8281 Q101.6438,28.9375 101.2375,29.0156 Q100.8313,29.0938 100.4094,29.125 Q99.9875,29.1719 99.4875,29.1719 Q98.0813,29.1719 97.05,28.7188 Q96.0344,28.2656 95.3625,27.4531 Q94.6906,26.6406 94.3625,25.5 Q94.0344,24.3438 94.0344,22.9531 Q94.0344,21.5781 94.4094,20.4219 Q94.7844,19.2656 95.5031,18.4375 Q96.2219,17.6094 97.2844,17.1563 Q98.3469,16.6875 99.7375,16.6875 Q100.6438,16.6875 101.55,16.9219 Q102.4563,17.1406 103.2844,17.5469 L102.4563,19.6406 Q101.7688,19.3125 101.0813,19.0781 Q100.3938,18.8281 99.7375,18.8281 Z " fill="#000000"/><text fill="#000000" font-family="sans-serif" font-size="14" lengthAdjust="spacing" textLength="39" x="118.2" y="27.8467">Sound</text><line style="stroke:#181818;stroke-width:0.5;" x1="66" x2="179" y1="39" y2="39"/><ellipse cx="76" cy="52.6484" fill="none" rx="3" ry="3" style="stroke:#038048;stroke-width:1.0;"/><text fill="#000000" font-family="sans-serif" font-size="14" lengthAdjust="spacing" textLength="84" x="85" y="55.9951">name : string</text><ellipse cx="76" cy="68.9453" fill="none" rx="3" ry="3" style="stroke:#038048;stroke-width:1.0;"/><text fill="#000000" font-family="sans-serif" font-size="14" lengthAdjust="spacing" textLength="89" x="85" y="72.292">volume : float</text><ellipse cx="76" cy="85.2422" fill="none" rx="3" ry="3" style="stroke:#038048;stroke-width:1.0;"/><text fill="#000000" font-family="sans-serif" font-size="14" lengthAdjust="spacing" textLength="72" x="85" y="88.5889">pitch : float</text><line style="stroke:#181818;stroke-width:0.5;" x1="66" x2="179" y1="95.8906" y2="95.8906"/></g><!--class AudioClip--><g id="elem_AudioClip"><rect fill="#F1F1F1" height="48" id="AudioClip" rx="2.5" ry="2.5" style="stroke:#181818;stroke-width:0.5;" width="93" x="7" y="164"/><ellipse cx="22" cy="180" fill="#ADD1B2" rx="11" ry="11" style="stroke:#181818;stroke-width:1.0;"/><path d="M21.9375,175.8281 Q21.1875,175.8281 20.625,176.125 Q20.0625,176.4063 19.6719,176.9375 Q19.2813,177.4688 19.0781,178.25 Q18.8906,179.0156 18.8906,179.9688 Q18.8906,180.9375 19.0625,181.7031 Q19.25,182.4531 19.6094,182.9688 Q19.9844,183.4844 20.5625,183.7656 Q21.1406,184.0313 21.9375,184.0313 Q22.6719,184.0313 23.4063,183.8594 Q24.1563,183.6875 25.0313,183.3906 L25.0313,185.5469 Q24.625,185.7031 24.2344,185.8281 Q23.8438,185.9375 23.4375,186.0156 Q23.0313,186.0938 22.6094,186.125 Q22.1875,186.1719 21.6875,186.1719 Q20.2813,186.1719 19.25,185.7188 Q18.2344,185.2656 17.5625,184.4531 Q16.8906,183.6406 16.5625,182.5 Q16.2344,181.3438 16.2344,179.9531 Q16.2344,178.5781 16.6094,177.4219 Q16.9844,176.2656 17.7031,175.4375 Q18.4219,174.6094 19.4844,174.1563 Q20.5469,173.6875 21.9375,173.6875 Q22.8438,173.6875 23.75,173.9219 Q24.6563,174.1406 25.4844,174.5469 L24.6563,176.6406 Q23.9688,176.3125 23.2813,176.0781 Q22.5938,175.8281 21.9375,175.8281 Z " fill="#000000"/><text fill="#000000" font-family="sans-serif" font-size="14" lengthAdjust="spacing" textLength="61" x="36" y="184.8467">AudioClip</text><line style="stroke:#181818;stroke-width:0.5;" x1="8" x2="99" y1="196" y2="196"/><line style="stroke:#181818;stroke-width:0.5;" x1="8" x2="99" y1="204" y2="204"/></g><!--class AudioSource--><g id="elem_AudioSource"><rect fill="#F1F1F1" height="48" id="AudioSource" rx="2.5" ry="2.5" style="stroke:#181818;stroke-width:0.5;" width="112" x="135.5" y="164"/><ellipse cx="150.5" cy="180" fill="#ADD1B2" rx="11" ry="11" style="stroke:#181818;stroke-width:1.0;"/><path d="M150.4375,175.8281 Q149.6875,175.8281 149.125,176.125 Q148.5625,176.4063 148.1719,176.9375 Q147.7813,177.4688 147.5781,178.25 Q147.3906,179.0156 147.3906,179.9688 Q147.3906,180.9375 147.5625,181.7031 Q147.75,182.4531 148.1094,182.9688 Q148.4844,183.4844 149.0625,183.7656 Q149.6406,184.0313 150.4375,184.0313 Q151.1719,184.0313 151.9063,183.8594 Q152.6563,183.6875 153.5313,183.3906 L153.5313,185.5469 Q153.125,185.7031 152.7344,185.8281 Q152.3438,185.9375 151.9375,186.0156 Q151.5313,186.0938 151.1094,186.125 Q150.6875,186.1719 150.1875,186.1719 Q148.7813,186.1719 147.75,185.7188 Q146.7344,185.2656 146.0625,184.4531 Q145.3906,183.6406 145.0625,182.5 Q144.7344,181.3438 144.7344,179.9531 Q144.7344,178.5781 145.1094,177.4219 Q145.4844,176.2656 146.2031,175.4375 Q146.9219,174.6094 147.9844,174.1563 Q149.0469,173.6875 150.4375,173.6875 Q151.3438,173.6875 152.25,173.9219 Q153.1563,174.1406 153.9844,174.5469 L153.1563,176.6406 Q152.4688,176.3125 151.7813,176.0781 Q151.0938,175.8281 150.4375,175.8281 Z " fill="#000000"/><text fill="#000000" font-family="sans-serif" font-size="14" lengthAdjust="spacing" textLength="80" x="164.5" y="184.8467">AudioSource</text><line style="stroke:#181818;stroke-width:0.5;" x1="136.5" x2="246.5" y1="196" y2="196"/><line style="stroke:#181818;stroke-width:0.5;" x1="136.5" x2="246.5" y1="204" y2="204"/></g><!--link Sound to AudioClip--><g id="link_Sound_AudioClip"><path codeLine="6" d="M97.2,104.35 C87.51,122.68 76.77,142.98 68.37,158.88 " fill="none" id="Sound-to-AudioClip" style="stroke:#181818;stroke-width:1.0;"/><polygon fill="#181818" points="65.84,163.66,73.5925,157.5855,68.184,159.2435,66.5261,153.8351,65.84,163.66" style="stroke:#181818;stroke-width:1.0;"/><text fill="#000000" font-family="sans-serif" font-size="13" lengthAdjust="spacing" textLength="20" x="46.4104" y="152.9821">clip</text></g><!--link Sound to AudioSource--><g id="link_Sound_AudioSource"><path codeLine="7" d="M147.8,104.35 C157.49,122.68 168.23,142.98 176.63,158.88 " fill="none" id="Sound-to-AudioSource" style="stroke:#181818;stroke-width:1.0;"/><polygon fill="#181818" points="179.16,163.66,178.4739,153.8351,176.816,159.2435,171.4075,157.5855,179.16,163.66" style="stroke:#181818;stroke-width:1.0;"/><text fill="#000000" font-family="sans-serif" font-size="13" lengthAdjust="spacing" textLength="40" x="131.2771" y="152.9821">source</text></g><!--SRC=[Iyv9B2vM2CulpKjHgEPI009jXRp4t5G5AuNYagBCl7IeM5b-JYbOD2qdFx44AbYGMPAS0HUhvO8Oewjhfw2Kd9DPeAJWM9gIcUyCP29B5UUN5YMdGYM3mHm0]--></g></svg>