<?xml version="1.0" encoding="us-ascii" standalone="no"?><svg xmlns="http://www.w3.org/2000/svg" xmlns:xlink="http://www.w3.org/1999/xlink" contentStyleType="text/css" height="479px" preserveAspectRatio="none" style="width:399px;height:479px;background:#FFFFFF;" version="1.1" viewBox="0 0 399 479" width="399px" zoomAndPan="magnify"><defs/><g><!--class SoundManager--><g id="elem_SoundManager"><rect codeLine="1" fill="#F1F1F1" height="357.6406" id="SoundManager" rx="2.5" ry="2.5" style="stroke:#181818;stroke-width:0.5;" width="328" x="7" y="115"/><ellipse cx="119.75" cy="131" fill="#ADD1B2" rx="11" ry="11" style="stroke:#181818;stroke-width:1.0;"/><path d="M119.6875,126.8281 Q118.9375,126.8281 118.375,127.125 Q117.8125,127.4063 117.4219,127.9375 Q117.0313,128.4688 116.8281,129.25 Q116.6406,130.0156 116.6406,130.9688 Q116.6406,131.9375 116.8125,132.7031 Q117,133.4531 117.3594,133.9688 Q117.7344,134.4844 118.3125,134.7656 Q118.8906,135.0313 119.6875,135.0313 Q120.4219,135.0313 121.1563,134.8594 Q121.9063,134.6875 122.7813,134.3906 L122.7813,136.5469 Q122.375,136.7031 121.9844,136.8281 Q121.5938,136.9375 121.1875,137.0156 Q120.7813,137.0938 120.3594,137.125 Q119.9375,137.1719 119.4375,137.1719 Q118.0313,137.1719 117,136.7188 Q115.9844,136.2656 115.3125,135.4531 Q114.6406,134.6406 114.3125,133.5 Q113.9844,132.3438 113.9844,130.9531 Q113.9844,129.5781 114.3594,128.4219 Q114.7344,127.2656 115.4531,126.4375 Q116.1719,125.6094 117.2344,125.1563 Q118.2969,124.6875 119.6875,124.6875 Q120.5938,124.6875 121.5,124.9219 Q122.4063,125.1406 123.2344,125.5469 L122.4063,127.6406 Q121.7188,127.3125 121.0313,127.0781 Q120.3438,126.8281 119.6875,126.8281 Z " fill="#000000"/><text fill="#000000" font-family="sans-serif" font-size="14" lengthAdjust="spacing" textLength="94" x="140.25" y="135.8467">SoundManager</text><line style="stroke:#181818;stroke-width:0.5;" x1="8" x2="334" y1="147" y2="147"/><ellipse cx="18" cy="160.6484" fill="none" rx="3" ry="3" style="stroke:#038048;stroke-width:1.0;"/><text fill="#000000" font-family="sans-serif" font-size="14" lengthAdjust="spacing" textLength="148" x="27" y="163.9951">music_multiplier : float</text><ellipse cx="18" cy="176.9453" fill="none" rx="3" ry="3" style="stroke:#038048;stroke-width:1.0;"/><text fill="#000000" font-family="sans-serif" font-size="14" lengthAdjust="spacing" textLength="129" x="27" y="180.292">sfx_multiplier : float</text><ellipse cx="18" cy="193.2422" fill="none" rx="3" ry="3" style="stroke:#038048;stroke-width:1.0;"/><text fill="#000000" font-family="sans-serif" font-size="14" lengthAdjust="spacing" textLength="124" x="27" y="196.5889">playingBGM : string</text><ellipse cx="18" cy="209.5391" fill="none" rx="3" ry="3" style="stroke:#038048;stroke-width:1.0;"/><text fill="#000000" font-family="sans-serif" font-size="14" lengthAdjust="spacing" textLength="166" x="27" y="212.8857">DingPitchMin : float = 0.5f</text><ellipse cx="18" cy="225.8359" fill="none" rx="3" ry="3" style="stroke:#038048;stroke-width:1.0;"/><text fill="#000000" font-family="sans-serif" font-size="14" lengthAdjust="spacing" textLength="168" x="27" y="229.1826">DingPitchMax : float = 3.0f</text><line style="stroke:#181818;stroke-width:0.5;" x1="8" x2="334" y1="236.4844" y2="236.4844"/><ellipse cx="18" cy="250.1328" fill="#84BE84" rx="3" ry="3" style="stroke:#038048;stroke-width:1.0;"/><text fill="#000000" font-family="sans-serif" font-size="14" lengthAdjust="spacing" textLength="106" x="27" y="253.4795">PlayJump() : void</text><ellipse cx="18" cy="266.4297" fill="#84BE84" rx="3" ry="3" style="stroke:#038048;stroke-width:1.0;"/><text fill="#000000" font-family="sans-serif" font-size="14" lengthAdjust="spacing" textLength="302" x="27" y="269.7764">PlayDing(currentCount:int, totalCount:int) : void</text><ellipse cx="18" cy="282.7266" fill="#84BE84" rx="3" ry="3" style="stroke:#038048;stroke-width:1.0;"/><text fill="#000000" font-family="sans-serif" font-size="14" lengthAdjust="spacing" textLength="137" x="27" y="286.0732">PlayMagicCoin() : void</text><ellipse cx="18" cy="299.0234" fill="#84BE84" rx="3" ry="3" style="stroke:#038048;stroke-width:1.0;"/><text fill="#000000" font-family="sans-serif" font-size="14" lengthAdjust="spacing" textLength="105" x="27" y="302.3701">PlaySlash() : void</text><ellipse cx="18" cy="315.3203" fill="#84BE84" rx="3" ry="3" style="stroke:#038048;stroke-width:1.0;"/><text fill="#000000" font-family="sans-serif" font-size="14" lengthAdjust="spacing" textLength="103" x="27" y="318.667">PlayHack() : void</text><ellipse cx="18" cy="331.6172" fill="#84BE84" rx="3" ry="3" style="stroke:#038048;stroke-width:1.0;"/><text fill="#000000" font-family="sans-serif" font-size="14" lengthAdjust="spacing" textLength="104" x="27" y="334.9639">PlayDash() : void</text><ellipse cx="18" cy="347.9141" fill="#84BE84" rx="3" ry="3" style="stroke:#038048;stroke-width:1.0;"/><text fill="#000000" font-family="sans-serif" font-size="14" lengthAdjust="spacing" textLength="109" x="27" y="351.2607">PlayShoot() : void</text><ellipse cx="18" cy="364.2109" fill="#84BE84" rx="3" ry="3" style="stroke:#038048;stroke-width:1.0;"/><text fill="#000000" font-family="sans-serif" font-size="14" lengthAdjust="spacing" textLength="155" x="27" y="367.5576">PlayBulletImpact() : void</text><ellipse cx="18" cy="380.5078" fill="#84BE84" rx="3" ry="3" style="stroke:#038048;stroke-width:1.0;"/><text fill="#000000" font-family="sans-serif" font-size="14" lengthAdjust="spacing" textLength="156" x="27" y="383.8545">PlaySwordImpact() : void</text><ellipse cx="18" cy="396.8047" fill="#84BE84" rx="3" ry="3" style="stroke:#038048;stroke-width:1.0;"/><text fill="#000000" font-family="sans-serif" font-size="14" lengthAdjust="spacing" textLength="179" x="27" y="400.1514">PlayPressurePlateUp() : void</text><ellipse cx="18" cy="413.1016" fill="#84BE84" rx="3" ry="3" style="stroke:#038048;stroke-width:1.0;"/><text fill="#000000" font-family="sans-serif" font-size="14" lengthAdjust="spacing" textLength="133" x="27" y="416.4482">PlayExplosion() : void</text><ellipse cx="18" cy="429.3984" fill="#84BE84" rx="3" ry="3" style="stroke:#038048;stroke-width:1.0;"/><text fill="#000000" font-family="sans-serif" font-size="14" lengthAdjust="spacing" textLength="106" x="27" y="432.7451">StopBGM() : void</text><ellipse cx="18" cy="445.6953" fill="#84BE84" rx="3" ry="3" style="stroke:#038048;stroke-width:1.0;"/><text fill="#000000" font-family="sans-serif" font-size="14" lengthAdjust="spacing" textLength="205" x="27" y="449.042">PlayBGMCombatRandom() : void</text><ellipse cx="18" cy="461.9922" fill="#84BE84" rx="3" ry="3" style="stroke:#038048;stroke-width:1.0;"/><text fill="#000000" font-family="sans-serif" font-size="14" lengthAdjust="spacing" textLength="180" x="27" y="465.3389">PlayBGM(name:string) : void</text></g><!--class MonoBehaviour--><g id="elem_MonoBehaviour"><rect fill="#F1F1F1" height="48" id="MonoBehaviour" rx="2.5" ry="2.5" style="stroke:#181818;stroke-width:0.5;" width="133" x="104.5" y="7"/><ellipse cx="119.5" cy="23" fill="#ADD1B2" rx="11" ry="11" style="stroke:#181818;stroke-width:1.0;"/><path d="M119.4375,18.8281 Q118.6875,18.8281 118.125,19.125 Q117.5625,19.4063 117.1719,19.9375 Q116.7813,20.4688 116.5781,21.25 Q116.3906,22.0156 116.3906,22.9688 Q116.3906,23.9375 116.5625,24.7031 Q116.75,25.4531 117.1094,25.9688 Q117.4844,26.4844 118.0625,26.7656 Q118.6406,27.0313 119.4375,27.0313 Q120.1719,27.0313 120.9063,26.8594 Q121.6563,26.6875 122.5313,26.3906 L122.5313,28.5469 Q122.125,28.7031 121.7344,28.8281 Q121.3438,28.9375 120.9375,29.0156 Q120.5313,29.0938 120.1094,29.125 Q119.6875,29.1719 119.1875,29.1719 Q117.7813,29.1719 116.75,28.7188 Q115.7344,28.2656 115.0625,27.4531 Q114.3906,26.6406 114.0625,25.5 Q113.7344,24.3438 113.7344,22.9531 Q113.7344,21.5781 114.1094,20.4219 Q114.4844,19.2656 115.2031,18.4375 Q115.9219,17.6094 116.9844,17.1563 Q118.0469,16.6875 119.4375,16.6875 Q120.3438,16.6875 121.25,16.9219 Q122.1563,17.1406 122.9844,17.5469 L122.1563,19.6406 Q121.4688,19.3125 120.7813,19.0781 Q120.0938,18.8281 119.4375,18.8281 Z " fill="#000000"/><text fill="#000000" font-family="sans-serif" font-size="14" lengthAdjust="spacing" textLength="101" x="133.5" y="27.8467">MonoBehaviour</text><line style="stroke:#181818;stroke-width:0.5;" x1="105.5" x2="236.5" y1="39" y2="39"/><line style="stroke:#181818;stroke-width:0.5;" x1="105.5" x2="236.5" y1="47" y2="47"/></g><!--reverse link MonoBehaviour to SoundManager--><g id="link_MonoBehaviour_SoundManager"><path codeLine="22" d="M171,75.35 C171,87.07 171,100.52 171,114.85 " fill="none" id="MonoBehaviour-backto-SoundManager" style="stroke:#181818;stroke-width:1.0;"/><polygon fill="none" points="164,75.16,171,55.16,178,75.16,164,75.16" style="stroke:#181818;stroke-width:1.0;"/></g><!--link SoundManager to SoundManager--><g id="link_SoundManager_SoundManager"><path codeLine="23" d="M335.33,251.08 C356.22,258.59 370,272.89 370,294 C370,313.46 358.29,327.14 340.09,335.03 " fill="none" id="SoundManager-to-SoundManager" style="stroke:#181818;stroke-width:1.0;"/><polygon fill="#181818" points="335.33,336.92,345.1704,337.3279,339.9792,335.0803,342.2268,329.8891,335.33,336.92" style="stroke:#181818;stroke-width:1.0;"/><text fill="#000000" font-family="sans-serif" font-size="13" lengthAdjust="spacing" textLength="50" x="342.7257" y="335.3801">Instance</text></g><!--SRC=[TPBVIyCm4CVV-rU4FLMqOo2-3FMXLUQ4mh3uBBSqROD9hYINML7_ToDkOsLfdYxt-TvnlxW2vrY5tjGb66Y5PLy92- -IQUyaVzDUaUoL36396eL0U-oQOHhs2ZwbQVDL6O0Z6-mzUGZcHXBlIcaEGUoEBUOtpPa2XXF5zNnnK6n2zcUl-_GYy1tA-iJ_5vroRwqmL8IsQ2aDNJ520dNyH-9AQ2KlK9fOqYfCgOk19-3lqIecz5M7I36GUwK4hNKFFCgh3xJrDDvOuPot8jWaNgE3UHnwXKxYMOCLOHyM5QrgLHQejq0lO6hK4vBKW1RB_oqV5Jz9YGPpqS5EehVizZlBHdUMZ8uko-xPR6qSWU5YDXB-0W00]--></g></svg>