<?xml version="1.0" encoding="us-ascii" standalone="no"?><svg xmlns="http://www.w3.org/2000/svg" xmlns:xlink="http://www.w3.org/1999/xlink" contentStyleType="text/css" height="658px" preserveAspectRatio="none" style="width:486px;height:658px;background:#FFFFFF;" version="1.1" viewBox="0 0 486 658" width="486px" zoomAndPan="magnify"><defs/><g><!--class SoundManager--><g id="elem_SoundManager"><rect codeLine="1" fill="#F1F1F1" height="536.9063" id="SoundManager" rx="2.5" ry="2.5" style="stroke:#181818;stroke-width:0.5;" width="335" x="7" y="115"/><ellipse cx="123.25" cy="131" fill="#ADD1B2" rx="11" ry="11" style="stroke:#181818;stroke-width:1.0;"/><path d="M123.1875,126.8281 Q122.4375,126.8281 121.875,127.125 Q121.3125,127.4063 120.9219,127.9375 Q120.5313,128.4688 120.3281,129.25 Q120.1406,130.0156 120.1406,130.9688 Q120.1406,131.9375 120.3125,132.7031 Q120.5,133.4531 120.8594,133.9688 Q121.2344,134.4844 121.8125,134.7656 Q122.3906,135.0313 123.1875,135.0313 Q123.9219,135.0313 124.6563,134.8594 Q125.4063,134.6875 126.2813,134.3906 L126.2813,136.5469 Q125.875,136.7031 125.4844,136.8281 Q125.0938,136.9375 124.6875,137.0156 Q124.2813,137.0938 123.8594,137.125 Q123.4375,137.1719 122.9375,137.1719 Q121.5313,137.1719 120.5,136.7188 Q119.4844,136.2656 118.8125,135.4531 Q118.1406,134.6406 117.8125,133.5 Q117.4844,132.3438 117.4844,130.9531 Q117.4844,129.5781 117.8594,128.4219 Q118.2344,127.2656 118.9531,126.4375 Q119.6719,125.6094 120.7344,125.1563 Q121.7969,124.6875 123.1875,124.6875 Q124.0938,124.6875 125,124.9219 Q125.9063,125.1406 126.7344,125.5469 L125.9063,127.6406 Q125.2188,127.3125 124.5313,127.0781 Q123.8438,126.8281 123.1875,126.8281 Z " fill="#000000"/><text fill="#000000" font-family="sans-serif" font-size="14" lengthAdjust="spacing" textLength="94" x="143.75" y="135.8467">SoundManager</text><line style="stroke:#181818;stroke-width:0.5;" x1="8" x2="341" y1="147" y2="147"/><ellipse cx="18" cy="160.6484" fill="none" rx="3" ry="3" style="stroke:#038048;stroke-width:1.0;"/><text fill="#000000" font-family="sans-serif" font-size="14" lengthAdjust="spacing" textLength="148" x="27" y="163.9951">music_multiplier : float</text><ellipse cx="18" cy="176.9453" fill="none" rx="3" ry="3" style="stroke:#038048;stroke-width:1.0;"/><text fill="#000000" font-family="sans-serif" font-size="14" lengthAdjust="spacing" textLength="129" x="27" y="180.292">sfx_multiplier : float</text><ellipse cx="18" cy="193.2422" fill="none" rx="3" ry="3" style="stroke:#038048;stroke-width:1.0;"/><text fill="#000000" font-family="sans-serif" font-size="14" lengthAdjust="spacing" textLength="124" x="27" y="196.5889">playingBGM : string</text><ellipse cx="18" cy="209.5391" fill="none" rx="3" ry="3" style="stroke:#038048;stroke-width:1.0;"/><text fill="#000000" font-family="sans-serif" font-size="14" lengthAdjust="spacing" textLength="107" x="27" y="212.8857">nextBGM : string</text><ellipse cx="18" cy="225.8359" fill="none" rx="3" ry="3" style="stroke:#038048;stroke-width:1.0;"/><text fill="#000000" font-family="sans-serif" font-size="14" lengthAdjust="spacing" textLength="255" x="27" y="229.1826">BGMMenu : string = "MEN NeoCityDive"</text><ellipse cx="18" cy="242.1328" fill="none" rx="3" ry="3" style="stroke:#038048;stroke-width:1.0;"/><text fill="#000000" font-family="sans-serif" font-size="14" lengthAdjust="spacing" textLength="284" x="27" y="245.4795">BGMExploration : string = "EXP BlueTwilight"</text><ellipse cx="18" cy="258.4297" fill="none" rx="3" ry="3" style="stroke:#038048;stroke-width:1.0;"/><text fill="#000000" font-family="sans-serif" font-size="14" lengthAdjust="spacing" textLength="125" x="27" y="261.7764">_prev_scene : string</text><ellipse cx="18" cy="274.7266" fill="none" rx="3" ry="3" style="stroke:#038048;stroke-width:1.0;"/><text fill="#000000" font-family="sans-serif" font-size="14" lengthAdjust="spacing" textLength="143" x="27" y="278.0732">_current_scene : string</text><ellipse cx="18" cy="291.0234" fill="none" rx="3" ry="3" style="stroke:#038048;stroke-width:1.0;"/><text fill="#000000" font-family="sans-serif" font-size="14" lengthAdjust="spacing" textLength="166" x="27" y="294.3701">DingPitchMin : float = 0.5f</text><ellipse cx="18" cy="307.3203" fill="none" rx="3" ry="3" style="stroke:#038048;stroke-width:1.0;"/><text fill="#000000" font-family="sans-serif" font-size="14" lengthAdjust="spacing" textLength="168" x="27" y="310.667">DingPitchMax : float = 3.0f</text><line style="stroke:#181818;stroke-width:0.5;" x1="8" x2="341" y1="317.9688" y2="317.9688"/><ellipse cx="18" cy="331.6172" fill="#84BE84" rx="3" ry="3" style="stroke:#038048;stroke-width:1.0;"/><text fill="#000000" font-family="sans-serif" font-size="14" lengthAdjust="spacing" textLength="309" x="27" y="334.9639">PlayBGMBySceneName(sceneName:string) : void</text><ellipse cx="18" cy="347.9141" fill="#84BE84" rx="3" ry="3" style="stroke:#038048;stroke-width:1.0;"/><text fill="#000000" font-family="sans-serif" font-size="14" lengthAdjust="spacing" textLength="211" x="27" y="351.2607">GetRandomCombatBGM() : string</text><ellipse cx="18" cy="364.2109" fill="#84BE84" rx="3" ry="3" style="stroke:#038048;stroke-width:1.0;"/><text fill="#000000" font-family="sans-serif" font-size="14" lengthAdjust="spacing" textLength="106" x="27" y="367.5576">PlayJump() : void</text><ellipse cx="18" cy="380.5078" fill="#84BE84" rx="3" ry="3" style="stroke:#038048;stroke-width:1.0;"/><text fill="#000000" font-family="sans-serif" font-size="14" lengthAdjust="spacing" textLength="302" x="27" y="383.8545">PlayDing(currentCount:int, totalCount:int) : void</text><ellipse cx="18" cy="396.8047" fill="#84BE84" rx="3" ry="3" style="stroke:#038048;stroke-width:1.0;"/><text fill="#000000" font-family="sans-serif" font-size="14" lengthAdjust="spacing" textLength="137" x="27" y="400.1514">PlayMagicCoin() : void</text><ellipse cx="18" cy="413.1016" fill="#84BE84" rx="3" ry="3" style="stroke:#038048;stroke-width:1.0;"/><text fill="#000000" font-family="sans-serif" font-size="14" lengthAdjust="spacing" textLength="129" x="27" y="416.4482">PlayJumpPad() : void</text><ellipse cx="18" cy="429.3984" fill="#84BE84" rx="3" ry="3" style="stroke:#038048;stroke-width:1.0;"/><text fill="#000000" font-family="sans-serif" font-size="14" lengthAdjust="spacing" textLength="107" x="27" y="432.7451">PlayLaser() : void</text><ellipse cx="18" cy="445.6953" fill="#84BE84" rx="3" ry="3" style="stroke:#038048;stroke-width:1.0;"/><text fill="#000000" font-family="sans-serif" font-size="14" lengthAdjust="spacing" textLength="112" x="27" y="449.042">PlayHover() : void</text><ellipse cx="18" cy="461.9922" fill="#84BE84" rx="3" ry="3" style="stroke:#038048;stroke-width:1.0;"/><text fill="#000000" font-family="sans-serif" font-size="14" lengthAdjust="spacing" textLength="125" x="27" y="465.3389">PlayConfirm() : void</text><ellipse cx="18" cy="478.2891" fill="#84BE84" rx="3" ry="3" style="stroke:#038048;stroke-width:1.0;"/><text fill="#000000" font-family="sans-serif" font-size="14" lengthAdjust="spacing" textLength="105" x="27" y="481.6357">PlaySlash() : void</text><ellipse cx="18" cy="494.5859" fill="#84BE84" rx="3" ry="3" style="stroke:#038048;stroke-width:1.0;"/><text fill="#000000" font-family="sans-serif" font-size="14" lengthAdjust="spacing" textLength="103" x="27" y="497.9326">PlayHack() : void</text><ellipse cx="18" cy="510.8828" fill="#84BE84" rx="3" ry="3" style="stroke:#038048;stroke-width:1.0;"/><text fill="#000000" font-family="sans-serif" font-size="14" lengthAdjust="spacing" textLength="104" x="27" y="514.2295">PlayDash() : void</text><ellipse cx="18" cy="527.1797" fill="#84BE84" rx="3" ry="3" style="stroke:#038048;stroke-width:1.0;"/><text fill="#000000" font-family="sans-serif" font-size="14" lengthAdjust="spacing" textLength="109" x="27" y="530.5264">PlayShoot() : void</text><ellipse cx="18" cy="543.4766" fill="#84BE84" rx="3" ry="3" style="stroke:#038048;stroke-width:1.0;"/><text fill="#000000" font-family="sans-serif" font-size="14" lengthAdjust="spacing" textLength="155" x="27" y="546.8232">PlayBulletImpact() : void</text><ellipse cx="18" cy="559.7734" fill="#84BE84" rx="3" ry="3" style="stroke:#038048;stroke-width:1.0;"/><text fill="#000000" font-family="sans-serif" font-size="14" lengthAdjust="spacing" textLength="156" x="27" y="563.1201">PlaySwordImpact() : void</text><ellipse cx="18" cy="576.0703" fill="#84BE84" rx="3" ry="3" style="stroke:#038048;stroke-width:1.0;"/><text fill="#000000" font-family="sans-serif" font-size="14" lengthAdjust="spacing" textLength="179" x="27" y="579.417">PlayPressurePlateUp() : void</text><ellipse cx="18" cy="592.3672" fill="#84BE84" rx="3" ry="3" style="stroke:#038048;stroke-width:1.0;"/><text fill="#000000" font-family="sans-serif" font-size="14" lengthAdjust="spacing" textLength="133" x="27" y="595.7139">PlayExplosion() : void</text><ellipse cx="18" cy="608.6641" fill="#84BE84" rx="3" ry="3" style="stroke:#038048;stroke-width:1.0;"/><text fill="#000000" font-family="sans-serif" font-size="14" lengthAdjust="spacing" textLength="106" x="27" y="612.0107">StopBGM() : void</text><ellipse cx="18" cy="624.9609" fill="#84BE84" rx="3" ry="3" style="stroke:#038048;stroke-width:1.0;"/><text fill="#000000" font-family="sans-serif" font-size="14" lengthAdjust="spacing" textLength="205" x="27" y="628.3076">PlayBGMCombatRandom() : void</text><ellipse cx="18" cy="641.2578" fill="#84BE84" rx="3" ry="3" style="stroke:#038048;stroke-width:1.0;"/><text fill="#000000" font-family="sans-serif" font-size="14" lengthAdjust="spacing" textLength="180" x="27" y="644.6045">PlayBGM(name:string) : void</text></g><!--class List`1--><g id="elem_List`1"><rect codeLine="33" fill="#F1F1F1" height="48" id="List`1" rx="2.5" ry="2.5" style="stroke:#181818;stroke-width:0.5;" width="80" x="395.5" y="359.5"/><ellipse cx="410.5" cy="375.5" fill="#ADD1B2" rx="11" ry="11" style="stroke:#181818;stroke-width:1.0;"/><path d="M410.4375,371.3281 Q409.6875,371.3281 409.125,371.625 Q408.5625,371.9063 408.1719,372.4375 Q407.7813,372.9688 407.5781,373.75 Q407.3906,374.5156 407.3906,375.4688 Q407.3906,376.4375 407.5625,377.2031 Q407.75,377.9531 408.1094,378.4688 Q408.4844,378.9844 409.0625,379.2656 Q409.6406,379.5313 410.4375,379.5313 Q411.1719,379.5313 411.9063,379.3594 Q412.6563,379.1875 413.5313,378.8906 L413.5313,381.0469 Q413.125,381.2031 412.7344,381.3281 Q412.3438,381.4375 411.9375,381.5156 Q411.5313,381.5938 411.1094,381.625 Q410.6875,381.6719 410.1875,381.6719 Q408.7813,381.6719 407.75,381.2188 Q406.7344,380.7656 406.0625,379.9531 Q405.3906,379.1406 405.0625,378 Q404.7344,376.8438 404.7344,375.4531 Q404.7344,374.0781 405.1094,372.9219 Q405.4844,371.7656 406.2031,370.9375 Q406.9219,370.1094 407.9844,369.6563 Q409.0469,369.1875 410.4375,369.1875 Q411.3438,369.1875 412.25,369.4219 Q413.1563,369.6406 413.9844,370.0469 L413.1563,372.1406 Q412.4688,371.8125 411.7813,371.5781 Q411.0938,371.3281 410.4375,371.3281 Z " fill="#000000"/><text fill="#000000" font-family="sans-serif" font-size="14" lengthAdjust="spacing" textLength="38" x="424.5" y="380.3467">List`1</text><rect fill="#FFFFFF" height="15.9688" style="stroke:#181818;stroke-width:1.0;stroke-dasharray:2.0,2.0;" width="8" x="470.5" y="356.5"/><text fill="#000000" font-family="sans-serif" font-size="12" font-style="italic" lengthAdjust="spacing" textLength="6" x="471.5" y="368.6387">T</text><line style="stroke:#181818;stroke-width:0.5;" x1="396.5" x2="474.5" y1="391.5" y2="391.5"/><line style="stroke:#181818;stroke-width:0.5;" x1="396.5" x2="474.5" y1="399.5" y2="399.5"/></g><!--class MonoBehaviour--><g id="elem_MonoBehaviour"><rect fill="#F1F1F1" height="48" id="MonoBehaviour" rx="2.5" ry="2.5" style="stroke:#181818;stroke-width:0.5;" width="133" x="108" y="7"/><ellipse cx="123" cy="23" fill="#ADD1B2" rx="11" ry="11" style="stroke:#181818;stroke-width:1.0;"/><path d="M122.9375,18.8281 Q122.1875,18.8281 121.625,19.125 Q121.0625,19.4063 120.6719,19.9375 Q120.2813,20.4688 120.0781,21.25 Q119.8906,22.0156 119.8906,22.9688 Q119.8906,23.9375 120.0625,24.7031 Q120.25,25.4531 120.6094,25.9688 Q120.9844,26.4844 121.5625,26.7656 Q122.1406,27.0313 122.9375,27.0313 Q123.6719,27.0313 124.4063,26.8594 Q125.1563,26.6875 126.0313,26.3906 L126.0313,28.5469 Q125.625,28.7031 125.2344,28.8281 Q124.8438,28.9375 124.4375,29.0156 Q124.0313,29.0938 123.6094,29.125 Q123.1875,29.1719 122.6875,29.1719 Q121.2813,29.1719 120.25,28.7188 Q119.2344,28.2656 118.5625,27.4531 Q117.8906,26.6406 117.5625,25.5 Q117.2344,24.3438 117.2344,22.9531 Q117.2344,21.5781 117.6094,20.4219 Q117.9844,19.2656 118.7031,18.4375 Q119.4219,17.6094 120.4844,17.1563 Q121.5469,16.6875 122.9375,16.6875 Q123.8438,16.6875 124.75,16.9219 Q125.6563,17.1406 126.4844,17.5469 L125.6563,19.6406 Q124.9688,19.3125 124.2813,19.0781 Q123.5938,18.8281 122.9375,18.8281 Z " fill="#000000"/><text fill="#000000" font-family="sans-serif" font-size="14" lengthAdjust="spacing" textLength="101" x="137" y="27.8467">MonoBehaviour</text><line style="stroke:#181818;stroke-width:0.5;" x1="109" x2="240" y1="39" y2="39"/><line style="stroke:#181818;stroke-width:0.5;" x1="109" x2="240" y1="47" y2="47"/></g><!--reverse link MonoBehaviour to SoundManager--><g id="link_MonoBehaviour_SoundManager"><path codeLine="35" d="M174.5,75.61 C174.5,87.13 174.5,100.43 174.5,114.91 " fill="none" id="MonoBehaviour-backto-SoundManager" style="stroke:#181818;stroke-width:1.0;"/><polygon fill="none" points="167.5,75.27,174.5,55.27,181.5,75.27,167.5,75.27" style="stroke:#181818;stroke-width:1.0;"/></g><!--link SoundManager to SoundManager--><g id="link_SoundManager_SoundManager"><path codeLine="36" d="M342.1,326.02 C363.15,336.15 377,355.31 377,383.5 C377,409.49 365.23,427.8 346.9,438.44 " fill="none" id="SoundManager-to-SoundManager" style="stroke:#181818;stroke-width:1.0;"/><polygon fill="#181818" points="342.1,440.98,351.9249,440.2939,346.5165,438.636,348.1745,433.2275,342.1,440.98" style="stroke:#181818;stroke-width:1.0;"/><text fill="#000000" font-family="sans-serif" font-size="13" lengthAdjust="spacing" textLength="50" x="350.2253" y="440.1602">Instance</text></g><!--link SoundManager to List`1--><g id="link_SoundManager_List`1"><path codeLine="37" d="M355.51,383.5 C364.45,383.5 373.39,383.5 382.32,383.5 " fill="none" id="SoundManager-List`1" style="stroke:#181818;stroke-width:1.0;"/><polygon fill="none" points="342.21,383.5,348.21,387.5,354.21,383.5,348.21,379.5,342.21,383.5" style="stroke:#181818;stroke-width:1.0;"/><polygon fill="#181818" points="395.42,383.5,386.42,379.5,390.42,383.5,386.42,387.5,395.42,383.5" style="stroke:#181818;stroke-width:1.0;"/><line style="stroke:#181818;stroke-width:1.0;" x1="390.42" x2="382.42" y1="383.5" y2="383.5"/><text fill="#000000" font-family="sans-serif" font-size="13" lengthAdjust="spacing" textLength="122" x="292.4276" y="348.8276">BGMCombat&lt;string&gt;</text></g><!--SRC=[VPF1Rjim38RlUGh19nTRYWx3Ba6QWzqWwr07njm2lMMgpCJ2PD6GA3V1rdUVtCHfuodrYURtKwH4KYXkBIlGwJBZcc_0i3yZvhzFh7PMYbNj5Cb6IGycRAsGqm7RzVOyR1JVIRr95fa7beot3qJ3bW9kxyf0kwERNRCeco_P4Z2LjBkHBKHlqlcsKMWuITGd4VF7d2NAmVspL79JKH-oQWoqAoj0mp3nIZXZG5EOtdWpboIgJEh-YZxHrUMtzNyAldsd-7fvrIjo_nQ-vcHNT1cMl8ROzjPad-t2HxOeoqF40kWdroNMATPFl7kk-69OMNVg3rStyI2sytSrnOTxfRwrD96QFZD2ukhu7uZB-4QA5AKE7TebotaPGdVSWWc1xzY6GOfwBKqTGeMVo2fu61U_WxSzeoygH0g1n2a5T5itN0HvyOocF8zp0zOw0zucU0Wsu7K-hP_E8Im8cxwTmweMsRxT-zQVaSGwC3Kl8_6wnj6TjFJhIpIzd_ajVXbbg361YhSIdM7Jl-FnoQQFJjP-F9wnw5PRubf0z84GE-6nskc-bbbqpFuF]--></g></svg>