<?xml version="1.0" encoding="us-ascii" standalone="no"?><svg xmlns="http://www.w3.org/2000/svg" xmlns:xlink="http://www.w3.org/1999/xlink" contentStyleType="text/css" height="267px" preserveAspectRatio="none" style="width:309px;height:267px;background:#FFFFFF;" version="1.1" viewBox="0 0 309 267" width="309px" zoomAndPan="magnify"><defs/><g><!--class Boss1ComponentController--><g id="elem_Boss1ComponentController"><rect codeLine="1" fill="#F1F1F1" height="145.7813" id="Boss1ComponentController" rx="2.5" ry="2.5" style="stroke:#181818;stroke-width:0.5;" width="295" x="7" y="115"/><ellipse cx="62.25" cy="131" fill="#ADD1B2" rx="11" ry="11" style="stroke:#181818;stroke-width:1.0;"/><path d="M62.1875,126.8281 Q61.4375,126.8281 60.875,127.125 Q60.3125,127.4063 59.9219,127.9375 Q59.5313,128.4688 59.3281,129.25 Q59.1406,130.0156 59.1406,130.9688 Q59.1406,131.9375 59.3125,132.7031 Q59.5,133.4531 59.8594,133.9688 Q60.2344,134.4844 60.8125,134.7656 Q61.3906,135.0313 62.1875,135.0313 Q62.9219,135.0313 63.6563,134.8594 Q64.4063,134.6875 65.2813,134.3906 L65.2813,136.5469 Q64.875,136.7031 64.4844,136.8281 Q64.0938,136.9375 63.6875,137.0156 Q63.2813,137.0938 62.8594,137.125 Q62.4375,137.1719 61.9375,137.1719 Q60.5313,137.1719 59.5,136.7188 Q58.4844,136.2656 57.8125,135.4531 Q57.1406,134.6406 56.8125,133.5 Q56.4844,132.3438 56.4844,130.9531 Q56.4844,129.5781 56.8594,128.4219 Q57.2344,127.2656 57.9531,126.4375 Q58.6719,125.6094 59.7344,125.1563 Q60.7969,124.6875 62.1875,124.6875 Q63.0938,124.6875 64,124.9219 Q64.9063,125.1406 65.7344,125.5469 L64.9063,127.6406 Q64.2188,127.3125 63.5313,127.0781 Q62.8438,126.8281 62.1875,126.8281 Z " fill="#000000"/><text fill="#000000" font-family="sans-serif" font-size="14" lengthAdjust="spacing" textLength="176" x="82.75" y="135.8467">Boss1ComponentController</text><line style="stroke:#181818;stroke-width:0.5;" x1="8" x2="301" y1="147" y2="147"/><line style="stroke:#181818;stroke-width:0.5;" x1="8" x2="301" y1="155" y2="155"/><ellipse cx="18" cy="168.6484" fill="#84BE84" rx="3" ry="3" style="stroke:#038048;stroke-width:1.0;"/><text fill="#000000" font-family="sans-serif" font-size="14" lengthAdjust="spacing" textLength="152" x="27" y="171.9951">GetHealDelay() : double</text><ellipse cx="18" cy="184.9453" fill="#84BE84" rx="3" ry="3" style="stroke:#038048;stroke-width:1.0;"/><text fill="#000000" font-family="sans-serif" font-size="14" lengthAdjust="spacing" textLength="243" x="27" y="188.292">SetHealDelay(healDelay:double) : void</text><ellipse cx="18" cy="201.2422" fill="#84BE84" rx="3" ry="3" style="stroke:#038048;stroke-width:1.0;"/><text fill="#000000" font-family="sans-serif" font-size="14" lengthAdjust="spacing" textLength="165" x="27" y="204.5889">GetHealPercent() : double</text><ellipse cx="18" cy="217.5391" fill="#84BE84" rx="3" ry="3" style="stroke:#038048;stroke-width:1.0;"/><text fill="#000000" font-family="sans-serif" font-size="14" lengthAdjust="spacing" textLength="269" x="27" y="220.8857">SetHealPercent(healPercent:double) : void</text><ellipse cx="18" cy="233.8359" fill="#84BE84" rx="3" ry="3" style="stroke:#038048;stroke-width:1.0;"/><text fill="#000000" font-family="sans-serif" font-size="14" lengthAdjust="spacing" textLength="95" x="27" y="237.1826">GetGun() : Gun</text><ellipse cx="18" cy="250.1328" fill="#84BE84" rx="3" ry="3" style="stroke:#038048;stroke-width:1.0;"/><text fill="#000000" font-family="sans-serif" font-size="14" lengthAdjust="spacing" textLength="127" x="27" y="253.4795">GetHealth() : Health</text></g><!--class Boss1BaseController--><g id="elem_Boss1BaseController"><rect fill="#F1F1F1" height="48" id="Boss1BaseController" rx="2.5" ry="2.5" style="stroke:#181818;stroke-width:0.5;" width="164" x="72.5" y="7"/><ellipse cx="87.5" cy="23" fill="#ADD1B2" rx="11" ry="11" style="stroke:#181818;stroke-width:1.0;"/><path d="M87.4375,18.8281 Q86.6875,18.8281 86.125,19.125 Q85.5625,19.4063 85.1719,19.9375 Q84.7813,20.4688 84.5781,21.25 Q84.3906,22.0156 84.3906,22.9688 Q84.3906,23.9375 84.5625,24.7031 Q84.75,25.4531 85.1094,25.9688 Q85.4844,26.4844 86.0625,26.7656 Q86.6406,27.0313 87.4375,27.0313 Q88.1719,27.0313 88.9063,26.8594 Q89.6563,26.6875 90.5313,26.3906 L90.5313,28.5469 Q90.125,28.7031 89.7344,28.8281 Q89.3438,28.9375 88.9375,29.0156 Q88.5313,29.0938 88.1094,29.125 Q87.6875,29.1719 87.1875,29.1719 Q85.7813,29.1719 84.75,28.7188 Q83.7344,28.2656 83.0625,27.4531 Q82.3906,26.6406 82.0625,25.5 Q81.7344,24.3438 81.7344,22.9531 Q81.7344,21.5781 82.1094,20.4219 Q82.4844,19.2656 83.2031,18.4375 Q83.9219,17.6094 84.9844,17.1563 Q86.0469,16.6875 87.4375,16.6875 Q88.3438,16.6875 89.25,16.9219 Q90.1563,17.1406 90.9844,17.5469 L90.1563,19.6406 Q89.4688,19.3125 88.7813,19.0781 Q88.0938,18.8281 87.4375,18.8281 Z " fill="#000000"/><text fill="#000000" font-family="sans-serif" font-size="14" lengthAdjust="spacing" textLength="132" x="101.5" y="27.8467">Boss1BaseController</text><line style="stroke:#181818;stroke-width:0.5;" x1="73.5" x2="235.5" y1="39" y2="39"/><line style="stroke:#181818;stroke-width:0.5;" x1="73.5" x2="235.5" y1="47" y2="47"/></g><!--reverse link Boss1BaseController to Boss1ComponentController--><g id="link_Boss1BaseController_Boss1ComponentController"><path codeLine="9" d="M154.5,75.41 C154.5,87.69 154.5,101.39 154.5,114.88 " fill="none" id="Boss1BaseController-backto-Boss1ComponentController" style="stroke:#181818;stroke-width:1.0;"/><polygon fill="none" points="147.5,75.21,154.5,55.21,161.5,75.21,147.5,75.21" style="stroke:#181818;stroke-width:1.0;"/></g><!--SRC=[Iyv9B2vMSCelBZPqpiyjoCzBpIjnpiyhAShFoKajKgZcKW02RGNtr1AFrCGSbzISn4eDJGKhXPJyqgISLAXiCB9i1enb1L43KbsMdvc2Qb90Qb4oq2gSPi7aCn1idEQvb-Q1pG7Ig9QKP8358KokMYwmDvqIYrEHV6XJewkBq_y0]--></g></svg>