<?xml version="1.0" encoding="us-ascii" standalone="no"?><svg xmlns="http://www.w3.org/2000/svg" xmlns:xlink="http://www.w3.org/1999/xlink" contentStyleType="text/css" height="343px" preserveAspectRatio="none" style="width:249px;height:343px;background:#FFFFFF;" version="1.1" viewBox="0 0 249 343" width="249px" zoomAndPan="magnify"><defs/><g><!--class Boss1Controller--><g id="elem_Boss1Controller"><rect codeLine="1" fill="#F1F1F1" height="48" id="Boss1Controller" rx="2.5" ry="2.5" style="stroke:#181818;stroke-width:0.5;" width="134" x="43" y="115"/><ellipse cx="58" cy="131" fill="#ADD1B2" rx="11" ry="11" style="stroke:#181818;stroke-width:1.0;"/><path d="M57.9375,126.8281 Q57.1875,126.8281 56.625,127.125 Q56.0625,127.4063 55.6719,127.9375 Q55.2813,128.4688 55.0781,129.25 Q54.8906,130.0156 54.8906,130.9688 Q54.8906,131.9375 55.0625,132.7031 Q55.25,133.4531 55.6094,133.9688 Q55.9844,134.4844 56.5625,134.7656 Q57.1406,135.0313 57.9375,135.0313 Q58.6719,135.0313 59.4063,134.8594 Q60.1563,134.6875 61.0313,134.3906 L61.0313,136.5469 Q60.625,136.7031 60.2344,136.8281 Q59.8438,136.9375 59.4375,137.0156 Q59.0313,137.0938 58.6094,137.125 Q58.1875,137.1719 57.6875,137.1719 Q56.2813,137.1719 55.25,136.7188 Q54.2344,136.2656 53.5625,135.4531 Q52.8906,134.6406 52.5625,133.5 Q52.2344,132.3438 52.2344,130.9531 Q52.2344,129.5781 52.6094,128.4219 Q52.9844,127.2656 53.7031,126.4375 Q54.4219,125.6094 55.4844,125.1563 Q56.5469,124.6875 57.9375,124.6875 Q58.8438,124.6875 59.75,124.9219 Q60.6563,125.1406 61.4844,125.5469 L60.6563,127.6406 Q59.9688,127.3125 59.2813,127.0781 Q58.5938,126.8281 57.9375,126.8281 Z " fill="#000000"/><text fill="#000000" font-family="sans-serif" font-size="14" lengthAdjust="spacing" textLength="102" x="72" y="135.8467">Boss1Controller</text><line style="stroke:#181818;stroke-width:0.5;" x1="44" x2="176" y1="147" y2="147"/><line style="stroke:#181818;stroke-width:0.5;" x1="44" x2="176" y1="155" y2="155"/></g><!--class Phase--><g id="elem_Phase"><rect codeLine="3" fill="#F1F1F1" height="96.8906" id="Phase" rx="2.5" ry="2.5" style="stroke:#181818;stroke-width:0.5;" width="72" x="7" y="231"/><ellipse cx="23.35" cy="247" fill="#EB937F" rx="11" ry="11" style="stroke:#181818;stroke-width:1.0;"/><path d="M26.3656,253 L19.3813,253 L19.3813,240.8594 L26.3656,240.8594 L26.3656,242.9688 L21.9438,242.9688 L21.9438,245.6406 L26.0531,245.6406 L26.0531,247.75 L21.9438,247.75 L21.9438,250.875 L26.3656,250.875 L26.3656,253 Z " fill="#000000"/><text fill="#000000" font-family="sans-serif" font-size="14" lengthAdjust="spacing" textLength="37" x="37.65" y="251.8467">Phase</text><line style="stroke:#181818;stroke-width:0.5;" x1="8" x2="78" y1="263" y2="263"/><text fill="#000000" font-family="sans-serif" font-size="14" lengthAdjust="spacing" textLength="60" x="13" y="279.9951">NORMAL,</text><text fill="#000000" font-family="sans-serif" font-size="14" lengthAdjust="spacing" textLength="55" x="13" y="296.292">BOOST1,</text><text fill="#000000" font-family="sans-serif" font-size="14" lengthAdjust="spacing" textLength="55" x="13" y="312.5889">BOOST2,</text><line style="stroke:#181818;stroke-width:0.5;" x1="8" x2="78" y1="319.8906" y2="319.8906"/></g><!--class LaserPattern--><g id="elem_LaserPattern"><rect codeLine="8" fill="#F1F1F1" height="113.1875" id="LaserPattern" rx="2.5" ry="2.5" style="stroke:#181818;stroke-width:0.5;" width="128" x="114" y="223"/><ellipse cx="135.75" cy="239" fill="#EB937F" rx="11" ry="11" style="stroke:#181818;stroke-width:1.0;"/><path d="M138.7656,245 L131.7813,245 L131.7813,232.8594 L138.7656,232.8594 L138.7656,234.9688 L134.3438,234.9688 L134.3438,237.6406 L138.4531,237.6406 L138.4531,239.75 L134.3438,239.75 L134.3438,242.875 L138.7656,242.875 L138.7656,245 Z " fill="#000000"/><text fill="#000000" font-family="sans-serif" font-size="14" lengthAdjust="spacing" textLength="81" x="151.25" y="243.8467">LaserPattern</text><line style="stroke:#181818;stroke-width:0.5;" x1="115" x2="241" y1="255" y2="255"/><text fill="#000000" font-family="sans-serif" font-size="14" lengthAdjust="spacing" textLength="101" x="120" y="271.9951">LEFT_TO_RIGHT,</text><text fill="#000000" font-family="sans-serif" font-size="14" lengthAdjust="spacing" textLength="101" x="120" y="288.292">RIGHT_TO_LEFT,</text><text fill="#000000" font-family="sans-serif" font-size="14" lengthAdjust="spacing" textLength="116" x="120" y="304.5889">MIDDLE_TO_REAR,</text><text fill="#000000" font-family="sans-serif" font-size="14" lengthAdjust="spacing" textLength="116" x="120" y="320.8857">REAR_TO_MIDDLE,</text><line style="stroke:#181818;stroke-width:0.5;" x1="115" x2="241" y1="328.1875" y2="328.1875"/></g><!--class Boss1BaseController--><g id="elem_Boss1BaseController"><rect fill="#F1F1F1" height="48" id="Boss1BaseController" rx="2.5" ry="2.5" style="stroke:#181818;stroke-width:0.5;" width="164" x="28" y="7"/><ellipse cx="43" cy="23" fill="#ADD1B2" rx="11" ry="11" style="stroke:#181818;stroke-width:1.0;"/><path d="M42.9375,18.8281 Q42.1875,18.8281 41.625,19.125 Q41.0625,19.4063 40.6719,19.9375 Q40.2813,20.4688 40.0781,21.25 Q39.8906,22.0156 39.8906,22.9688 Q39.8906,23.9375 40.0625,24.7031 Q40.25,25.4531 40.6094,25.9688 Q40.9844,26.4844 41.5625,26.7656 Q42.1406,27.0313 42.9375,27.0313 Q43.6719,27.0313 44.4063,26.8594 Q45.1563,26.6875 46.0313,26.3906 L46.0313,28.5469 Q45.625,28.7031 45.2344,28.8281 Q44.8438,28.9375 44.4375,29.0156 Q44.0313,29.0938 43.6094,29.125 Q43.1875,29.1719 42.6875,29.1719 Q41.2813,29.1719 40.25,28.7188 Q39.2344,28.2656 38.5625,27.4531 Q37.8906,26.6406 37.5625,25.5 Q37.2344,24.3438 37.2344,22.9531 Q37.2344,21.5781 37.6094,20.4219 Q37.9844,19.2656 38.7031,18.4375 Q39.4219,17.6094 40.4844,17.1563 Q41.5469,16.6875 42.9375,16.6875 Q43.8438,16.6875 44.75,16.9219 Q45.6563,17.1406 46.4844,17.5469 L45.6563,19.6406 Q44.9688,19.3125 44.2813,19.0781 Q43.5938,18.8281 42.9375,18.8281 Z " fill="#000000"/><text fill="#000000" font-family="sans-serif" font-size="14" lengthAdjust="spacing" textLength="132" x="57" y="27.8467">Boss1BaseController</text><line style="stroke:#181818;stroke-width:0.5;" x1="29" x2="191" y1="39" y2="39"/><line style="stroke:#181818;stroke-width:0.5;" x1="29" x2="191" y1="47" y2="47"/></g><!--reverse link Boss1BaseController to Boss1Controller--><g id="link_Boss1BaseController_Boss1Controller"><path codeLine="14" d="M110,75.02 C110,88.58 110,103.04 110,114.68 " fill="none" id="Boss1BaseController-backto-Boss1Controller" style="stroke:#181818;stroke-width:1.0;"/><polygon fill="none" points="103,75,110,55,117,75,103,75" style="stroke:#181818;stroke-width:1.0;"/></g><!--reverse link Boss1Controller to Phase--><g id="link_Boss1Controller_Phase"><path codeLine="15" d="M92.21,176.78 C84.19,193.35 74.63,213.12 66.07,230.8 " fill="none" id="Boss1Controller-backto-Phase" style="stroke:#181818;stroke-width:1.0;"/><ellipse cx="95.3071" cy="170.382" fill="#FFFFFF" rx="8" ry="8" style="stroke:#181818;stroke-width:1.0;"/><line style="stroke:#181818;stroke-width:1.0;" x1="91.8242" x2="98.79" y1="177.5841" y2="163.18"/><line style="stroke:#181818;stroke-width:1.0;" x1="88.1051" x2="102.5092" y1="166.8992" y2="173.8649"/></g><!--reverse link Boss1Controller to LaserPattern--><g id="link_Boss1Controller_LaserPattern"><path codeLine="16" d="M128.13,176.92 C135.06,191.03 143.12,207.46 150.72,222.94 " fill="none" id="Boss1Controller-backto-LaserPattern" style="stroke:#181818;stroke-width:1.0;"/><ellipse cx="124.9058" cy="170.3611" fill="#FFFFFF" rx="8" ry="8" style="stroke:#181818;stroke-width:1.0;"/><line style="stroke:#181818;stroke-width:1.0;" x1="128.4317" x2="121.38" y1="177.5422" y2="163.18"/><line style="stroke:#181818;stroke-width:1.0;" x1="117.7247" x2="132.087" y1="173.887" y2="166.8353"/></g><!--SRC=[Iyv9B2vMSCelBZPqpiyhAShFoKajKgZcgkLApIlDLGZ8I2nE1N8LWC3FFyZNqKS7p7RozmyECKHY6-d0jFW0THG599QKf1RbGNNwkBg5n8VunmTvkdk4G3I1cI0na1n4oDVJnSN75QpErJ48gWp80eb0v41sW9tg1BG3oRasDRgww7xWGlUJDb0Ds3jOPP1T3G00]--></g></svg>