<?xml version="1.0" encoding="us-ascii" standalone="no"?><svg xmlns="http://www.w3.org/2000/svg" xmlns:xlink="http://www.w3.org/1999/xlink" contentStyleType="text/css" height="170px" preserveAspectRatio="none" style="width:148px;height:170px;background:#FFFFFF;" version="1.1" viewBox="0 0 148 170" width="148px" zoomAndPan="magnify"><defs/><g><!--class CollsionDamage--><g id="elem_CollsionDamage"><rect codeLine="1" fill="#F1F1F1" height="48" id="CollsionDamage" rx="2.5" ry="2.5" style="stroke:#181818;stroke-width:0.5;" width="134" x="7" y="115"/><ellipse cx="22" cy="131" fill="#ADD1B2" rx="11" ry="11" style="stroke:#181818;stroke-width:1.0;"/><path d="M21.9375,126.8281 Q21.1875,126.8281 20.625,127.125 Q20.0625,127.4063 19.6719,127.9375 Q19.2813,128.4688 19.0781,129.25 Q18.8906,130.0156 18.8906,130.9688 Q18.8906,131.9375 19.0625,132.7031 Q19.25,133.4531 19.6094,133.9688 Q19.9844,134.4844 20.5625,134.7656 Q21.1406,135.0313 21.9375,135.0313 Q22.6719,135.0313 23.4063,134.8594 Q24.1563,134.6875 25.0313,134.3906 L25.0313,136.5469 Q24.625,136.7031 24.2344,136.8281 Q23.8438,136.9375 23.4375,137.0156 Q23.0313,137.0938 22.6094,137.125 Q22.1875,137.1719 21.6875,137.1719 Q20.2813,137.1719 19.25,136.7188 Q18.2344,136.2656 17.5625,135.4531 Q16.8906,134.6406 16.5625,133.5 Q16.2344,132.3438 16.2344,130.9531 Q16.2344,129.5781 16.6094,128.4219 Q16.9844,127.2656 17.7031,126.4375 Q18.4219,125.6094 19.4844,125.1563 Q20.5469,124.6875 21.9375,124.6875 Q22.8438,124.6875 23.75,124.9219 Q24.6563,125.1406 25.4844,125.5469 L24.6563,127.6406 Q23.9688,127.3125 23.2813,127.0781 Q22.5938,126.8281 21.9375,126.8281 Z " fill="#000000"/><text fill="#000000" font-family="sans-serif" font-size="14" lengthAdjust="spacing" textLength="102" x="36" y="135.8467">CollsionDamage</text><line style="stroke:#181818;stroke-width:0.5;" x1="8" x2="140" y1="147" y2="147"/><line style="stroke:#181818;stroke-width:0.5;" x1="8" x2="140" y1="155" y2="155"/></g><!--class MonoBehaviour--><g id="elem_MonoBehaviour"><rect fill="#F1F1F1" height="48" id="MonoBehaviour" rx="2.5" ry="2.5" style="stroke:#181818;stroke-width:0.5;" width="133" x="7.5" y="7"/><ellipse cx="22.5" cy="23" fill="#ADD1B2" rx="11" ry="11" style="stroke:#181818;stroke-width:1.0;"/><path d="M22.4375,18.8281 Q21.6875,18.8281 21.125,19.125 Q20.5625,19.4063 20.1719,19.9375 Q19.7813,20.4688 19.5781,21.25 Q19.3906,22.0156 19.3906,22.9688 Q19.3906,23.9375 19.5625,24.7031 Q19.75,25.4531 20.1094,25.9688 Q20.4844,26.4844 21.0625,26.7656 Q21.6406,27.0313 22.4375,27.0313 Q23.1719,27.0313 23.9063,26.8594 Q24.6563,26.6875 25.5313,26.3906 L25.5313,28.5469 Q25.125,28.7031 24.7344,28.8281 Q24.3438,28.9375 23.9375,29.0156 Q23.5313,29.0938 23.1094,29.125 Q22.6875,29.1719 22.1875,29.1719 Q20.7813,29.1719 19.75,28.7188 Q18.7344,28.2656 18.0625,27.4531 Q17.3906,26.6406 17.0625,25.5 Q16.7344,24.3438 16.7344,22.9531 Q16.7344,21.5781 17.1094,20.4219 Q17.4844,19.2656 18.2031,18.4375 Q18.9219,17.6094 19.9844,17.1563 Q21.0469,16.6875 22.4375,16.6875 Q23.3438,16.6875 24.25,16.9219 Q25.1563,17.1406 25.9844,17.5469 L25.1563,19.6406 Q24.4688,19.3125 23.7813,19.0781 Q23.0938,18.8281 22.4375,18.8281 Z " fill="#000000"/><text fill="#000000" font-family="sans-serif" font-size="14" lengthAdjust="spacing" textLength="101" x="36.5" y="27.8467">MonoBehaviour</text><line style="stroke:#181818;stroke-width:0.5;" x1="8.5" x2="139.5" y1="39" y2="39"/><line style="stroke:#181818;stroke-width:0.5;" x1="8.5" x2="139.5" y1="47" y2="47"/></g><!--reverse link MonoBehaviour to CollsionDamage--><g id="link_MonoBehaviour_CollsionDamage"><path codeLine="3" d="M74,75.02 C74,88.58 74,103.04 74,114.68 " fill="none" id="MonoBehaviour-backto-CollsionDamage" style="stroke:#181818;stroke-width:1.0;"/><polygon fill="none" points="67,75,74,55,81,75,67,75" style="stroke:#181818;stroke-width:1.0;"/></g><!--SRC=[Iyv9B2vMSCxFoIdEpCzpISnDJ4zLgEQgvVBDpyjtIir8BClCBorIiAdHrKLJ1G00]--></g></svg>