<?xml version="1.0" encoding="us-ascii" standalone="no"?><svg xmlns="http://www.w3.org/2000/svg" xmlns:xlink="http://www.w3.org/1999/xlink" contentStyleType="text/css" height="284px" preserveAspectRatio="none" style="width:267px;height:284px;background:#FFFFFF;" version="1.1" viewBox="0 0 267 284" width="267px" zoomAndPan="magnify"><defs/><g><!--class CollectTrial--><g id="elem_CollectTrial"><rect codeLine="1" fill="#F1F1F1" height="162.0781" id="CollectTrial" rx="2.5" ry="2.5" style="stroke:#181818;stroke-width:0.5;" width="230" x="18.5" y="115"/><ellipse cx="93.75" cy="131" fill="#ADD1B2" rx="11" ry="11" style="stroke:#181818;stroke-width:1.0;"/><path d="M93.6875,126.8281 Q92.9375,126.8281 92.375,127.125 Q91.8125,127.4063 91.4219,127.9375 Q91.0313,128.4688 90.8281,129.25 Q90.6406,130.0156 90.6406,130.9688 Q90.6406,131.9375 90.8125,132.7031 Q91,133.4531 91.3594,133.9688 Q91.7344,134.4844 92.3125,134.7656 Q92.8906,135.0313 93.6875,135.0313 Q94.4219,135.0313 95.1563,134.8594 Q95.9063,134.6875 96.7813,134.3906 L96.7813,136.5469 Q96.375,136.7031 95.9844,136.8281 Q95.5938,136.9375 95.1875,137.0156 Q94.7813,137.0938 94.3594,137.125 Q93.9375,137.1719 93.4375,137.1719 Q92.0313,137.1719 91,136.7188 Q89.9844,136.2656 89.3125,135.4531 Q88.6406,134.6406 88.3125,133.5 Q87.9844,132.3438 87.9844,130.9531 Q87.9844,129.5781 88.3594,128.4219 Q88.7344,127.2656 89.4531,126.4375 Q90.1719,125.6094 91.2344,125.1563 Q92.2969,124.6875 93.6875,124.6875 Q94.5938,124.6875 95.5,124.9219 Q96.4063,125.1406 97.2344,125.5469 L96.4063,127.6406 Q95.7188,127.3125 95.0313,127.0781 Q94.3438,126.8281 93.6875,126.8281 Z " fill="#000000"/><text fill="#000000" font-family="sans-serif" font-size="14" lengthAdjust="spacing" textLength="71" x="114.25" y="135.8467">CollectTrial</text><line style="stroke:#181818;stroke-width:0.5;" x1="19.5" x2="247.5" y1="147" y2="147"/><line style="stroke:#181818;stroke-width:0.5;" x1="19.5" x2="247.5" y1="155" y2="155"/><ellipse cx="29.5" cy="168.6484" fill="#84BE84" rx="3" ry="3" style="stroke:#038048;stroke-width:1.0;"/><text fill="#000000" font-family="sans-serif" font-size="14" lengthAdjust="spacing" textLength="203" x="38.5" y="171.9951">SaveData(data:GameData) : void</text><ellipse cx="29.5" cy="184.9453" fill="#84BE84" rx="3" ry="3" style="stroke:#038048;stroke-width:1.0;"/><text fill="#000000" font-family="sans-serif" font-size="14" lengthAdjust="spacing" textLength="204" x="38.5" y="188.292">LoadData(data:GameData) : void</text><ellipse cx="29.5" cy="201.2422" fill="#84BE84" rx="3" ry="3" style="stroke:#038048;stroke-width:1.0;"/><text fill="#000000" font-family="sans-serif" font-size="14" lengthAdjust="spacing" textLength="166" x="38.5" y="204.5889">&#171;override&#187; Update() : void</text><ellipse cx="29.5" cy="217.5391" fill="#84BE84" rx="3" ry="3" style="stroke:#038048;stroke-width:1.0;"/><text fill="#000000" font-family="sans-serif" font-size="14" lengthAdjust="spacing" textLength="170" x="38.5" y="220.8857">&#171;override&#187; Interact() : void</text><ellipse cx="29.5" cy="233.8359" fill="#84BE84" rx="3" ry="3" style="stroke:#038048;stroke-width:1.0;"/><text fill="#000000" font-family="sans-serif" font-size="14" lengthAdjust="spacing" textLength="105" x="38.5" y="237.1826">StartTrial() : void</text><ellipse cx="29.5" cy="250.1328" fill="#84BE84" rx="3" ry="3" style="stroke:#038048;stroke-width:1.0;"/><text fill="#000000" font-family="sans-serif" font-size="14" lengthAdjust="spacing" textLength="116" x="38.5" y="253.4795">CancelTrial() : void</text><ellipse cx="29.5" cy="266.4297" fill="#84BE84" rx="3" ry="3" style="stroke:#038048;stroke-width:1.0;"/><text fill="#000000" font-family="sans-serif" font-size="14" lengthAdjust="spacing" textLength="90" x="38.5" y="269.7764">Collect() : void</text></g><!--class Interactable--><g id="elem_Interactable"><rect fill="#F1F1F1" height="48" id="Interactable" rx="2.5" ry="2.5" style="stroke:#181818;stroke-width:0.5;" width="109" x="7" y="7"/><ellipse cx="22" cy="23" fill="#ADD1B2" rx="11" ry="11" style="stroke:#181818;stroke-width:1.0;"/><path d="M21.9375,18.8281 Q21.1875,18.8281 20.625,19.125 Q20.0625,19.4063 19.6719,19.9375 Q19.2813,20.4688 19.0781,21.25 Q18.8906,22.0156 18.8906,22.9688 Q18.8906,23.9375 19.0625,24.7031 Q19.25,25.4531 19.6094,25.9688 Q19.9844,26.4844 20.5625,26.7656 Q21.1406,27.0313 21.9375,27.0313 Q22.6719,27.0313 23.4063,26.8594 Q24.1563,26.6875 25.0313,26.3906 L25.0313,28.5469 Q24.625,28.7031 24.2344,28.8281 Q23.8438,28.9375 23.4375,29.0156 Q23.0313,29.0938 22.6094,29.125 Q22.1875,29.1719 21.6875,29.1719 Q20.2813,29.1719 19.25,28.7188 Q18.2344,28.2656 17.5625,27.4531 Q16.8906,26.6406 16.5625,25.5 Q16.2344,24.3438 16.2344,22.9531 Q16.2344,21.5781 16.6094,20.4219 Q16.9844,19.2656 17.7031,18.4375 Q18.4219,17.6094 19.4844,17.1563 Q20.5469,16.6875 21.9375,16.6875 Q22.8438,16.6875 23.75,16.9219 Q24.6563,17.1406 25.4844,17.5469 L24.6563,19.6406 Q23.9688,19.3125 23.2813,19.0781 Q22.5938,18.8281 21.9375,18.8281 Z " fill="#000000"/><text fill="#000000" font-family="sans-serif" font-size="14" lengthAdjust="spacing" textLength="77" x="36" y="27.8467">Interactable</text><line style="stroke:#181818;stroke-width:0.5;" x1="8" x2="115" y1="39" y2="39"/><line style="stroke:#181818;stroke-width:0.5;" x1="8" x2="115" y1="47" y2="47"/></g><!--class IDataPersist--><g id="elem_IDataPersist"><rect fill="#F1F1F1" height="48" id="IDataPersist" rx="2.5" ry="2.5" style="stroke:#181818;stroke-width:0.5;" width="109" x="151" y="7"/><ellipse cx="166" cy="23" fill="#ADD1B2" rx="11" ry="11" style="stroke:#181818;stroke-width:1.0;"/><path d="M165.9375,18.8281 Q165.1875,18.8281 164.625,19.125 Q164.0625,19.4063 163.6719,19.9375 Q163.2813,20.4688 163.0781,21.25 Q162.8906,22.0156 162.8906,22.9688 Q162.8906,23.9375 163.0625,24.7031 Q163.25,25.4531 163.6094,25.9688 Q163.9844,26.4844 164.5625,26.7656 Q165.1406,27.0313 165.9375,27.0313 Q166.6719,27.0313 167.4063,26.8594 Q168.1563,26.6875 169.0313,26.3906 L169.0313,28.5469 Q168.625,28.7031 168.2344,28.8281 Q167.8438,28.9375 167.4375,29.0156 Q167.0313,29.0938 166.6094,29.125 Q166.1875,29.1719 165.6875,29.1719 Q164.2813,29.1719 163.25,28.7188 Q162.2344,28.2656 161.5625,27.4531 Q160.8906,26.6406 160.5625,25.5 Q160.2344,24.3438 160.2344,22.9531 Q160.2344,21.5781 160.6094,20.4219 Q160.9844,19.2656 161.7031,18.4375 Q162.4219,17.6094 163.4844,17.1563 Q164.5469,16.6875 165.9375,16.6875 Q166.8438,16.6875 167.75,16.9219 Q168.6563,17.1406 169.4844,17.5469 L168.6563,19.6406 Q167.9688,19.3125 167.2813,19.0781 Q166.5938,18.8281 165.9375,18.8281 Z " fill="#000000"/><text fill="#000000" font-family="sans-serif" font-size="14" lengthAdjust="spacing" textLength="77" x="180" y="27.8467">IDataPersist</text><line style="stroke:#181818;stroke-width:0.5;" x1="152" x2="259" y1="39" y2="39"/><line style="stroke:#181818;stroke-width:0.5;" x1="152" x2="259" y1="47" y2="47"/></g><!--reverse link Interactable to CollectTrial--><g id="link_Interactable_CollectTrial"><path codeLine="10" d="M79.92,73.69 C85.46,86.25 91.75,100.49 98.02,114.68 " fill="none" id="Interactable-backto-CollectTrial" style="stroke:#181818;stroke-width:1.0;"/><polygon fill="none" points="73.34,76.13,71.66,55.01,86.15,70.47,73.34,76.13" style="stroke:#181818;stroke-width:1.0;"/></g><!--reverse link IDataPersist to CollectTrial--><g id="link_IDataPersist_CollectTrial"><path codeLine="11" d="M187.08,73.69 C181.54,86.25 175.25,100.49 168.98,114.68 " fill="none" id="IDataPersist-backto-CollectTrial" style="stroke:#181818;stroke-width:1.0;"/><polygon fill="none" points="180.85,70.47,195.34,55.01,193.66,76.13,180.85,70.47" style="stroke:#181818;stroke-width:1.0;"/></g><!--SRC=[Iyv9B2vMSCxFoKbDBWafoapCKQZcKW02RONWnB9KbyIIH8qK867bdfWBvcagM2cKvMUcG1Nvv2Uc45HaOvDVbbfKb9cIQcUd45e0L9ggWK-9Prv9Qb5YSWcwek2In2A88z5bd1FpabDpi4j1_8OGhkM2cP-Ob9EgO5EZguiI05oU82y4f1OLPnQNO4e30000]--></g></svg>