<?xml version="1.0" encoding="us-ascii" standalone="no"?><svg xmlns="http://www.w3.org/2000/svg" xmlns:xlink="http://www.w3.org/1999/xlink" contentStyleType="text/css" height="186px" preserveAspectRatio="none" style="width:197px;height:186px;background:#FFFFFF;" version="1.1" viewBox="0 0 197 186" width="197px" zoomAndPan="magnify"><defs/><g><!--class Currency--><g id="elem_Currency"><rect codeLine="1" fill="#F1F1F1" height="64.2969" id="Currency" rx="2.5" ry="2.5" style="stroke:#181818;stroke-width:0.5;" width="183" x="7" y="115"/><ellipse cx="65.75" cy="131" fill="#ADD1B2" rx="11" ry="11" style="stroke:#181818;stroke-width:1.0;"/><path d="M65.6875,126.8281 Q64.9375,126.8281 64.375,127.125 Q63.8125,127.4063 63.4219,127.9375 Q63.0313,128.4688 62.8281,129.25 Q62.6406,130.0156 62.6406,130.9688 Q62.6406,131.9375 62.8125,132.7031 Q63,133.4531 63.3594,133.9688 Q63.7344,134.4844 64.3125,134.7656 Q64.8906,135.0313 65.6875,135.0313 Q66.4219,135.0313 67.1563,134.8594 Q67.9063,134.6875 68.7813,134.3906 L68.7813,136.5469 Q68.375,136.7031 67.9844,136.8281 Q67.5938,136.9375 67.1875,137.0156 Q66.7813,137.0938 66.3594,137.125 Q65.9375,137.1719 65.4375,137.1719 Q64.0313,137.1719 63,136.7188 Q61.9844,136.2656 61.3125,135.4531 Q60.6406,134.6406 60.3125,133.5 Q59.9844,132.3438 59.9844,130.9531 Q59.9844,129.5781 60.3594,128.4219 Q60.7344,127.2656 61.4531,126.4375 Q62.1719,125.6094 63.2344,125.1563 Q64.2969,124.6875 65.6875,124.6875 Q66.5938,124.6875 67.5,124.9219 Q68.4063,125.1406 69.2344,125.5469 L68.4063,127.6406 Q67.7188,127.3125 67.0313,127.0781 Q66.3438,126.8281 65.6875,126.8281 Z " fill="#000000"/><text fill="#000000" font-family="sans-serif" font-size="14" lengthAdjust="spacing" textLength="57" x="86.25" y="135.8467">Currency</text><line style="stroke:#181818;stroke-width:0.5;" x1="8" x2="189" y1="147" y2="147"/><line style="stroke:#181818;stroke-width:0.5;" x1="8" x2="189" y1="155" y2="155"/><ellipse cx="18" cy="168.6484" fill="#84BE84" rx="3" ry="3" style="stroke:#038048;stroke-width:1.0;"/><text fill="#000000" font-family="sans-serif" font-size="14" lengthAdjust="spacing" textLength="157" x="27" y="171.9951">SetValue(value:int) : void</text></g><!--class MonoBehaviour--><g id="elem_MonoBehaviour"><rect fill="#F1F1F1" height="48" id="MonoBehaviour" rx="2.5" ry="2.5" style="stroke:#181818;stroke-width:0.5;" width="133" x="32" y="7"/><ellipse cx="47" cy="23" fill="#ADD1B2" rx="11" ry="11" style="stroke:#181818;stroke-width:1.0;"/><path d="M46.9375,18.8281 Q46.1875,18.8281 45.625,19.125 Q45.0625,19.4063 44.6719,19.9375 Q44.2813,20.4688 44.0781,21.25 Q43.8906,22.0156 43.8906,22.9688 Q43.8906,23.9375 44.0625,24.7031 Q44.25,25.4531 44.6094,25.9688 Q44.9844,26.4844 45.5625,26.7656 Q46.1406,27.0313 46.9375,27.0313 Q47.6719,27.0313 48.4063,26.8594 Q49.1563,26.6875 50.0313,26.3906 L50.0313,28.5469 Q49.625,28.7031 49.2344,28.8281 Q48.8438,28.9375 48.4375,29.0156 Q48.0313,29.0938 47.6094,29.125 Q47.1875,29.1719 46.6875,29.1719 Q45.2813,29.1719 44.25,28.7188 Q43.2344,28.2656 42.5625,27.4531 Q41.8906,26.6406 41.5625,25.5 Q41.2344,24.3438 41.2344,22.9531 Q41.2344,21.5781 41.6094,20.4219 Q41.9844,19.2656 42.7031,18.4375 Q43.4219,17.6094 44.4844,17.1563 Q45.5469,16.6875 46.9375,16.6875 Q47.8438,16.6875 48.75,16.9219 Q49.6563,17.1406 50.4844,17.5469 L49.6563,19.6406 Q48.9688,19.3125 48.2813,19.0781 Q47.5938,18.8281 46.9375,18.8281 Z " fill="#000000"/><text fill="#000000" font-family="sans-serif" font-size="14" lengthAdjust="spacing" textLength="101" x="61" y="27.8467">MonoBehaviour</text><line style="stroke:#181818;stroke-width:0.5;" x1="33" x2="164" y1="39" y2="39"/><line style="stroke:#181818;stroke-width:0.5;" x1="33" x2="164" y1="47" y2="47"/></g><!--reverse link MonoBehaviour to Currency--><g id="link_MonoBehaviour_Currency"><path codeLine="4" d="M98.5,75.09 C98.5,88.28 98.5,102.52 98.5,114.75 " fill="none" id="MonoBehaviour-backto-Currency" style="stroke:#181818;stroke-width:1.0;"/><polygon fill="none" points="91.5,75.07,98.5,55.07,105.5,75.07,91.5,75.07" style="stroke:#181818;stroke-width:1.0;"/></g><!--SRC=[Iyv9B2vMS2ujAahDIwvKgEPI009jXU3Kah34dD9KZJ8GQPMPLwAfOALGbf-PmbNBvPkVb- -Kcf5ObfbVMgHWKwEh2pS00000]--></g></svg>