<?xml version="1.0" encoding="us-ascii" standalone="no"?><svg xmlns="http://www.w3.org/2000/svg" xmlns:xlink="http://www.w3.org/1999/xlink" contentStyleType="text/css" height="343px" preserveAspectRatio="none" style="width:200px;height:343px;background:#FFFFFF;" version="1.1" viewBox="0 0 200 343" width="200px" zoomAndPan="magnify"><defs/><g><!--class DropItem--><g id="elem_DropItem"><rect codeLine="1" fill="#F1F1F1" height="113.1875" id="DropItem" rx="2.5" ry="2.5" style="stroke:#181818;stroke-width:0.5;" width="169" x="24.1594" y="115"/><ellipse cx="72.9094" cy="131" fill="#ADD1B2" rx="11" ry="11" style="stroke:#181818;stroke-width:1.0;"/><path d="M72.8469,126.8281 Q72.0969,126.8281 71.5344,127.125 Q70.9719,127.4063 70.5813,127.9375 Q70.1906,128.4688 69.9875,129.25 Q69.8,130.0156 69.8,130.9688 Q69.8,131.9375 69.9719,132.7031 Q70.1594,133.4531 70.5188,133.9688 Q70.8938,134.4844 71.4719,134.7656 Q72.05,135.0313 72.8469,135.0313 Q73.5813,135.0313 74.3156,134.8594 Q75.0656,134.6875 75.9406,134.3906 L75.9406,136.5469 Q75.5344,136.7031 75.1438,136.8281 Q74.7531,136.9375 74.3469,137.0156 Q73.9406,137.0938 73.5188,137.125 Q73.0969,137.1719 72.5969,137.1719 Q71.1906,137.1719 70.1594,136.7188 Q69.1438,136.2656 68.4719,135.4531 Q67.8,134.6406 67.4719,133.5 Q67.1438,132.3438 67.1438,130.9531 Q67.1438,129.5781 67.5188,128.4219 Q67.8938,127.2656 68.6125,126.4375 Q69.3313,125.6094 70.3938,125.1563 Q71.4563,124.6875 72.8469,124.6875 Q73.7531,124.6875 74.6594,124.9219 Q75.5656,125.1406 76.3938,125.5469 L75.5656,127.6406 Q74.8781,127.3125 74.1906,127.0781 Q73.5031,126.8281 72.8469,126.8281 Z " fill="#000000"/><text fill="#000000" font-family="sans-serif" font-size="14" lengthAdjust="spacing" textLength="63" x="93.4094" y="135.8467">DropItem</text><line style="stroke:#181818;stroke-width:0.5;" x1="25.1594" x2="192.1594" y1="147" y2="147"/><ellipse cx="35.1594" cy="160.6484" fill="none" rx="3" ry="3" style="stroke:#038048;stroke-width:1.0;"/><text fill="#000000" font-family="sans-serif" font-size="14" lengthAdjust="spacing" textLength="143" x="44.1594" y="163.9951">ValuePerCurrency : int</text><ellipse cx="35.1594" cy="176.9453" fill="none" rx="3" ry="3" style="stroke:#038048;stroke-width:1.0;"/><text fill="#000000" font-family="sans-serif" font-size="14" lengthAdjust="spacing" textLength="137" x="44.1594" y="180.292">CurrencyAmount : int</text><ellipse cx="35.1594" cy="193.2422" fill="none" rx="3" ry="3" style="stroke:#038048;stroke-width:1.0;"/><text fill="#000000" font-family="sans-serif" font-size="14" lengthAdjust="spacing" textLength="90" x="44.1594" y="196.5889">velocity : float</text><line style="stroke:#181818;stroke-width:0.5;" x1="25.1594" x2="192.1594" y1="203.8906" y2="203.8906"/><ellipse cx="35.1594" cy="217.5391" fill="#84BE84" rx="3" ry="3" style="stroke:#038048;stroke-width:1.0;"/><text fill="#000000" font-family="sans-serif" font-size="14" lengthAdjust="spacing" textLength="136" x="44.1594" y="220.8857">DropCurrency() : void</text></g><!--class MonoBehaviour--><g id="elem_MonoBehaviour"><rect fill="#F1F1F1" height="48" id="MonoBehaviour" rx="2.5" ry="2.5" style="stroke:#181818;stroke-width:0.5;" width="133" x="42.1594" y="7"/><ellipse cx="57.1594" cy="23" fill="#ADD1B2" rx="11" ry="11" style="stroke:#181818;stroke-width:1.0;"/><path d="M57.0969,18.8281 Q56.3469,18.8281 55.7844,19.125 Q55.2219,19.4063 54.8313,19.9375 Q54.4406,20.4688 54.2375,21.25 Q54.05,22.0156 54.05,22.9688 Q54.05,23.9375 54.2219,24.7031 Q54.4094,25.4531 54.7688,25.9688 Q55.1438,26.4844 55.7219,26.7656 Q56.3,27.0313 57.0969,27.0313 Q57.8313,27.0313 58.5656,26.8594 Q59.3156,26.6875 60.1906,26.3906 L60.1906,28.5469 Q59.7844,28.7031 59.3938,28.8281 Q59.0031,28.9375 58.5969,29.0156 Q58.1906,29.0938 57.7688,29.125 Q57.3469,29.1719 56.8469,29.1719 Q55.4406,29.1719 54.4094,28.7188 Q53.3938,28.2656 52.7219,27.4531 Q52.05,26.6406 51.7219,25.5 Q51.3938,24.3438 51.3938,22.9531 Q51.3938,21.5781 51.7688,20.4219 Q52.1438,19.2656 52.8625,18.4375 Q53.5813,17.6094 54.6438,17.1563 Q55.7063,16.6875 57.0969,16.6875 Q58.0031,16.6875 58.9094,16.9219 Q59.8156,17.1406 60.6438,17.5469 L59.8156,19.6406 Q59.1281,19.3125 58.4406,19.0781 Q57.7531,18.8281 57.0969,18.8281 Z " fill="#000000"/><text fill="#000000" font-family="sans-serif" font-size="14" lengthAdjust="spacing" textLength="101" x="71.1594" y="27.8467">MonoBehaviour</text><line style="stroke:#181818;stroke-width:0.5;" x1="43.1594" x2="174.1594" y1="39" y2="39"/><line style="stroke:#181818;stroke-width:0.5;" x1="43.1594" x2="174.1594" y1="47" y2="47"/></g><!--class GameObject--><g id="elem_GameObject"><rect fill="#F1F1F1" height="48" id="GameObject" rx="2.5" ry="2.5" style="stroke:#181818;stroke-width:0.5;" width="111" x="53.1594" y="288"/><ellipse cx="68.1594" cy="304" fill="#ADD1B2" rx="11" ry="11" style="stroke:#181818;stroke-width:1.0;"/><path d="M68.0969,299.8281 Q67.3469,299.8281 66.7844,300.125 Q66.2219,300.4063 65.8313,300.9375 Q65.4406,301.4688 65.2375,302.25 Q65.05,303.0156 65.05,303.9688 Q65.05,304.9375 65.2219,305.7031 Q65.4094,306.4531 65.7688,306.9688 Q66.1438,307.4844 66.7219,307.7656 Q67.3,308.0313 68.0969,308.0313 Q68.8313,308.0313 69.5656,307.8594 Q70.3156,307.6875 71.1906,307.3906 L71.1906,309.5469 Q70.7844,309.7031 70.3938,309.8281 Q70.0031,309.9375 69.5969,310.0156 Q69.1906,310.0938 68.7688,310.125 Q68.3469,310.1719 67.8469,310.1719 Q66.4406,310.1719 65.4094,309.7188 Q64.3938,309.2656 63.7219,308.4531 Q63.05,307.6406 62.7219,306.5 Q62.3938,305.3438 62.3938,303.9531 Q62.3938,302.5781 62.7688,301.4219 Q63.1438,300.2656 63.8625,299.4375 Q64.5813,298.6094 65.6438,298.1563 Q66.7063,297.6875 68.0969,297.6875 Q69.0031,297.6875 69.9094,297.9219 Q70.8156,298.1406 71.6438,298.5469 L70.8156,300.6406 Q70.1281,300.3125 69.4406,300.0781 Q68.7531,299.8281 68.0969,299.8281 Z " fill="#000000"/><text fill="#000000" font-family="sans-serif" font-size="14" lengthAdjust="spacing" textLength="79" x="82.1594" y="308.8467">GameObject</text><line style="stroke:#181818;stroke-width:0.5;" x1="54.1594" x2="163.1594" y1="320" y2="320"/><line style="stroke:#181818;stroke-width:0.5;" x1="54.1594" x2="163.1594" y1="328" y2="328"/></g><!--reverse link MonoBehaviour to DropItem--><g id="link_MonoBehaviour_DropItem"><path codeLine="7" d="M108.6594,75.3 C108.6594,87.85 108.6594,101.74 108.6594,114.94 " fill="none" id="MonoBehaviour-backto-DropItem" style="stroke:#181818;stroke-width:1.0;"/><polygon fill="none" points="101.6594,75.18,108.6594,55.18,115.6594,75.18,101.6594,75.18" style="stroke:#181818;stroke-width:1.0;"/></g><!--link DropItem to GameObject--><g id="link_DropItem_GameObject"><path codeLine="8" d="M108.6594,228.04 C108.6594,246.83 108.6594,267.03 108.6594,282.8 " fill="none" id="DropItem-to-GameObject" style="stroke:#181818;stroke-width:1.0;"/><polygon fill="#181818" points="108.6594,287.96,112.6594,278.96,108.6594,282.96,104.6594,278.96,108.6594,287.96" style="stroke:#181818;stroke-width:1.0;"/><text fill="#000000" font-family="sans-serif" font-size="13" lengthAdjust="spacing" textLength="91" x="6" y="276.9618">CurrencyPrefab</text></g><!--SRC=[LOxD2i8m48JlUOgb9qNo0b84Vq0yI7lolerRZ2HPsIO1KT_T5ap1ESutCunnE0nm47wS8dbuAHYrWWkwH2t9FebGC4zOWmtn1ukvzPn2_4EP71iRftpl68izxPVMOZd2pFQgFkhCWNTqmsmv2THlhUShQlwazGQgqcw5UkmgEAAdfhkJYLy0]--></g></svg>