<?xml version="1.0" encoding="us-ascii" standalone="no"?><svg xmlns="http://www.w3.org/2000/svg" xmlns:xlink="http://www.w3.org/1999/xlink" contentStyleType="text/css" height="327px" preserveAspectRatio="none" style="width:216px;height:327px;background:#FFFFFF;" version="1.1" viewBox="0 0 216 327" width="216px" zoomAndPan="magnify"><defs/><g><!--class Interactable--><g id="elem_Interactable"><rect codeLine="1" fill="#F1F1F1" height="96.8906" id="Interactable" rx="2.5" ry="2.5" style="stroke:#181818;stroke-width:0.5;" width="202" x="7" y="115"/><ellipse cx="65.25" cy="131" fill="#ADD1B2" rx="11" ry="11" style="stroke:#181818;stroke-width:1.0;"/><path d="M65.1875,126.8281 Q64.4375,126.8281 63.875,127.125 Q63.3125,127.4063 62.9219,127.9375 Q62.5313,128.4688 62.3281,129.25 Q62.1406,130.0156 62.1406,130.9688 Q62.1406,131.9375 62.3125,132.7031 Q62.5,133.4531 62.8594,133.9688 Q63.2344,134.4844 63.8125,134.7656 Q64.3906,135.0313 65.1875,135.0313 Q65.9219,135.0313 66.6563,134.8594 Q67.4063,134.6875 68.2813,134.3906 L68.2813,136.5469 Q67.875,136.7031 67.4844,136.8281 Q67.0938,136.9375 66.6875,137.0156 Q66.2813,137.0938 65.8594,137.125 Q65.4375,137.1719 64.9375,137.1719 Q63.5313,137.1719 62.5,136.7188 Q61.4844,136.2656 60.8125,135.4531 Q60.1406,134.6406 59.8125,133.5 Q59.4844,132.3438 59.4844,130.9531 Q59.4844,129.5781 59.8594,128.4219 Q60.2344,127.2656 60.9531,126.4375 Q61.6719,125.6094 62.7344,125.1563 Q63.7969,124.6875 65.1875,124.6875 Q66.0938,124.6875 67,124.9219 Q67.9063,125.1406 68.7344,125.5469 L67.9063,127.6406 Q67.2188,127.3125 66.5313,127.0781 Q65.8438,126.8281 65.1875,126.8281 Z " fill="#000000"/><text fill="#000000" font-family="sans-serif" font-size="14" lengthAdjust="spacing" textLength="77" x="85.75" y="135.8467">Interactable</text><line style="stroke:#181818;stroke-width:0.5;" x1="8" x2="208" y1="147" y2="147"/><ellipse cx="18" cy="160.6484" fill="none" rx="3" ry="3" style="stroke:#038048;stroke-width:1.0;"/><text fill="#000000" font-family="sans-serif" font-size="14" lengthAdjust="spacing" textLength="176" x="27" y="163.9951">_isInteractable : bool = true</text><line style="stroke:#181818;stroke-width:0.5;" x1="8" x2="208" y1="171.2969" y2="171.2969"/><ellipse cx="18" cy="184.9453" fill="#84BE84" rx="3" ry="3" style="stroke:#038048;stroke-width:1.0;"/><text fill="#000000" font-family="sans-serif" font-size="14" lengthAdjust="spacing" textLength="152" x="27" y="188.292">&#171;virtual&#187; Update() : void</text><ellipse cx="18" cy="201.2422" fill="#84BE84" rx="3" ry="3" style="stroke:#038048;stroke-width:1.0;"/><text fill="#000000" font-family="sans-serif" font-size="14" lengthAdjust="spacing" textLength="156" x="27" y="204.5889">&#171;virtual&#187; Interact() : void</text></g><!--class MonoBehaviour--><g id="elem_MonoBehaviour"><rect fill="#F1F1F1" height="48" id="MonoBehaviour" rx="2.5" ry="2.5" style="stroke:#181818;stroke-width:0.5;" width="133" x="41.5" y="7"/><ellipse cx="56.5" cy="23" fill="#ADD1B2" rx="11" ry="11" style="stroke:#181818;stroke-width:1.0;"/><path d="M56.4375,18.8281 Q55.6875,18.8281 55.125,19.125 Q54.5625,19.4063 54.1719,19.9375 Q53.7813,20.4688 53.5781,21.25 Q53.3906,22.0156 53.3906,22.9688 Q53.3906,23.9375 53.5625,24.7031 Q53.75,25.4531 54.1094,25.9688 Q54.4844,26.4844 55.0625,26.7656 Q55.6406,27.0313 56.4375,27.0313 Q57.1719,27.0313 57.9063,26.8594 Q58.6563,26.6875 59.5313,26.3906 L59.5313,28.5469 Q59.125,28.7031 58.7344,28.8281 Q58.3438,28.9375 57.9375,29.0156 Q57.5313,29.0938 57.1094,29.125 Q56.6875,29.1719 56.1875,29.1719 Q54.7813,29.1719 53.75,28.7188 Q52.7344,28.2656 52.0625,27.4531 Q51.3906,26.6406 51.0625,25.5 Q50.7344,24.3438 50.7344,22.9531 Q50.7344,21.5781 51.1094,20.4219 Q51.4844,19.2656 52.2031,18.4375 Q52.9219,17.6094 53.9844,17.1563 Q55.0469,16.6875 56.4375,16.6875 Q57.3438,16.6875 58.25,16.9219 Q59.1563,17.1406 59.9844,17.5469 L59.1563,19.6406 Q58.4688,19.3125 57.7813,19.0781 Q57.0938,18.8281 56.4375,18.8281 Z " fill="#000000"/><text fill="#000000" font-family="sans-serif" font-size="14" lengthAdjust="spacing" textLength="101" x="70.5" y="27.8467">MonoBehaviour</text><line style="stroke:#181818;stroke-width:0.5;" x1="42.5" x2="173.5" y1="39" y2="39"/><line style="stroke:#181818;stroke-width:0.5;" x1="42.5" x2="173.5" y1="47" y2="47"/></g><!--class UnityEvent--><g id="elem_UnityEvent"><rect fill="#F1F1F1" height="48" id="UnityEvent" rx="2.5" ry="2.5" style="stroke:#181818;stroke-width:0.5;" width="101" x="57.5" y="272"/><ellipse cx="72.5" cy="288" fill="#ADD1B2" rx="11" ry="11" style="stroke:#181818;stroke-width:1.0;"/><path d="M72.4375,283.8281 Q71.6875,283.8281 71.125,284.125 Q70.5625,284.4063 70.1719,284.9375 Q69.7813,285.4688 69.5781,286.25 Q69.3906,287.0156 69.3906,287.9688 Q69.3906,288.9375 69.5625,289.7031 Q69.75,290.4531 70.1094,290.9688 Q70.4844,291.4844 71.0625,291.7656 Q71.6406,292.0313 72.4375,292.0313 Q73.1719,292.0313 73.9063,291.8594 Q74.6563,291.6875 75.5313,291.3906 L75.5313,293.5469 Q75.125,293.7031 74.7344,293.8281 Q74.3438,293.9375 73.9375,294.0156 Q73.5313,294.0938 73.1094,294.125 Q72.6875,294.1719 72.1875,294.1719 Q70.7813,294.1719 69.75,293.7188 Q68.7344,293.2656 68.0625,292.4531 Q67.3906,291.6406 67.0625,290.5 Q66.7344,289.3438 66.7344,287.9531 Q66.7344,286.5781 67.1094,285.4219 Q67.4844,284.2656 68.2031,283.4375 Q68.9219,282.6094 69.9844,282.1563 Q71.0469,281.6875 72.4375,281.6875 Q73.3438,281.6875 74.25,281.9219 Q75.1563,282.1406 75.9844,282.5469 L75.1563,284.6406 Q74.4688,284.3125 73.7813,284.0781 Q73.0938,283.8281 72.4375,283.8281 Z " fill="#000000"/><text fill="#000000" font-family="sans-serif" font-size="14" lengthAdjust="spacing" textLength="69" x="86.5" y="292.8467">UnityEvent</text><line style="stroke:#181818;stroke-width:0.5;" x1="58.5" x2="157.5" y1="304" y2="304"/><line style="stroke:#181818;stroke-width:0.5;" x1="58.5" x2="157.5" y1="312" y2="312"/></g><!--reverse link MonoBehaviour to Interactable--><g id="link_MonoBehaviour_Interactable"><path codeLine="6" d="M108,75.37 C108,88.03 108,101.93 108,114.84 " fill="none" id="MonoBehaviour-backto-Interactable" style="stroke:#181818;stroke-width:1.0;"/><polygon fill="none" points="101,75.03,108,55.03,115,75.03,101,75.03" style="stroke:#181818;stroke-width:1.0;"/></g><!--link Interactable to UnityEvent--><g id="link_Interactable_UnityEvent"><path codeLine="7" d="M95.66,212.35 C94.78,230.52 95.31,250.63 97.25,266.47 " fill="none" id="Interactable-to-UnityEvent" style="stroke:#181818;stroke-width:1.0;"/><polygon fill="#181818" points="97.96,271.66,100.6853,262.1957,97.2729,266.7074,92.7612,263.295,97.96,271.66" style="stroke:#181818;stroke-width:1.0;"/><text fill="#000000" font-family="sans-serif" font-size="13" lengthAdjust="spacing" textLength="49" x="40.5409" y="260.9821">OnEnter</text></g><!--link Interactable to UnityEvent--><g id="link_Interactable_UnityEvent"><path codeLine="8" d="M121.06,212.35 C121.99,230.52 121.44,250.63 119.39,266.47 " fill="none" id="Interactable-to-UnityEvent-1" style="stroke:#181818;stroke-width:1.0;"/><polygon fill="#181818" points="118.63,271.66,123.8761,263.3246,119.3451,266.7114,115.9583,262.1804,118.63,271.66" style="stroke:#181818;stroke-width:1.0;"/><text fill="#000000" font-family="sans-serif" font-size="13" lengthAdjust="spacing" textLength="39" x="125.9742" y="260.9821">OnExit</text></g><!--SRC=[RSx12i8m40JGUxvYwKcH_83478GUF4XFFSks3RWGif9iWgB-knKK3NIEmsEOqMDAS0ZY8ew2WtTmLp1d0oTALR-5WTd33YHczp7658gIqLiB_ML2SQlr30lJj22-Sp_pL4SEl7TdBCGvWdbeNRrHrGMjBJHTQDzT0tqWkRN51LbMLv9_z080]--></g></svg>