<?xml version="1.0" encoding="us-ascii" standalone="no"?><svg xmlns="http://www.w3.org/2000/svg" xmlns:xlink="http://www.w3.org/1999/xlink" contentStyleType="text/css" height="267px" preserveAspectRatio="none" style="width:307px;height:267px;background:#FFFFFF;" version="1.1" viewBox="0 0 307 267" width="307px" zoomAndPan="magnify"><defs/><g><!--class LaserShooter--><g id="elem_LaserShooter"><rect codeLine="1" fill="#F1F1F1" height="145.7813" id="LaserShooter" rx="2.5" ry="2.5" style="stroke:#181818;stroke-width:0.5;" width="293" x="7" y="115"/><ellipse cx="107.25" cy="131" fill="#ADD1B2" rx="11" ry="11" style="stroke:#181818;stroke-width:1.0;"/><path d="M107.1875,126.8281 Q106.4375,126.8281 105.875,127.125 Q105.3125,127.4063 104.9219,127.9375 Q104.5313,128.4688 104.3281,129.25 Q104.1406,130.0156 104.1406,130.9688 Q104.1406,131.9375 104.3125,132.7031 Q104.5,133.4531 104.8594,133.9688 Q105.2344,134.4844 105.8125,134.7656 Q106.3906,135.0313 107.1875,135.0313 Q107.9219,135.0313 108.6563,134.8594 Q109.4063,134.6875 110.2813,134.3906 L110.2813,136.5469 Q109.875,136.7031 109.4844,136.8281 Q109.0938,136.9375 108.6875,137.0156 Q108.2813,137.0938 107.8594,137.125 Q107.4375,137.1719 106.9375,137.1719 Q105.5313,137.1719 104.5,136.7188 Q103.4844,136.2656 102.8125,135.4531 Q102.1406,134.6406 101.8125,133.5 Q101.4844,132.3438 101.4844,130.9531 Q101.4844,129.5781 101.8594,128.4219 Q102.2344,127.2656 102.9531,126.4375 Q103.6719,125.6094 104.7344,125.1563 Q105.7969,124.6875 107.1875,124.6875 Q108.0938,124.6875 109,124.9219 Q109.9063,125.1406 110.7344,125.5469 L109.9063,127.6406 Q109.2188,127.3125 108.5313,127.0781 Q107.8438,126.8281 107.1875,126.8281 Z " fill="#000000"/><text fill="#000000" font-family="sans-serif" font-size="14" lengthAdjust="spacing" textLength="84" x="127.75" y="135.8467">LaserShooter</text><line style="stroke:#181818;stroke-width:0.5;" x1="8" x2="299" y1="147" y2="147"/><line style="stroke:#181818;stroke-width:0.5;" x1="8" x2="299" y1="155" y2="155"/><ellipse cx="18" cy="168.6484" fill="#84BE84" rx="3" ry="3" style="stroke:#038048;stroke-width:1.0;"/><text fill="#000000" font-family="sans-serif" font-size="14" lengthAdjust="spacing" textLength="98" x="27" y="171.9951">IsActive() : bool</text><ellipse cx="18" cy="184.9453" fill="#84BE84" rx="3" ry="3" style="stroke:#038048;stroke-width:1.0;"/><text fill="#000000" font-family="sans-serif" font-size="14" lengthAdjust="spacing" textLength="175" x="27" y="188.292">SetActive(active:bool) : void</text><ellipse cx="18" cy="201.2422" fill="#84BE84" rx="3" ry="3" style="stroke:#038048;stroke-width:1.0;"/><text fill="#000000" font-family="sans-serif" font-size="14" lengthAdjust="spacing" textLength="170" x="27" y="204.5889">SetDelay(delay:float) : void</text><ellipse cx="18" cy="217.5391" fill="#84BE84" rx="3" ry="3" style="stroke:#038048;stroke-width:1.0;"/><text fill="#000000" font-family="sans-serif" font-size="14" lengthAdjust="spacing" textLength="210" x="27" y="220.8857">SetDuration(duration:float) : void</text><ellipse cx="18" cy="233.8359" fill="#84BE84" rx="3" ry="3" style="stroke:#038048;stroke-width:1.0;"/><text fill="#000000" font-family="sans-serif" font-size="14" lengthAdjust="spacing" textLength="174" x="27" y="237.1826">SetTimer(timer:float) : void</text><ellipse cx="18" cy="250.1328" fill="#84BE84" rx="3" ry="3" style="stroke:#038048;stroke-width:1.0;"/><text fill="#000000" font-family="sans-serif" font-size="14" lengthAdjust="spacing" textLength="267" x="27" y="253.4795">SetAutoDeactive(autoDeactive:bool) : void</text></g><!--class MonoBehaviour--><g id="elem_MonoBehaviour"><rect fill="#F1F1F1" height="48" id="MonoBehaviour" rx="2.5" ry="2.5" style="stroke:#181818;stroke-width:0.5;" width="133" x="87" y="7"/><ellipse cx="102" cy="23" fill="#ADD1B2" rx="11" ry="11" style="stroke:#181818;stroke-width:1.0;"/><path d="M101.9375,18.8281 Q101.1875,18.8281 100.625,19.125 Q100.0625,19.4063 99.6719,19.9375 Q99.2813,20.4688 99.0781,21.25 Q98.8906,22.0156 98.8906,22.9688 Q98.8906,23.9375 99.0625,24.7031 Q99.25,25.4531 99.6094,25.9688 Q99.9844,26.4844 100.5625,26.7656 Q101.1406,27.0313 101.9375,27.0313 Q102.6719,27.0313 103.4063,26.8594 Q104.1563,26.6875 105.0313,26.3906 L105.0313,28.5469 Q104.625,28.7031 104.2344,28.8281 Q103.8438,28.9375 103.4375,29.0156 Q103.0313,29.0938 102.6094,29.125 Q102.1875,29.1719 101.6875,29.1719 Q100.2813,29.1719 99.25,28.7188 Q98.2344,28.2656 97.5625,27.4531 Q96.8906,26.6406 96.5625,25.5 Q96.2344,24.3438 96.2344,22.9531 Q96.2344,21.5781 96.6094,20.4219 Q96.9844,19.2656 97.7031,18.4375 Q98.4219,17.6094 99.4844,17.1563 Q100.5469,16.6875 101.9375,16.6875 Q102.8438,16.6875 103.75,16.9219 Q104.6563,17.1406 105.4844,17.5469 L104.6563,19.6406 Q103.9688,19.3125 103.2813,19.0781 Q102.5938,18.8281 101.9375,18.8281 Z " fill="#000000"/><text fill="#000000" font-family="sans-serif" font-size="14" lengthAdjust="spacing" textLength="101" x="116" y="27.8467">MonoBehaviour</text><line style="stroke:#181818;stroke-width:0.5;" x1="88" x2="219" y1="39" y2="39"/><line style="stroke:#181818;stroke-width:0.5;" x1="88" x2="219" y1="47" y2="47"/></g><!--reverse link MonoBehaviour to LaserShooter--><g id="link_MonoBehaviour_LaserShooter"><path codeLine="9" d="M153.5,75.41 C153.5,87.69 153.5,101.39 153.5,114.88 " fill="none" id="MonoBehaviour-backto-LaserShooter" style="stroke:#181818;stroke-width:1.0;"/><polygon fill="none" points="146.5,75.21,153.5,55.21,160.5,75.21,146.5,75.21" style="stroke:#181818;stroke-width:1.0;"/></g><!--SRC=[TOzD2i8m48NtFSKi8z8B13SjtGYwQYymDYCDn0uaau2eTzT8e1RiBDxyl6_nPdGO0fmmaEydPY4FZme-jOTZQ4QnYTGED5oONRdt9CN0RzFPoqnYQnQc8uTtPRBggsEKFqZqA9PdPSgm1GxsHbv9rYsaYS8TOGdsiwpZlQeppzpIXCboz71urlNg_JS0]--></g></svg>