<?xml version="1.0" encoding="us-ascii" standalone="no"?><svg xmlns="http://www.w3.org/2000/svg" xmlns:xlink="http://www.w3.org/1999/xlink" contentStyleType="text/css" height="186px" preserveAspectRatio="none" style="width:159px;height:186px;background:#FFFFFF;" version="1.1" viewBox="0 0 159 186" width="159px" zoomAndPan="magnify"><defs/><g><!--class PlatformTrigger--><g id="elem_PlatformTrigger"><rect codeLine="1" fill="#F1F1F1" height="64.2969" id="PlatformTrigger" rx="2.5" ry="2.5" style="stroke:#181818;stroke-width:0.5;" width="145" x="7" y="115"/><ellipse cx="27.4" cy="131" fill="#ADD1B2" rx="11" ry="11" style="stroke:#181818;stroke-width:1.0;"/><path d="M27.3375,126.8281 Q26.5875,126.8281 26.025,127.125 Q25.4625,127.4063 25.0719,127.9375 Q24.6813,128.4688 24.4781,129.25 Q24.2906,130.0156 24.2906,130.9688 Q24.2906,131.9375 24.4625,132.7031 Q24.65,133.4531 25.0094,133.9688 Q25.3844,134.4844 25.9625,134.7656 Q26.5406,135.0313 27.3375,135.0313 Q28.0719,135.0313 28.8063,134.8594 Q29.5563,134.6875 30.4313,134.3906 L30.4313,136.5469 Q30.025,136.7031 29.6344,136.8281 Q29.2438,136.9375 28.8375,137.0156 Q28.4313,137.0938 28.0094,137.125 Q27.5875,137.1719 27.0875,137.1719 Q25.6813,137.1719 24.65,136.7188 Q23.6344,136.2656 22.9625,135.4531 Q22.2906,134.6406 21.9625,133.5 Q21.6344,132.3438 21.6344,130.9531 Q21.6344,129.5781 22.0094,128.4219 Q22.3844,127.2656 23.1031,126.4375 Q23.8219,125.6094 24.8844,125.1563 Q25.9469,124.6875 27.3375,124.6875 Q28.2438,124.6875 29.15,124.9219 Q30.0563,125.1406 30.8844,125.5469 L30.0563,127.6406 Q29.3688,127.3125 28.6813,127.0781 Q27.9938,126.8281 27.3375,126.8281 Z " fill="#000000"/><text fill="#000000" font-family="sans-serif" font-size="14" lengthAdjust="spacing" textLength="101" x="42.6" y="135.8467">PlatformTrigger</text><line style="stroke:#181818;stroke-width:0.5;" x1="8" x2="151" y1="147" y2="147"/><line style="stroke:#181818;stroke-width:0.5;" x1="8" x2="151" y1="155" y2="155"/><ellipse cx="18" cy="168.6484" fill="#84BE84" rx="3" ry="3" style="stroke:#038048;stroke-width:1.0;"/><text fill="#000000" font-family="sans-serif" font-size="14" lengthAdjust="spacing" textLength="119" x="27" y="171.9951">DropPlayer() : void</text></g><!--class MonoBehaviour--><g id="elem_MonoBehaviour"><rect fill="#F1F1F1" height="48" id="MonoBehaviour" rx="2.5" ry="2.5" style="stroke:#181818;stroke-width:0.5;" width="133" x="13" y="7"/><ellipse cx="28" cy="23" fill="#ADD1B2" rx="11" ry="11" style="stroke:#181818;stroke-width:1.0;"/><path d="M27.9375,18.8281 Q27.1875,18.8281 26.625,19.125 Q26.0625,19.4063 25.6719,19.9375 Q25.2813,20.4688 25.0781,21.25 Q24.8906,22.0156 24.8906,22.9688 Q24.8906,23.9375 25.0625,24.7031 Q25.25,25.4531 25.6094,25.9688 Q25.9844,26.4844 26.5625,26.7656 Q27.1406,27.0313 27.9375,27.0313 Q28.6719,27.0313 29.4063,26.8594 Q30.1563,26.6875 31.0313,26.3906 L31.0313,28.5469 Q30.625,28.7031 30.2344,28.8281 Q29.8438,28.9375 29.4375,29.0156 Q29.0313,29.0938 28.6094,29.125 Q28.1875,29.1719 27.6875,29.1719 Q26.2813,29.1719 25.25,28.7188 Q24.2344,28.2656 23.5625,27.4531 Q22.8906,26.6406 22.5625,25.5 Q22.2344,24.3438 22.2344,22.9531 Q22.2344,21.5781 22.6094,20.4219 Q22.9844,19.2656 23.7031,18.4375 Q24.4219,17.6094 25.4844,17.1563 Q26.5469,16.6875 27.9375,16.6875 Q28.8438,16.6875 29.75,16.9219 Q30.6563,17.1406 31.4844,17.5469 L30.6563,19.6406 Q29.9688,19.3125 29.2813,19.0781 Q28.5938,18.8281 27.9375,18.8281 Z " fill="#000000"/><text fill="#000000" font-family="sans-serif" font-size="14" lengthAdjust="spacing" textLength="101" x="42" y="27.8467">MonoBehaviour</text><line style="stroke:#181818;stroke-width:0.5;" x1="14" x2="145" y1="39" y2="39"/><line style="stroke:#181818;stroke-width:0.5;" x1="14" x2="145" y1="47" y2="47"/></g><!--reverse link MonoBehaviour to PlatformTrigger--><g id="link_MonoBehaviour_PlatformTrigger"><path codeLine="4" d="M79.5,75.09 C79.5,88.28 79.5,102.52 79.5,114.75 " fill="none" id="MonoBehaviour-backto-PlatformTrigger" style="stroke:#181818;stroke-width:1.0;"/><polygon fill="none" points="72.5,75.07,79.5,55.07,86.5,75.07,72.5,75.07" style="stroke:#181818;stroke-width:1.0;"/></g><!--SRC=[Iyv9B2vM2CX9B4dBByeDASfCJqyjKgZcKW02RGMNelm2e5nbQf66feALGbb-PWfNBPTlVbw-Ksf6ObbcVccHWasDhYww0G00]--></g></svg>