<?xml version="1.0" encoding="us-ascii" standalone="no"?><svg xmlns="http://www.w3.org/2000/svg" xmlns:xlink="http://www.w3.org/1999/xlink" contentStyleType="text/css" height="186px" preserveAspectRatio="none" style="width:210px;height:186px;background:#FFFFFF;" version="1.1" viewBox="0 0 210 186" width="210px" zoomAndPan="magnify"><defs/><g><!--class SavePoint--><g id="elem_SavePoint"><rect codeLine="1" fill="#F1F1F1" height="64.2969" id="SavePoint" rx="2.5" ry="2.5" style="stroke:#181818;stroke-width:0.5;" width="196" x="7" y="115"/><ellipse cx="69.75" cy="131" fill="#ADD1B2" rx="11" ry="11" style="stroke:#181818;stroke-width:1.0;"/><path d="M69.6875,126.8281 Q68.9375,126.8281 68.375,127.125 Q67.8125,127.4063 67.4219,127.9375 Q67.0313,128.4688 66.8281,129.25 Q66.6406,130.0156 66.6406,130.9688 Q66.6406,131.9375 66.8125,132.7031 Q67,133.4531 67.3594,133.9688 Q67.7344,134.4844 68.3125,134.7656 Q68.8906,135.0313 69.6875,135.0313 Q70.4219,135.0313 71.1563,134.8594 Q71.9063,134.6875 72.7813,134.3906 L72.7813,136.5469 Q72.375,136.7031 71.9844,136.8281 Q71.5938,136.9375 71.1875,137.0156 Q70.7813,137.0938 70.3594,137.125 Q69.9375,137.1719 69.4375,137.1719 Q68.0313,137.1719 67,136.7188 Q65.9844,136.2656 65.3125,135.4531 Q64.6406,134.6406 64.3125,133.5 Q63.9844,132.3438 63.9844,130.9531 Q63.9844,129.5781 64.3594,128.4219 Q64.7344,127.2656 65.4531,126.4375 Q66.1719,125.6094 67.2344,125.1563 Q68.2969,124.6875 69.6875,124.6875 Q70.5938,124.6875 71.5,124.9219 Q72.4063,125.1406 73.2344,125.5469 L72.4063,127.6406 Q71.7188,127.3125 71.0313,127.0781 Q70.3438,126.8281 69.6875,126.8281 Z " fill="#000000"/><text fill="#000000" font-family="sans-serif" font-size="14" lengthAdjust="spacing" textLength="62" x="90.25" y="135.8467">SavePoint</text><line style="stroke:#181818;stroke-width:0.5;" x1="8" x2="202" y1="147" y2="147"/><line style="stroke:#181818;stroke-width:0.5;" x1="8" x2="202" y1="155" y2="155"/><ellipse cx="18" cy="168.6484" fill="#84BE84" rx="3" ry="3" style="stroke:#038048;stroke-width:1.0;"/><text fill="#000000" font-family="sans-serif" font-size="14" lengthAdjust="spacing" textLength="170" x="27" y="171.9951">&#171;override&#187; Interact() : void</text></g><!--class Interactable--><g id="elem_Interactable"><rect fill="#F1F1F1" height="48" id="Interactable" rx="2.5" ry="2.5" style="stroke:#181818;stroke-width:0.5;" width="109" x="50.5" y="7"/><ellipse cx="65.5" cy="23" fill="#ADD1B2" rx="11" ry="11" style="stroke:#181818;stroke-width:1.0;"/><path d="M65.4375,18.8281 Q64.6875,18.8281 64.125,19.125 Q63.5625,19.4063 63.1719,19.9375 Q62.7813,20.4688 62.5781,21.25 Q62.3906,22.0156 62.3906,22.9688 Q62.3906,23.9375 62.5625,24.7031 Q62.75,25.4531 63.1094,25.9688 Q63.4844,26.4844 64.0625,26.7656 Q64.6406,27.0313 65.4375,27.0313 Q66.1719,27.0313 66.9063,26.8594 Q67.6563,26.6875 68.5313,26.3906 L68.5313,28.5469 Q68.125,28.7031 67.7344,28.8281 Q67.3438,28.9375 66.9375,29.0156 Q66.5313,29.0938 66.1094,29.125 Q65.6875,29.1719 65.1875,29.1719 Q63.7813,29.1719 62.75,28.7188 Q61.7344,28.2656 61.0625,27.4531 Q60.3906,26.6406 60.0625,25.5 Q59.7344,24.3438 59.7344,22.9531 Q59.7344,21.5781 60.1094,20.4219 Q60.4844,19.2656 61.2031,18.4375 Q61.9219,17.6094 62.9844,17.1563 Q64.0469,16.6875 65.4375,16.6875 Q66.3438,16.6875 67.25,16.9219 Q68.1563,17.1406 68.9844,17.5469 L68.1563,19.6406 Q67.4688,19.3125 66.7813,19.0781 Q66.0938,18.8281 65.4375,18.8281 Z " fill="#000000"/><text fill="#000000" font-family="sans-serif" font-size="14" lengthAdjust="spacing" textLength="77" x="79.5" y="27.8467">Interactable</text><line style="stroke:#181818;stroke-width:0.5;" x1="51.5" x2="158.5" y1="39" y2="39"/><line style="stroke:#181818;stroke-width:0.5;" x1="51.5" x2="158.5" y1="47" y2="47"/></g><!--reverse link Interactable to SavePoint--><g id="link_Interactable_SavePoint"><path codeLine="4" d="M105,75.09 C105,88.28 105,102.52 105,114.75 " fill="none" id="Interactable-backto-SavePoint" style="stroke:#181818;stroke-width:1.0;"/><polygon fill="none" points="98,75.07,105,55.07,112,75.07,98,75.07" style="stroke:#181818;stroke-width:1.0;"/></g><!--SRC=[Iyv9B2vM24uiImt8pymhKQZcKW02RGKRc_oorAAYp9HKEpi5pxoIrAB4v18DJGKhXRByp1IkMYwOM69IJgg2JOskBi8G0000]--></g></svg>