<?xml version="1.0" encoding="us-ascii" standalone="no"?><svg xmlns="http://www.w3.org/2000/svg" xmlns:xlink="http://www.w3.org/1999/xlink" contentStyleType="text/css" height="294px" preserveAspectRatio="none" style="width:209px;height:294px;background:#FFFFFF;" version="1.1" viewBox="0 0 209 294" width="209px" zoomAndPan="magnify"><defs/><g><!--class BaseHealthBar--><g id="elem_BaseHealthBar"><rect codeLine="1" fill="#F1F1F1" height="64.2969" id="BaseHealthBar" rx="2.5" ry="2.5" style="stroke:#181818;stroke-width:0.5;" width="157" x="29.5" y="115"/><ellipse cx="58.45" cy="131" fill="#A9DCDF" rx="11" ry="11" style="stroke:#181818;stroke-width:1.0;"/><path d="M61.4031,136 L60.575,133.1094 L56.3875,133.1094 L55.5438,136 L52.95,136 L56.8875,123.8125 L60.0438,123.8125 L63.9969,136 L61.4031,136 Z M59.9656,130.9531 L59.2,128.2969 Q59.1375,128.1406 59.0438,127.8125 Q58.95,127.4688 58.825,127.0625 Q58.7156,126.6406 58.6063,126.2344 Q58.5125,125.8125 58.4813,125.5313 Q58.45,125.7031 58.3875,125.9531 Q58.3406,126.2031 58.2625,126.4844 Q58.2,126.7656 58.1219,127.0469 Q58.0438,127.3281 57.9813,127.5781 Q57.9188,127.8281 57.8563,128.0156 Q57.8094,128.2031 57.7781,128.2969 L57.0125,130.9531 L59.9656,130.9531 Z " fill="#000000"/><text fill="#000000" font-family="sans-serif" font-size="14" font-style="italic" lengthAdjust="spacing" textLength="94" x="75.55" y="135.8467">BaseHealthBar</text><line style="stroke:#181818;stroke-width:0.5;" x1="30.5" x2="185.5" y1="147" y2="147"/><line style="stroke:#181818;stroke-width:0.5;" x1="30.5" x2="185.5" y1="155" y2="155"/><ellipse cx="40.5" cy="168.6484" fill="#84BE84" rx="3" ry="3" style="stroke:#038048;stroke-width:1.0;"/><text fill="#000000" font-family="sans-serif" font-size="14" lengthAdjust="spacing" textLength="131" x="49.5" y="171.9951">SetHealthBar() : void</text></g><!--class MonoBehaviour--><g id="elem_MonoBehaviour"><rect fill="#F1F1F1" height="48" id="MonoBehaviour" rx="2.5" ry="2.5" style="stroke:#181818;stroke-width:0.5;" width="133" x="41.5" y="7"/><ellipse cx="56.5" cy="23" fill="#ADD1B2" rx="11" ry="11" style="stroke:#181818;stroke-width:1.0;"/><path d="M56.4375,18.8281 Q55.6875,18.8281 55.125,19.125 Q54.5625,19.4063 54.1719,19.9375 Q53.7813,20.4688 53.5781,21.25 Q53.3906,22.0156 53.3906,22.9688 Q53.3906,23.9375 53.5625,24.7031 Q53.75,25.4531 54.1094,25.9688 Q54.4844,26.4844 55.0625,26.7656 Q55.6406,27.0313 56.4375,27.0313 Q57.1719,27.0313 57.9063,26.8594 Q58.6563,26.6875 59.5313,26.3906 L59.5313,28.5469 Q59.125,28.7031 58.7344,28.8281 Q58.3438,28.9375 57.9375,29.0156 Q57.5313,29.0938 57.1094,29.125 Q56.6875,29.1719 56.1875,29.1719 Q54.7813,29.1719 53.75,28.7188 Q52.7344,28.2656 52.0625,27.4531 Q51.3906,26.6406 51.0625,25.5 Q50.7344,24.3438 50.7344,22.9531 Q50.7344,21.5781 51.1094,20.4219 Q51.4844,19.2656 52.2031,18.4375 Q52.9219,17.6094 53.9844,17.1563 Q55.0469,16.6875 56.4375,16.6875 Q57.3438,16.6875 58.25,16.9219 Q59.1563,17.1406 59.9844,17.5469 L59.1563,19.6406 Q58.4688,19.3125 57.7813,19.0781 Q57.0938,18.8281 56.4375,18.8281 Z " fill="#000000"/><text fill="#000000" font-family="sans-serif" font-size="14" lengthAdjust="spacing" textLength="101" x="70.5" y="27.8467">MonoBehaviour</text><line style="stroke:#181818;stroke-width:0.5;" x1="42.5" x2="173.5" y1="39" y2="39"/><line style="stroke:#181818;stroke-width:0.5;" x1="42.5" x2="173.5" y1="47" y2="47"/></g><!--class Gradient--><g id="elem_Gradient"><rect fill="#F1F1F1" height="48" id="Gradient" rx="2.5" ry="2.5" style="stroke:#181818;stroke-width:0.5;" width="88" x="7" y="239"/><ellipse cx="22" cy="255" fill="#ADD1B2" rx="11" ry="11" style="stroke:#181818;stroke-width:1.0;"/><path d="M21.9375,250.8281 Q21.1875,250.8281 20.625,251.125 Q20.0625,251.4063 19.6719,251.9375 Q19.2813,252.4688 19.0781,253.25 Q18.8906,254.0156 18.8906,254.9688 Q18.8906,255.9375 19.0625,256.7031 Q19.25,257.4531 19.6094,257.9688 Q19.9844,258.4844 20.5625,258.7656 Q21.1406,259.0313 21.9375,259.0313 Q22.6719,259.0313 23.4063,258.8594 Q24.1563,258.6875 25.0313,258.3906 L25.0313,260.5469 Q24.625,260.7031 24.2344,260.8281 Q23.8438,260.9375 23.4375,261.0156 Q23.0313,261.0938 22.6094,261.125 Q22.1875,261.1719 21.6875,261.1719 Q20.2813,261.1719 19.25,260.7188 Q18.2344,260.2656 17.5625,259.4531 Q16.8906,258.6406 16.5625,257.5 Q16.2344,256.3438 16.2344,254.9531 Q16.2344,253.5781 16.6094,252.4219 Q16.9844,251.2656 17.7031,250.4375 Q18.4219,249.6094 19.4844,249.1563 Q20.5469,248.6875 21.9375,248.6875 Q22.8438,248.6875 23.75,248.9219 Q24.6563,249.1406 25.4844,249.5469 L24.6563,251.6406 Q23.9688,251.3125 23.2813,251.0781 Q22.5938,250.8281 21.9375,250.8281 Z " fill="#000000"/><text fill="#000000" font-family="sans-serif" font-size="14" lengthAdjust="spacing" textLength="56" x="36" y="259.8467">Gradient</text><line style="stroke:#181818;stroke-width:0.5;" x1="8" x2="94" y1="271" y2="271"/><line style="stroke:#181818;stroke-width:0.5;" x1="8" x2="94" y1="279" y2="279"/></g><!--class Image--><g id="elem_Image"><rect fill="#F1F1F1" height="48" id="Image" rx="2.5" ry="2.5" style="stroke:#181818;stroke-width:0.5;" width="72" x="130" y="239"/><ellipse cx="145" cy="255" fill="#ADD1B2" rx="11" ry="11" style="stroke:#181818;stroke-width:1.0;"/><path d="M144.9375,250.8281 Q144.1875,250.8281 143.625,251.125 Q143.0625,251.4063 142.6719,251.9375 Q142.2813,252.4688 142.0781,253.25 Q141.8906,254.0156 141.8906,254.9688 Q141.8906,255.9375 142.0625,256.7031 Q142.25,257.4531 142.6094,257.9688 Q142.9844,258.4844 143.5625,258.7656 Q144.1406,259.0313 144.9375,259.0313 Q145.6719,259.0313 146.4063,258.8594 Q147.1563,258.6875 148.0313,258.3906 L148.0313,260.5469 Q147.625,260.7031 147.2344,260.8281 Q146.8438,260.9375 146.4375,261.0156 Q146.0313,261.0938 145.6094,261.125 Q145.1875,261.1719 144.6875,261.1719 Q143.2813,261.1719 142.25,260.7188 Q141.2344,260.2656 140.5625,259.4531 Q139.8906,258.6406 139.5625,257.5 Q139.2344,256.3438 139.2344,254.9531 Q139.2344,253.5781 139.6094,252.4219 Q139.9844,251.2656 140.7031,250.4375 Q141.4219,249.6094 142.4844,249.1563 Q143.5469,248.6875 144.9375,248.6875 Q145.8438,248.6875 146.75,248.9219 Q147.6563,249.1406 148.4844,249.5469 L147.6563,251.6406 Q146.9688,251.3125 146.2813,251.0781 Q145.5938,250.8281 144.9375,250.8281 Z " fill="#000000"/><text fill="#000000" font-family="sans-serif" font-size="14" lengthAdjust="spacing" textLength="40" x="159" y="259.8467">Image</text><line style="stroke:#181818;stroke-width:0.5;" x1="131" x2="201" y1="271" y2="271"/><line style="stroke:#181818;stroke-width:0.5;" x1="131" x2="201" y1="279" y2="279"/></g><!--reverse link MonoBehaviour to BaseHealthBar--><g id="link_MonoBehaviour_BaseHealthBar"><path codeLine="4" d="M108,75.09 C108,88.28 108,102.52 108,114.75 " fill="none" id="MonoBehaviour-backto-BaseHealthBar" style="stroke:#181818;stroke-width:1.0;"/><polygon fill="none" points="101,75.07,108,55.07,115,75.07,101,75.07" style="stroke:#181818;stroke-width:1.0;"/></g><!--link BaseHealthBar to Gradient--><g id="link_BaseHealthBar_Gradient"><path codeLine="5" d="M92.42,179.15 C83.81,196.39 73.19,217.62 64.86,234.28 " fill="none" id="BaseHealthBar-to-Gradient" style="stroke:#181818;stroke-width:1.0;"/><polygon fill="#181818" points="62.58,238.84,70.1906,232.5887,64.8218,234.3707,63.0398,229.0019,62.58,238.84" style="stroke:#181818;stroke-width:1.0;"/><text fill="#000000" font-family="sans-serif" font-size="13" lengthAdjust="spacing" textLength="49" x="10.2693" y="227.811">gradient</text></g><!--link BaseHealthBar to Image--><g id="link_BaseHealthBar_Image"><path codeLine="6" d="M123.85,179.15 C132.62,196.39 143.42,217.62 151.89,234.28 " fill="none" id="BaseHealthBar-to-Image" style="stroke:#181818;stroke-width:1.0;"/><polygon fill="#181818" points="154.22,238.84,153.6974,229.005,151.9497,234.3851,146.5696,232.6374,154.22,238.84" style="stroke:#181818;stroke-width:1.0;"/><text fill="#000000" font-family="sans-serif" font-size="13" lengthAdjust="spacing" textLength="13" x="136.5358" y="227.811">fill</text></g><!--SRC=[IqmgBYbAJ2vHICv9B2vMS4eiJlL8JSmfoN1AB5Aevb800cs5uDGIkA26feALGbb-PWfNBPTlVbw-Ksf6ObbcVccHWasDhYwg0LoenkdgsYaefHSbfcIcvfKeARX3MTXKfMNcv2WfUEOcfgS20000]--></g></svg>