<?xml version="1.0" encoding="us-ascii" standalone="no"?><svg xmlns="http://www.w3.org/2000/svg" xmlns:xlink="http://www.w3.org/1999/xlink" contentStyleType="text/css" height="186px" preserveAspectRatio="none" style="width:224px;height:186px;background:#FFFFFF;" version="1.1" viewBox="0 0 224 186" width="224px" zoomAndPan="magnify"><defs/><g><!--class CurrencyUI--><g id="elem_CurrencyUI"><rect codeLine="1" fill="#F1F1F1" height="64.2969" id="CurrencyUI" rx="2.5" ry="2.5" style="stroke:#181818;stroke-width:0.5;" width="210" x="7" y="115"/><ellipse cx="71.75" cy="131" fill="#ADD1B2" rx="11" ry="11" style="stroke:#181818;stroke-width:1.0;"/><path d="M71.6875,126.8281 Q70.9375,126.8281 70.375,127.125 Q69.8125,127.4063 69.4219,127.9375 Q69.0313,128.4688 68.8281,129.25 Q68.6406,130.0156 68.6406,130.9688 Q68.6406,131.9375 68.8125,132.7031 Q69,133.4531 69.3594,133.9688 Q69.7344,134.4844 70.3125,134.7656 Q70.8906,135.0313 71.6875,135.0313 Q72.4219,135.0313 73.1563,134.8594 Q73.9063,134.6875 74.7813,134.3906 L74.7813,136.5469 Q74.375,136.7031 73.9844,136.8281 Q73.5938,136.9375 73.1875,137.0156 Q72.7813,137.0938 72.3594,137.125 Q71.9375,137.1719 71.4375,137.1719 Q70.0313,137.1719 69,136.7188 Q67.9844,136.2656 67.3125,135.4531 Q66.6406,134.6406 66.3125,133.5 Q65.9844,132.3438 65.9844,130.9531 Q65.9844,129.5781 66.3594,128.4219 Q66.7344,127.2656 67.4531,126.4375 Q68.1719,125.6094 69.2344,125.1563 Q70.2969,124.6875 71.6875,124.6875 Q72.5938,124.6875 73.5,124.9219 Q74.4063,125.1406 75.2344,125.5469 L74.4063,127.6406 Q73.7188,127.3125 73.0313,127.0781 Q72.3438,126.8281 71.6875,126.8281 Z " fill="#000000"/><text fill="#000000" font-family="sans-serif" font-size="14" lengthAdjust="spacing" textLength="72" x="92.25" y="135.8467">CurrencyUI</text><line style="stroke:#181818;stroke-width:0.5;" x1="8" x2="216" y1="147" y2="147"/><line style="stroke:#181818;stroke-width:0.5;" x1="8" x2="216" y1="155" y2="155"/><ellipse cx="18" cy="168.6484" fill="#84BE84" rx="3" ry="3" style="stroke:#038048;stroke-width:1.0;"/><text fill="#000000" font-family="sans-serif" font-size="14" lengthAdjust="spacing" textLength="184" x="27" y="171.9951">UpdateUI(currency:int) : void</text></g><!--class MonoBehaviour--><g id="elem_MonoBehaviour"><rect fill="#F1F1F1" height="48" id="MonoBehaviour" rx="2.5" ry="2.5" style="stroke:#181818;stroke-width:0.5;" width="133" x="45.5" y="7"/><ellipse cx="60.5" cy="23" fill="#ADD1B2" rx="11" ry="11" style="stroke:#181818;stroke-width:1.0;"/><path d="M60.4375,18.8281 Q59.6875,18.8281 59.125,19.125 Q58.5625,19.4063 58.1719,19.9375 Q57.7813,20.4688 57.5781,21.25 Q57.3906,22.0156 57.3906,22.9688 Q57.3906,23.9375 57.5625,24.7031 Q57.75,25.4531 58.1094,25.9688 Q58.4844,26.4844 59.0625,26.7656 Q59.6406,27.0313 60.4375,27.0313 Q61.1719,27.0313 61.9063,26.8594 Q62.6563,26.6875 63.5313,26.3906 L63.5313,28.5469 Q63.125,28.7031 62.7344,28.8281 Q62.3438,28.9375 61.9375,29.0156 Q61.5313,29.0938 61.1094,29.125 Q60.6875,29.1719 60.1875,29.1719 Q58.7813,29.1719 57.75,28.7188 Q56.7344,28.2656 56.0625,27.4531 Q55.3906,26.6406 55.0625,25.5 Q54.7344,24.3438 54.7344,22.9531 Q54.7344,21.5781 55.1094,20.4219 Q55.4844,19.2656 56.2031,18.4375 Q56.9219,17.6094 57.9844,17.1563 Q59.0469,16.6875 60.4375,16.6875 Q61.3438,16.6875 62.25,16.9219 Q63.1563,17.1406 63.9844,17.5469 L63.1563,19.6406 Q62.4688,19.3125 61.7813,19.0781 Q61.0938,18.8281 60.4375,18.8281 Z " fill="#000000"/><text fill="#000000" font-family="sans-serif" font-size="14" lengthAdjust="spacing" textLength="101" x="74.5" y="27.8467">MonoBehaviour</text><line style="stroke:#181818;stroke-width:0.5;" x1="46.5" x2="177.5" y1="39" y2="39"/><line style="stroke:#181818;stroke-width:0.5;" x1="46.5" x2="177.5" y1="47" y2="47"/></g><!--reverse link MonoBehaviour to CurrencyUI--><g id="link_MonoBehaviour_CurrencyUI"><path codeLine="4" d="M112,75.09 C112,88.28 112,102.52 112,114.75 " fill="none" id="MonoBehaviour-backto-CurrencyUI" style="stroke:#181818;stroke-width:1.0;"/><polygon fill="none" points="105,75.07,112,55.07,119,75.07,105,75.07" style="stroke:#181818;stroke-width:1.0;"/></g><!--SRC=[Iyv9B2vMS2ujAahDIwuCzLIevb800cs5q8AKn9BKK4-DPAYSLMPUYQQ2bK9PVcOALosNRtvUlbDgHc9PPdvfaO9DZQukaYa0]--></g></svg>