<?xml version="1.0" encoding="us-ascii" standalone="no"?><svg xmlns="http://www.w3.org/2000/svg" xmlns:xlink="http://www.w3.org/1999/xlink" contentStyleType="text/css" height="170px" preserveAspectRatio="none" style="width:153px;height:170px;background:#FFFFFF;" version="1.1" viewBox="0 0 153 170" width="153px" zoomAndPan="magnify"><defs/><g><!--class EnemyHealthBar--><g id="elem_EnemyHealthBar"><rect codeLine="1" fill="#F1F1F1" height="48" id="EnemyHealthBar" rx="2.5" ry="2.5" style="stroke:#181818;stroke-width:0.5;" width="139" x="7" y="115"/><ellipse cx="22" cy="131" fill="#ADD1B2" rx="11" ry="11" style="stroke:#181818;stroke-width:1.0;"/><path d="M21.9375,126.8281 Q21.1875,126.8281 20.625,127.125 Q20.0625,127.4063 19.6719,127.9375 Q19.2813,128.4688 19.0781,129.25 Q18.8906,130.0156 18.8906,130.9688 Q18.8906,131.9375 19.0625,132.7031 Q19.25,133.4531 19.6094,133.9688 Q19.9844,134.4844 20.5625,134.7656 Q21.1406,135.0313 21.9375,135.0313 Q22.6719,135.0313 23.4063,134.8594 Q24.1563,134.6875 25.0313,134.3906 L25.0313,136.5469 Q24.625,136.7031 24.2344,136.8281 Q23.8438,136.9375 23.4375,137.0156 Q23.0313,137.0938 22.6094,137.125 Q22.1875,137.1719 21.6875,137.1719 Q20.2813,137.1719 19.25,136.7188 Q18.2344,136.2656 17.5625,135.4531 Q16.8906,134.6406 16.5625,133.5 Q16.2344,132.3438 16.2344,130.9531 Q16.2344,129.5781 16.6094,128.4219 Q16.9844,127.2656 17.7031,126.4375 Q18.4219,125.6094 19.4844,125.1563 Q20.5469,124.6875 21.9375,124.6875 Q22.8438,124.6875 23.75,124.9219 Q24.6563,125.1406 25.4844,125.5469 L24.6563,127.6406 Q23.9688,127.3125 23.2813,127.0781 Q22.5938,126.8281 21.9375,126.8281 Z " fill="#000000"/><text fill="#000000" font-family="sans-serif" font-size="14" lengthAdjust="spacing" textLength="107" x="36" y="135.8467">EnemyHealthBar</text><line style="stroke:#181818;stroke-width:0.5;" x1="8" x2="145" y1="147" y2="147"/><line style="stroke:#181818;stroke-width:0.5;" x1="8" x2="145" y1="155" y2="155"/></g><!--class BaseHealthBar--><g id="elem_BaseHealthBar"><rect fill="#F1F1F1" height="48" id="BaseHealthBar" rx="2.5" ry="2.5" style="stroke:#181818;stroke-width:0.5;" width="126" x="13.5" y="7"/><ellipse cx="28.5" cy="23" fill="#ADD1B2" rx="11" ry="11" style="stroke:#181818;stroke-width:1.0;"/><path d="M28.4375,18.8281 Q27.6875,18.8281 27.125,19.125 Q26.5625,19.4063 26.1719,19.9375 Q25.7813,20.4688 25.5781,21.25 Q25.3906,22.0156 25.3906,22.9688 Q25.3906,23.9375 25.5625,24.7031 Q25.75,25.4531 26.1094,25.9688 Q26.4844,26.4844 27.0625,26.7656 Q27.6406,27.0313 28.4375,27.0313 Q29.1719,27.0313 29.9063,26.8594 Q30.6563,26.6875 31.5313,26.3906 L31.5313,28.5469 Q31.125,28.7031 30.7344,28.8281 Q30.3438,28.9375 29.9375,29.0156 Q29.5313,29.0938 29.1094,29.125 Q28.6875,29.1719 28.1875,29.1719 Q26.7813,29.1719 25.75,28.7188 Q24.7344,28.2656 24.0625,27.4531 Q23.3906,26.6406 23.0625,25.5 Q22.7344,24.3438 22.7344,22.9531 Q22.7344,21.5781 23.1094,20.4219 Q23.4844,19.2656 24.2031,18.4375 Q24.9219,17.6094 25.9844,17.1563 Q27.0469,16.6875 28.4375,16.6875 Q29.3438,16.6875 30.25,16.9219 Q31.1563,17.1406 31.9844,17.5469 L31.1563,19.6406 Q30.4688,19.3125 29.7813,19.0781 Q29.0938,18.8281 28.4375,18.8281 Z " fill="#000000"/><text fill="#000000" font-family="sans-serif" font-size="14" lengthAdjust="spacing" textLength="94" x="42.5" y="27.8467">BaseHealthBar</text><line style="stroke:#181818;stroke-width:0.5;" x1="14.5" x2="138.5" y1="39" y2="39"/><line style="stroke:#181818;stroke-width:0.5;" x1="14.5" x2="138.5" y1="47" y2="47"/></g><!--reverse link BaseHealthBar to EnemyHealthBar--><g id="link_BaseHealthBar_EnemyHealthBar"><path codeLine="3" d="M76.5,75.02 C76.5,88.58 76.5,103.04 76.5,114.68 " fill="none" id="BaseHealthBar-backto-EnemyHealthBar" style="stroke:#181818;stroke-width:1.0;"/><polygon fill="none" points="69.5,75,76.5,55,83.5,75,69.5,75" style="stroke:#181818;stroke-width:1.0;"/></g><!--SRC=[Iyv9B2vMSCrBpQtqI4tCASbmIYnIgEQgvN9AB4v5YDZKwEgYgG80]--></g></svg>