<?xml version="1.0" encoding="us-ascii" standalone="no"?><svg xmlns="http://www.w3.org/2000/svg" xmlns:xlink="http://www.w3.org/1999/xlink" contentStyleType="text/css" height="202px" preserveAspectRatio="none" style="width:324px;height:202px;background:#FFFFFF;" version="1.1" viewBox="0 0 324 202" width="324px" zoomAndPan="magnify"><defs/><g><!--class EquipmentUIManager--><g id="elem_EquipmentUIManager"><rect codeLine="1" fill="#F1F1F1" height="80.5938" id="EquipmentUIManager" rx="2.5" ry="2.5" style="stroke:#181818;stroke-width:0.5;" width="253" x="7" y="115"/><ellipse cx="59.75" cy="131" fill="#ADD1B2" rx="11" ry="11" style="stroke:#181818;stroke-width:1.0;"/><path d="M59.6875,126.8281 Q58.9375,126.8281 58.375,127.125 Q57.8125,127.4063 57.4219,127.9375 Q57.0313,128.4688 56.8281,129.25 Q56.6406,130.0156 56.6406,130.9688 Q56.6406,131.9375 56.8125,132.7031 Q57,133.4531 57.3594,133.9688 Q57.7344,134.4844 58.3125,134.7656 Q58.8906,135.0313 59.6875,135.0313 Q60.4219,135.0313 61.1563,134.8594 Q61.9063,134.6875 62.7813,134.3906 L62.7813,136.5469 Q62.375,136.7031 61.9844,136.8281 Q61.5938,136.9375 61.1875,137.0156 Q60.7813,137.0938 60.3594,137.125 Q59.9375,137.1719 59.4375,137.1719 Q58.0313,137.1719 57,136.7188 Q55.9844,136.2656 55.3125,135.4531 Q54.6406,134.6406 54.3125,133.5 Q53.9844,132.3438 53.9844,130.9531 Q53.9844,129.5781 54.3594,128.4219 Q54.7344,127.2656 55.4531,126.4375 Q56.1719,125.6094 57.2344,125.1563 Q58.2969,124.6875 59.6875,124.6875 Q60.5938,124.6875 61.5,124.9219 Q62.4063,125.1406 63.2344,125.5469 L62.4063,127.6406 Q61.7188,127.3125 61.0313,127.0781 Q60.3438,126.8281 59.6875,126.8281 Z " fill="#000000"/><text fill="#000000" font-family="sans-serif" font-size="14" lengthAdjust="spacing" textLength="139" x="80.25" y="135.8467">EquipmentUIManager</text><line style="stroke:#181818;stroke-width:0.5;" x1="8" x2="259" y1="147" y2="147"/><line style="stroke:#181818;stroke-width:0.5;" x1="8" x2="259" y1="155" y2="155"/><ellipse cx="18" cy="168.6484" fill="#84BE84" rx="3" ry="3" style="stroke:#038048;stroke-width:1.0;"/><text fill="#000000" font-family="sans-serif" font-size="14" lengthAdjust="spacing" textLength="153" x="27" y="171.9951">CheckEquipment() : void</text><ellipse cx="18" cy="184.9453" fill="#84BE84" rx="3" ry="3" style="stroke:#038048;stroke-width:1.0;"/><text fill="#000000" font-family="sans-serif" font-size="14" lengthAdjust="spacing" textLength="227" x="27" y="188.292">Select(mono:MonoBehaviour) : void</text></g><!--class MonoBehaviour--><g id="elem_MonoBehaviour"><rect fill="#F1F1F1" height="48" id="MonoBehaviour" rx="2.5" ry="2.5" style="stroke:#181818;stroke-width:0.5;" width="133" x="67" y="7"/><ellipse cx="82" cy="23" fill="#ADD1B2" rx="11" ry="11" style="stroke:#181818;stroke-width:1.0;"/><path d="M81.9375,18.8281 Q81.1875,18.8281 80.625,19.125 Q80.0625,19.4063 79.6719,19.9375 Q79.2813,20.4688 79.0781,21.25 Q78.8906,22.0156 78.8906,22.9688 Q78.8906,23.9375 79.0625,24.7031 Q79.25,25.4531 79.6094,25.9688 Q79.9844,26.4844 80.5625,26.7656 Q81.1406,27.0313 81.9375,27.0313 Q82.6719,27.0313 83.4063,26.8594 Q84.1563,26.6875 85.0313,26.3906 L85.0313,28.5469 Q84.625,28.7031 84.2344,28.8281 Q83.8438,28.9375 83.4375,29.0156 Q83.0313,29.0938 82.6094,29.125 Q82.1875,29.1719 81.6875,29.1719 Q80.2813,29.1719 79.25,28.7188 Q78.2344,28.2656 77.5625,27.4531 Q76.8906,26.6406 76.5625,25.5 Q76.2344,24.3438 76.2344,22.9531 Q76.2344,21.5781 76.6094,20.4219 Q76.9844,19.2656 77.7031,18.4375 Q78.4219,17.6094 79.4844,17.1563 Q80.5469,16.6875 81.9375,16.6875 Q82.8438,16.6875 83.75,16.9219 Q84.6563,17.1406 85.4844,17.5469 L84.6563,19.6406 Q83.9688,19.3125 83.2813,19.0781 Q82.5938,18.8281 81.9375,18.8281 Z " fill="#000000"/><text fill="#000000" font-family="sans-serif" font-size="14" lengthAdjust="spacing" textLength="101" x="96" y="27.8467">MonoBehaviour</text><line style="stroke:#181818;stroke-width:0.5;" x1="68" x2="199" y1="39" y2="39"/><line style="stroke:#181818;stroke-width:0.5;" x1="68" x2="199" y1="47" y2="47"/></g><!--reverse link MonoBehaviour to EquipmentUIManager--><g id="link_MonoBehaviour_EquipmentUIManager"><path codeLine="5" d="M133.5,75.14 C133.5,88 133.5,102.04 133.5,114.69 " fill="none" id="MonoBehaviour-backto-EquipmentUIManager" style="stroke:#181818;stroke-width:1.0;"/><polygon fill="none" points="126.5,75.04,133.5,55.04,140.5,75.04,126.5,75.04" style="stroke:#181818;stroke-width:1.0;"/></g><!--link EquipmentUIManager to EquipmentUIManager--><g id="link_EquipmentUIManager_EquipmentUIManager"><path codeLine="6" d="M260.12,133.99 C280.79,137.07 295,144.24 295,155.5 C295,165.79 283.13,172.67 265.3,176.13 " fill="none" id="EquipmentUIManager-to-EquipmentUIManager" style="stroke:#181818;stroke-width:1.0;"/><polygon fill="#181818" points="260.12,177.01,269.6655,179.4357,265.0485,176.1672,268.3169,171.5501,260.12,177.01" style="stroke:#181818;stroke-width:1.0;"/><text fill="#000000" font-family="sans-serif" font-size="13" lengthAdjust="spacing" textLength="50" x="267.9379" y="174.8132">Instance</text></g><!--SRC=[Iyv9B2vMS2qipIp8JSqh2VNqJSnBJ4yjKgZcKW02RGNdZDJaRBYyXgQ2bK9PVcOAL3OuDISrkKGZDpyltyeNI3YbPYIMPUQN5i7LrNAXY2lOrEZgOh6F2uiJT7Nj59GyyufB4lEIKvMmQ080]--></g></svg>