<?xml version="1.0" encoding="us-ascii" standalone="no"?><svg xmlns="http://www.w3.org/2000/svg" xmlns:xlink="http://www.w3.org/1999/xlink" contentStyleType="text/css" height="311px" preserveAspectRatio="none" style="width:243px;height:311px;background:#FFFFFF;" version="1.1" viewBox="0 0 243 311" width="243px" zoomAndPan="magnify"><defs/><g><!--class EquipmentSlot--><g id="elem_EquipmentSlot"><rect codeLine="1" fill="#F1F1F1" height="80.5938" id="EquipmentSlot" rx="2.5" ry="2.5" style="stroke:#181818;stroke-width:0.5;" width="128" x="45.114" y="115"/><ellipse cx="61.464" cy="131" fill="#ADD1B2" rx="11" ry="11" style="stroke:#181818;stroke-width:1.0;"/><path d="M61.4015,126.8281 Q60.6515,126.8281 60.089,127.125 Q59.5265,127.4063 59.1359,127.9375 Q58.7453,128.4688 58.5421,129.25 Q58.3546,130.0156 58.3546,130.9688 Q58.3546,131.9375 58.5265,132.7031 Q58.714,133.4531 59.0734,133.9688 Q59.4484,134.4844 60.0265,134.7656 Q60.6046,135.0313 61.4015,135.0313 Q62.1359,135.0313 62.8703,134.8594 Q63.6203,134.6875 64.4953,134.3906 L64.4953,136.5469 Q64.089,136.7031 63.6984,136.8281 Q63.3078,136.9375 62.9015,137.0156 Q62.4953,137.0938 62.0734,137.125 Q61.6515,137.1719 61.1515,137.1719 Q59.7453,137.1719 58.714,136.7188 Q57.6984,136.2656 57.0265,135.4531 Q56.3546,134.6406 56.0265,133.5 Q55.6984,132.3438 55.6984,130.9531 Q55.6984,129.5781 56.0734,128.4219 Q56.4484,127.2656 57.1671,126.4375 Q57.8859,125.6094 58.9484,125.1563 Q60.0109,124.6875 61.4015,124.6875 Q62.3078,124.6875 63.214,124.9219 Q64.1203,125.1406 64.9484,125.5469 L64.1203,127.6406 Q63.4328,127.3125 62.7453,127.0781 Q62.0578,126.8281 61.4015,126.8281 Z " fill="#000000"/><text fill="#000000" font-family="sans-serif" font-size="14" lengthAdjust="spacing" textLength="93" x="75.764" y="135.8467">EquipmentSlot</text><line style="stroke:#181818;stroke-width:0.5;" x1="46.114" x2="172.114" y1="147" y2="147"/><line style="stroke:#181818;stroke-width:0.5;" x1="46.114" x2="172.114" y1="155" y2="155"/><ellipse cx="56.114" cy="168.6484" fill="#84BE84" rx="3" ry="3" style="stroke:#038048;stroke-width:1.0;"/><text fill="#000000" font-family="sans-serif" font-size="14" lengthAdjust="spacing" textLength="85" x="65.114" y="171.9951">Select() : void</text><ellipse cx="56.114" cy="184.9453" fill="#84BE84" rx="3" ry="3" style="stroke:#038048;stroke-width:1.0;"/><text fill="#000000" font-family="sans-serif" font-size="14" lengthAdjust="spacing" textLength="102" x="65.114" y="188.292">Deselect() : void</text></g><!--class MonoBehaviour--><g id="elem_MonoBehaviour"><rect fill="#F1F1F1" height="48" id="MonoBehaviour" rx="2.5" ry="2.5" style="stroke:#181818;stroke-width:0.5;" width="133" x="42.614" y="7"/><ellipse cx="57.614" cy="23" fill="#ADD1B2" rx="11" ry="11" style="stroke:#181818;stroke-width:1.0;"/><path d="M57.5515,18.8281 Q56.8015,18.8281 56.239,19.125 Q55.6765,19.4063 55.2859,19.9375 Q54.8953,20.4688 54.6921,21.25 Q54.5046,22.0156 54.5046,22.9688 Q54.5046,23.9375 54.6765,24.7031 Q54.864,25.4531 55.2234,25.9688 Q55.5984,26.4844 56.1765,26.7656 Q56.7546,27.0313 57.5515,27.0313 Q58.2859,27.0313 59.0203,26.8594 Q59.7703,26.6875 60.6453,26.3906 L60.6453,28.5469 Q60.239,28.7031 59.8484,28.8281 Q59.4578,28.9375 59.0515,29.0156 Q58.6453,29.0938 58.2234,29.125 Q57.8015,29.1719 57.3015,29.1719 Q55.8953,29.1719 54.864,28.7188 Q53.8484,28.2656 53.1765,27.4531 Q52.5046,26.6406 52.1765,25.5 Q51.8484,24.3438 51.8484,22.9531 Q51.8484,21.5781 52.2234,20.4219 Q52.5984,19.2656 53.3171,18.4375 Q54.0359,17.6094 55.0984,17.1563 Q56.1609,16.6875 57.5515,16.6875 Q58.4578,16.6875 59.364,16.9219 Q60.2703,17.1406 61.0984,17.5469 L60.2703,19.6406 Q59.5828,19.3125 58.8953,19.0781 Q58.2078,18.8281 57.5515,18.8281 Z " fill="#000000"/><text fill="#000000" font-family="sans-serif" font-size="14" lengthAdjust="spacing" textLength="101" x="71.614" y="27.8467">MonoBehaviour</text><line style="stroke:#181818;stroke-width:0.5;" x1="43.614" x2="174.614" y1="39" y2="39"/><line style="stroke:#181818;stroke-width:0.5;" x1="43.614" x2="174.614" y1="47" y2="47"/></g><!--class Color--><g id="elem_Color"><rect fill="#F1F1F1" height="48" id="Color" rx="2.5" ry="2.5" style="stroke:#181818;stroke-width:0.5;" width="66" x="76.114" y="256"/><ellipse cx="91.114" cy="272" fill="#ADD1B2" rx="11" ry="11" style="stroke:#181818;stroke-width:1.0;"/><path d="M91.0515,267.8281 Q90.3015,267.8281 89.739,268.125 Q89.1765,268.4063 88.7859,268.9375 Q88.3953,269.4688 88.1921,270.25 Q88.0046,271.0156 88.0046,271.9688 Q88.0046,272.9375 88.1765,273.7031 Q88.364,274.4531 88.7234,274.9688 Q89.0984,275.4844 89.6765,275.7656 Q90.2546,276.0313 91.0515,276.0313 Q91.7859,276.0313 92.5203,275.8594 Q93.2703,275.6875 94.1453,275.3906 L94.1453,277.5469 Q93.739,277.7031 93.3484,277.8281 Q92.9578,277.9375 92.5515,278.0156 Q92.1453,278.0938 91.7234,278.125 Q91.3015,278.1719 90.8015,278.1719 Q89.3953,278.1719 88.364,277.7188 Q87.3484,277.2656 86.6765,276.4531 Q86.0046,275.6406 85.6765,274.5 Q85.3484,273.3438 85.3484,271.9531 Q85.3484,270.5781 85.7234,269.4219 Q86.0984,268.2656 86.8171,267.4375 Q87.5359,266.6094 88.5984,266.1563 Q89.6609,265.6875 91.0515,265.6875 Q91.9578,265.6875 92.864,265.9219 Q93.7703,266.1406 94.5984,266.5469 L93.7703,268.6406 Q93.0828,268.3125 92.3953,268.0781 Q91.7078,267.8281 91.0515,267.8281 Z " fill="#000000"/><text fill="#000000" font-family="sans-serif" font-size="14" lengthAdjust="spacing" textLength="34" x="105.114" y="276.8467">Color</text><line style="stroke:#181818;stroke-width:0.5;" x1="77.114" x2="141.114" y1="288" y2="288"/><line style="stroke:#181818;stroke-width:0.5;" x1="77.114" x2="141.114" y1="296" y2="296"/></g><!--reverse link MonoBehaviour to EquipmentSlot--><g id="link_MonoBehaviour_EquipmentSlot"><path codeLine="5" d="M109.114,75.14 C109.114,88 109.114,102.04 109.114,114.69 " fill="none" id="MonoBehaviour-backto-EquipmentSlot" style="stroke:#181818;stroke-width:1.0;"/><polygon fill="none" points="102.114,75.04,109.114,55.04,116.114,75.04,102.114,75.04" style="stroke:#181818;stroke-width:1.0;"/></g><!--link EquipmentSlot to Color--><g id="link_EquipmentSlot_Color"><path codeLine="6" d="M97.084,196.27 C95.844,213.97 96.204,234.41 98.154,250.55 " fill="none" id="EquipmentSlot-to-Color" style="stroke:#181818;stroke-width:1.0;"/><polygon fill="#181818" points="98.874,255.84,101.6031,246.3768,98.1889,250.8872,93.6785,247.473,98.874,255.84" style="stroke:#181818;stroke-width:1.0;"/><text fill="#000000" font-family="sans-serif" font-size="13" lengthAdjust="spacing" textLength="80" x="6" y="244.811">selectedColor</text></g><!--link EquipmentSlot to Color--><g id="link_EquipmentSlot_Color"><path codeLine="7" d="M121.844,196.27 C123.164,213.97 122.784,234.41 120.724,250.55 " fill="none" id="EquipmentSlot-to-Color-1" style="stroke:#181818;stroke-width:1.0;"/><polygon fill="#181818" points="119.954,255.84,125.1967,247.5025,120.6671,250.8911,117.2785,246.3615,119.954,255.84" style="stroke:#181818;stroke-width:1.0;"/><text fill="#000000" font-family="sans-serif" font-size="13" lengthAdjust="spacing" textLength="101" x="135.6724" y="244.811">notSelectedColor</text></g><!--SRC=[Iyv9B2vMS2qipIp8JSqh2Sx9Br6evb800cs5uDISrEGI3Kq5AuMo_CmKgAXBQZ6QU2sNRtvUlbDgHc9PPdvfaO9DZQukgf5Sg1RewjefA45CIKrnpi_9Br9I05FOrENbbmHZKGe0]--></g></svg>