<?xml version="1.0" encoding="us-ascii" standalone="no"?><svg xmlns="http://www.w3.org/2000/svg" xmlns:xlink="http://www.w3.org/1999/xlink" contentStyleType="text/css" height="202px" preserveAspectRatio="none" style="width:225px;height:202px;background:#FFFFFF;" version="1.1" viewBox="0 0 225 202" width="225px" zoomAndPan="magnify"><defs/><g><!--class HackButtonUI--><g id="elem_HackButtonUI"><rect codeLine="1" fill="#F1F1F1" height="80.5938" id="HackButtonUI" rx="2.5" ry="2.5" style="stroke:#181818;stroke-width:0.5;" width="211" x="7" y="115"/><ellipse cx="64.25" cy="131" fill="#ADD1B2" rx="11" ry="11" style="stroke:#181818;stroke-width:1.0;"/><path d="M64.1875,126.8281 Q63.4375,126.8281 62.875,127.125 Q62.3125,127.4063 61.9219,127.9375 Q61.5313,128.4688 61.3281,129.25 Q61.1406,130.0156 61.1406,130.9688 Q61.1406,131.9375 61.3125,132.7031 Q61.5,133.4531 61.8594,133.9688 Q62.2344,134.4844 62.8125,134.7656 Q63.3906,135.0313 64.1875,135.0313 Q64.9219,135.0313 65.6563,134.8594 Q66.4063,134.6875 67.2813,134.3906 L67.2813,136.5469 Q66.875,136.7031 66.4844,136.8281 Q66.0938,136.9375 65.6875,137.0156 Q65.2813,137.0938 64.8594,137.125 Q64.4375,137.1719 63.9375,137.1719 Q62.5313,137.1719 61.5,136.7188 Q60.4844,136.2656 59.8125,135.4531 Q59.1406,134.6406 58.8125,133.5 Q58.4844,132.3438 58.4844,130.9531 Q58.4844,129.5781 58.8594,128.4219 Q59.2344,127.2656 59.9531,126.4375 Q60.6719,125.6094 61.7344,125.1563 Q62.7969,124.6875 64.1875,124.6875 Q65.0938,124.6875 66,124.9219 Q66.9063,125.1406 67.7344,125.5469 L66.9063,127.6406 Q66.2188,127.3125 65.5313,127.0781 Q64.8438,126.8281 64.1875,126.8281 Z " fill="#000000"/><text fill="#000000" font-family="sans-serif" font-size="14" lengthAdjust="spacing" textLength="88" x="84.75" y="135.8467">HackButtonUI</text><line style="stroke:#181818;stroke-width:0.5;" x1="8" x2="217" y1="147" y2="147"/><ellipse cx="18" cy="160.6484" fill="none" rx="3" ry="3" style="stroke:#038048;stroke-width:1.0;"/><text fill="#000000" font-family="sans-serif" font-size="14" lengthAdjust="spacing" textLength="85" x="27" y="163.9951">Clicked : bool</text><line style="stroke:#181818;stroke-width:0.5;" x1="8" x2="217" y1="171.2969" y2="171.2969"/><ellipse cx="18" cy="184.9453" fill="#84BE84" rx="3" ry="3" style="stroke:#038048;stroke-width:1.0;"/><text fill="#000000" font-family="sans-serif" font-size="14" lengthAdjust="spacing" textLength="185" x="27" y="188.292">SetButton(clicked:bool) : void</text></g><!--class MonoBehaviour--><g id="elem_MonoBehaviour"><rect fill="#F1F1F1" height="48" id="MonoBehaviour" rx="2.5" ry="2.5" style="stroke:#181818;stroke-width:0.5;" width="133" x="46" y="7"/><ellipse cx="61" cy="23" fill="#ADD1B2" rx="11" ry="11" style="stroke:#181818;stroke-width:1.0;"/><path d="M60.9375,18.8281 Q60.1875,18.8281 59.625,19.125 Q59.0625,19.4063 58.6719,19.9375 Q58.2813,20.4688 58.0781,21.25 Q57.8906,22.0156 57.8906,22.9688 Q57.8906,23.9375 58.0625,24.7031 Q58.25,25.4531 58.6094,25.9688 Q58.9844,26.4844 59.5625,26.7656 Q60.1406,27.0313 60.9375,27.0313 Q61.6719,27.0313 62.4063,26.8594 Q63.1563,26.6875 64.0313,26.3906 L64.0313,28.5469 Q63.625,28.7031 63.2344,28.8281 Q62.8438,28.9375 62.4375,29.0156 Q62.0313,29.0938 61.6094,29.125 Q61.1875,29.1719 60.6875,29.1719 Q59.2813,29.1719 58.25,28.7188 Q57.2344,28.2656 56.5625,27.4531 Q55.8906,26.6406 55.5625,25.5 Q55.2344,24.3438 55.2344,22.9531 Q55.2344,21.5781 55.6094,20.4219 Q55.9844,19.2656 56.7031,18.4375 Q57.4219,17.6094 58.4844,17.1563 Q59.5469,16.6875 60.9375,16.6875 Q61.8438,16.6875 62.75,16.9219 Q63.6563,17.1406 64.4844,17.5469 L63.6563,19.6406 Q62.9688,19.3125 62.2813,19.0781 Q61.5938,18.8281 60.9375,18.8281 Z " fill="#000000"/><text fill="#000000" font-family="sans-serif" font-size="14" lengthAdjust="spacing" textLength="101" x="75" y="27.8467">MonoBehaviour</text><line style="stroke:#181818;stroke-width:0.5;" x1="47" x2="178" y1="39" y2="39"/><line style="stroke:#181818;stroke-width:0.5;" x1="47" x2="178" y1="47" y2="47"/></g><!--reverse link MonoBehaviour to HackButtonUI--><g id="link_MonoBehaviour_HackButtonUI"><path codeLine="5" d="M112.5,75.14 C112.5,88 112.5,102.04 112.5,114.69 " fill="none" id="MonoBehaviour-backto-HackButtonUI" style="stroke:#181818;stroke-width:1.0;"/><polygon fill="none" points="105.5,75.04,112.5,55.04,119.5,75.04,105.5,75.04" style="stroke:#181818;stroke-width:1.0;"/></g><!--SRC=[Iyv9B2vMy4XCpdOgBId9pmlrLAZcKW02RGNddCpaxDGK1Ik5fFpy7AXWS6e9HA56CaJQ2YIf2LHKbf-PmbNBvPkVb- -Kcf5ObfbVMgHWKwEhYs8w0000]--></g></svg>