<?xml version="1.0" encoding="us-ascii" standalone="no"?><svg xmlns="http://www.w3.org/2000/svg" xmlns:xlink="http://www.w3.org/1999/xlink" contentStyleType="text/css" height="170px" preserveAspectRatio="none" style="width:140px;height:170px;background:#FFFFFF;" version="1.1" viewBox="0 0 140 170" width="140px" zoomAndPan="magnify"><defs/><g><!--class HealthBar--><g id="elem_HealthBar"><rect codeLine="1" fill="#F1F1F1" height="48" id="HealthBar" rx="2.5" ry="2.5" style="stroke:#181818;stroke-width:0.5;" width="96" x="22" y="115"/><ellipse cx="37" cy="131" fill="#ADD1B2" rx="11" ry="11" style="stroke:#181818;stroke-width:1.0;"/><path d="M36.9375,126.8281 Q36.1875,126.8281 35.625,127.125 Q35.0625,127.4063 34.6719,127.9375 Q34.2813,128.4688 34.0781,129.25 Q33.8906,130.0156 33.8906,130.9688 Q33.8906,131.9375 34.0625,132.7031 Q34.25,133.4531 34.6094,133.9688 Q34.9844,134.4844 35.5625,134.7656 Q36.1406,135.0313 36.9375,135.0313 Q37.6719,135.0313 38.4063,134.8594 Q39.1563,134.6875 40.0313,134.3906 L40.0313,136.5469 Q39.625,136.7031 39.2344,136.8281 Q38.8438,136.9375 38.4375,137.0156 Q38.0313,137.0938 37.6094,137.125 Q37.1875,137.1719 36.6875,137.1719 Q35.2813,137.1719 34.25,136.7188 Q33.2344,136.2656 32.5625,135.4531 Q31.8906,134.6406 31.5625,133.5 Q31.2344,132.3438 31.2344,130.9531 Q31.2344,129.5781 31.6094,128.4219 Q31.9844,127.2656 32.7031,126.4375 Q33.4219,125.6094 34.4844,125.1563 Q35.5469,124.6875 36.9375,124.6875 Q37.8438,124.6875 38.75,124.9219 Q39.6563,125.1406 40.4844,125.5469 L39.6563,127.6406 Q38.9688,127.3125 38.2813,127.0781 Q37.5938,126.8281 36.9375,126.8281 Z " fill="#000000"/><text fill="#000000" font-family="sans-serif" font-size="14" lengthAdjust="spacing" textLength="64" x="51" y="135.8467">HealthBar</text><line style="stroke:#181818;stroke-width:0.5;" x1="23" x2="117" y1="147" y2="147"/><line style="stroke:#181818;stroke-width:0.5;" x1="23" x2="117" y1="155" y2="155"/></g><!--class BaseHealthBar--><g id="elem_BaseHealthBar"><rect fill="#F1F1F1" height="48" id="BaseHealthBar" rx="2.5" ry="2.5" style="stroke:#181818;stroke-width:0.5;" width="126" x="7" y="7"/><ellipse cx="22" cy="23" fill="#ADD1B2" rx="11" ry="11" style="stroke:#181818;stroke-width:1.0;"/><path d="M21.9375,18.8281 Q21.1875,18.8281 20.625,19.125 Q20.0625,19.4063 19.6719,19.9375 Q19.2813,20.4688 19.0781,21.25 Q18.8906,22.0156 18.8906,22.9688 Q18.8906,23.9375 19.0625,24.7031 Q19.25,25.4531 19.6094,25.9688 Q19.9844,26.4844 20.5625,26.7656 Q21.1406,27.0313 21.9375,27.0313 Q22.6719,27.0313 23.4063,26.8594 Q24.1563,26.6875 25.0313,26.3906 L25.0313,28.5469 Q24.625,28.7031 24.2344,28.8281 Q23.8438,28.9375 23.4375,29.0156 Q23.0313,29.0938 22.6094,29.125 Q22.1875,29.1719 21.6875,29.1719 Q20.2813,29.1719 19.25,28.7188 Q18.2344,28.2656 17.5625,27.4531 Q16.8906,26.6406 16.5625,25.5 Q16.2344,24.3438 16.2344,22.9531 Q16.2344,21.5781 16.6094,20.4219 Q16.9844,19.2656 17.7031,18.4375 Q18.4219,17.6094 19.4844,17.1563 Q20.5469,16.6875 21.9375,16.6875 Q22.8438,16.6875 23.75,16.9219 Q24.6563,17.1406 25.4844,17.5469 L24.6563,19.6406 Q23.9688,19.3125 23.2813,19.0781 Q22.5938,18.8281 21.9375,18.8281 Z " fill="#000000"/><text fill="#000000" font-family="sans-serif" font-size="14" lengthAdjust="spacing" textLength="94" x="36" y="27.8467">BaseHealthBar</text><line style="stroke:#181818;stroke-width:0.5;" x1="8" x2="132" y1="39" y2="39"/><line style="stroke:#181818;stroke-width:0.5;" x1="8" x2="132" y1="47" y2="47"/></g><!--reverse link BaseHealthBar to HealthBar--><g id="link_BaseHealthBar_HealthBar"><path codeLine="3" d="M70,75.02 C70,88.58 70,103.04 70,114.68 " fill="none" id="BaseHealthBar-backto-HealthBar" style="stroke:#181818;stroke-width:1.0;"/><polygon fill="none" points="63,75,70,55,77,75,63,75" style="stroke:#181818;stroke-width:1.0;"/></g><!--SRC=[Iyv9B2vMy4XDp2d9S4eiKgZcgkLoIYnEHOZOrEZg8XG00000]--></g></svg>