<?xml version="1.0" encoding="us-ascii" standalone="no"?><svg xmlns="http://www.w3.org/2000/svg" xmlns:xlink="http://www.w3.org/1999/xlink" contentStyleType="text/css" height="235px" preserveAspectRatio="none" style="width:163px;height:235px;background:#FFFFFF;" version="1.1" viewBox="0 0 163 235" width="163px" zoomAndPan="magnify"><defs/><g><!--class MainMenu--><g id="elem_MainMenu"><rect codeLine="1" fill="#F1F1F1" height="113.1875" id="MainMenu" rx="2.5" ry="2.5" style="stroke:#181818;stroke-width:0.5;" width="149" x="7" y="115"/><ellipse cx="44.5" cy="131" fill="#ADD1B2" rx="11" ry="11" style="stroke:#181818;stroke-width:1.0;"/><path d="M44.4375,126.8281 Q43.6875,126.8281 43.125,127.125 Q42.5625,127.4063 42.1719,127.9375 Q41.7813,128.4688 41.5781,129.25 Q41.3906,130.0156 41.3906,130.9688 Q41.3906,131.9375 41.5625,132.7031 Q41.75,133.4531 42.1094,133.9688 Q42.4844,134.4844 43.0625,134.7656 Q43.6406,135.0313 44.4375,135.0313 Q45.1719,135.0313 45.9063,134.8594 Q46.6563,134.6875 47.5313,134.3906 L47.5313,136.5469 Q47.125,136.7031 46.7344,136.8281 Q46.3438,136.9375 45.9375,137.0156 Q45.5313,137.0938 45.1094,137.125 Q44.6875,137.1719 44.1875,137.1719 Q42.7813,137.1719 41.75,136.7188 Q40.7344,136.2656 40.0625,135.4531 Q39.3906,134.6406 39.0625,133.5 Q38.7344,132.3438 38.7344,130.9531 Q38.7344,129.5781 39.1094,128.4219 Q39.4844,127.2656 40.2031,126.4375 Q40.9219,125.6094 41.9844,125.1563 Q43.0469,124.6875 44.4375,124.6875 Q45.3438,124.6875 46.25,124.9219 Q47.1563,125.1406 47.9844,125.5469 L47.1563,127.6406 Q46.4688,127.3125 45.7813,127.0781 Q45.0938,126.8281 44.4375,126.8281 Z " fill="#000000"/><text fill="#000000" font-family="sans-serif" font-size="14" lengthAdjust="spacing" textLength="67" x="63.5" y="135.8467">MainMenu</text><line style="stroke:#181818;stroke-width:0.5;" x1="8" x2="155" y1="147" y2="147"/><line style="stroke:#181818;stroke-width:0.5;" x1="8" x2="155" y1="155" y2="155"/><ellipse cx="18" cy="168.6484" fill="#84BE84" rx="3" ry="3" style="stroke:#038048;stroke-width:1.0;"/><text fill="#000000" font-family="sans-serif" font-size="14" lengthAdjust="spacing" textLength="111" x="27" y="171.9951">PlayGame() : void</text><ellipse cx="18" cy="184.9453" fill="#84BE84" rx="3" ry="3" style="stroke:#038048;stroke-width:1.0;"/><text fill="#000000" font-family="sans-serif" font-size="14" lengthAdjust="spacing" textLength="115" x="27" y="188.292">LoadGame() : void</text><ellipse cx="18" cy="201.2422" fill="#84BE84" rx="3" ry="3" style="stroke:#038048;stroke-width:1.0;"/><text fill="#000000" font-family="sans-serif" font-size="14" lengthAdjust="spacing" textLength="123" x="27" y="204.5889">GoToOption() : void</text><ellipse cx="18" cy="217.5391" fill="#84BE84" rx="3" ry="3" style="stroke:#038048;stroke-width:1.0;"/><text fill="#000000" font-family="sans-serif" font-size="14" lengthAdjust="spacing" textLength="112" x="27" y="220.8857">QuitGame() : void</text></g><!--class MonoBehaviour--><g id="elem_MonoBehaviour"><rect fill="#F1F1F1" height="48" id="MonoBehaviour" rx="2.5" ry="2.5" style="stroke:#181818;stroke-width:0.5;" width="133" x="15" y="7"/><ellipse cx="30" cy="23" fill="#ADD1B2" rx="11" ry="11" style="stroke:#181818;stroke-width:1.0;"/><path d="M29.9375,18.8281 Q29.1875,18.8281 28.625,19.125 Q28.0625,19.4063 27.6719,19.9375 Q27.2813,20.4688 27.0781,21.25 Q26.8906,22.0156 26.8906,22.9688 Q26.8906,23.9375 27.0625,24.7031 Q27.25,25.4531 27.6094,25.9688 Q27.9844,26.4844 28.5625,26.7656 Q29.1406,27.0313 29.9375,27.0313 Q30.6719,27.0313 31.4063,26.8594 Q32.1563,26.6875 33.0313,26.3906 L33.0313,28.5469 Q32.625,28.7031 32.2344,28.8281 Q31.8438,28.9375 31.4375,29.0156 Q31.0313,29.0938 30.6094,29.125 Q30.1875,29.1719 29.6875,29.1719 Q28.2813,29.1719 27.25,28.7188 Q26.2344,28.2656 25.5625,27.4531 Q24.8906,26.6406 24.5625,25.5 Q24.2344,24.3438 24.2344,22.9531 Q24.2344,21.5781 24.6094,20.4219 Q24.9844,19.2656 25.7031,18.4375 Q26.4219,17.6094 27.4844,17.1563 Q28.5469,16.6875 29.9375,16.6875 Q30.8438,16.6875 31.75,16.9219 Q32.6563,17.1406 33.4844,17.5469 L32.6563,19.6406 Q31.9688,19.3125 31.2813,19.0781 Q30.5938,18.8281 29.9375,18.8281 Z " fill="#000000"/><text fill="#000000" font-family="sans-serif" font-size="14" lengthAdjust="spacing" textLength="101" x="44" y="27.8467">MonoBehaviour</text><line style="stroke:#181818;stroke-width:0.5;" x1="16" x2="147" y1="39" y2="39"/><line style="stroke:#181818;stroke-width:0.5;" x1="16" x2="147" y1="47" y2="47"/></g><!--reverse link MonoBehaviour to MainMenu--><g id="link_MonoBehaviour_MainMenu"><path codeLine="7" d="M81.5,75.3 C81.5,87.85 81.5,101.74 81.5,114.94 " fill="none" id="MonoBehaviour-backto-MainMenu" style="stroke:#181818;stroke-width:1.0;"/><polygon fill="none" points="74.5,75.18,81.5,55.18,88.5,75.18,74.5,75.18" style="stroke:#181818;stroke-width:1.0;"/></g><!--SRC=[Iyv9B2vMy4tCpFDDpIjLgEPI009jXO2Sn4htnDnK3Kq5AuMo_CmKgBXFVc8ADd7t_91y_uAIpFmyT9d0qimIL1srNBxvUVbEgHc9PPdvfKKADZMwkd0N0000]--></g></svg>