<?xml version="1.0" encoding="us-ascii" standalone="no"?><svg xmlns="http://www.w3.org/2000/svg" xmlns:xlink="http://www.w3.org/1999/xlink" contentStyleType="text/css" height="218px" preserveAspectRatio="none" style="width:198px;height:218px;background:#FFFFFF;" version="1.1" viewBox="0 0 198 218" width="198px" zoomAndPan="magnify"><defs/><g><!--class VolumeSetting--><g id="elem_VolumeSetting"><rect codeLine="1" fill="#F1F1F1" height="96.8906" id="VolumeSetting" rx="2.5" ry="2.5" style="stroke:#181818;stroke-width:0.5;" width="184" x="7" y="115"/><ellipse cx="48.55" cy="131" fill="#ADD1B2" rx="11" ry="11" style="stroke:#181818;stroke-width:1.0;"/><path d="M48.4875,126.8281 Q47.7375,126.8281 47.175,127.125 Q46.6125,127.4063 46.2219,127.9375 Q45.8313,128.4688 45.6281,129.25 Q45.4406,130.0156 45.4406,130.9688 Q45.4406,131.9375 45.6125,132.7031 Q45.8,133.4531 46.1594,133.9688 Q46.5344,134.4844 47.1125,134.7656 Q47.6906,135.0313 48.4875,135.0313 Q49.2219,135.0313 49.9563,134.8594 Q50.7063,134.6875 51.5813,134.3906 L51.5813,136.5469 Q51.175,136.7031 50.7844,136.8281 Q50.3938,136.9375 49.9875,137.0156 Q49.5813,137.0938 49.1594,137.125 Q48.7375,137.1719 48.2375,137.1719 Q46.8313,137.1719 45.8,136.7188 Q44.7844,136.2656 44.1125,135.4531 Q43.4406,134.6406 43.1125,133.5 Q42.7844,132.3438 42.7844,130.9531 Q42.7844,129.5781 43.1594,128.4219 Q43.5344,127.2656 44.2531,126.4375 Q44.9719,125.6094 46.0344,125.1563 Q47.0969,124.6875 48.4875,124.6875 Q49.3938,124.6875 50.3,124.9219 Q51.2063,125.1406 52.0344,125.5469 L51.2063,127.6406 Q50.5188,127.3125 49.8313,127.0781 Q49.1438,126.8281 48.4875,126.8281 Z " fill="#000000"/><text fill="#000000" font-family="sans-serif" font-size="14" lengthAdjust="spacing" textLength="93" x="68.45" y="135.8467">VolumeSetting</text><line style="stroke:#181818;stroke-width:0.5;" x1="8" x2="190" y1="147" y2="147"/><line style="stroke:#181818;stroke-width:0.5;" x1="8" x2="190" y1="155" y2="155"/><ellipse cx="18" cy="168.6484" fill="#84BE84" rx="3" ry="3" style="stroke:#038048;stroke-width:1.0;"/><text fill="#000000" font-family="sans-serif" font-size="14" lengthAdjust="spacing" textLength="152" x="27" y="171.9951">SetMusicVolume() : void</text><ellipse cx="18" cy="184.9453" fill="#84BE84" rx="3" ry="3" style="stroke:#038048;stroke-width:1.0;"/><text fill="#000000" font-family="sans-serif" font-size="14" lengthAdjust="spacing" textLength="138" x="27" y="188.292">SetSFXVolume() : void</text><ellipse cx="18" cy="201.2422" fill="#84BE84" rx="3" ry="3" style="stroke:#038048;stroke-width:1.0;"/><text fill="#000000" font-family="sans-serif" font-size="14" lengthAdjust="spacing" textLength="158" x="27" y="204.5889">BackToMainMenu() : void</text></g><!--class MonoBehaviour--><g id="elem_MonoBehaviour"><rect fill="#F1F1F1" height="48" id="MonoBehaviour" rx="2.5" ry="2.5" style="stroke:#181818;stroke-width:0.5;" width="133" x="32.5" y="7"/><ellipse cx="47.5" cy="23" fill="#ADD1B2" rx="11" ry="11" style="stroke:#181818;stroke-width:1.0;"/><path d="M47.4375,18.8281 Q46.6875,18.8281 46.125,19.125 Q45.5625,19.4063 45.1719,19.9375 Q44.7813,20.4688 44.5781,21.25 Q44.3906,22.0156 44.3906,22.9688 Q44.3906,23.9375 44.5625,24.7031 Q44.75,25.4531 45.1094,25.9688 Q45.4844,26.4844 46.0625,26.7656 Q46.6406,27.0313 47.4375,27.0313 Q48.1719,27.0313 48.9063,26.8594 Q49.6563,26.6875 50.5313,26.3906 L50.5313,28.5469 Q50.125,28.7031 49.7344,28.8281 Q49.3438,28.9375 48.9375,29.0156 Q48.5313,29.0938 48.1094,29.125 Q47.6875,29.1719 47.1875,29.1719 Q45.7813,29.1719 44.75,28.7188 Q43.7344,28.2656 43.0625,27.4531 Q42.3906,26.6406 42.0625,25.5 Q41.7344,24.3438 41.7344,22.9531 Q41.7344,21.5781 42.1094,20.4219 Q42.4844,19.2656 43.2031,18.4375 Q43.9219,17.6094 44.9844,17.1563 Q46.0469,16.6875 47.4375,16.6875 Q48.3438,16.6875 49.25,16.9219 Q50.1563,17.1406 50.9844,17.5469 L50.1563,19.6406 Q49.4688,19.3125 48.7813,19.0781 Q48.0938,18.8281 47.4375,18.8281 Z " fill="#000000"/><text fill="#000000" font-family="sans-serif" font-size="14" lengthAdjust="spacing" textLength="101" x="61.5" y="27.8467">MonoBehaviour</text><line style="stroke:#181818;stroke-width:0.5;" x1="33.5" x2="164.5" y1="39" y2="39"/><line style="stroke:#181818;stroke-width:0.5;" x1="33.5" x2="164.5" y1="47" y2="47"/></g><!--reverse link MonoBehaviour to VolumeSetting--><g id="link_MonoBehaviour_VolumeSetting"><path codeLine="6" d="M99,75.37 C99,88.03 99,101.93 99,114.84 " fill="none" id="MonoBehaviour-backto-VolumeSetting" style="stroke:#181818;stroke-width:1.0;"/><polygon fill="none" points="92,75.03,99,55.03,106,75.03,92,75.03" style="stroke:#181818;stroke-width:1.0;"/></g><!--SRC=[Iyv9B2vM2ClFASrD3KujASdCIrUevb800cq58D-tj3Wp6IAheQbWfL2Mdvc2a0rsYy0kvvIOd1sIxvkOcUURcbUAaAtbyitFotTApKWioymlBLAmgT7LHRKS0000]--></g></svg>