<?xml version="1.0" encoding="us-ascii" standalone="no"?><svg xmlns="http://www.w3.org/2000/svg" xmlns:xlink="http://www.w3.org/1999/xlink" contentStyleType="text/css" height="186px" preserveAspectRatio="none" style="width:208px;height:186px;background:#FFFFFF;" version="1.1" viewBox="0 0 208 186" width="208px" zoomAndPan="magnify"><defs/><g><!--class SkillUIManager--><g id="elem_SkillUIManager"><rect codeLine="1" fill="#F1F1F1" height="64.2969" id="SkillUIManager" rx="2.5" ry="2.5" style="stroke:#181818;stroke-width:0.5;" width="136" x="7" y="115"/><ellipse cx="25.6" cy="131" fill="#ADD1B2" rx="11" ry="11" style="stroke:#181818;stroke-width:1.0;"/><path d="M25.5375,126.8281 Q24.7875,126.8281 24.225,127.125 Q23.6625,127.4063 23.2719,127.9375 Q22.8813,128.4688 22.6781,129.25 Q22.4906,130.0156 22.4906,130.9688 Q22.4906,131.9375 22.6625,132.7031 Q22.85,133.4531 23.2094,133.9688 Q23.5844,134.4844 24.1625,134.7656 Q24.7406,135.0313 25.5375,135.0313 Q26.2719,135.0313 27.0063,134.8594 Q27.7563,134.6875 28.6313,134.3906 L28.6313,136.5469 Q28.225,136.7031 27.8344,136.8281 Q27.4438,136.9375 27.0375,137.0156 Q26.6313,137.0938 26.2094,137.125 Q25.7875,137.1719 25.2875,137.1719 Q23.8813,137.1719 22.85,136.7188 Q21.8344,136.2656 21.1625,135.4531 Q20.4906,134.6406 20.1625,133.5 Q19.8344,132.3438 19.8344,130.9531 Q19.8344,129.5781 20.2094,128.4219 Q20.5844,127.2656 21.3031,126.4375 Q22.0219,125.6094 23.0844,125.1563 Q24.1469,124.6875 25.5375,124.6875 Q26.4438,124.6875 27.35,124.9219 Q28.2563,125.1406 29.0844,125.5469 L28.2563,127.6406 Q27.5688,127.3125 26.8813,127.0781 Q26.1938,126.8281 25.5375,126.8281 Z " fill="#000000"/><text fill="#000000" font-family="sans-serif" font-size="14" lengthAdjust="spacing" textLength="96" x="40.4" y="135.8467">SkillUIManager</text><line style="stroke:#181818;stroke-width:0.5;" x1="8" x2="142" y1="147" y2="147"/><line style="stroke:#181818;stroke-width:0.5;" x1="8" x2="142" y1="155" y2="155"/><ellipse cx="18" cy="168.6484" fill="#84BE84" rx="3" ry="3" style="stroke:#038048;stroke-width:1.0;"/><text fill="#000000" font-family="sans-serif" font-size="14" lengthAdjust="spacing" textLength="110" x="27" y="171.9951">CheckSkill() : void</text></g><!--class MonoBehaviour--><g id="elem_MonoBehaviour"><rect fill="#F1F1F1" height="48" id="MonoBehaviour" rx="2.5" ry="2.5" style="stroke:#181818;stroke-width:0.5;" width="133" x="8.5" y="7"/><ellipse cx="23.5" cy="23" fill="#ADD1B2" rx="11" ry="11" style="stroke:#181818;stroke-width:1.0;"/><path d="M23.4375,18.8281 Q22.6875,18.8281 22.125,19.125 Q21.5625,19.4063 21.1719,19.9375 Q20.7813,20.4688 20.5781,21.25 Q20.3906,22.0156 20.3906,22.9688 Q20.3906,23.9375 20.5625,24.7031 Q20.75,25.4531 21.1094,25.9688 Q21.4844,26.4844 22.0625,26.7656 Q22.6406,27.0313 23.4375,27.0313 Q24.1719,27.0313 24.9063,26.8594 Q25.6563,26.6875 26.5313,26.3906 L26.5313,28.5469 Q26.125,28.7031 25.7344,28.8281 Q25.3438,28.9375 24.9375,29.0156 Q24.5313,29.0938 24.1094,29.125 Q23.6875,29.1719 23.1875,29.1719 Q21.7813,29.1719 20.75,28.7188 Q19.7344,28.2656 19.0625,27.4531 Q18.3906,26.6406 18.0625,25.5 Q17.7344,24.3438 17.7344,22.9531 Q17.7344,21.5781 18.1094,20.4219 Q18.4844,19.2656 19.2031,18.4375 Q19.9219,17.6094 20.9844,17.1563 Q22.0469,16.6875 23.4375,16.6875 Q24.3438,16.6875 25.25,16.9219 Q26.1563,17.1406 26.9844,17.5469 L26.1563,19.6406 Q25.4688,19.3125 24.7813,19.0781 Q24.0938,18.8281 23.4375,18.8281 Z " fill="#000000"/><text fill="#000000" font-family="sans-serif" font-size="14" lengthAdjust="spacing" textLength="101" x="37.5" y="27.8467">MonoBehaviour</text><line style="stroke:#181818;stroke-width:0.5;" x1="9.5" x2="140.5" y1="39" y2="39"/><line style="stroke:#181818;stroke-width:0.5;" x1="9.5" x2="140.5" y1="47" y2="47"/></g><!--reverse link MonoBehaviour to SkillUIManager--><g id="link_MonoBehaviour_SkillUIManager"><path codeLine="4" d="M75,75.09 C75,88.28 75,102.52 75,114.75 " fill="none" id="MonoBehaviour-backto-SkillUIManager" style="stroke:#181818;stroke-width:1.0;"/><polygon fill="none" points="68,75.07,75,55.07,82,75.07,68,75.07" style="stroke:#181818;stroke-width:1.0;"/></g><!--link SkillUIManager to SkillUIManager--><g id="link_SkillUIManager_SkillUIManager"><path codeLine="5" d="M143.35,125.33 C162.91,126.18 178,133.41 178,147 C178,159.32 165.61,166.41 148.72,168.26 " fill="none" id="SkillUIManager-to-SkillUIManager" style="stroke:#181818;stroke-width:1.0;"/><polygon fill="#181818" points="143.35,168.67,152.6223,171.9903,148.3362,168.2985,152.028,164.0124,143.35,168.67" style="stroke:#181818;stroke-width:1.0;"/><text fill="#000000" font-family="sans-serif" font-size="13" lengthAdjust="spacing" textLength="50" x="151.0805" y="166.9036">Instance</text></g><!--SRC=[Iyv9B2vM2CxEpCa9zVHDp4jCJorIgEPI009j1UUCrEHii9o6feALGbb-PWfNBPTlVbw-Ksf6ObbcVccHWasDhYwQVYuqutHrxHIKFFEAInBpabELq1G30000]--></g></svg>