<?xml version="1.0" encoding="us-ascii" standalone="no"?><svg xmlns="http://www.w3.org/2000/svg" xmlns:xlink="http://www.w3.org/1999/xlink" contentStyleType="text/css" height="278px" preserveAspectRatio="none" style="width:214px;height:278px;background:#FFFFFF;" version="1.1" viewBox="0 0 214 278" width="214px" zoomAndPan="magnify"><defs/><g><!--class WeaponStatusBar--><g id="elem_WeaponStatusBar"><rect codeLine="1" fill="#F1F1F1" height="48" id="WeaponStatusBar" rx="2.5" ry="2.5" style="stroke:#181818;stroke-width:0.5;" width="143" x="43.9423" y="115"/><ellipse cx="58.9423" cy="131" fill="#ADD1B2" rx="11" ry="11" style="stroke:#181818;stroke-width:1.0;"/><path d="M58.8798,126.8281 Q58.1298,126.8281 57.5673,127.125 Q57.0048,127.4063 56.6141,127.9375 Q56.2235,128.4688 56.0204,129.25 Q55.8329,130.0156 55.8329,130.9688 Q55.8329,131.9375 56.0048,132.7031 Q56.1923,133.4531 56.5516,133.9688 Q56.9266,134.4844 57.5048,134.7656 Q58.0829,135.0313 58.8798,135.0313 Q59.6141,135.0313 60.3485,134.8594 Q61.0985,134.6875 61.9735,134.3906 L61.9735,136.5469 Q61.5673,136.7031 61.1766,136.8281 Q60.786,136.9375 60.3798,137.0156 Q59.9735,137.0938 59.5516,137.125 Q59.1298,137.1719 58.6298,137.1719 Q57.2235,137.1719 56.1923,136.7188 Q55.1766,136.2656 54.5048,135.4531 Q53.8329,134.6406 53.5048,133.5 Q53.1766,132.3438 53.1766,130.9531 Q53.1766,129.5781 53.5516,128.4219 Q53.9266,127.2656 54.6454,126.4375 Q55.3641,125.6094 56.4266,125.1563 Q57.4891,124.6875 58.8798,124.6875 Q59.786,124.6875 60.6923,124.9219 Q61.5985,125.1406 62.4266,125.5469 L61.5985,127.6406 Q60.911,127.3125 60.2235,127.0781 Q59.536,126.8281 58.8798,126.8281 Z " fill="#000000"/><text fill="#000000" font-family="sans-serif" font-size="14" lengthAdjust="spacing" textLength="111" x="72.9423" y="135.8467">WeaponStatusBar</text><line style="stroke:#181818;stroke-width:0.5;" x1="44.9423" x2="185.9423" y1="147" y2="147"/><line style="stroke:#181818;stroke-width:0.5;" x1="44.9423" x2="185.9423" y1="155" y2="155"/></g><!--class MonoBehaviour--><g id="elem_MonoBehaviour"><rect fill="#F1F1F1" height="48" id="MonoBehaviour" rx="2.5" ry="2.5" style="stroke:#181818;stroke-width:0.5;" width="133" x="48.9423" y="7"/><ellipse cx="63.9423" cy="23" fill="#ADD1B2" rx="11" ry="11" style="stroke:#181818;stroke-width:1.0;"/><path d="M63.8798,18.8281 Q63.1298,18.8281 62.5673,19.125 Q62.0048,19.4063 61.6141,19.9375 Q61.2235,20.4688 61.0204,21.25 Q60.8329,22.0156 60.8329,22.9688 Q60.8329,23.9375 61.0048,24.7031 Q61.1923,25.4531 61.5516,25.9688 Q61.9266,26.4844 62.5048,26.7656 Q63.0829,27.0313 63.8798,27.0313 Q64.6141,27.0313 65.3485,26.8594 Q66.0985,26.6875 66.9735,26.3906 L66.9735,28.5469 Q66.5673,28.7031 66.1766,28.8281 Q65.786,28.9375 65.3798,29.0156 Q64.9735,29.0938 64.5516,29.125 Q64.1298,29.1719 63.6298,29.1719 Q62.2235,29.1719 61.1923,28.7188 Q60.1766,28.2656 59.5048,27.4531 Q58.8329,26.6406 58.5048,25.5 Q58.1766,24.3438 58.1766,22.9531 Q58.1766,21.5781 58.5516,20.4219 Q58.9266,19.2656 59.6454,18.4375 Q60.3641,17.6094 61.4266,17.1563 Q62.4891,16.6875 63.8798,16.6875 Q64.786,16.6875 65.6923,16.9219 Q66.5985,17.1406 67.4266,17.5469 L66.5985,19.6406 Q65.911,19.3125 65.2235,19.0781 Q64.536,18.8281 63.8798,18.8281 Z " fill="#000000"/><text fill="#000000" font-family="sans-serif" font-size="14" lengthAdjust="spacing" textLength="101" x="77.9423" y="27.8467">MonoBehaviour</text><line style="stroke:#181818;stroke-width:0.5;" x1="49.9423" x2="180.9423" y1="39" y2="39"/><line style="stroke:#181818;stroke-width:0.5;" x1="49.9423" x2="180.9423" y1="47" y2="47"/></g><!--class TMP_Text--><g id="elem_TMP_Text"><rect fill="#F1F1F1" height="48" id="TMP_Text" rx="2.5" ry="2.5" style="stroke:#181818;stroke-width:0.5;" width="92" x="11.4423" y="223"/><ellipse cx="26.4423" cy="239" fill="#ADD1B2" rx="11" ry="11" style="stroke:#181818;stroke-width:1.0;"/><path d="M26.3798,234.8281 Q25.6298,234.8281 25.0673,235.125 Q24.5048,235.4063 24.1141,235.9375 Q23.7235,236.4688 23.5204,237.25 Q23.3329,238.0156 23.3329,238.9688 Q23.3329,239.9375 23.5048,240.7031 Q23.6923,241.4531 24.0516,241.9688 Q24.4266,242.4844 25.0048,242.7656 Q25.5829,243.0313 26.3798,243.0313 Q27.1141,243.0313 27.8485,242.8594 Q28.5985,242.6875 29.4735,242.3906 L29.4735,244.5469 Q29.0673,244.7031 28.6766,244.8281 Q28.286,244.9375 27.8798,245.0156 Q27.4735,245.0938 27.0516,245.125 Q26.6298,245.1719 26.1298,245.1719 Q24.7235,245.1719 23.6923,244.7188 Q22.6766,244.2656 22.0048,243.4531 Q21.3329,242.6406 21.0048,241.5 Q20.6766,240.3438 20.6766,238.9531 Q20.6766,237.5781 21.0516,236.4219 Q21.4266,235.2656 22.1454,234.4375 Q22.8641,233.6094 23.9266,233.1563 Q24.9891,232.6875 26.3798,232.6875 Q27.286,232.6875 28.1923,232.9219 Q29.0985,233.1406 29.9266,233.5469 L29.0985,235.6406 Q28.411,235.3125 27.7235,235.0781 Q27.036,234.8281 26.3798,234.8281 Z " fill="#000000"/><text fill="#000000" font-family="sans-serif" font-size="14" lengthAdjust="spacing" textLength="60" x="40.4423" y="243.8467">TMP_Text</text><line style="stroke:#181818;stroke-width:0.5;" x1="12.4423" x2="102.4423" y1="255" y2="255"/><line style="stroke:#181818;stroke-width:0.5;" x1="12.4423" x2="102.4423" y1="263" y2="263"/></g><!--class Slider--><g id="elem_Slider"><rect fill="#F1F1F1" height="48" id="Slider" rx="2.5" ry="2.5" style="stroke:#181818;stroke-width:0.5;" width="69" x="138.9423" y="223"/><ellipse cx="153.9423" cy="239" fill="#ADD1B2" rx="11" ry="11" style="stroke:#181818;stroke-width:1.0;"/><path d="M153.8798,234.8281 Q153.1298,234.8281 152.5673,235.125 Q152.0048,235.4063 151.6141,235.9375 Q151.2235,236.4688 151.0204,237.25 Q150.8329,238.0156 150.8329,238.9688 Q150.8329,239.9375 151.0048,240.7031 Q151.1923,241.4531 151.5516,241.9688 Q151.9266,242.4844 152.5048,242.7656 Q153.0829,243.0313 153.8798,243.0313 Q154.6141,243.0313 155.3485,242.8594 Q156.0985,242.6875 156.9735,242.3906 L156.9735,244.5469 Q156.5673,244.7031 156.1766,244.8281 Q155.786,244.9375 155.3798,245.0156 Q154.9735,245.0938 154.5516,245.125 Q154.1298,245.1719 153.6298,245.1719 Q152.2235,245.1719 151.1923,244.7188 Q150.1766,244.2656 149.5048,243.4531 Q148.8329,242.6406 148.5048,241.5 Q148.1766,240.3438 148.1766,238.9531 Q148.1766,237.5781 148.5516,236.4219 Q148.9266,235.2656 149.6454,234.4375 Q150.3641,233.6094 151.4266,233.1563 Q152.4891,232.6875 153.8798,232.6875 Q154.786,232.6875 155.6923,232.9219 Q156.5985,233.1406 157.4266,233.5469 L156.5985,235.6406 Q155.911,235.3125 155.2235,235.0781 Q154.536,234.8281 153.8798,234.8281 Z " fill="#000000"/><text fill="#000000" font-family="sans-serif" font-size="14" lengthAdjust="spacing" textLength="37" x="167.9423" y="243.8467">Slider</text><line style="stroke:#181818;stroke-width:0.5;" x1="139.9423" x2="206.9423" y1="255" y2="255"/><line style="stroke:#181818;stroke-width:0.5;" x1="139.9423" x2="206.9423" y1="263" y2="263"/></g><!--reverse link MonoBehaviour to WeaponStatusBar--><g id="link_MonoBehaviour_WeaponStatusBar"><path codeLine="3" d="M115.4423,75.02 C115.4423,88.58 115.4423,103.04 115.4423,114.68 " fill="none" id="MonoBehaviour-backto-WeaponStatusBar" style="stroke:#181818;stroke-width:1.0;"/><polygon fill="none" points="108.4423,75,115.4423,55,122.4423,75,108.4423,75" style="stroke:#181818;stroke-width:1.0;"/></g><!--link WeaponStatusBar to TMP_Text--><g id="link_WeaponStatusBar_TMP_Text"><path codeLine="4" d="M102.8523,163 C94.0222,179.14 82.1623,200.82 72.7823,217.97 " fill="none" id="WeaponStatusBar-to-TMP_Text" style="stroke:#181818;stroke-width:1.0;"/><polygon fill="#181818" points="70.2022,222.68,78.0235,216.6943,72.5965,218.2905,71.0003,212.8635,70.2022,222.68" style="stroke:#181818;stroke-width:1.0;"/><text fill="#000000" font-family="sans-serif" font-size="13" lengthAdjust="spacing" textLength="60" x="6" y="212.007">statusText</text></g><!--link WeaponStatusBar to Slider--><g id="link_WeaponStatusBar_Slider"><path codeLine="5" d="M128.0222,163 C136.8623,179.14 148.7223,200.82 158.1023,217.97 " fill="none" id="WeaponStatusBar-to-Slider" style="stroke:#181818;stroke-width:1.0;"/><polygon fill="#181818" points="160.6822,222.68,159.8707,212.8646,158.282,218.2938,152.8528,216.7051,160.6822,222.68" style="stroke:#181818;stroke-width:1.0;"/><text fill="#000000" font-family="sans-serif" font-size="13" lengthAdjust="spacing" textLength="55" x="105.9888" y="211.8676">statusBar</text></g><!--SRC=[Iyv9B2vM24zDBCZF2ov9B2ajTaeiKgZcgkNopS_BTqhDI2pBp2yjKh2fqTL5LyQ5harNrqv1gHZC3KcjA55I2F4DY0UnyAa4SfKKWdCoKrAB0000]--></g></svg>