<?xml version="1.0" encoding="us-ascii" standalone="no"?><svg xmlns="http://www.w3.org/2000/svg" xmlns:xlink="http://www.w3.org/1999/xlink" contentStyleType="text/css" height="218px" preserveAspectRatio="none" style="width:291px;height:218px;background:#FFFFFF;" version="1.1" viewBox="0 0 291 218" width="291px" zoomAndPan="magnify"><defs/><g><!--class LightsOut2D--><g id="elem_LightsOut2D"><rect codeLine="1" fill="#F1F1F1" height="96.8906" id="LightsOut2D" rx="2.5" ry="2.5" style="stroke:#181818;stroke-width:0.5;" width="230" x="36.5" y="115"/><ellipse cx="108.25" cy="131" fill="#ADD1B2" rx="11" ry="11" style="stroke:#181818;stroke-width:1.0;"/><path d="M108.1875,126.8281 Q107.4375,126.8281 106.875,127.125 Q106.3125,127.4063 105.9219,127.9375 Q105.5313,128.4688 105.3281,129.25 Q105.1406,130.0156 105.1406,130.9688 Q105.1406,131.9375 105.3125,132.7031 Q105.5,133.4531 105.8594,133.9688 Q106.2344,134.4844 106.8125,134.7656 Q107.3906,135.0313 108.1875,135.0313 Q108.9219,135.0313 109.6563,134.8594 Q110.4063,134.6875 111.2813,134.3906 L111.2813,136.5469 Q110.875,136.7031 110.4844,136.8281 Q110.0938,136.9375 109.6875,137.0156 Q109.2813,137.0938 108.8594,137.125 Q108.4375,137.1719 107.9375,137.1719 Q106.5313,137.1719 105.5,136.7188 Q104.4844,136.2656 103.8125,135.4531 Q103.1406,134.6406 102.8125,133.5 Q102.4844,132.3438 102.4844,130.9531 Q102.4844,129.5781 102.8594,128.4219 Q103.2344,127.2656 103.9531,126.4375 Q104.6719,125.6094 105.7344,125.1563 Q106.7969,124.6875 108.1875,124.6875 Q109.0938,124.6875 110,124.9219 Q110.9063,125.1406 111.7344,125.5469 L110.9063,127.6406 Q110.2188,127.3125 109.5313,127.0781 Q108.8438,126.8281 108.1875,126.8281 Z " fill="#000000"/><text fill="#000000" font-family="sans-serif" font-size="14" lengthAdjust="spacing" textLength="78" x="128.75" y="135.8467">LightsOut2D</text><line style="stroke:#181818;stroke-width:0.5;" x1="37.5" x2="265.5" y1="147" y2="147"/><line style="stroke:#181818;stroke-width:0.5;" x1="37.5" x2="265.5" y1="155" y2="155"/><ellipse cx="47.5" cy="168.6484" fill="#84BE84" rx="3" ry="3" style="stroke:#038048;stroke-width:1.0;"/><text fill="#000000" font-family="sans-serif" font-size="14" lengthAdjust="spacing" textLength="181" x="56.5" y="171.9951">ToggleLights(index:int) : void</text><ellipse cx="47.5" cy="184.9453" fill="#84BE84" rx="3" ry="3" style="stroke:#038048;stroke-width:1.0;"/><text fill="#000000" font-family="sans-serif" font-size="14" lengthAdjust="spacing" textLength="204" x="56.5" y="188.292">LoadData(data:GameData) : void</text><ellipse cx="47.5" cy="201.2422" fill="#84BE84" rx="3" ry="3" style="stroke:#038048;stroke-width:1.0;"/><text fill="#000000" font-family="sans-serif" font-size="14" lengthAdjust="spacing" textLength="203" x="56.5" y="204.5889">SaveData(data:GameData) : void</text></g><!--class MonoBehaviour--><g id="elem_MonoBehaviour"><rect fill="#F1F1F1" height="48" id="MonoBehaviour" rx="2.5" ry="2.5" style="stroke:#181818;stroke-width:0.5;" width="133" x="7" y="7"/><ellipse cx="22" cy="23" fill="#ADD1B2" rx="11" ry="11" style="stroke:#181818;stroke-width:1.0;"/><path d="M21.9375,18.8281 Q21.1875,18.8281 20.625,19.125 Q20.0625,19.4063 19.6719,19.9375 Q19.2813,20.4688 19.0781,21.25 Q18.8906,22.0156 18.8906,22.9688 Q18.8906,23.9375 19.0625,24.7031 Q19.25,25.4531 19.6094,25.9688 Q19.9844,26.4844 20.5625,26.7656 Q21.1406,27.0313 21.9375,27.0313 Q22.6719,27.0313 23.4063,26.8594 Q24.1563,26.6875 25.0313,26.3906 L25.0313,28.5469 Q24.625,28.7031 24.2344,28.8281 Q23.8438,28.9375 23.4375,29.0156 Q23.0313,29.0938 22.6094,29.125 Q22.1875,29.1719 21.6875,29.1719 Q20.2813,29.1719 19.25,28.7188 Q18.2344,28.2656 17.5625,27.4531 Q16.8906,26.6406 16.5625,25.5 Q16.2344,24.3438 16.2344,22.9531 Q16.2344,21.5781 16.6094,20.4219 Q16.9844,19.2656 17.7031,18.4375 Q18.4219,17.6094 19.4844,17.1563 Q20.5469,16.6875 21.9375,16.6875 Q22.8438,16.6875 23.75,16.9219 Q24.6563,17.1406 25.4844,17.5469 L24.6563,19.6406 Q23.9688,19.3125 23.2813,19.0781 Q22.5938,18.8281 21.9375,18.8281 Z " fill="#000000"/><text fill="#000000" font-family="sans-serif" font-size="14" lengthAdjust="spacing" textLength="101" x="36" y="27.8467">MonoBehaviour</text><line style="stroke:#181818;stroke-width:0.5;" x1="8" x2="139" y1="39" y2="39"/><line style="stroke:#181818;stroke-width:0.5;" x1="8" x2="139" y1="47" y2="47"/></g><!--class IDataPersist--><g id="elem_IDataPersist"><rect fill="#F1F1F1" height="48" id="IDataPersist" rx="2.5" ry="2.5" style="stroke:#181818;stroke-width:0.5;" width="109" x="175" y="7"/><ellipse cx="190" cy="23" fill="#ADD1B2" rx="11" ry="11" style="stroke:#181818;stroke-width:1.0;"/><path d="M189.9375,18.8281 Q189.1875,18.8281 188.625,19.125 Q188.0625,19.4063 187.6719,19.9375 Q187.2813,20.4688 187.0781,21.25 Q186.8906,22.0156 186.8906,22.9688 Q186.8906,23.9375 187.0625,24.7031 Q187.25,25.4531 187.6094,25.9688 Q187.9844,26.4844 188.5625,26.7656 Q189.1406,27.0313 189.9375,27.0313 Q190.6719,27.0313 191.4063,26.8594 Q192.1563,26.6875 193.0313,26.3906 L193.0313,28.5469 Q192.625,28.7031 192.2344,28.8281 Q191.8438,28.9375 191.4375,29.0156 Q191.0313,29.0938 190.6094,29.125 Q190.1875,29.1719 189.6875,29.1719 Q188.2813,29.1719 187.25,28.7188 Q186.2344,28.2656 185.5625,27.4531 Q184.8906,26.6406 184.5625,25.5 Q184.2344,24.3438 184.2344,22.9531 Q184.2344,21.5781 184.6094,20.4219 Q184.9844,19.2656 185.7031,18.4375 Q186.4219,17.6094 187.4844,17.1563 Q188.5469,16.6875 189.9375,16.6875 Q190.8438,16.6875 191.75,16.9219 Q192.6563,17.1406 193.4844,17.5469 L192.6563,19.6406 Q191.9688,19.3125 191.2813,19.0781 Q190.5938,18.8281 189.9375,18.8281 Z " fill="#000000"/><text fill="#000000" font-family="sans-serif" font-size="14" lengthAdjust="spacing" textLength="77" x="204" y="27.8467">IDataPersist</text><line style="stroke:#181818;stroke-width:0.5;" x1="176" x2="283" y1="39" y2="39"/><line style="stroke:#181818;stroke-width:0.5;" x1="176" x2="283" y1="47" y2="47"/></g><!--reverse link MonoBehaviour to LightsOut2D--><g id="link_MonoBehaviour_LightsOut2D"><path codeLine="6" d="M97.76,72.58 C105.76,85.97 114.73,100.98 123.02,114.84 " fill="none" id="MonoBehaviour-backto-LightsOut2D" style="stroke:#181818;stroke-width:1.0;"/><polygon fill="none" points="91.52,75.79,87.27,55.03,103.53,68.61,91.52,75.79" style="stroke:#181818;stroke-width:1.0;"/></g><!--reverse link IDataPersist to LightsOut2D--><g id="link_IDataPersist_LightsOut2D"><path codeLine="7" d="M205.24,72.58 C197.24,85.97 188.27,100.98 179.98,114.84 " fill="none" id="IDataPersist-backto-LightsOut2D" style="stroke:#181818;stroke-width:1.0;"/><polygon fill="none" points="199.47,68.61,215.73,55.03,211.48,75.79,199.47,68.61" style="stroke:#181818;stroke-width:1.0;"/></g><!--SRC=[Iyv9B2vMyCbCpoWfzYyjCN9HgEPI009jXP3yzFISL8YCHcPUIcg5LMPUYQQ2bK9PVcOAL95FVcAAIs99eaOAaB1oJynD1V7G50KdbgNYKLJBvPkVb- -Kcf5ObfbVMgHWKwEhY-mYBa-Gye3KekBCuX8CMG00]--></g></svg>