<?xml version="1.0" encoding="us-ascii" standalone="no"?><svg xmlns="http://www.w3.org/2000/svg" xmlns:xlink="http://www.w3.org/1999/xlink" contentStyleType="text/css" height="186px" preserveAspectRatio="none" style="width:199px;height:186px;background:#FFFFFF;" version="1.1" viewBox="0 0 199 186" width="199px" zoomAndPan="magnify"><defs/><g><!--class LightsOut2DTile--><g id="elem_LightsOut2DTile"><rect codeLine="1" fill="#F1F1F1" height="64.2969" id="LightsOut2DTile" rx="2.5" ry="2.5" style="stroke:#181818;stroke-width:0.5;" width="185" x="7" y="115"/><ellipse cx="45.4" cy="131" fill="#ADD1B2" rx="11" ry="11" style="stroke:#181818;stroke-width:1.0;"/><path d="M45.3375,126.8281 Q44.5875,126.8281 44.025,127.125 Q43.4625,127.4063 43.0719,127.9375 Q42.6813,128.4688 42.4781,129.25 Q42.2906,130.0156 42.2906,130.9688 Q42.2906,131.9375 42.4625,132.7031 Q42.65,133.4531 43.0094,133.9688 Q43.3844,134.4844 43.9625,134.7656 Q44.5406,135.0313 45.3375,135.0313 Q46.0719,135.0313 46.8063,134.8594 Q47.5563,134.6875 48.4313,134.3906 L48.4313,136.5469 Q48.025,136.7031 47.6344,136.8281 Q47.2438,136.9375 46.8375,137.0156 Q46.4313,137.0938 46.0094,137.125 Q45.5875,137.1719 45.0875,137.1719 Q43.6813,137.1719 42.65,136.7188 Q41.6344,136.2656 40.9625,135.4531 Q40.2906,134.6406 39.9625,133.5 Q39.6344,132.3438 39.6344,130.9531 Q39.6344,129.5781 40.0094,128.4219 Q40.3844,127.2656 41.1031,126.4375 Q41.8219,125.6094 42.8844,125.1563 Q43.9469,124.6875 45.3375,124.6875 Q46.2438,124.6875 47.15,124.9219 Q48.0563,125.1406 48.8844,125.5469 L48.0563,127.6406 Q47.3688,127.3125 46.6813,127.0781 Q45.9938,126.8281 45.3375,126.8281 Z " fill="#000000"/><text fill="#000000" font-family="sans-serif" font-size="14" lengthAdjust="spacing" textLength="101" x="64.6" y="135.8467">LightsOut2DTile</text><line style="stroke:#181818;stroke-width:0.5;" x1="8" x2="191" y1="147" y2="147"/><line style="stroke:#181818;stroke-width:0.5;" x1="8" x2="191" y1="155" y2="155"/><ellipse cx="18" cy="168.6484" fill="#84BE84" rx="3" ry="3" style="stroke:#038048;stroke-width:1.0;"/><text fill="#000000" font-family="sans-serif" font-size="14" lengthAdjust="spacing" textLength="159" x="27" y="171.9951">SetIndex(index:int) : void</text></g><!--class MonoBehaviour--><g id="elem_MonoBehaviour"><rect fill="#F1F1F1" height="48" id="MonoBehaviour" rx="2.5" ry="2.5" style="stroke:#181818;stroke-width:0.5;" width="133" x="33" y="7"/><ellipse cx="48" cy="23" fill="#ADD1B2" rx="11" ry="11" style="stroke:#181818;stroke-width:1.0;"/><path d="M47.9375,18.8281 Q47.1875,18.8281 46.625,19.125 Q46.0625,19.4063 45.6719,19.9375 Q45.2813,20.4688 45.0781,21.25 Q44.8906,22.0156 44.8906,22.9688 Q44.8906,23.9375 45.0625,24.7031 Q45.25,25.4531 45.6094,25.9688 Q45.9844,26.4844 46.5625,26.7656 Q47.1406,27.0313 47.9375,27.0313 Q48.6719,27.0313 49.4063,26.8594 Q50.1563,26.6875 51.0313,26.3906 L51.0313,28.5469 Q50.625,28.7031 50.2344,28.8281 Q49.8438,28.9375 49.4375,29.0156 Q49.0313,29.0938 48.6094,29.125 Q48.1875,29.1719 47.6875,29.1719 Q46.2813,29.1719 45.25,28.7188 Q44.2344,28.2656 43.5625,27.4531 Q42.8906,26.6406 42.5625,25.5 Q42.2344,24.3438 42.2344,22.9531 Q42.2344,21.5781 42.6094,20.4219 Q42.9844,19.2656 43.7031,18.4375 Q44.4219,17.6094 45.4844,17.1563 Q46.5469,16.6875 47.9375,16.6875 Q48.8438,16.6875 49.75,16.9219 Q50.6563,17.1406 51.4844,17.5469 L50.6563,19.6406 Q49.9688,19.3125 49.2813,19.0781 Q48.5938,18.8281 47.9375,18.8281 Z " fill="#000000"/><text fill="#000000" font-family="sans-serif" font-size="14" lengthAdjust="spacing" textLength="101" x="62" y="27.8467">MonoBehaviour</text><line style="stroke:#181818;stroke-width:0.5;" x1="34" x2="165" y1="39" y2="39"/><line style="stroke:#181818;stroke-width:0.5;" x1="34" x2="165" y1="47" y2="47"/></g><!--reverse link MonoBehaviour to LightsOut2DTile--><g id="link_MonoBehaviour_LightsOut2DTile"><path codeLine="4" d="M99.5,75.09 C99.5,88.28 99.5,102.52 99.5,114.75 " fill="none" id="MonoBehaviour-backto-LightsOut2DTile" style="stroke:#181818;stroke-width:1.0;"/><polygon fill="none" points="92.5,75.07,99.5,55.07,106.5,75.07,92.5,75.07" style="stroke:#181818;stroke-width:1.0;"/></g><!--SRC=[Iyv9B2vMyCbCpoWfzYyjCN89oSn9LQZcKW02RONWr1BFl9JK2erC46cLcLUYgM2bK9QVcS9Lo-MRdvVlb9gHM9QPNrgaO5EZgujk3W00]--></g></svg>