<?xml version="1.0" encoding="us-ascii" standalone="no"?><svg xmlns="http://www.w3.org/2000/svg" xmlns:xlink="http://www.w3.org/1999/xlink" contentStyleType="text/css" height="170px" preserveAspectRatio="none" style="width:147px;height:170px;background:#FFFFFF;" version="1.1" viewBox="0 0 147 170" width="147px" zoomAndPan="magnify"><defs/><g><!--class BaseWeapon--><g id="elem_BaseWeapon"><rect codeLine="1" fill="#F1F1F1" height="48" id="BaseWeapon" rx="2.5" ry="2.5" style="stroke:#181818;stroke-width:0.5;" width="113" x="17" y="115"/><ellipse cx="32" cy="131" fill="#A9DCDF" rx="11" ry="11" style="stroke:#181818;stroke-width:1.0;"/><path d="M34.9531,136 L34.125,133.1094 L29.9375,133.1094 L29.0938,136 L26.5,136 L30.4375,123.8125 L33.5938,123.8125 L37.5469,136 L34.9531,136 Z M33.5156,130.9531 L32.75,128.2969 Q32.6875,128.1406 32.5938,127.8125 Q32.5,127.4688 32.375,127.0625 Q32.2656,126.6406 32.1563,126.2344 Q32.0625,125.8125 32.0313,125.5313 Q32,125.7031 31.9375,125.9531 Q31.8906,126.2031 31.8125,126.4844 Q31.75,126.7656 31.6719,127.0469 Q31.5938,127.3281 31.5313,127.5781 Q31.4688,127.8281 31.4063,128.0156 Q31.3594,128.2031 31.3281,128.2969 L30.5625,130.9531 L33.5156,130.9531 Z " fill="#000000"/><text fill="#000000" font-family="sans-serif" font-size="14" font-style="italic" lengthAdjust="spacing" textLength="81" x="46" y="135.8467">BaseWeapon</text><line style="stroke:#181818;stroke-width:0.5;" x1="18" x2="129" y1="147" y2="147"/><line style="stroke:#181818;stroke-width:0.5;" x1="18" x2="129" y1="155" y2="155"/></g><!--class MonoBehaviour--><g id="elem_MonoBehaviour"><rect fill="#F1F1F1" height="48" id="MonoBehaviour" rx="2.5" ry="2.5" style="stroke:#181818;stroke-width:0.5;" width="133" x="7" y="7"/><ellipse cx="22" cy="23" fill="#ADD1B2" rx="11" ry="11" style="stroke:#181818;stroke-width:1.0;"/><path d="M21.9375,18.8281 Q21.1875,18.8281 20.625,19.125 Q20.0625,19.4063 19.6719,19.9375 Q19.2813,20.4688 19.0781,21.25 Q18.8906,22.0156 18.8906,22.9688 Q18.8906,23.9375 19.0625,24.7031 Q19.25,25.4531 19.6094,25.9688 Q19.9844,26.4844 20.5625,26.7656 Q21.1406,27.0313 21.9375,27.0313 Q22.6719,27.0313 23.4063,26.8594 Q24.1563,26.6875 25.0313,26.3906 L25.0313,28.5469 Q24.625,28.7031 24.2344,28.8281 Q23.8438,28.9375 23.4375,29.0156 Q23.0313,29.0938 22.6094,29.125 Q22.1875,29.1719 21.6875,29.1719 Q20.2813,29.1719 19.25,28.7188 Q18.2344,28.2656 17.5625,27.4531 Q16.8906,26.6406 16.5625,25.5 Q16.2344,24.3438 16.2344,22.9531 Q16.2344,21.5781 16.6094,20.4219 Q16.9844,19.2656 17.7031,18.4375 Q18.4219,17.6094 19.4844,17.1563 Q20.5469,16.6875 21.9375,16.6875 Q22.8438,16.6875 23.75,16.9219 Q24.6563,17.1406 25.4844,17.5469 L24.6563,19.6406 Q23.9688,19.3125 23.2813,19.0781 Q22.5938,18.8281 21.9375,18.8281 Z " fill="#000000"/><text fill="#000000" font-family="sans-serif" font-size="14" lengthAdjust="spacing" textLength="101" x="36" y="27.8467">MonoBehaviour</text><line style="stroke:#181818;stroke-width:0.5;" x1="8" x2="139" y1="39" y2="39"/><line style="stroke:#181818;stroke-width:0.5;" x1="8" x2="139" y1="47" y2="47"/></g><!--reverse link MonoBehaviour to BaseWeapon--><g id="link_MonoBehaviour_BaseWeapon"><path codeLine="3" d="M73.5,75.02 C73.5,88.58 73.5,103.04 73.5,114.68 " fill="none" id="MonoBehaviour-backto-BaseWeapon" style="stroke:#181818;stroke-width:1.0;"/><polygon fill="none" points="66.5,75,73.5,55,80.5,75,66.5,75" style="stroke:#181818;stroke-width:1.0;"/></g><!--SRC=[IqmgBYbAJ2vHICv9B2vMS4eiJWrFJIp8prEevghbyitFotTApKWioymlBLAmgT7LHL810000]--></g></svg>