<?xml version="1.0" encoding="us-ascii" standalone="no"?><svg xmlns="http://www.w3.org/2000/svg" xmlns:xlink="http://www.w3.org/1999/xlink" contentStyleType="text/css" height="133px" preserveAspectRatio="none" style="width:419px;height:133px;background:#FFFFFF;" version="1.1" viewBox="0 0 419 133" width="419px" zoomAndPan="magnify"><defs/><g><!--class GameData--><g id="elem_GameData"><rect codeLine="1" fill="#F1F1F1" height="96.8906" id="GameData" rx="2.5" ry="2.5" style="stroke:#181818;stroke-width:0.5;" width="158" x="7" y="29.9935"/><ellipse cx="48.55" cy="45.9935" fill="#ADD1B2" rx="11" ry="11" style="stroke:#181818;stroke-width:1.0;"/><path d="M48.4875,41.8216 Q47.7375,41.8216 47.175,42.1185 Q46.6125,42.3997 46.2219,42.931 Q45.8313,43.4622 45.6281,44.2435 Q45.4406,45.0091 45.4406,45.9622 Q45.4406,46.931 45.6125,47.6966 Q45.8,48.4466 46.1594,48.9622 Q46.5344,49.4778 47.1125,49.7591 Q47.6906,50.0247 48.4875,50.0247 Q49.2219,50.0247 49.9563,49.8528 Q50.7063,49.681 51.5813,49.3841 L51.5813,51.5403 Q51.175,51.6966 50.7844,51.8216 Q50.3938,51.931 49.9875,52.0091 Q49.5813,52.0872 49.1594,52.1185 Q48.7375,52.1653 48.2375,52.1653 Q46.8313,52.1653 45.8,51.7122 Q44.7844,51.2591 44.1125,50.4466 Q43.4406,49.6341 43.1125,48.4935 Q42.7844,47.3372 42.7844,45.9466 Q42.7844,44.5716 43.1594,43.4153 Q43.5344,42.2591 44.2531,41.431 Q44.9719,40.6028 46.0344,40.1497 Q47.0969,39.681 48.4875,39.681 Q49.3938,39.681 50.3,39.9153 Q51.2063,40.1341 52.0344,40.5403 L51.2063,42.6341 Q50.5188,42.306 49.8313,42.0716 Q49.1438,41.8216 48.4875,41.8216 Z " fill="#000000"/><text fill="#000000" font-family="sans-serif" font-size="14" lengthAdjust="spacing" textLength="67" x="68.45" y="50.8401">GameData</text><line style="stroke:#181818;stroke-width:0.5;" x1="8" x2="164" y1="61.9935" y2="61.9935"/><ellipse cx="18" cy="75.6419" fill="none" rx="3" ry="3" style="stroke:#038048;stroke-width:1.0;"/><text fill="#000000" font-family="sans-serif" font-size="14" lengthAdjust="spacing" textLength="84" x="27" y="78.9886">name : string</text><ellipse cx="18" cy="91.9388" fill="none" rx="3" ry="3" style="stroke:#038048;stroke-width:1.0;"/><text fill="#000000" font-family="sans-serif" font-size="14" lengthAdjust="spacing" textLength="132" x="27" y="95.2854">currentScene : string</text><ellipse cx="18" cy="108.2356" fill="none" rx="3" ry="3" style="stroke:#038048;stroke-width:1.0;"/><text fill="#000000" font-family="sans-serif" font-size="14" lengthAdjust="spacing" textLength="84" x="27" y="111.5823">currency : int</text><line style="stroke:#181818;stroke-width:0.5;" x1="8" x2="164" y1="118.8841" y2="118.8841"/></g><!--class SerializedDictionary`2--><g id="elem_SerializedDictionary`2"><rect codeLine="6" fill="#F1F1F1" height="48" id="SerializedDictionary`2" rx="2.5" ry="2.5" style="stroke:#181818;stroke-width:0.5;" width="208" x="200" y="54.4935"/><ellipse cx="215" cy="70.4935" fill="#ADD1B2" rx="11" ry="11" style="stroke:#181818;stroke-width:1.0;"/><path d="M214.9375,66.3216 Q214.1875,66.3216 213.625,66.6185 Q213.0625,66.8997 212.6719,67.431 Q212.2813,67.9622 212.0781,68.7435 Q211.8906,69.5091 211.8906,70.4622 Q211.8906,71.431 212.0625,72.1966 Q212.25,72.9466 212.6094,73.4622 Q212.9844,73.9778 213.5625,74.2591 Q214.1406,74.5247 214.9375,74.5247 Q215.6719,74.5247 216.4063,74.3528 Q217.1563,74.181 218.0313,73.8841 L218.0313,76.0403 Q217.625,76.1966 217.2344,76.3216 Q216.8438,76.431 216.4375,76.5091 Q216.0313,76.5872 215.6094,76.6185 Q215.1875,76.6653 214.6875,76.6653 Q213.2813,76.6653 212.25,76.2122 Q211.2344,75.7591 210.5625,74.9466 Q209.8906,74.1341 209.5625,72.9935 Q209.2344,71.8372 209.2344,70.4466 Q209.2344,69.0716 209.6094,67.9153 Q209.9844,66.7591 210.7031,65.931 Q211.4219,65.1028 212.4844,64.6497 Q213.5469,64.181 214.9375,64.181 Q215.8438,64.181 216.75,64.4153 Q217.6563,64.6341 218.4844,65.0403 L217.6563,67.1341 Q216.9688,66.806 216.2813,66.5716 Q215.5938,66.3216 214.9375,66.3216 Z " fill="#000000"/><text fill="#000000" font-family="sans-serif" font-size="14" lengthAdjust="spacing" textLength="143" x="229" y="75.3401">SerializedDictionary`2</text><rect fill="#FFFFFF" height="15.9688" style="stroke:#181818;stroke-width:1.0;stroke-dasharray:2.0,2.0;" width="31" x="380" y="51.4935"/><text fill="#000000" font-family="sans-serif" font-size="12" font-style="italic" lengthAdjust="spacing" textLength="29" x="381" y="63.6321">T1,T2</text><line style="stroke:#181818;stroke-width:0.5;" x1="201" x2="407" y1="86.4935" y2="86.4935"/><line style="stroke:#181818;stroke-width:0.5;" x1="201" x2="407" y1="94.4935" y2="94.4935"/></g><!--link GameData to SerializedDictionary`2--><g id="link_GameData_SerializedDictionary`2"><path codeLine="8" d="M178.31,114.0135 C200.85,116.3235 223.39,113.9535 245.93,106.9235 " fill="none" id="GameData-SerializedDictionary`2" style="stroke:#181818;stroke-width:1.0;"/><polygon fill="none" points="165.2,112.1535,170.5725,116.9635,177.0789,113.8542,171.7063,109.0442,165.2,112.1535" style="stroke:#181818;stroke-width:1.0;"/><polygon fill="#181818" points="258.45,102.5435,248.6336,101.7447,253.7313,104.1969,251.2791,109.2946,258.45,102.5435" style="stroke:#181818;stroke-width:1.0;"/><line style="stroke:#181818;stroke-width:1.0;" x1="253.7313" x2="246.185" y1="104.1969" y2="106.8385"/><text fill="#000000" font-family="sans-serif" font-size="13" lengthAdjust="spacing" textLength="127" x="263.0497" y="122.7121">switches&lt;string,bool&gt;</text></g><!--link GameData to SerializedDictionary`2--><g id="link_GameData_SerializedDictionary`2"><path codeLine="9" d="M178.21,90.3335 C181.03,90.4235 183.86,90.5035 186.68,90.5435 " fill="none" id="GameData-SerializedDictionary`2-1" style="stroke:#181818;stroke-width:1.0;"/><polygon fill="none" points="165.2,89.7135,170.9996,93.9989,177.186,90.2936,171.3864,86.0082,165.2,89.7135" style="stroke:#181818;stroke-width:1.0;"/><polygon fill="#181818" points="199.9,90.5935,190.9133,86.5638,194.9,90.577,190.8868,94.5637,199.9,90.5935" style="stroke:#181818;stroke-width:1.0;"/><line style="stroke:#181818;stroke-width:1.0;" x1="194.9" x2="186.895" y1="90.577" y2="90.5485"/><text fill="#000000" font-family="sans-serif" font-size="13" lengthAdjust="spacing" textLength="144" x="171.7475" y="122.8745">fightArenas&lt;string,bool&gt;</text></g><!--link GameData to SerializedDictionary`2--><g id="link_GameData_SerializedDictionary`2"><path codeLine="10" d="M178.21,66.6535 C181.03,66.5635 183.86,66.4835 186.68,66.4435 " fill="none" id="GameData-SerializedDictionary`2-2" style="stroke:#181818;stroke-width:1.0;"/><polygon fill="none" points="165.2,67.2735,171.3864,70.9787,177.186,66.6933,170.9996,62.988,165.2,67.2735" style="stroke:#181818;stroke-width:1.0;"/><polygon fill="#181818" points="199.9,66.3935,190.8868,62.4232,194.9,66.41,190.9133,70.4231,199.9,66.3935" style="stroke:#181818;stroke-width:1.0;"/><line style="stroke:#181818;stroke-width:1.0;" x1="194.9" x2="186.895" y1="66.41" y2="66.4385"/><text fill="#000000" font-family="sans-serif" font-size="13" lengthAdjust="spacing" textLength="145" x="148.05" y="19.6328">collectTrials&lt;string,bool&gt;</text></g><!--link GameData to SerializedDictionary`2--><g id="link_GameData_SerializedDictionary`2"><path codeLine="11" d="M178.31,42.9735 C200.85,40.6635 223.39,43.0335 245.93,50.0635 " fill="none" id="GameData-SerializedDictionary`2-3" style="stroke:#181818;stroke-width:1.0;"/><polygon fill="none" points="165.2,44.8335,171.7063,47.9427,177.0789,43.1327,170.5725,40.0235,165.2,44.8335" style="stroke:#181818;stroke-width:1.0;"/><polygon fill="#181818" points="258.45,54.4435,251.2791,47.6923,253.7313,52.79,248.6336,55.2422,258.45,54.4435" style="stroke:#181818;stroke-width:1.0;"/><line style="stroke:#181818;stroke-width:1.0;" x1="253.7313" x2="246.185" y1="52.79" y2="50.1485"/><text fill="#000000" font-family="sans-serif" font-size="13" lengthAdjust="spacing" textLength="121" x="262.2809" y="43.4427">puzzles&lt;string,bool&gt;</text></g><!--SRC=[dO_F2i8m38VlVOhIg_FWZZ86mi07s1x06ECMgAsq6RB9tjtw1m_2G9RZb-Jx9MWXHhs72rKWeEzAfrffbu3UwYY1NVjXs8T0JceaDzF38N5seYQ5Bw-fAJ1O7kbKCGfx1s4uvAPeDbcJbobkKjzilowrYJSMx2WMRtrszDwMPbRqittcjfDTkWGM2j1RIoZDStQXujgFe_txWGS0]--></g></svg>