<?xml version="1.0" encoding="us-ascii" standalone="no"?><svg xmlns="http://www.w3.org/2000/svg" xmlns:xlink="http://www.w3.org/1999/xlink" contentStyleType="text/css" height="110px" preserveAspectRatio="none" style="width:419px;height:110px;background:#FFFFFF;" version="1.1" viewBox="0 0 419 110" width="419px" zoomAndPan="magnify"><defs/><g><!--class GameData--><g id="elem_GameData"><rect codeLine="1" fill="#F1F1F1" height="96.8906" id="GameData" rx="2.5" ry="2.5" style="stroke:#181818;stroke-width:0.5;" width="158" x="7" y="7"/><ellipse cx="48.55" cy="23" fill="#ADD1B2" rx="11" ry="11" style="stroke:#181818;stroke-width:1.0;"/><path d="M48.4875,18.8281 Q47.7375,18.8281 47.175,19.125 Q46.6125,19.4063 46.2219,19.9375 Q45.8313,20.4688 45.6281,21.25 Q45.4406,22.0156 45.4406,22.9688 Q45.4406,23.9375 45.6125,24.7031 Q45.8,25.4531 46.1594,25.9688 Q46.5344,26.4844 47.1125,26.7656 Q47.6906,27.0313 48.4875,27.0313 Q49.2219,27.0313 49.9563,26.8594 Q50.7063,26.6875 51.5813,26.3906 L51.5813,28.5469 Q51.175,28.7031 50.7844,28.8281 Q50.3938,28.9375 49.9875,29.0156 Q49.5813,29.0938 49.1594,29.125 Q48.7375,29.1719 48.2375,29.1719 Q46.8313,29.1719 45.8,28.7188 Q44.7844,28.2656 44.1125,27.4531 Q43.4406,26.6406 43.1125,25.5 Q42.7844,24.3438 42.7844,22.9531 Q42.7844,21.5781 43.1594,20.4219 Q43.5344,19.2656 44.2531,18.4375 Q44.9719,17.6094 46.0344,17.1563 Q47.0969,16.6875 48.4875,16.6875 Q49.3938,16.6875 50.3,16.9219 Q51.2063,17.1406 52.0344,17.5469 L51.2063,19.6406 Q50.5188,19.3125 49.8313,19.0781 Q49.1438,18.8281 48.4875,18.8281 Z " fill="#000000"/><text fill="#000000" font-family="sans-serif" font-size="14" lengthAdjust="spacing" textLength="67" x="68.45" y="27.8467">GameData</text><line style="stroke:#181818;stroke-width:0.5;" x1="8" x2="164" y1="39" y2="39"/><ellipse cx="18" cy="52.6484" fill="none" rx="3" ry="3" style="stroke:#038048;stroke-width:1.0;"/><text fill="#000000" font-family="sans-serif" font-size="14" lengthAdjust="spacing" textLength="84" x="27" y="55.9951">name : string</text><ellipse cx="18" cy="68.9453" fill="none" rx="3" ry="3" style="stroke:#038048;stroke-width:1.0;"/><text fill="#000000" font-family="sans-serif" font-size="14" lengthAdjust="spacing" textLength="132" x="27" y="72.292">currentScene : string</text><ellipse cx="18" cy="85.2422" fill="none" rx="3" ry="3" style="stroke:#038048;stroke-width:1.0;"/><text fill="#000000" font-family="sans-serif" font-size="14" lengthAdjust="spacing" textLength="84" x="27" y="88.5889">currency : int</text><line style="stroke:#181818;stroke-width:0.5;" x1="8" x2="164" y1="95.8906" y2="95.8906"/></g><!--class SerializedDictionary`2--><g id="elem_SerializedDictionary`2"><rect codeLine="6" fill="#F1F1F1" height="48" id="SerializedDictionary`2" rx="2.5" ry="2.5" style="stroke:#181818;stroke-width:0.5;" width="208" x="200" y="31.5"/><ellipse cx="215" cy="47.5" fill="#ADD1B2" rx="11" ry="11" style="stroke:#181818;stroke-width:1.0;"/><path d="M214.9375,43.3281 Q214.1875,43.3281 213.625,43.625 Q213.0625,43.9063 212.6719,44.4375 Q212.2813,44.9688 212.0781,45.75 Q211.8906,46.5156 211.8906,47.4688 Q211.8906,48.4375 212.0625,49.2031 Q212.25,49.9531 212.6094,50.4688 Q212.9844,50.9844 213.5625,51.2656 Q214.1406,51.5313 214.9375,51.5313 Q215.6719,51.5313 216.4063,51.3594 Q217.1563,51.1875 218.0313,50.8906 L218.0313,53.0469 Q217.625,53.2031 217.2344,53.3281 Q216.8438,53.4375 216.4375,53.5156 Q216.0313,53.5938 215.6094,53.625 Q215.1875,53.6719 214.6875,53.6719 Q213.2813,53.6719 212.25,53.2188 Q211.2344,52.7656 210.5625,51.9531 Q209.8906,51.1406 209.5625,50 Q209.2344,48.8438 209.2344,47.4531 Q209.2344,46.0781 209.6094,44.9219 Q209.9844,43.7656 210.7031,42.9375 Q211.4219,42.1094 212.4844,41.6563 Q213.5469,41.1875 214.9375,41.1875 Q215.8438,41.1875 216.75,41.4219 Q217.6563,41.6406 218.4844,42.0469 L217.6563,44.1406 Q216.9688,43.8125 216.2813,43.5781 Q215.5938,43.3281 214.9375,43.3281 Z " fill="#000000"/><text fill="#000000" font-family="sans-serif" font-size="14" lengthAdjust="spacing" textLength="143" x="229" y="52.3467">SerializedDictionary`2</text><rect fill="#FFFFFF" height="15.9688" style="stroke:#181818;stroke-width:1.0;stroke-dasharray:2.0,2.0;" width="31" x="380" y="28.5"/><text fill="#000000" font-family="sans-serif" font-size="12" font-style="italic" lengthAdjust="spacing" textLength="29" x="381" y="40.6387">T1,T2</text><line style="stroke:#181818;stroke-width:0.5;" x1="201" x2="407" y1="63.5" y2="63.5"/><line style="stroke:#181818;stroke-width:0.5;" x1="201" x2="407" y1="71.5" y2="71.5"/></g><!--link GameData to SerializedDictionary`2--><g id="link_GameData_SerializedDictionary`2"><path codeLine="8" d="M178.31,91.02 C200.85,93.33 223.39,90.96 245.93,83.93 " fill="none" id="GameData-SerializedDictionary`2" style="stroke:#181818;stroke-width:1.0;"/><polygon fill="none" points="165.2,89.16,170.5725,93.97,177.0789,90.8607,171.7063,86.0508,165.2,89.16" style="stroke:#181818;stroke-width:1.0;"/><polygon fill="#181818" points="258.45,79.55,248.6336,78.7513,253.7313,81.2035,251.2791,86.3012,258.45,79.55" style="stroke:#181818;stroke-width:1.0;"/><line style="stroke:#181818;stroke-width:1.0;" x1="253.7313" x2="246.185" y1="81.2035" y2="83.845"/><text fill="#000000" font-family="sans-serif" font-size="13" lengthAdjust="spacing" textLength="114" x="261.3841" y="99.7186">visited&lt;string,bool&gt;</text></g><!--link GameData to SerializedDictionary`2--><g id="link_GameData_SerializedDictionary`2"><path codeLine="9" d="M178.21,73.26 C181.03,73.4 183.86,73.51 186.68,73.58 " fill="none" id="GameData-SerializedDictionary`2-1" style="stroke:#181818;stroke-width:1.0;"/><polygon fill="none" points="165.2,72.33,170.8991,76.7482,177.1694,73.1868,171.4703,68.7686,165.2,72.33" style="stroke:#181818;stroke-width:1.0;"/><polygon fill="#181818" points="199.9,73.65,190.9221,69.6006,194.9001,73.6225,190.8782,77.6005,199.9,73.65" style="stroke:#181818;stroke-width:1.0;"/><line style="stroke:#181818;stroke-width:1.0;" x1="194.9001" x2="186.895" y1="73.6225" y2="73.58"/><text fill="#000000" font-family="sans-serif" font-size="13" lengthAdjust="spacing" textLength="127" x="139.9883" y="99.5115">switches&lt;string,bool&gt;</text></g><!--link GameData to SerializedDictionary`2--><g id="link_GameData_SerializedDictionary`2"><path codeLine="10" d="M178.21,55.5 C181.03,55.5 183.86,55.5 186.68,55.5 " fill="none" id="GameData-SerializedDictionary`2-2" style="stroke:#181818;stroke-width:1.0;"/><polygon fill="none" points="165.2,55.5,171.2,59.5,177.2,55.5,171.2,51.5,165.2,55.5" style="stroke:#181818;stroke-width:1.0;"/><polygon fill="#181818" points="199.9,55.5,190.9,51.5,194.9,55.5,190.9,59.5,199.9,55.5" style="stroke:#181818;stroke-width:1.0;"/><line style="stroke:#181818;stroke-width:1.0;" x1="194.9" x2="186.9" y1="55.5" y2="55.5"/><text fill="#000000" font-family="sans-serif" font-size="13" lengthAdjust="spacing" textLength="144" x="144.4922" y="20.145">fightArenas&lt;string,bool&gt;</text></g><!--link GameData to SerializedDictionary`2--><g id="link_GameData_SerializedDictionary`2"><path codeLine="11" d="M178.21,37.74 C181.03,37.6 183.86,37.49 186.68,37.42 " fill="none" id="GameData-SerializedDictionary`2-3" style="stroke:#181818;stroke-width:1.0;"/><polygon fill="none" points="165.2,38.67,171.4703,42.2314,177.1694,37.8132,170.8991,34.2518,165.2,38.67" style="stroke:#181818;stroke-width:1.0;"/><polygon fill="#181818" points="199.9,37.35,190.8782,33.3995,194.9001,37.3775,190.9221,41.3994,199.9,37.35" style="stroke:#181818;stroke-width:1.0;"/><line style="stroke:#181818;stroke-width:1.0;" x1="194.9001" x2="186.895" y1="37.3775" y2="37.42"/><text fill="#000000" font-family="sans-serif" font-size="13" lengthAdjust="spacing" textLength="145" x="182.915" y="20.6657">collectTrials&lt;string,bool&gt;</text></g><!--link GameData to SerializedDictionary`2--><g id="link_GameData_SerializedDictionary`2"><path codeLine="12" d="M178.31,19.98 C200.85,17.67 223.39,20.04 245.93,27.07 " fill="none" id="GameData-SerializedDictionary`2-4" style="stroke:#181818;stroke-width:1.0;"/><polygon fill="none" points="165.2,21.84,171.7063,24.9492,177.0789,20.1393,170.5725,17.03,165.2,21.84" style="stroke:#181818;stroke-width:1.0;"/><polygon fill="#181818" points="258.45,31.45,251.2791,24.6988,253.7313,29.7965,248.6336,32.2487,258.45,31.45" style="stroke:#181818;stroke-width:1.0;"/><line style="stroke:#181818;stroke-width:1.0;" x1="253.7313" x2="246.185" y1="29.7965" y2="27.155"/><text fill="#000000" font-family="sans-serif" font-size="13" lengthAdjust="spacing" textLength="121" x="262.2809" y="20.4492">puzzles&lt;string,bool&gt;</text></g><!--SRC=[dO_D2i8m48JlUOgGg_LWZr8AGi47Q1x0k5tRXPX8ibLQwRiRV_0W5AHxd9tvXW5hOfHxSyRAi95t8TEjf4k2tCh8WLpxqQ0F0HtNW6xc1qFIoR6O1BougiP0njA8JKN0v9q9mo5NXTvaEYzJtII-tNvTIdMbI8nDyQPdH-zjgMOvF-5u8uOEuxBqYTgETsc6MGW0Roq2wwTt8UBIZwFzUy03]--></g></svg>