<?xml version="1.0" encoding="us-ascii" standalone="no"?><svg xmlns="http://www.w3.org/2000/svg" xmlns:xlink="http://www.w3.org/1999/xlink" contentStyleType="text/css" height="235px" preserveAspectRatio="none" style="width:269px;height:235px;background:#FFFFFF;" version="1.1" viewBox="0 0 269 235" width="269px" zoomAndPan="magnify"><defs/><g><!--class JsonSerializer--><g id="elem_JsonSerializer"><rect codeLine="1" fill="#F1F1F1" height="113.1875" id="JsonSerializer" rx="2.5" ry="2.5" style="stroke:#181818;stroke-width:0.5;" width="255" x="7" y="115"/><ellipse cx="87.25" cy="131" fill="#ADD1B2" rx="11" ry="11" style="stroke:#181818;stroke-width:1.0;"/><path d="M87.1875,126.8281 Q86.4375,126.8281 85.875,127.125 Q85.3125,127.4063 84.9219,127.9375 Q84.5313,128.4688 84.3281,129.25 Q84.1406,130.0156 84.1406,130.9688 Q84.1406,131.9375 84.3125,132.7031 Q84.5,133.4531 84.8594,133.9688 Q85.2344,134.4844 85.8125,134.7656 Q86.3906,135.0313 87.1875,135.0313 Q87.9219,135.0313 88.6563,134.8594 Q89.4063,134.6875 90.2813,134.3906 L90.2813,136.5469 Q89.875,136.7031 89.4844,136.8281 Q89.0938,136.9375 88.6875,137.0156 Q88.2813,137.0938 87.8594,137.125 Q87.4375,137.1719 86.9375,137.1719 Q85.5313,137.1719 84.5,136.7188 Q83.4844,136.2656 82.8125,135.4531 Q82.1406,134.6406 81.8125,133.5 Q81.4844,132.3438 81.4844,130.9531 Q81.4844,129.5781 81.8594,128.4219 Q82.2344,127.2656 82.9531,126.4375 Q83.6719,125.6094 84.7344,125.1563 Q85.7969,124.6875 87.1875,124.6875 Q88.0938,124.6875 89,124.9219 Q89.9063,125.1406 90.7344,125.5469 L89.9063,127.6406 Q89.2188,127.3125 88.5313,127.0781 Q87.8438,126.8281 87.1875,126.8281 Z " fill="#000000"/><text fill="#000000" font-family="sans-serif" font-size="14" lengthAdjust="spacing" textLength="86" x="107.75" y="135.8467">JsonSerializer</text><line style="stroke:#181818;stroke-width:0.5;" x1="8" x2="261" y1="147" y2="147"/><line style="stroke:#181818;stroke-width:0.5;" x1="8" x2="261" y1="155" y2="155"/><ellipse cx="18" cy="168.6484" fill="#84BE84" rx="3" ry="3" style="stroke:#038048;stroke-width:1.0;"/><text fill="#000000" font-family="sans-serif" font-size="14" lengthAdjust="spacing" textLength="165" x="27" y="171.9951">JsonSerializer(pretty:bool)</text><ellipse cx="18" cy="184.9453" fill="#84BE84" rx="3" ry="3" style="stroke:#038048;stroke-width:1.0;"/><text fill="#000000" font-family="sans-serif" font-size="14" lengthAdjust="spacing" textLength="229" x="27" y="188.292">Serialize(writer:Stream, obj:T) : void</text><ellipse cx="18" cy="201.2422" fill="#84BE84" rx="3" ry="3" style="stroke:#038048;stroke-width:1.0;"/><text fill="#000000" font-family="sans-serif" font-size="14" lengthAdjust="spacing" textLength="191" x="27" y="204.5889">Deserialize(reader:Stream) : T</text><ellipse cx="18" cy="217.5391" fill="#84BE84" rx="3" ry="3" style="stroke:#038048;stroke-width:1.0;"/><text fill="#000000" font-family="sans-serif" font-size="14" lengthAdjust="spacing" text-decoration="underline" textLength="214" x="27" y="220.8857">SerializeString(data:string) : string</text></g><!--class ISerializer--><g id="elem_ISerializer"><rect fill="#F1F1F1" height="48" id="ISerializer" rx="2.5" ry="2.5" style="stroke:#181818;stroke-width:0.5;" width="97" x="86" y="7"/><ellipse cx="101" cy="23" fill="#ADD1B2" rx="11" ry="11" style="stroke:#181818;stroke-width:1.0;"/><path d="M100.9375,18.8281 Q100.1875,18.8281 99.625,19.125 Q99.0625,19.4063 98.6719,19.9375 Q98.2813,20.4688 98.0781,21.25 Q97.8906,22.0156 97.8906,22.9688 Q97.8906,23.9375 98.0625,24.7031 Q98.25,25.4531 98.6094,25.9688 Q98.9844,26.4844 99.5625,26.7656 Q100.1406,27.0313 100.9375,27.0313 Q101.6719,27.0313 102.4063,26.8594 Q103.1563,26.6875 104.0313,26.3906 L104.0313,28.5469 Q103.625,28.7031 103.2344,28.8281 Q102.8438,28.9375 102.4375,29.0156 Q102.0313,29.0938 101.6094,29.125 Q101.1875,29.1719 100.6875,29.1719 Q99.2813,29.1719 98.25,28.7188 Q97.2344,28.2656 96.5625,27.4531 Q95.8906,26.6406 95.5625,25.5 Q95.2344,24.3438 95.2344,22.9531 Q95.2344,21.5781 95.6094,20.4219 Q95.9844,19.2656 96.7031,18.4375 Q97.4219,17.6094 98.4844,17.1563 Q99.5469,16.6875 100.9375,16.6875 Q101.8438,16.6875 102.75,16.9219 Q103.6563,17.1406 104.4844,17.5469 L103.6563,19.6406 Q102.9688,19.3125 102.2813,19.0781 Q101.5938,18.8281 100.9375,18.8281 Z " fill="#000000"/><text fill="#000000" font-family="sans-serif" font-size="14" lengthAdjust="spacing" textLength="65" x="115" y="27.8467">ISerializer</text><line style="stroke:#181818;stroke-width:0.5;" x1="87" x2="182" y1="39" y2="39"/><line style="stroke:#181818;stroke-width:0.5;" x1="87" x2="182" y1="47" y2="47"/></g><!--reverse link ISerializer to JsonSerializer--><g id="link_ISerializer_JsonSerializer"><path codeLine="7" d="M134.5,75.3 C134.5,87.85 134.5,101.74 134.5,114.94 " fill="none" id="ISerializer-backto-JsonSerializer" style="stroke:#181818;stroke-width:1.0;"/><polygon fill="none" points="127.5,75.18,134.5,55.18,141.5,75.18,127.5,75.18" style="stroke:#181818;stroke-width:1.0;"/></g><!--SRC=[NSun3i8m30NGFQVms0fwWOYH1TRs0cvZeQ3G8Di2GUdTII4Ag9w-x2Vh3m55u2XnR8az1lyaXib0cirgNLsPL1-sZp7KMPHhTMUlnBPL9hni8VPdszLWuHQzotXFKdXIhl35THbDegX-c7-la_7ZgNAeQEMJ5_zDPZQ7l-AxLzEiMhy1]--></g></svg>